<svg width="289" height="363" viewBox="0 0 289 363" fill="none" xmlns="http://www.w3.org/2000/svg">
<path d="M197.507 0.00508373C190.542 0.446738 186.564 10.5064 184.605 12.9063C178.166 -0.842225 156.443 2.43234 153.271 16.9558C145.549 46.2969 142.489 80.9287 162.799 106.182C168.387 109.58 168.118 122.165 159.406 118.003C138.394 112.059 115.159 102.737 93.227 112.1C57.4066 124.642 26.4301 153.747 16.6017 191.083C9.55076 212.055 8.36526 234.42 7.48725 256.222C1.06573 265.788 -3.39144 278.167 3.38334 288.857C9.01345 299.659 22.2956 303.86 33.5587 301.771C47.3893 308.553 58.0278 321.532 74.1103 323.722C90.0959 327.278 107.113 326.061 122.03 333.57C136.019 336.174 150.558 333.748 164.312 335.089C167.174 328.605 163.899 319.479 160.844 315.655C172.906 323.14 184.89 332.661 199.972 331.804C208.233 333.243 219.539 334.246 224.538 325.812C234.992 328.951 251.825 321.317 245.91 308.44C238.856 290.933 211.924 296.937 206.486 278.974C203.496 270.327 207.036 259.674 217.014 258.412C239.262 245.68 255.18 221.563 259.878 196.989C282.929 202 299.145 167.347 281.508 151.953C274.285 134.763 273.249 110.529 252.961 102.248C243.43 97.2706 227.473 90.008 233.224 76.4062C237.27 60.2869 232.709 43.7247 224.21 30.0434C220.181 17.2509 213.635 -0.342931 197.507 0.00508373V0.00508373ZM200.282 9.35337C200.491 9.44351 200.706 9.52781 200.908 9.62421C200.706 9.52744 200.491 9.44373 200.282 9.35337ZM197.244 9.6344C198.117 10.1957 198.943 10.8127 199.703 11.488C199.891 11.6787 200.015 11.8061 200.077 11.8695C200.013 11.9953 199.949 12.1844 199.885 12.2467C198.545 14.3155 198.084 16.7688 198.437 19.6714C198.554 20.744 198.862 21.5659 199.045 22.1978C199.353 23.1458 199.352 23.2091 199.035 23.4588C196.119 26.0654 193.983 28.1107 192.318 29.7769C192.248 23.1134 192.979 16.5872 196.251 10.5314L197.244 9.6344ZM201.468 9.91689C201.723 10.0497 201.977 10.1833 202.221 10.3261C201.978 10.1826 201.722 10.0503 201.468 9.91689ZM202.614 10.5721C202.912 10.7581 203.206 10.948 203.488 11.1488C203.207 10.9475 202.911 10.7588 202.614 10.5721ZM203.692 11.3002C204.024 11.5431 204.345 11.7948 204.655 12.0574C204.345 11.7948 204.023 11.5437 203.692 11.3002ZM204.706 12.1011C208.44 15.2846 210.687 19.8508 212.537 24.7941C211.006 25.2915 210.309 25.5306 210.042 25.6284C208.019 26.3678 206.258 26.1644 204.632 24.7009C202.069 22.347 201.033 18.1771 202.257 14.9725C202.816 13.5876 203.63 12.6378 204.706 12.1011V12.1011ZM169.464 13.2106C169.488 13.2105 169.513 13.2106 169.538 13.2106C169.358 13.2106 169.179 13.2225 168.999 13.2352C169.154 13.224 169.308 13.2084 169.464 13.2076V13.2106ZM169.785 13.227C169.98 13.2345 170.175 13.2434 170.369 13.2665C170.175 13.2434 169.98 13.2345 169.785 13.227ZM168.761 13.2531C168.997 13.8889 169.183 14.5575 169.305 15.264C171.346 27.321 172.887 31.3064 173.927 34.9712L171.901 36.2774C168.937 30.4094 166.289 24.2298 161.544 20.662C162.749 15.943 165.653 13.5759 168.761 13.2531V13.2531ZM170.57 13.2986C170.771 13.3277 170.972 13.3612 171.172 13.4063C170.972 13.3608 170.771 13.328 170.57 13.2986ZM171.396 13.4646C171.599 13.5168 171.801 13.5747 172.002 13.6437C171.801 13.5744 171.599 13.5173 171.396 13.4646ZM172.139 13.6946C172.365 13.7771 172.589 13.8693 172.811 13.9728C172.589 13.8691 172.364 13.7774 172.139 13.6946ZM172.907 14.0194C173.139 14.1309 173.367 14.2535 173.592 14.3877C173.367 14.253 173.139 14.1315 172.907 14.0194ZM173.658 14.4285C173.897 14.5738 174.131 14.7312 174.361 14.9018C174.131 14.731 173.896 14.5741 173.658 14.4285ZM174.377 14.9134C174.614 15.0902 174.844 15.2807 175.069 15.4842C174.844 15.2808 174.613 15.0904 174.377 14.9134ZM175.083 15.4959C177.203 17.4184 178.766 20.506 178.974 24.6111C179.44 25.282 179.902 26.0822 180.361 26.9323C180.239 28.8862 180.308 30.9316 180.496 33.01C180.495 33.1991 180.556 33.4516 180.554 33.6406C179.862 33.572 179.294 33.6279 178.853 33.6257C178.538 33.6257 178.286 33.6182 178.096 33.6182C178.035 33.4286 177.975 33.1769 177.915 32.8611C177.332 30.0014 175.95 25.1531 175.083 15.4954L175.083 15.4959ZM161.537 20.687C161.437 21.0794 161.353 21.4911 161.276 21.9144C161.351 21.4891 161.437 21.0796 161.537 20.687ZM161.238 22.1037C161.161 22.5615 161.1 23.0391 161.054 23.5365C161.099 23.0392 161.162 22.5633 161.238 22.1037ZM160.838 24.5763C161.058 24.8029 161.271 25.0358 161.473 25.284C164.03 28.3312 165.332 30.7994 167.128 34.4705C164.243 32.9334 161.928 31.0869 160.119 28.9285C160.063 28.8622 160.013 28.7908 159.958 28.7232C160.246 27.335 160.537 25.9499 160.838 24.5763ZM212.548 24.8209C212.744 25.3474 212.933 25.8816 213.122 26.4153C212.933 25.8817 212.744 25.3475 212.548 24.8209ZM180.37 26.9483C180.797 27.7404 181.22 28.5935 181.64 29.5037C182.901 32.2356 184.123 35.3878 185.302 38.5462C184.123 35.3878 182.9 32.2248 181.64 29.5037C181.22 28.5972 180.797 27.7403 180.37 26.9483ZM213.448 27.3342C213.627 27.8497 213.805 28.3662 213.981 28.8849C213.805 28.3667 213.628 27.8492 213.448 27.3342ZM202.404 27.4609C203.593 28.4795 204.974 28.9951 206.294 29.3844C206.103 29.6349 205.912 29.8855 205.783 30.1997C204.954 31.4534 204.947 32.2095 204.442 32.3316C199.375 33.7183 195.515 36.7804 192.743 38.9205C192.813 39.9891 192.883 41.0574 192.946 42.124C192.762 39.0992 192.538 36.0639 192.409 33.0436C192.452 34.0467 192.504 35.0516 192.565 36.0577C197.262 31.4874 201.354 28.1668 202.404 27.4609V27.4609ZM159.937 28.8151C159.665 30.1267 159.397 31.4394 159.141 32.7611C159.396 31.438 159.665 30.1273 159.937 28.8151ZM214.137 29.3421C215.643 33.8034 217.109 38.3113 219.272 42.1851C218.294 42.7489 218.772 42.4769 217.707 43.0908C214.794 44.8312 212.717 44.6252 210.405 42.3365C208.28 40.3014 207.357 37.7727 207.633 34.8754C207.842 32.5448 208.925 31.1033 210.947 30.427C212.835 29.7819 212.784 29.8038 214.137 29.3421V29.3421ZM192.319 29.8431C192.33 30.8478 192.359 31.855 192.401 32.8644C192.359 31.8545 192.33 30.8478 192.319 29.8431ZM159.076 33.0916C161.552 35.4851 164.537 37.1862 167.784 38.8884C168.161 39.0807 168.599 39.2736 168.975 39.5292C168.337 40.4064 168.268 41.2256 167.821 41.9783C167.191 41.9097 166.562 41.7158 165.935 41.4585C163.778 40.7035 163.278 40.7459 158.075 38.7531C158.383 36.858 158.717 34.9701 159.076 33.0916V33.0916ZM204.158 36.1117C204.276 37.0582 204.332 37.8778 204.204 38.0658C204.014 38.2533 203.13 38.5613 202.119 38.8681C200.477 39.3585 198.835 39.7224 197.258 39.9616C199.351 38.2773 201.693 37.0364 204.158 36.1117ZM179.958 37.0407C181.961 37.0578 183.747 37.5839 185.323 38.6031C186.785 42.5199 188.175 46.3814 189.458 49.2954C188.375 53.137 185.891 55.5517 182 56.5351C181.432 56.6566 180.801 56.7154 180.297 56.7739C176.33 56.5514 173.448 54.6357 171.652 50.9015C168.493 44.5084 172.461 36.9775 179.958 37.0407V37.0407ZM158.019 39.0995C157.899 39.8472 157.78 40.5956 157.669 41.3449C157.779 40.5952 157.899 39.8474 158.019 39.0995ZM205.373 41.4162C206.055 42.7457 206.802 43.8237 208.49 45.3507C205.526 45.704 196.829 46.072 193.428 45.9172C193.429 45.791 193.065 44.0866 193.067 43.8975C195.086 43.5363 199.685 43.5749 205.057 41.5401C205.184 41.4775 205.31 41.4157 205.373 41.4162ZM220.163 43.6704C220.202 43.7308 220.24 43.792 220.279 43.8523C220.24 43.7919 220.202 43.7311 220.163 43.6704ZM157.293 44.0242C159.93 44.7446 162.98 45.5055 166.588 46.255C166.777 46.3199 167.029 46.3221 167.154 46.3861C167.274 47.1435 167.205 47.7724 167.388 48.4042C167.51 48.9726 167.571 49.2882 167.569 49.4773C165.396 49.6071 160.908 49.2215 156.632 50.2375C156.805 48.164 157.024 46.0918 157.293 44.0242ZM221.899 46.3263C225.203 52.0968 225.68 58.2413 225.239 64.49C224.975 68.2279 224.393 72.0022 223.871 75.7574C221.685 77.0257 219.686 78.579 217.896 80.663C214.142 84.9809 212.834 90.5801 215.694 95.1428C214.312 94.6269 212.867 94.2978 211.481 94.2866C213.024 90.5804 214.19 86.7456 215.106 82.7191C215.302 81.9013 215.31 81.0189 215.38 80.2C215.387 79.3176 214.763 78.5557 213.818 78.5473C213.251 78.5398 212.621 78.5383 211.99 78.6594C207.383 79.6292 203.278 80.7915 199.676 82.211C199.687 80.8243 199.446 79.4349 198.891 78.0435C201.398 79.6405 204.355 80.0446 207.828 79.1283C209.849 78.578 211.747 77.5214 213.715 75.836C216.951 73.0897 219.312 69.5168 220.988 64.9923C221.182 64.3637 221.44 63.6726 221.505 63.4212C222.574 63.6194 223.643 63.943 224.586 64.2031C224.841 64.2876 225.051 64.3862 225.239 64.49C225.331 63.1931 225.381 61.9007 225.376 60.6153C224.346 60.7327 223.261 60.5206 222.164 59.96C219.153 58.4849 217.472 56.012 217.123 52.6051C216.889 50.4599 217.659 48.8284 219.495 47.7722C219.51 47.7647 221.422 46.6123 221.899 46.3263ZM156.631 50.252C156.535 51.4102 156.458 52.5682 156.397 53.7264C156.458 52.5682 156.535 51.4101 156.631 50.252ZM193.576 50.2692C193.961 50.2557 194.355 50.296 194.777 50.3422C198.113 50.6854 204.539 50.8645 210.653 50.4747C211.598 50.4195 212.732 50.4299 213.739 50.5008C213.738 50.6898 213.674 50.8149 213.67 51.3191C213.449 55.0364 214.809 58.0742 217.244 60.679C217.494 60.9334 217.807 61.2512 218.12 61.5061C218.245 61.5702 218.37 61.6965 218.241 62.1366C217.528 64.4629 216.69 66.5358 215.541 68.3543C213.05 72.4305 209.752 75.1775 206.469 76.0324C203.502 76.7637 201.051 76.0496 199.179 73.8278C195.748 69.8278 191.077 63.2955 187.911 57.7217C188.545 57.2228 189.119 56.4082 189.563 56.0966C190.062 56.6681 190.625 57.1769 191.187 57.8119C194.556 61.6855 198.432 65.3117 204.098 65.7376C205.924 65.879 207.753 65.5783 209.586 64.9003C210.66 64.5312 211.173 63.5277 210.804 62.39C210.498 61.3158 209.878 60.2379 208.941 59.2215C205.322 55.0938 200.165 54.0421 194.316 52.8582C193.742 52.7489 193.416 52.6867 193.117 52.6268C193.157 51.855 193.183 51.0806 193.194 50.3027C193.321 50.2841 193.448 50.2737 193.576 50.2692L193.576 50.2692ZM190.341 51.1604C190.453 51.3791 190.563 51.5905 190.673 51.7893C190.563 51.59 190.453 51.3794 190.341 51.1604ZM164.012 52.8509C164.201 52.9142 164.327 52.918 164.768 52.9209C161.872 55.7692 159.173 58.0635 156.25 58.9726C156.251 57.2581 156.302 55.5418 156.391 53.8237C157.216 53.5695 158.032 53.4045 158.78 53.3112C160.483 53.0736 162.247 52.9623 164.012 52.851V52.8509ZM191.744 53.4333C191.767 53.4601 191.789 53.4848 191.811 53.5105C191.789 53.4851 191.767 53.4605 191.744 53.4333ZM169.171 53.7143C169.607 54.3483 170.977 56.1868 170.977 56.1868C170.849 56.4379 170.531 56.8132 170.277 57.0634C163.833 66.7797 161.009 72.9327 160.306 74.1875C159.727 75.2677 159.01 76.066 158.156 76.5987C158.352 77.4321 158.56 78.2637 158.791 79.0916C158.902 79.6478 159.034 80.1972 159.182 80.7399C159.036 80.1982 158.902 79.652 158.791 79.0974C157.288 73.7033 156.541 68.1877 156.321 62.6259C157.095 62.4469 157.87 62.2081 158.645 61.8833C162.628 60.2148 164.918 57.5866 169.171 53.7143V53.7143ZM192.149 53.8483C192.179 53.8751 192.209 53.9027 192.239 53.9269C192.209 53.9023 192.179 53.8748 192.149 53.8483ZM192.561 54.1366C192.589 54.1508 192.618 54.1717 192.646 54.1828C192.618 54.1709 192.589 54.1508 192.561 54.1366ZM192.735 54.2152C192.825 54.2451 192.914 54.2652 193.002 54.2689C192.914 54.2615 192.825 54.2451 192.735 54.2152ZM194.663 56.4548C197.808 57.0486 200.322 57.7629 202.582 58.7904C204.213 59.5606 205.589 60.6429 206.648 62.1016C203.936 62.4571 201.673 61.9974 199.416 60.5916C197.725 59.5058 196.161 58.1693 194.663 56.4548ZM174.608 58.9331C175.109 59.2525 175.613 59.3821 176.116 59.5126C176.556 59.5797 176.869 59.7092 177.12 59.8373C176.016 63.7362 174.921 66.7532 174.701 70.4074C174.341 75.8253 175.628 80.0596 178.81 83.7424C179.683 84.7584 180.433 85.5217 181.442 85.4039C182.451 85.2863 182.963 84.2814 183.603 83.026C187.322 75.3671 183.362 66.8244 181.586 60.695C181.525 60.4425 181.464 60.2533 181.465 60.1271C182.033 60.0682 181.59 60.2532 183.168 59.8883C183.421 59.8272 183.673 59.7659 183.862 59.7674C184.36 60.5281 187.639 67.6154 194.237 77.0632C195.794 79.2195 196.342 81.5577 195.944 83.8866C189.809 86.7347 185.179 90.3515 181.492 94.3547C177.901 94.2615 174.134 92.9689 170.817 90.2935C165.623 86.0894 164.472 80.5946 165.824 77.139C168.656 70.0398 172.372 62.6964 174.608 58.9331V58.9331ZM156.273 61.0255C156.285 61.5526 156.3 62.0789 156.321 62.6054C156.3 62.0791 156.284 61.5526 156.273 61.0255ZM179.284 64.7722C180.391 67.9333 181.432 71.472 181.716 75.1936C181.888 77.149 181.558 79.0371 180.851 80.67C177.797 76.7361 177.275 71.374 179.284 64.7722ZM161.911 77.9893C161.91 78.1152 161.845 78.24 161.844 78.4291C161.843 78.4924 161.402 78.5519 161.339 78.5514C161.529 78.3639 161.72 78.177 161.911 77.9893H161.911ZM223.405 79.4178C223.161 81.5388 222.975 83.649 222.937 85.7345C224.221 94.289 229.564 99.2613 236.013 103.321C236.545 103.811 237.051 104.274 237.663 104.846C237.663 104.846 236.455 106.096 236.01 106.596C230.245 102.892 226.047 100.273 220.48 95.4352C217.603 93.0156 216.934 90.1102 218.35 86.5921C218.928 85.2101 219.694 83.9564 220.838 82.7683C221.601 81.9345 222.417 81.1771 223.282 80.4851C223.319 80.1302 223.364 79.7734 223.405 79.4178V79.4178ZM159.198 80.7938C159.345 81.3295 159.506 81.859 159.683 82.3839C160.23 82.3175 160.884 82.2424 161.94 82.1436C162.001 82.3332 161.998 82.5852 162.059 82.8382C159.946 83.1891 160.296 83.0802 159.936 83.1207C160.137 83.6716 160.354 84.2162 160.585 84.756C160.036 83.4676 159.566 82.1498 159.198 80.7938V80.7938ZM211.517 82.4407C209.756 89.5488 207.626 95.5826 203.605 101.852C200.796 106.241 196.921 110.053 191.853 113.351C190.147 106.466 191.06 110.256 190.206 106.97C189.352 103.685 189.095 104.188 185.2 102.957C183.566 102.439 181.994 102.048 180.234 101.592L180.298 101.53C184.125 95.9526 188.569 91.8295 193.949 88.8491C198.949 86.0546 204.574 84.0215 211.076 82.5005C211.202 82.5005 211.391 82.4393 211.517 82.4408L211.517 82.4407ZM160.62 84.8374C160.85 85.3716 161.092 85.9012 161.346 86.4261C161.467 86.4074 161.594 86.3836 161.714 86.365C162.156 86.3054 162.598 86.2457 163.165 86.2513C163.413 86.7578 163.661 87.2011 163.909 87.7075C163.845 87.7701 163.655 87.8319 163.465 87.9565C163.148 88.0736 162.713 88.256 162.362 88.3963C162.599 88.8311 162.844 89.2632 163.092 89.6936C162.176 88.1104 161.333 86.4989 160.62 84.8374V84.8374ZM166.089 90.6255C166.402 90.8803 166.65 91.2598 167.901 92.4049C166.911 92.4765 165.958 92.6399 165.016 92.8374C166.222 94.7257 167.476 96.5922 168.692 98.4667C167.096 96.012 165.434 93.5713 163.912 91.0725C163.987 91.196 164.059 91.3208 164.134 91.4439C164.933 91.1064 165.925 90.6856 166.089 90.6255V90.6255ZM171.973 95.2196C172.537 95.4765 175.043 97.01 178.818 97.6091C178.5 97.9846 178.183 98.4226 177.928 98.7987C177.545 99.3628 177.226 99.7396 176.97 100.242C176.714 100.68 176.587 100.805 175.895 100.673C173.756 100.277 171.933 99.9465 170.36 99.6811C170.684 98.6753 171.006 97.733 171.392 96.7907C171.586 96.2251 171.717 95.6587 171.973 95.2196V95.2196ZM211.261 97.8828C214.096 97.9067 215.911 99.3084 217.789 100.648C227.246 107.409 233.147 109.981 233.835 110.491C233.835 110.617 233.901 110.176 233.312 112.818C232.872 112.689 232.432 112.497 231.992 112.367C224.515 109.909 217.107 106.82 209.893 110.668C209.513 110.916 209.134 111.166 208.754 111.415C208.373 111.727 208.117 112.165 208.051 112.606C207.918 113.424 208.417 114.059 209.042 114.631C211.541 117.048 214.553 118.586 218.012 119.246C224.239 120.433 230.117 118.023 233.527 117.107C233.589 117.233 233.528 117.107 234.45 119.825C234.133 120.075 233.627 120.26 233.184 120.508C228.5 123.053 223.188 125.467 217.056 127.937C213.769 129.233 210.622 128.954 207.614 127.037C203.227 124.353 200.49 120.233 199.464 114.803C199.282 113.982 199.163 113.099 199.171 112.279C203.677 108.283 207.12 103.395 209.812 97.9964C210.316 97.9375 210.757 97.88 211.261 97.8828V97.8828ZM168.903 98.7987C169.337 99.4711 169.771 100.143 170.188 100.82C169.771 100.143 169.338 99.4705 168.903 98.7987ZM171.661 103.316C171.673 103.337 171.687 103.358 171.699 103.38C176.092 104.19 180.743 105.258 185.107 106.608C186.237 106.996 186.616 106.809 186.86 107.757C188.258 113.82 190.772 122.162 191.538 135.974C191.536 136.162 191.535 136.351 191.533 136.477C181.898 136.27 181.453 136.33 175.593 136.847C179.342 132.846 179.341 133.035 181.509 129.902C182.594 128.272 183.308 125.63 181.998 124.106C181.562 123.535 180.622 122.896 178.858 122.944C176.4 123.05 173.553 124.538 171.654 125.657C165.513 129.198 161.132 133.26 156.434 137.507C155.736 138.131 153.577 140.13 153.514 140.192C153.327 139.938 153.202 139.812 152.952 139.557C156.501 135.853 160.273 131.908 163.597 127.634C169.077 127.287 173.731 124.924 175.829 118.557C176.153 112.906 174.284 107.994 171.661 103.316L171.661 103.316ZM238.446 104.78C238.717 104.938 238.993 105.092 239.267 105.248C238.993 105.092 238.717 104.938 238.446 104.78ZM241.266 106.381C246.531 109.284 251.987 112.065 256.293 115.936C256.095 117.561 255.499 119.157 254.415 120.556C252.313 123.312 249.026 124.481 245.377 123.883C241.729 123.222 239.099 121.31 237.551 118.145C236.064 115.17 236.341 112.209 238.255 109.325C239.076 108.125 240.105 107.133 241.266 106.381V106.381ZM216.769 112.402C217.195 112.391 217.628 112.402 218.069 112.438C221.657 112.721 221.531 112.719 228.631 114.985C221.812 116.819 216.839 116.337 213.02 113.405C212.958 113.342 212.833 113.276 212.77 113.213C212.897 113.15 213.023 113.153 213.15 113.091C214.287 112.675 215.493 112.436 216.769 112.402V112.402ZM195.809 114.899C196.106 116.982 196.72 119.003 197.648 120.965L198.082 121.852C196.628 122.407 195.174 122.962 193.595 123.39C193.358 121.623 193.059 119.793 192.635 117.772C192.514 117.141 192.578 117.014 193.085 116.703C194.034 116.144 194.922 115.522 195.809 114.899V114.899ZM256.467 116.097C256.848 116.446 257.221 116.801 257.583 117.168C257.222 116.801 256.848 116.446 256.467 116.097ZM257.852 117.45C258.207 117.82 258.551 118.2 258.884 118.59C258.552 118.199 258.206 117.821 257.852 117.45ZM116.174 117.588C116.501 117.588 116.828 117.596 117.155 117.6C116.828 117.593 116.501 117.59 116.174 117.588ZM115.058 117.588C115.164 117.588 115.269 117.588 115.375 117.588C114.909 117.596 114.444 117.603 113.978 117.618C114.338 117.606 114.698 117.594 115.058 117.588ZM115.64 117.588C115.675 117.588 115.711 117.589 115.746 117.588C116.018 118.753 116.063 120.09 115.868 121.718C115.324 126.504 114.026 130.969 112.351 135.43C111.707 137.127 111.062 138.823 110.165 140.581C109.852 140.389 108.848 139.939 108.723 139.812C108.661 139.685 108.792 139.119 108.86 138.552C109.525 134.398 110.189 130.18 112.064 124.46C113.1 121.191 113.731 121.133 115.459 117.87C115.541 117.79 115.594 117.687 115.64 117.588V117.588ZM117.875 117.615C118.195 117.624 118.515 117.637 118.834 117.651C118.515 117.637 118.195 117.624 117.875 117.615ZM113.508 117.63C112.94 117.65 112.372 117.68 111.804 117.717C112.372 117.68 112.939 117.651 113.508 117.63ZM119.389 117.679C120.724 117.75 122.056 117.862 123.385 118.016C120.057 125.13 117.127 134.368 115.388 141.317C115.127 142.387 114.994 143.395 114.858 144.528C114.297 143.893 113.734 143.32 113.109 142.685C113.366 142.12 113.622 141.555 113.879 140.99C117.799 131.883 119.69 124.272 119.425 118.344C119.419 118.122 119.407 117.9 119.389 117.679H119.389ZM111.548 117.735C111.267 118.212 110.973 118.686 110.661 119.154C109.641 120.595 106.389 125.295 103.148 128.608C102.841 127.66 102.345 126.71 102.414 125.954C102.484 125.135 103.248 124.134 103.698 123.066C104.338 121.564 104.841 120.03 105.227 118.472C107.324 118.124 109.433 117.879 111.548 117.735V117.735ZM124.114 118.107C124.364 118.139 124.614 118.171 124.864 118.206C124.614 118.171 124.364 118.139 124.114 118.107ZM125.809 118.347C126.078 118.389 126.347 118.434 126.616 118.479C126.347 118.434 126.078 118.389 125.809 118.347ZM127.125 118.568C128.313 118.779 129.496 119.022 130.672 119.302C129.289 123.947 126.763 129.549 123.119 136.026C121.456 138.911 120.116 141.106 118.651 142.984C120.987 133.44 123.71 125.589 127.125 118.568ZM104.436 118.611C104.188 118.656 103.94 118.699 103.692 118.746C103.94 118.699 104.188 118.655 104.436 118.611ZM102.87 118.911C102.548 118.976 102.227 119.043 101.906 119.113C102.227 119.043 102.548 118.976 102.87 118.911ZM259.222 118.995C259.504 119.341 259.777 119.697 260.041 120.06C259.777 119.696 259.504 119.342 259.222 118.995ZM101.478 119.209C101.473 119.228 101.468 119.246 101.462 119.264C101.374 119.323 101.082 119.351 100.688 119.39C100.951 119.327 101.215 119.269 101.478 119.209L101.478 119.209ZM130.851 119.343C131.448 119.487 132.041 119.643 132.635 119.805C132.042 119.643 131.447 119.487 130.851 119.343ZM133.387 120.017C133.834 120.146 134.28 120.279 134.725 120.418C134.28 120.279 133.834 120.146 133.387 120.017ZM260.242 120.341C260.547 120.774 260.838 121.221 261.116 121.68C260.839 121.221 260.547 120.774 260.242 120.341ZM135.333 120.607C135.957 120.809 136.579 121.021 137.199 121.243C136.579 121.021 135.957 120.809 135.333 120.607ZM258.443 120.967C258.983 121.102 259.917 121.414 261.202 121.823C261.637 122.554 262.049 123.308 262.407 124.111C262.813 124.869 263.186 125.64 263.531 126.421C262.42 125.811 261.298 125.216 260.176 124.638C259.424 124.19 257.228 123.1 257.103 123.036C257.103 123.036 257.997 121.593 258.443 120.967ZM94.3985 121.225C95.196 121.982 95.9448 122.786 96.6367 123.637C99.0062 126.557 100.117 129.34 99.9039 132.175C99.7593 134.38 98.6126 135.882 95.9557 137.184C86.9092 141.646 81.0805 145.568 78.4209 147.184C78.233 147.057 78.0451 146.929 77.7951 146.674C77.4828 146.357 77.3584 146.23 76.6062 145.782C76.4183 145.654 76.0429 145.4 75.9804 145.336C75.9819 145.147 76.4247 144.835 76.6789 144.585C77.5037 143.899 77.1229 144.211 79.3479 141.834C81.6364 139.395 83.3539 137.519 84.5768 134.44C85.7749 131.432 85.8281 128.415 84.7921 125.433C87.0207 124.312 89.2792 123.255 91.5694 122.271C92.5052 121.9 93.4494 121.553 94.3985 121.225V121.225ZM137.696 121.427C138.193 121.61 138.689 121.8 139.182 121.996C138.689 121.8 138.193 121.61 137.696 121.427ZM133.38 121.935C133.433 123.07 133.488 124.143 133.543 125.152H133.541C133.537 125.656 133.092 126.282 127.067 138.586C125.848 141.16 125.523 142.356 125.207 142.479C124.323 142.724 123.502 142.968 122.681 143.213C127.785 135.566 131.633 127.341 133.38 121.935H133.38ZM139.527 122.136C140.209 122.412 140.888 122.696 141.561 122.998C142.251 123.227 143.049 123.488 143.797 123.736C139.094 131.687 133.109 138.918 132.409 139.949C131.772 140.826 131.076 141.261 130.004 141.379L129.625 141.438C132.421 135.418 135.657 128.636 139.527 122.136V122.136ZM237.19 123.503L239.443 125.414C239.124 125.915 238.616 126.351 238.172 126.726C237.347 127.475 237.346 127.475 236.392 128.539C235.057 130.04 233.658 131.542 232.51 133.297C229.766 137.434 229.411 142.097 231.328 146.399C226.118 144.149 220.905 142.214 215.752 140.72C215.629 140.278 215.571 139.837 215.575 139.395C215.532 137 216.491 135.243 218.517 133.999C218.96 133.751 219.466 133.502 220.099 133.192C228.828 128.979 234.214 125.243 237.19 123.503V123.503ZM147.127 124.814C147.847 125.039 148.577 125.257 149.323 125.473C146.129 129.304 142.887 133.673 139.223 138.998C138.522 139.937 137.763 140.184 136.628 140.237C137.287 139.105 142.724 132.429 147.127 124.814V124.814ZM84.6684 125.492C84.271 125.693 83.879 125.905 83.4838 126.11C83.8794 125.905 84.2709 125.693 84.6684 125.492ZM200.882 125.971C201.381 126.543 202.567 127.876 202.567 127.876C202.306 129.009 201.603 130.137 201.089 131.33C200.252 133.403 199.48 135.351 198.897 137.237C198.645 137.172 198.331 137.106 198.079 137.103C198.92 134.464 199.7 131.696 200.416 128.866C200.613 127.922 200.747 126.979 200.882 125.971ZM253.865 125.971C254.877 127.328 258.581 137.828 267.75 140.792C267.75 140.792 267.75 140.792 267.751 140.792C268.634 144.592 269.561 148.366 271.017 151.924C268.814 152.168 266.551 152.003 264.36 151.337C261.155 150.364 258.967 148.455 257.794 145.609C254.52 137.828 252.25 130.685 251.335 127.021C252.283 126.651 253.548 126.095 253.865 125.971H253.865ZM179.144 126.418C179.079 126.67 178.692 127.802 178.118 128.553C174.995 132.876 172.074 135.561 167.442 139.43C162.811 143.3 157.804 146.787 153.368 149.839C153.37 149.587 153.38 148.452 153.38 148.452C153.511 147.886 153.454 147.319 153.458 146.752C153.472 145.176 153.41 144.86 155.378 143.111C157.473 141.238 165.797 132.861 173.773 128.39C174.912 127.769 176.114 127.086 177.44 126.718C177.819 126.659 178.767 126.352 179.144 126.418H179.144ZM153.023 126.456C155.059 126.939 157.119 127.322 159.137 127.524C156.796 130.384 153.723 133.702 148.866 138.449C148.294 139.012 147.787 139.259 147.094 139.253C145.582 139.303 144.133 139.354 143.124 139.409C146.452 134.807 149.641 130.486 153.023 126.456V126.456ZM263.713 126.85C263.815 127.09 263.918 127.329 264.015 127.57C263.918 127.329 263.815 127.09 263.713 126.85ZM243.777 127.024C244.217 127.091 246.23 127.424 246.796 127.492C246.858 127.618 246.855 127.87 247.582 131.343C249.398 140.183 251.798 146.949 252.163 148.402C252.952 152.001 250.856 154.126 248.642 155.242C243.94 152.429 239.173 149.931 234.34 147.684H234.404C243.505 144.294 243.644 135.28 243.689 129.859C243.699 128.726 243.707 127.78 243.777 127.024H243.777ZM81.6516 127.071C82.1298 128.39 82.1754 129.858 81.8292 131.518C81.1076 134.915 78.3088 138.106 75.4507 140.856C75.5349 136.461 75.8324 131.963 78.2419 128.969C79.3691 128.319 80.5065 127.687 81.6516 127.071V127.071ZM197.088 127.704C196.435 130.409 195.72 132.987 194.943 135.501C194.825 134.492 194.711 133.041 194.599 131.338C194.791 131.025 194.983 130.711 195.174 130.398C195.749 129.457 196.388 128.581 197.088 127.704V127.704ZM264.162 127.947C264.278 128.243 264.389 128.54 264.498 128.838C264.39 128.54 264.277 128.243 264.162 127.947ZM259.013 128.032C261.259 129.053 263.421 130.198 265.409 131.583C265.41 131.583 265.41 131.583 265.411 131.583C265.914 133.236 266.354 134.913 266.761 136.599C266.323 136.37 265.902 136.118 265.5 135.839C262.744 133.862 260.623 131.386 259.013 128.032H259.013ZM78.1124 129.042C77.6114 129.332 77.1161 129.632 76.6192 129.929C77.1166 129.633 77.6114 129.332 78.1124 129.042ZM264.656 129.297C264.921 130.046 265.171 130.8 265.404 131.561C265.172 130.8 264.919 130.046 264.656 129.297ZM106.981 129.655C105.741 134.751 105.593 137.46 105.268 138.591C105.016 138.591 104.765 138.524 104.577 138.459C104.646 137.766 105.032 136.761 105.313 133.297C105.526 130.462 105.644 131.283 106.981 129.655ZM240.226 129.706C240.11 136.008 239.369 141.675 234.183 144.027C233.502 142.571 233.39 140.995 233.785 139.044C234.443 135.709 237.558 132.331 240.226 129.706ZM205.51 129.98C205.635 130.044 206.828 130.684 206.953 130.748C206.951 131.001 206.882 131.568 206.815 132.072C206.482 134.275 206.088 136.289 205.693 138.303C204.561 138.104 203.491 137.905 202.422 137.707C203.196 135.508 204.096 133.309 205.062 130.922C205.19 130.608 205.318 130.293 205.51 129.98V129.98ZM75.2498 130.753C74.6047 131.149 73.9624 131.551 73.323 131.957C73.9626 131.551 74.6039 131.148 75.2498 130.753ZM210.407 131.976C210.596 131.976 210.911 132.045 211.1 132.108C210.965 133.116 210.508 135.065 210.429 136.956C210.422 137.775 210.29 138.531 209.969 139.222C209.717 139.157 209.402 139.09 209.151 139.025C209.742 136.193 210.276 132.542 210.407 131.976V131.976ZM215.195 132.079C215.004 132.267 214.749 132.516 214.559 132.704C214.69 132.138 214.564 132.2 215.195 132.079ZM72.9752 132.18C71.7899 136.537 72.1917 141.107 71.9012 143.473C70.8943 143.339 69.8238 143.204 68.8175 143.006C68.6942 142.69 68.5733 142.058 68.4536 141.301C68.0688 139.348 67.6891 137.619 67.3141 135.992C69.1707 134.674 71.0589 133.405 72.9752 132.18ZM266.863 137.024C267.125 138.121 267.385 139.217 267.639 140.315C267.383 139.218 267.126 138.12 266.863 137.024ZM65.7221 137.139C65.0748 137.612 64.432 138.091 63.7923 138.575C64.432 138.092 65.0746 137.612 65.7221 137.139ZM101.116 137.862C101.052 137.987 100.987 138.365 100.987 138.365C100.798 138.365 100.671 138.425 100.482 138.424C100.672 138.299 100.862 138.049 101.116 137.861V137.862ZM63.0501 139.14C63.562 140.788 64.0081 142.368 64.3381 143.788C64.0215 143.974 63.6431 144.097 63.2641 144.22C62.6325 144.404 62.188 144.778 61.8714 144.965C61.7475 144.711 61.5013 144.078 61.2529 143.635C60.8642 142.883 60.482 142.164 60.0974 141.46C61.0719 140.674 62.0563 139.901 63.0501 139.14ZM186.15 139.822C211.662 139.931 239.189 150.549 263.635 170.115C265.137 171.325 265.447 171.959 264.996 173.089C264.932 173.215 264.933 173.277 264.932 173.34C264.255 178.618 263.327 183.77 262.176 188.779C265.869 188.93 269.281 187.698 272.108 185.609C274.033 179.221 276.435 172.786 278.204 168.284C278.515 168.728 278.825 169.234 279.136 169.74C279.199 169.867 279.197 170.119 279.13 170.56C278.792 173.268 278.657 174.338 278.456 175.786C278.322 176.622 278.165 177.517 278.018 178.39C279.201 175.923 279.868 173.22 279.881 170.522C279.847 180.721 270.423 190.971 259.323 188.398C247.389 186.373 252.125 204.563 246.397 210.864C238.016 228.287 225.998 245.818 207.364 253.143C205.653 253.805 204.195 254.647 202.937 255.621C202.957 255.605 202.974 255.587 202.995 255.572C198.444 256.392 194.211 256.93 191.21 257.251C190.579 257.371 190.202 257.304 189.889 257.05C189.513 256.794 189.137 256.539 188.761 256.284C197.545 253.017 206.833 249.754 216.549 248.071C216.768 248.037 217.004 248.002 217.231 247.966C219.025 246.772 220.743 245.473 222.394 244.09C217.852 244.039 211.985 245.451 208.816 246.178C213.595 239.726 214.423 238.851 216.472 234.834C217.689 232.449 219.991 228.371 222.368 222.907C222.432 222.718 222.369 222.717 222.681 223.161C228.228 230.268 229.097 231.915 230.609 231.865C231.491 231.81 232.064 231.057 232.892 229.992C244.74 214.585 251.25 197.243 254.439 177.54C254.641 176.029 254.209 174.953 253.018 174.313C251.952 173.611 238.939 162.785 219.089 155.873C214.127 154.129 208.783 152.823 202.304 151.697C201.423 151.499 200.542 151.494 199.597 151.485C198.463 151.476 197.699 152.288 197.69 153.359C197.784 157.205 197.85 156.891 198.671 164.084C193.836 162.215 193.774 162.09 188.308 160.342C183.093 158.722 181.964 158.144 172.652 156.742C181.199 151.708 185.704 147.902 186.485 145.009C187.394 141.801 184.697 140.265 181.291 140.803C175.676 141.765 167.955 145.86 162.634 149.345C159.657 151.274 153.319 155.76 153.192 155.822C152.938 156.009 152.749 156.196 152.559 156.257C152.565 155.564 152.758 154.936 152.952 154.37C153.079 154.182 161.885 148.52 169.117 142.593C170.892 141.159 171.083 141.032 172.217 140.853C176.771 140.143 181.426 139.802 186.15 139.822L186.15 139.822ZM59.8281 141.675C59.1232 142.246 58.4241 142.824 57.7296 143.406C58.4242 142.823 59.1231 142.246 59.8281 141.675ZM102.269 141.846C104.274 141.785 106.252 142.358 108.25 143.596C112.574 146.28 115.312 150.464 116.274 155.893C117.479 162.459 114.336 169.113 108.834 171.651C105.291 173.323 102.08 173.044 98.9492 170.748C89.6822 163.988 84.5344 161.802 81.8394 160.14C81.9728 159.259 82.035 159.385 82.1654 158.882C82.2316 158.505 82.3621 158.065 82.4273 157.813C82.6787 157.879 83.1182 158.008 83.5581 158.138C90.9719 160.533 98.9447 163.877 106.352 159.527C107.935 158.595 108.009 157.335 106.822 156.127C104.074 153.267 100.623 151.6 96.7211 151.125C92.6302 150.65 89.4744 151.254 85.6857 152.293C84.6751 152.6 82.465 153.338 82.1493 153.398C82.0885 153.146 81.9043 152.514 81.72 151.945C81.5353 151.439 81.2241 150.932 81.1627 150.742C81.2273 150.554 82.0497 150.309 82.4928 150.061C87.1126 147.578 92.2341 145.225 98.6188 142.632C99.8514 142.146 101.065 141.882 102.269 141.846V141.846ZM149.125 142.724C149.533 142.724 149.9 142.734 150.215 142.753C150.125 153.341 148.022 163.787 144.797 172.774C144.411 173.716 144.15 174.723 143.702 175.539C143.702 175.539 142.636 175.025 142.071 174.768C137.238 172.584 132.39 172.292 127.652 173.828C122.851 175.363 119.424 178.36 117.372 182.693C115.769 186.02 115.613 189.359 116.846 192.584C114.466 190.988 111.635 190.586 108.478 191.316C106.206 191.801 104.119 192.918 102.088 194.666C97.5192 198.599 95.6519 203.311 94.6852 205.887C92.4503 201.96 89.1934 199.727 84.9129 199.313C84.2835 199.244 84.2225 199.055 83.7895 198.106C84.1055 197.982 84.5466 197.922 84.9886 197.8C89.3458 196.576 93.1433 194.527 96.1914 191.653C102.16 186.094 102.655 179.731 99.9824 175.359C102.87 176.582 105.893 176.607 108.927 175.435C114.362 173.401 117.924 169.332 119.424 163.357C120.531 159.017 120.128 154.664 118.211 150.298C117.964 149.792 117.715 149.285 117.53 148.779C124.229 146.314 130.102 144.6 138.364 143.535C141.4 143.119 146.268 142.718 149.125 142.723V142.724ZM57.1635 143.884C56.4664 144.475 55.7732 145.071 55.0868 145.674C55.7733 145.07 56.4662 144.475 57.1635 143.884ZM182.481 144.308C182.662 144.315 182.843 144.326 183.024 144.352C182.574 145.42 181.242 146.607 180.354 147.356C172.803 153.722 160.029 159.413 151.175 163.436C151.569 161.548 151.57 161.548 153.218 160.301C160.193 154.938 170.269 147.964 178.671 145.135C179.943 144.705 181.214 144.274 182.481 144.308V144.308ZM54.9093 145.831C55.9706 146.39 57.0873 146.975 58.5708 147.773C58.4433 147.961 58.2531 148.149 58.1254 148.337C57.6797 148.9 57.4846 149.593 57.2945 149.717C56.9795 149.717 56.2266 149.392 55.7242 149.199C54.4878 148.805 53.4007 148.483 52.3203 148.164C53.1742 147.377 54.0375 146.599 54.9093 145.831V145.831ZM144.268 146.402C144.077 146.394 143.884 146.402 143.695 146.417C138.653 146.626 133.92 147.595 130.315 149.266C127.659 150.505 125.628 152.315 124.222 154.762C122.494 157.899 122.595 160.862 124.65 163.779C125.583 165.111 126.77 166.382 128.209 167.529C131.338 170.014 134.863 170.358 138.473 168.056C144.237 164.385 145.687 156.771 146.376 149.78C146.376 149.718 146.377 149.718 146.379 149.528C146.389 148.331 146.395 147.575 145.77 146.939C145.395 146.559 144.841 146.423 144.268 146.404L144.268 146.402ZM68.5992 146.54C72.7557 146.701 75.8898 148.556 77.814 151.976C79.5518 155.079 79.3994 158.167 77.4211 161.176C75.3798 164.184 72.532 165.736 68.9397 165.895C66.0409 165.996 63.5952 164.778 61.7244 162.493C59.4799 159.701 58.7493 156.542 59.6593 153.209C60.7652 149.058 64.3795 146.378 68.5992 146.54V146.54ZM255.748 149.189C255.935 149.442 256.122 149.76 256.122 149.822C256.058 149.948 255.93 150.135 255.739 150.386H255.738C255.805 150.008 255.808 149.567 255.748 149.189H255.748ZM51.0688 149.331C50.4308 149.932 49.7985 150.538 49.1711 151.149C49.7985 150.538 50.4309 149.932 51.0688 149.331ZM142.593 150.061H142.782C142.781 150.25 142.778 150.566 142.713 150.881C142.371 154.03 142.034 156.674 140.684 159.941C139.719 162.328 138.445 164.019 136.672 165.139C134.328 166.632 132.564 166.554 130.436 164.897C129.309 164.068 128.311 162.988 127.439 161.72C126.257 160.008 126.206 158.432 127.292 156.613C128.188 155.045 129.269 153.919 130.661 153.112C134.144 151.061 139.127 150.219 142.593 150.06L142.593 150.061ZM48.1276 152.171C52.0552 152.928 54.964 153.678 55.8101 153.991C55.8041 154.684 55.6646 156.385 55.6646 156.385C55.2231 156.445 54.4689 156.123 53.713 156.117C51.3203 155.971 48.3608 155.882 45.5212 156.426C44.8139 156.563 44.1388 156.744 43.4911 156.957C45.0019 155.334 46.5469 153.737 48.1276 152.171V152.171ZM258.683 152.365C258.871 152.492 259.058 152.62 259.246 152.748C258.799 153.437 256.699 156.066 254.656 159.201C254.468 159.074 254.28 158.946 254.092 158.818C254.227 157.748 254.61 157.31 255.563 156.309C256.707 155.058 256.899 154.745 258.683 152.365V152.365ZM262.446 154.351C262.635 154.351 263.201 154.545 263.704 154.675C263.892 154.741 264.018 154.742 264.081 154.805C264.079 154.931 264.016 154.993 263.953 155.055C262.794 158.008 261.575 160.646 260.294 163.093C259.354 162.455 258.477 161.754 257.538 161.116C260.217 157.167 262.382 154.539 262.446 154.351V154.351ZM93.8688 154.488C95.2325 154.47 96.6365 154.616 98.0746 154.983C100.275 155.568 102.03 156.654 102.906 157.355C98.4176 159.208 92.697 157.648 87.4219 155.65C89.4355 154.997 91.5959 154.516 93.8688 154.488V154.488ZM201.268 155.096C205.797 155.828 209.697 156.617 215.289 158.303C215.352 158.303 215.541 158.368 215.666 158.432C215.726 158.811 215.716 160.072 215.767 161.522C215.979 166.188 216.516 169.723 217.299 173.953C212.412 170.76 208.084 168.58 203.379 166.208C203.191 166.144 202.939 166.016 202.688 165.888C202.562 165.823 202.501 165.696 202.439 165.506C201.84 161.782 201.429 158.375 201.268 155.096V155.096ZM270.25 155.36C267.702 158.616 265.656 162.128 263.798 165.768C263.61 165.641 263.36 165.45 263.173 165.323C265.797 160.428 267.086 156.845 267.665 155.463C267.665 155.463 269.683 155.353 270.25 155.358V155.36ZM271.666 159.219C270.813 163.183 269.836 167.02 268.607 170.854C268.489 169.908 267.991 169.148 267.115 168.447C266.927 168.32 266.74 168.128 266.552 168C268.472 164.424 270.261 161.476 271.155 160.034C271.284 159.72 271.474 159.469 271.666 159.219V159.219ZM50.0486 159.447C50.657 159.437 51.2595 159.458 51.8575 159.51C47.108 162.432 45.7139 163.493 42.2439 164.094C41.2973 164.276 40.4149 164.267 39.4716 164.071C40.3016 162.754 42.27 161.005 44.3541 160.392C46.3436 159.795 48.2233 159.479 50.0486 159.447V159.447ZM219.248 159.597C229.296 163.401 232.052 165.251 233.432 165.893C233.683 166.022 233.745 166.149 233.742 166.464C233.733 167.536 233.661 168.669 233.715 169.804C234.32 180.21 238.214 189.006 245.337 196.063C246.086 196.825 246.209 197.204 245.887 198.084C244.016 203.237 242.664 206.755 240.229 211.715C240.103 211.65 240.041 211.524 239.916 211.397C236.046 207.078 233.058 202.955 230.698 198.901C230.264 198.078 230.081 197.321 230.277 196.44C230.739 193.922 231.477 188.633 231.674 187.626C232.069 185.612 231.514 184.158 229.886 183.01C227.38 181.287 225.066 179.25 222.561 177.464C221.81 176.953 221.375 176.319 221.193 175.435C220.525 172.467 220.109 169.5 219.692 166.723C219.156 163 219.302 160.606 219.248 159.597V159.597ZM167.901 159.795C168.783 159.803 169.664 159.872 170.608 160.006C170.418 160.067 170.103 160.128 169.787 160.315C163.785 162.345 156.385 165.875 149.228 170.353C149.486 169.662 149.743 168.908 149.938 168.153C150.199 167.147 150.189 168.281 166.575 160.098C166.955 159.849 167.397 159.792 167.901 159.795V159.795ZM56.5727 160.679C56.5727 160.679 57.2539 162.071 57.5637 162.704C57.2461 163.017 56.9917 163.268 56.6745 163.517C49.7588 169.321 45.432 174.453 43.7792 176.204C43.7167 176.141 43.5914 176.077 43.5289 176.013C40.4415 173.442 37.2835 172.557 33.4772 173.056C34.5027 170.982 35.5874 168.938 36.7342 166.929C41.0096 168.68 45.6379 167.039 48.0243 165.839C50.8077 164.476 52.5822 163.23 56.5727 160.679V160.679ZM40.2065 161.254C39.9549 161.639 39.702 162.023 39.4556 162.41C39.7023 162.023 39.9546 161.639 40.2065 161.254ZM277.095 161.596C277.121 161.632 277.143 161.669 277.168 161.706C277.143 161.67 277.121 161.632 277.095 161.596ZM181.03 161.627C181.159 161.627 181.257 161.64 181.304 161.672C181.366 161.799 181.428 161.925 180.413 162.673C177.561 164.729 174.839 166.346 169.151 168.505C162.388 171.095 155.378 173.178 149.571 174.39C155.783 169.904 171.854 161.718 179.603 161.72C179.981 161.72 180.644 161.624 181.03 161.627V161.627ZM274.666 161.955C275.101 162.778 275.535 163.601 275.969 164.424C275.963 165.117 274.366 167.751 269.906 181.14C269.646 182.084 269.2 182.647 268.566 183.145C267.996 183.519 267.489 183.957 266.919 184.393C271.788 174.664 273.945 165.352 274.666 161.955V161.955ZM277.813 162.706C277.866 162.796 277.913 162.888 277.964 162.98C277.913 162.889 277.866 162.796 277.813 162.706ZM184.696 162.9C199.215 166.93 214.393 175 227.533 185.637C228.221 186.21 228.407 186.59 228.273 187.534C226.247 203.78 221.46 218.554 213.974 232.233C213.717 232.735 213.462 233.173 213.335 233.361C212.705 233.354 210.882 232.773 207.474 233.501C199.459 235.198 187.756 240.962 179.526 245.81C178.449 246.431 177.247 247.114 176.168 247.988C176.239 247.043 176.122 245.908 176.189 245.53C176.631 245.345 190.468 240.607 197.206 233.478C197.778 232.915 198.287 232.226 198.925 231.349C200.2 229.469 199.643 228.329 199.645 228.077C200.218 227.388 217.847 221.171 224.152 190.652C224.153 190.526 224.219 190.211 224.219 190.211C224.611 188.575 224.117 187.374 222.676 186.353C216.038 181.696 205.753 175.935 194.423 174.768C188.695 174.216 183.969 174.492 178.725 176.213C177.418 174.374 175.466 174.168 173.892 174.029C171.248 173.754 168.599 174.11 166.138 174.594C161.595 175.438 156.859 176.911 151.358 179.196C150.916 179.382 150.41 179.567 149.967 179.815C149.651 180.002 149.524 180 149.275 179.683C148.838 179.175 148.338 178.729 147.838 178.221C150.172 177.925 152.508 177.378 155.16 176.644C162.106 174.748 181.304 169.238 184.696 162.9V162.9ZM39.0423 163.07C38.748 163.54 38.456 164.012 38.1691 164.487C38.4562 164.012 38.7477 163.54 39.0423 163.07ZM278.405 163.821C278.476 163.969 278.539 164.119 278.605 164.268C278.539 164.119 278.476 163.969 278.405 163.821ZM79.7277 164.094C85.3068 167.418 90.5045 171.181 95.3212 175.256C102.515 181.368 94.6094 192.459 81.9267 194.81C81.8636 194.81 81.2335 194.868 81.1699 194.93C81.0451 194.803 80.9213 194.487 80.7974 194.234C79.1892 190.69 76.0614 188.142 72.1632 187.227C71.7856 187.161 72.6818 185.34 72.233 171.28C72.1792 170.208 72.1871 169.388 72.1908 168.947C72.8859 168.701 73.5171 168.518 74.2122 168.271C75.3746 172.378 75.7271 182.908 83.1928 186.627C85.1377 187.589 86.2767 187.031 86.8601 185.082C87.9607 181.561 87.674 178.155 86.0626 174.99C84.2665 171.319 82.0759 169.599 78.076 165.783L79.7277 164.094ZM278.888 164.956C278.955 165.13 279.017 165.305 279.076 165.481C279.017 165.305 278.954 165.13 278.888 164.956ZM37.7936 165.113C37.5041 165.599 37.2186 166.087 36.9365 166.578C37.2186 166.087 37.5039 165.599 37.7936 165.113ZM279.283 166.141C279.337 166.329 279.386 166.517 279.433 166.706C279.386 166.517 279.336 166.329 279.283 166.141ZM60.3695 166.201L61.9339 167.411C61.4887 167.911 57.0379 172.791 54.9151 178.005C54.8515 178.068 54.8511 178.131 54.8511 178.131C54.5356 178.191 51.5809 177.536 48.6079 178.961C52.1108 174.452 56.0519 170.199 60.3695 166.201H60.3695ZM279.565 167.306C279.608 167.517 279.649 167.728 279.683 167.941C279.649 167.728 279.608 167.517 279.565 167.306ZM237.132 168.005C241.272 170.12 246.783 174.075 250.101 176.498C250.79 176.945 250.913 177.324 250.781 178.08C249.722 184.122 248.673 188.904 247.377 193.242C240.632 186.188 237.244 177.146 237.132 168.005ZM279.756 168.481C279.784 168.712 279.813 168.942 279.831 169.174C279.813 168.942 279.784 168.712 279.756 168.481ZM65.7643 168.956C67.273 169.347 67.148 169.157 67.7769 169.289C67.896 170.11 67.5386 182.777 66.6825 187.182C66.6179 187.37 66.7449 187.244 65.0366 188.112C64.9895 186.221 64.3113 184.451 63.0647 182.864C62.6903 182.42 62.755 182.232 62.7576 181.916C64.5533 178.149 65.2838 173.679 65.6973 169.459C65.6988 169.27 65.7632 169.082 65.7642 168.956H65.7643ZM279.855 169.611C279.869 169.885 279.883 170.16 279.884 170.435C279.884 170.16 279.869 169.885 279.855 169.611ZM78.4107 170.891C80.5361 172.863 81.97 174.704 83.024 176.73C83.9541 178.503 84.1892 180.459 83.9175 182.789V182.851C82.1638 181.639 81.0436 179.99 80.304 178.03C79.4407 175.817 78.8924 173.542 78.4107 170.891V170.891ZM61.7608 173.146C61.4892 175.476 60.7749 177.992 59.8136 179.938C59.3117 179.681 58.8091 179.362 58.2448 179.042C59.0177 177.031 60.4866 174.837 61.7608 173.146ZM33.4016 173.206C33.2016 173.612 33.0065 174.02 32.8107 174.428C33.0062 174.02 33.2016 173.612 33.4016 173.206ZM32.3872 175.312C32.2583 175.586 32.1343 175.862 32.0074 176.137C32.1341 175.862 32.2586 175.586 32.3872 175.312ZM134.499 176.217C140.229 176.581 145.057 179.333 148.355 184.214C150.782 187.765 150.689 191.356 149.662 193.616C146.508 201.532 142.664 209.002 140.94 211.761C140.94 211.761 140 211.311 139.623 211.182C139.121 210.925 138.554 210.921 138.366 210.857C138.304 210.667 138.687 210.039 138.881 209.474C139.786 206.708 140.757 203.501 140.975 200.099C141.339 194.24 139.676 189.751 135.803 185.873C134.74 184.855 133.479 185.034 132.713 186.225C131.373 188.294 130.597 190.619 130.45 193.076C130.303 195.596 130.533 198.246 131.204 200.836C132.608 206.269 133.783 208.864 134.086 210.379C133.707 210.439 133.328 210.561 133.012 210.685C131.748 211.116 131.559 211.114 130.942 209.533C130.819 209.217 130.632 208.9 130.509 208.584C127.656 203.139 124.737 198.323 121.499 193.82C118.573 189.698 118.991 184.722 122.615 180.845C125.603 177.655 129.27 176.234 134.499 176.217V176.217ZM35.1159 176.417C37.4884 176.339 39.4795 177.074 41.1757 178.578C42.9264 180.168 43.4794 181.875 42.8304 184.139C41.5328 188.603 35.3604 210.928 35.3604 210.928C34.677 209.788 33.9298 208.773 33.2458 207.696C30.7568 204.019 30.0743 202.815 28.0199 199.898C27.5843 199.264 27.4008 198.57 27.4713 197.688C27.5891 196.072 28.0909 188.762 28.3619 184.868C29.3441 182.274 30.3928 179.707 31.5286 177.183C32.2453 176.844 33.0898 176.615 34.0754 176.5C34.4301 176.456 34.777 176.427 35.1159 176.417ZM172.242 177.414C173.07 177.43 173.917 177.535 174.931 177.756C169.487 180.925 168.538 181.359 162.794 182.634C157.996 183.792 152.763 184.441 152.511 184.376C152.511 184.376 152.511 184.313 152.448 184.249C152.2 183.806 152.016 183.363 151.767 182.92C151.957 182.796 152.021 182.796 152.59 182.548C158.153 180.2 162.89 178.727 167.559 177.947C169.53 177.609 170.861 177.388 172.242 177.414V177.414ZM189.205 177.933C190.388 177.925 191.594 177.979 192.821 178.096C202.012 178.93 210.927 182.472 220.009 188.789C220.636 189.173 220.697 189.425 220.565 190.117C217.21 206.92 208.915 219.583 197.782 224.91C192.532 227.45 184.902 228.205 179.166 228.598C179.615 227.656 180.063 226.778 180.511 225.963C180.638 225.837 181.08 225.715 181.333 225.654C191.942 222.718 199.204 213.072 202.946 202.703C203.526 201.132 204.107 199.433 204.5 197.672C204.763 196.287 204.332 195.276 203.078 194.509C197.813 191.313 192.852 189.253 187.821 188.265C184.299 187.543 180.838 187.135 177.244 187.546C168.29 188.479 167.254 191.685 165.373 190.598C164.809 190.278 164.117 190.21 163.677 190.017C167.487 186.519 171.227 183.777 175.215 181.541C179.381 179.169 184.078 177.966 189.205 177.933V177.933ZM52.9956 181.519C55.7673 181.542 58.5293 182.701 60.336 185.111C61.7695 186.951 61.9435 188.843 60.8556 190.851C57.1441 197.691 53.4944 204.532 49.9089 211.372C49.5881 212.063 49.1458 212.374 48.4507 212.62C47.4402 212.927 46.491 213.359 45.2898 213.854C42.1284 215.214 39.4651 217.335 37.4254 220.154C37.5626 218.832 36.9112 221.285 47.2879 186.01C48.1958 182.929 50.0983 181.432 52.9956 181.519ZM28.3372 184.931C27.9805 185.874 27.6398 186.825 27.3024 187.776C27.6401 186.825 27.9804 185.874 28.3372 184.931ZM162.702 186.163C162.575 186.288 161.434 187.224 160.99 187.598C160.926 187.724 160.672 187.785 160.294 187.782C156.449 188.001 154.555 188.425 153.736 188.42C153.675 188.23 153.614 187.978 153.616 187.789C153.931 187.729 154.373 187.669 154.815 187.61C156.959 187.313 159.231 186.89 162.702 186.163ZM26.9706 188.709C26.6473 189.64 26.335 190.575 26.0291 191.512C26.3353 190.575 26.6471 189.64 26.9706 188.709ZM134.762 189.837C137.507 193.138 137.967 198.374 137.18 202.087C136.917 203.345 136.655 204.541 136.33 205.736C135.162 202.259 134.182 198.909 133.898 195.188C133.787 193.422 134.054 191.659 134.762 189.837V189.837ZM69.9788 190.434C70.3059 190.452 70.6466 190.494 71.0004 190.56C74.5233 191.157 76.9003 193.195 78.0061 196.545C78.5593 198.188 78.3585 199.635 77.277 200.887C74.286 204.455 71.2316 207.959 68.2412 211.464C68.2419 211.338 68.2471 210.834 68.2471 210.834C68.2604 209.258 68.217 206.926 65.5083 206.904C63.9964 206.891 63.7425 207.14 55.7797 210.098C56.803 208.279 62.8809 197.236 64.865 193.534C66.0411 191.337 67.6889 190.304 69.9789 190.434H69.9788ZM181.121 190.985C181.31 190.985 181.623 190.985 181.938 190.993C183.954 191.01 184.457 191.204 186.595 191.6C185.127 193.92 184.428 194.733 179.838 201.06C179.52 201.436 179.331 201.561 178.764 201.493C177.695 201.358 177.255 201.228 177.066 201.164C177.07 200.785 177.454 199.97 177.647 199.467C179.188 195.951 180.865 191.426 181.121 190.987V190.985ZM177.213 191.077C176.374 193.465 175.473 195.728 174.511 197.8C173.887 197.101 174.075 197.165 173.262 196.402C172.387 195.575 172.199 195.448 172.594 193.435C172.661 192.994 172.792 192.49 172.796 191.986C174.312 191.557 175.637 191.19 177.213 191.077ZM154.211 192.018C154.02 192.205 153.83 192.456 153.639 192.644C153.64 192.455 153.704 192.329 153.706 192.14C153.706 192.14 153.769 192.078 153.958 192.079C154.084 192.079 154.147 192.079 154.211 192.018L154.211 192.018ZM190.242 192.447C190.809 192.515 194.893 193.811 199.031 196.178C198.082 196.611 187.716 200.747 184.302 202.168C183.733 202.415 183.418 202.539 183.103 202.537C185.907 198.715 188.073 195.771 189.924 192.95C190.116 192.573 190.242 192.447 190.242 192.447V192.447ZM25.7016 192.522C25.3943 193.485 25.0952 194.452 24.8052 195.421C25.0956 194.452 25.3938 193.485 25.7016 192.522ZM160.739 193.045C167.746 193.169 177.867 203.265 178.309 218.067C178.319 224.307 175.236 231.341 169.139 229.714C165.368 228.674 163.426 227.397 149.215 224.188C149.026 224.123 148.774 224.121 148.649 224.057C148.586 223.994 148.169 221.217 148.17 221.091C149.241 221.037 152.015 220.934 153.148 220.942C155.354 220.898 156.425 220.908 158.887 220.361C163.494 219.392 166.791 216.898 168.525 212.941C169.359 211.12 169.685 209.799 167.739 208.9C164.916 207.553 161.894 207.275 158.801 208.069C153.687 209.413 150.249 213.606 146.505 216.852C145.946 215.965 145.069 215.202 144.698 214.442C148.272 208.925 151.465 203.972 154.477 197.883C154.67 197.444 154.988 196.942 155.244 196.44C156.414 194.071 158.404 193.003 160.739 193.045V193.045ZM111.615 194.33C113.324 194.392 114.842 195.09 116.248 196.426C117.998 198.142 124.91 207.592 127.826 212.912C127.636 213.099 127.446 213.287 126.05 214.535C122.992 211.106 120.871 208.504 117.172 206.33C113.91 204.664 110.448 204.319 106.848 205.36C106.154 205.544 105.332 205.914 105.01 206.668C104.626 207.484 104.934 208.307 105.306 209.004C106.111 210.712 108.29 213.819 113.566 215.692C117.775 217.177 122.935 217.85 123.625 218.171C123.559 218.486 123.431 218.801 123.302 219.115C122.917 219.931 122.98 219.995 122.851 220.309C121.654 220.299 115.043 219.738 106.284 220.043C105.78 220.035 105.53 219.911 105.219 219.467C103.165 216.424 100.408 214.699 97.0093 214.292C96.3159 206.848 102.264 196.056 109.838 194.48C110.453 194.359 111.045 194.31 111.615 194.33V194.33ZM24.5781 196.187C24.2651 197.25 23.9591 198.315 23.6657 199.385C23.9591 198.315 24.2649 197.25 24.5781 196.187ZM200.263 199.466C199.293 202.547 198.135 205.311 196.727 207.947C196.663 208.072 196.663 208.135 196.411 208.07C188.173 206.362 185.654 206.214 184.459 205.952C184.586 205.827 184.84 205.703 185.283 205.518C185.283 205.518 198.873 200.022 200.263 199.466V199.466ZM23.6424 199.475C26.2661 203.43 30.2074 209.46 31.4515 211.339C33.3783 214.444 34.2309 217.856 33.8221 221.509C33.8206 221.698 33.8183 221.95 33.7537 222.138C32.6405 219.67 31.1482 217.452 29.7168 215.36C26.8534 211.238 24.6182 207.311 23.1825 205.723C22.8767 205.396 22.5526 205.151 22.2206 204.985C22.667 203.142 23.1412 201.305 23.6424 199.475V199.475ZM84.6495 202.628C85.363 202.652 86.1119 202.834 86.8965 203.175C90.0351 204.525 91.9057 206.874 92.5081 210.157C92.8077 211.988 92.2911 213.496 90.8956 214.619C90.3244 215.118 67.0551 232.761 66.7378 233.011C67.6537 228.984 67.6856 225.202 67.7842 220.979C67.8673 218.584 67.7987 219.152 69.7707 216.899C71.488 214.959 78.612 206.824 80.4568 204.697C81.6815 203.277 83.0799 202.573 84.6495 202.628V202.628ZM228.963 202.796C232.071 207.802 235.503 211.741 238.5 215.044C236.323 219.186 232.749 224.576 230.394 227.456C228.21 224.979 226.155 222.125 224.101 219.208C223.977 219.018 223.915 218.829 224.043 218.578C227.199 210.347 227.989 206.318 228.963 202.796H228.963ZM22.2104 205.027C21.9032 206.296 21.6102 207.568 21.327 208.841C21.61 207.568 21.9032 206.296 22.2104 205.027ZM178.986 205.087C179.552 205.155 180.118 205.347 180.684 205.479C180.428 205.981 180.171 206.483 179.789 206.984L178.986 205.087ZM110.424 208.282C112.07 208.221 114.429 208.655 117.2 210.617C118.64 211.701 119.889 212.909 121.013 214.116C118.245 213.589 115.417 212.87 112.844 211.651C111.213 210.881 109.961 209.8 109.027 208.468C109.406 208.377 109.876 208.302 110.424 208.282ZM21.2659 209.11C21.812 209.914 22.5113 210.952 28.4172 219.949C29.3499 221.407 30.0962 222.673 30.5885 224.064C31.5714 227.035 31.5487 229.745 30.4561 232.321C27.8843 238.476 26.3013 239.283 21.6268 248.258C21.3706 248.76 20.986 249.701 20.7959 249.826C20.5439 249.826 20.2368 248.814 19.9271 248.181C19.0299 246.385 18.2477 244.929 17.5185 243.614C17.443 236.883 17.1137 230.045 18.5198 223.632C19.2882 218.798 20.1981 213.944 21.2659 209.11ZM182.697 209.264C182.79 209.257 182.904 209.265 183.046 209.282C192.546 210.812 188.457 210.021 194.746 211.271C193.152 213.59 191.373 215.466 191.056 215.715C190.616 215.523 186.789 213.6 181.327 211.284C181.202 211.22 181.14 211.157 181.077 211.156C181.206 210.842 181.968 209.966 182.224 209.527C182.319 209.386 182.416 209.28 182.697 209.265V209.264ZM64.9115 210.492C64.9708 210.934 64.8999 211.752 64.83 212.571C64.3402 218.366 64.4816 224.104 63.868 229.646C63.3958 233.361 61.9195 236.5 59.4425 238.875C59.7034 237.805 59.714 236.67 59.8485 235.662C60.0487 234.34 59.997 232.954 60.0712 231.63C60.6003 221.171 60.7274 221.046 60.4277 219.216C60.2483 218.079 59.3731 217.252 57.9872 217.241C57.2312 217.234 56.4741 217.354 55.7155 217.663C39.2224 223.639 40.8666 222.897 39.0932 224.016C40.8846 220.754 43.2973 218.568 46.2692 217.269C51.4539 215.043 52.0203 215.11 59.035 212.522C59.8566 212.214 64.0909 210.674 64.9115 210.492V210.492ZM161.995 211.045C162.94 211.035 163.92 211.183 164.945 211.523C165.071 211.588 165.196 211.652 165.259 211.652C165.195 211.778 165.132 211.841 165.067 212.03C163.979 214.101 162.392 215.474 160.243 216.338C158.094 217.203 154.687 217.679 150.909 217.521C154.469 214.119 157.901 211.091 161.995 211.047V211.045ZM135.505 213.86C136.45 213.868 137.519 214.066 138.775 214.581C142.354 215.935 145.72 220.313 144.981 225.727C144.311 230.512 140.568 233.633 135.654 233.529C131.182 233.428 127.3 230.559 126.137 226.578C124.423 220.575 129.268 213.807 135.505 213.86V213.86ZM181.61 215.258C182.991 215.837 186.693 217.569 188.262 218.339C187.12 219.212 185.979 220.022 184.587 220.704C184.461 220.766 184.398 220.764 184.335 220.704C181.708 218.538 181.704 218.917 181.601 216.206C181.601 216.142 181.609 215.324 181.61 215.261L181.61 215.258ZM96.2598 217.794C97.9495 217.76 99.4295 218.669 100.368 219.425C102.182 220.953 103.298 222.917 103.718 225.442C104.137 228.093 103.048 230.228 100.645 231.342C97.2926 232.89 84.2645 238.957 81.039 240.443C79.2682 241.247 78.5864 239.981 72.5474 238.921C70.5347 238.525 68.3919 238.507 66.1834 238.93C94.9639 217.677 92.8724 219.236 93.0625 219.111C94.1572 218.175 95.246 217.814 96.2598 217.793V217.794ZM57.1373 220.827C57.1897 222.089 56.7048 227.315 56.7022 227.63C56.6127 230.781 56.5884 233.744 56.1855 236.704C55.1791 244.007 50.3102 246.046 42.9133 249.136C41.0801 249.877 36.0235 251.978 33.8076 253.283C33.554 253.47 32.9838 253.78 32.7947 253.778C32.6067 253.65 32.7386 253.022 32.8689 252.518C33.4571 250.002 34.0744 244.019 34.282 241.815C34.6902 238.225 34.6291 238.035 35.4142 234.575H35.4127C36.2624 230.926 38.1746 228.295 41.8437 226.498C44.8166 225.073 56.4428 221.011 57.1373 220.827H57.1373ZM121.679 224.711C121.868 224.711 122.057 224.777 122.309 224.78C122.43 225.474 122.487 226.043 122.608 226.674C117.247 227.322 111.765 227.591 106.442 231.265C106.189 231.452 105.935 231.577 105.745 231.638C106.767 230.071 107.286 228.31 107.24 226.292C107.24 226.292 107.246 225.536 107.249 225.221C111.41 224.814 107.692 224.845 121.679 224.711L121.679 224.711ZM147.854 228.651C150.431 229.429 152.944 230.206 155.394 231.047C158.786 232.21 162.113 233.688 165.441 234.977C169.46 236.586 171.765 239.569 172.296 243.923C173.18 251.179 170.737 256.958 164.97 261.07C160.977 263.936 156.752 264.468 152.293 262.791C148.902 261.502 146.906 259.026 146.368 255.554C144.453 243.625 142.052 236.923 141.748 235.66C142.507 235.225 143.267 234.728 143.711 234.416C143.835 234.606 143.897 234.796 144.021 235.049C144.392 235.872 144.082 235.175 146.003 238.974C147.676 242.329 148.73 244.355 151.037 247.211C153.469 250.194 156.603 252.112 159.811 252.706C161.069 252.906 162.021 252.156 162.094 250.896C162.383 246.549 160.718 242.186 157.472 238.629C154.351 235.198 150.775 233.403 146.699 231.163C146.699 231.163 147.533 229.405 147.854 228.651V228.651ZM195.852 229.497C195.341 230.375 194.58 231.189 193.501 232.125C187.98 236.807 181.404 239.714 175.589 241.934C175.344 241.175 175.159 240.544 175.099 240.291C175.226 240.166 175.542 239.98 175.858 239.793C179.091 237.488 182.452 234.868 188.147 231.954C190.741 230.589 191.37 230.657 195.852 229.497V229.497ZM124.149 230.72L125.208 232.179C123.362 234.496 117.648 239.743 114.796 241.736C114.493 240.284 114.125 238.957 113.506 237.628C118.188 235.335 119.9 234.025 124.149 230.72V230.72ZM118.417 230.732C116.515 232.103 114.298 233.534 111.77 234.459C111.328 234.582 111.265 234.58 111.014 234.45C110.576 234.005 110.075 233.622 109.699 233.366C112.484 231.814 115.894 231.086 118.417 230.729V230.732ZM181.029 231.832C179.762 232.64 177.608 234.008 173.488 236.999C173.363 236.809 173.239 236.619 173.115 236.429C173.242 236.304 173.558 236.118 173.748 235.993C178.817 232.506 178.38 232.061 179.074 231.941C179.074 231.941 180.588 231.829 181.029 231.832ZM170.101 233.496C170.133 233.485 170.438 233.545 171.187 233.512C170.806 233.825 170.679 233.887 170.303 233.632C170.162 233.536 170.082 233.503 170.101 233.496V233.496ZM128.774 235.172L130.782 236.134C130.526 236.574 130.207 236.95 129.889 237.388C128.613 239.206 127.083 241.462 125.804 243.783C124.78 245.666 124.007 247.739 123.609 250.068C123.279 251.893 123.514 253.787 124.252 255.874C124.807 257.391 125.874 257.841 127.455 257.098C129.796 255.983 131.701 254.171 133.106 251.85C135.791 247.271 135.403 241.027 135.176 238.062C135.179 237.621 135.12 237.243 135.122 236.991C136.822 237.069 137.201 236.882 137.516 236.947C137.639 237.263 137.82 238.21 138.063 239.284C139.28 244.4 140.115 249.891 140.63 256.073C140.86 258.722 139.898 260.858 137.679 262.541C136.284 263.601 134.577 264.217 132.496 264.451C127.957 264.917 123.555 263.935 119.103 261.376C118.163 260.864 119.235 260.62 117.817 256.952C116.338 253.032 113.514 251.81 113.077 251.365C113.078 251.239 113.142 251.114 113.333 250.8C113.909 249.733 114.608 249.109 116.766 247.173C124.384 240.241 124.769 239.55 128.774 235.172L128.774 235.172ZM105.034 235.283C106.424 235.272 107.64 235.877 108.85 237.148C111.161 239.563 111.892 242.407 111.172 245.615C110.713 247.755 109.443 249.005 107.423 249.429C104.078 250.157 94.9887 252.16 92.1486 252.766C92.4032 252.453 93.6772 250.825 94.0594 250.324C94.6968 249.447 95.5902 248.131 95.2862 246.805C95.1645 246.3 94.7924 245.602 93.7887 245.09C91.9688 244.255 89.6429 243.669 86.815 242.825C87.8266 242.393 102.308 235.958 102.308 235.958C103.304 235.518 104.2 235.289 105.034 235.283ZM148.609 236.286C151.369 237.759 153.623 239.48 155.369 241.575C157.054 243.48 158.106 245.758 158.587 248.472C158.649 248.536 158.649 248.599 158.648 248.662C156.074 247.631 153.449 245.025 151.524 241.668C150.594 239.958 149.602 238.059 148.609 236.286H148.609ZM210.439 236.498C210.761 236.491 211.103 236.512 211.481 236.563C210.586 238.131 207.166 240.183 205.584 241.052C198.369 244.962 186.748 248.521 179.935 249.598C188.736 244.251 196.39 240.533 204.098 237.95C205.236 237.519 206.497 237.277 207.697 236.972C208.691 236.744 209.473 236.514 210.439 236.499V236.498ZM31.1561 238.946C31.2201 238.821 31.0941 238.758 30.6758 243.545C30.4 246.379 29.8732 249.21 29.4708 252.107C29.3363 253.114 29.199 254.31 29.5669 255.511C30.0586 256.965 31.1875 257.669 32.639 257.366C33.4595 257.184 34.3427 257.001 35.1654 256.567C39.0896 254.394 43.4505 252.854 47.6241 250.999C46.4796 252.25 45.3341 253.564 44.1896 254.815C39.2283 260.446 35.3017 262.809 36.6017 265.531C37.5922 267.619 40.6174 267.518 46.2139 268.763C47.7231 269.091 52.7538 270.269 53.7596 270.529C52.5606 270.772 51.3617 271.013 50.1621 271.319C41.1983 273.449 39.1874 272.802 37.2843 274.362C36.2694 275.173 36.0084 276.242 36.5028 277.381C36.8119 278.076 37.1225 278.583 37.4967 279.027C38.1203 279.789 38.8065 280.551 39.6186 281.378C43.4289 285.255 44.923 287.474 47.2326 290.015C43.9066 288.474 43.7156 288.598 37.8809 285.712C34.9948 284.301 34.0549 283.727 32.7336 283.527C30.5955 283.131 29.391 284.067 29.1216 286.081C28.8651 287.914 29.1843 287.729 29.8143 292.55C29.8775 292.53 29.9401 292.515 30.0035 292.494C30.4372 292.458 30.8628 292.444 31.2841 292.442C30.8627 292.449 30.4365 292.464 30.0035 292.5C28.5156 292.988 27.071 293.242 25.6783 293.311C25.2173 292.451 24.7727 291.586 24.3584 290.71C23.9878 289.825 23.4268 289 22.8027 288.302C22.2103 287.572 21.4731 287.204 20.7173 287.189C19.9614 287.175 19.1871 287.515 18.5198 288.203C17.8845 288.828 17.4378 289.454 17.1169 290.145C17.0081 290.365 16.8927 290.582 16.7807 290.8C17.2024 291.085 17.639 291.348 18.0876 291.59C17.6389 291.348 17.2023 291.085 16.7807 290.8C14.8426 289.491 13.197 287.753 11.9332 285.745C11.7933 285.523 11.6649 285.293 11.5344 285.065C11.6637 285.293 11.7934 285.523 11.9332 285.745C11.8833 285.539 11.8245 285.33 11.7425 285.12C11.5618 284.67 11.2994 284.303 10.9814 284.025C7.84158 277.615 8.30568 269.287 14.6691 263.711C16.4742 259.628 17.1616 255.227 17.405 250.687C17.401 250.762 17.3991 250.838 17.3948 250.913C17.8302 251.666 18.2197 252.275 18.5664 252.646C20.003 254.108 21.6413 254.122 23.0399 252.621C24.6932 250.807 24.0671 250.359 31.1561 238.947V238.946ZM131.813 240.871C131.986 242.764 131.779 244.842 131.257 247.044C130.604 249.749 129.2 251.818 127.109 253.25C126.93 252.051 127.004 250.727 127.332 249.28C127.853 247.205 129.902 243.314 131.813 240.871ZM69.1274 242.193C73.933 242.243 79.7284 244.635 89.9264 247.451C90.4923 247.582 91.0579 247.714 91.4967 247.97C91.2415 248.346 80.3556 261.743 80.1003 262.119C77.7451 264.999 74.7688 266.865 71.2973 267.655C70.9817 267.715 70.6655 267.777 70.3499 267.837C73.0798 265.339 74.4837 263.208 79.067 257.573C81.0406 255.131 82.0585 253.941 82.762 252.686C83.6578 251.055 83.1687 249.35 80.2778 248.506C65.0696 244.028 65.007 243.965 62.8668 243.757C64.9631 242.632 66.9431 242.171 69.1274 242.193V242.193ZM205.044 245.333C204.089 246.585 203.133 247.775 200.985 248.45C184.816 253.42 185.627 254.5 184.311 253.669C183.747 253.286 183.119 252.965 182.618 252.645C189.496 251.317 196.318 249.168 203.4 246.075C204.032 245.829 204.601 245.581 205.044 245.333V245.333ZM61.3897 247.086C63.658 247.042 65.3541 247.624 78.8022 251.645C78.9277 251.645 79.0525 251.711 79.1776 251.775C78.7938 252.402 77.7087 253.784 69.8842 263.294C67.2103 266.612 63.2907 268.344 59.4512 267.933C56.6185 267.657 53.9772 267.131 51.5257 266.48C46.7492 265.116 42.4057 264.639 40.3316 264.054C42.24 261.864 43.8248 260.742 48.4696 255.297C50.315 253.106 52.2208 251.232 54.1874 249.609C56.0911 247.987 58.4279 247.187 61.3897 247.086V247.086ZM17.5185 247.233C17.5173 247.324 17.5142 247.416 17.5127 247.507C17.5141 247.415 17.5174 247.324 17.5185 247.233ZM175.119 252.894C175.37 253.022 175.682 253.214 175.997 253.343C183.461 256.695 190.395 261.158 196.803 266.614C196.273 269.852 196.373 273.339 196.871 276.804C185.909 285.795 177.256 288.941 175.627 289.9C175.31 290.087 174.93 290.336 174.805 290.272C174.617 290.144 174.561 289.324 174.314 288.692C172.65 284.328 170.032 280.965 166.523 278.729C161.448 275.408 156.036 274.669 150.41 276.954C147.312 278.252 145.089 280.377 143.804 283.329C143.199 280.424 141.455 278.076 138.508 276.35C136.69 275.326 134.679 274.679 132.287 274.47C128.069 274.056 123.779 274.776 119.668 276.632L118.403 277.19C118.096 276.305 117.983 274.916 116.049 272.631C115.113 271.551 115.12 270.606 116.074 269.542C117.346 268.103 118.053 266.47 118.507 264.961C118.821 265.09 119.196 265.346 119.572 265.538C124.028 267.593 128.558 268.386 133.098 267.92C139.151 267.215 143.026 263.34 143.942 259.313C145.178 262.16 147.24 264.32 150.127 265.605C155.525 268.046 160.945 267.651 166.328 264.418C170.76 261.745 173.377 257.733 175.119 252.894V252.894ZM109.637 254.068C110.995 254.115 112.135 254.762 113.164 255.906C116.973 260.035 115.513 268.659 109.654 268.673C91.8267 268.523 92.8354 268.467 92.5823 268.591C92.5823 268.591 79.2259 268.667 78.092 268.659C79.4223 267.787 81.3255 266.354 83.3631 263.786C84.5091 262.346 85.7799 260.907 86.9271 259.341C87.3739 258.651 87.9442 258.342 88.8277 258.16C90.5947 257.797 105.803 254.773 108.202 254.225C108.707 254.104 109.184 254.053 109.637 254.068V254.068ZM201.933 256.469C201.9 256.5 201.866 256.529 201.834 256.559C201.866 256.529 201.9 256.499 201.933 256.469ZM200.99 257.414C200.93 257.48 200.868 257.544 200.809 257.611C200.868 257.545 200.93 257.48 200.99 257.414ZM200.14 258.435C200.073 258.522 200.002 258.607 199.937 258.696C200.002 258.607 200.073 258.522 200.14 258.435ZM199.312 259.631C199 260.132 198.716 260.649 198.46 261.181C197.986 261.26 197.51 261.347 197.033 261.462C196.338 261.646 195.899 261.516 195.336 261.007C195.148 260.816 194.898 260.625 194.647 260.497C195.033 260.385 196.777 260.163 199.198 259.799C199.233 259.741 199.276 259.688 199.312 259.631V259.631ZM178.811 261.55C178.243 261.559 177.659 261.603 177.06 261.676C172.205 262.203 169.217 265.329 169.422 271.004C169.421 271.067 169.421 271.131 169.42 271.193C169.356 271.319 169.354 271.507 169.353 271.633C169.408 272.579 169.405 273.147 169.462 273.778C169.805 277.941 172.177 280.608 176.264 281.462C177.145 281.658 178.025 281.729 178.907 281.737C184.766 281.786 191.293 277.303 195.611 273.305C196.564 272.43 196.573 271.233 195.573 270.279C191.448 266.399 187.626 263.845 183.544 262.361C182.084 261.781 180.515 261.52 178.811 261.55H178.811ZM197.931 262.409C197.907 262.47 197.885 262.532 197.862 262.594C197.885 262.533 197.907 262.47 197.931 262.409ZM197.477 263.718C197.456 263.785 197.437 263.852 197.417 263.919C197.437 263.852 197.456 263.785 197.477 263.718ZM179.235 264.96C179.861 264.978 180.49 265.07 181.126 265.241C185.149 266.346 189.033 268.962 192.096 271.761C188.67 274.632 185.566 276.56 182.28 277.667C180.258 278.407 178.243 278.454 176.17 277.806C174.347 277.286 173.348 276.205 172.984 274.5C172.498 272.353 172.578 270.337 173.098 268.45C173.551 266.941 174.505 265.94 176.084 265.449C177.15 265.103 178.19 264.93 179.235 264.96V264.96ZM197.098 265.124C197.089 265.165 197.08 265.206 197.071 265.247C197.08 265.206 197.089 265.165 197.098 265.124ZM78.1182 273.008C85.6146 273.071 109.175 273.397 109.301 273.398C111.696 273.292 113.636 274.631 114.56 277.161C115.608 279.943 115.271 282.587 113.675 285.095C112.269 287.478 110.183 288.344 107.543 287.691C101.444 286.253 95.4067 284.942 88.7403 283.562C87.797 283.365 87.1705 282.981 86.6724 282.283C85.9874 281.332 85.2375 280.444 84.552 279.556C82.6812 277.271 81.188 275.051 78.1182 273.008V273.008ZM60.8032 273.226C64.3015 273.307 67.4471 275.091 70.1359 278.423C72.7542 281.723 78.8605 289.655 78.923 289.718C78.4804 289.903 78.0393 290.025 77.5972 290.148C75.3246 290.696 66.6712 293.334 63.3907 293.874C59.5422 294.535 56.2731 293.688 53.585 291.206C48.8943 287.133 48.282 285.111 41.8481 278.564C40.9106 277.674 40.4728 277.165 40.224 276.785C40.54 276.662 40.9186 276.602 41.4231 276.543C43.4416 276.245 48.6154 275.343 52.2141 274.428C54.9922 273.695 57.578 273.339 60.0988 273.234C60.3351 273.224 60.57 273.219 60.8032 273.225V273.226ZM70.4285 273.638C74.2039 274.174 77.5858 276.408 79.8922 279.327C89.3031 291.446 90.6759 293.16 91.111 293.857C90.795 293.98 90.4152 294.104 90.0996 294.164C89.1525 294.408 82.7109 296.244 74.755 298.384C69.7038 299.728 65.8009 299.506 62.4156 297.523C64.8116 297.291 67.0206 296.68 69.2308 296.068C78.8923 293.376 79.9646 293.196 81.4828 292.453C82.7475 291.896 83.2632 290.64 82.583 289.121C81.9642 287.792 81.4024 287.094 72.9257 276.243C72.1772 275.355 71.3665 274.466 70.4285 273.638V273.638ZM129.488 277.849C131.897 277.787 134.133 278.205 136.027 279.103C138.286 280.194 139.72 281.845 140.268 284.182C140.451 284.877 140.51 285.507 140.441 286.2C139.754 293.002 138.63 299.233 137.068 305.208C137.003 305.397 136.939 305.523 136.938 305.586C136.686 305.586 136.435 305.586 136.183 305.577C135.427 305.569 135.048 305.565 134.544 305.563C134.556 304.177 135.352 299.393 134.319 294.909C133.286 290.362 130.794 287.126 126.904 285.265C125.523 284.623 124.511 284.992 123.932 286.437C121.1 293.536 126.087 299.882 130.127 306.345C129.432 306.655 128.8 306.965 128.104 307.274C126.918 306.067 123.366 301.309 114.986 293.863C113.298 292.399 112.99 291.64 112.683 290.755C112.746 290.691 112.808 290.692 112.872 290.629C116.1 288.891 117.951 286.007 118.424 282.166C118.557 281.285 118.876 280.91 119.699 280.476C123.008 278.802 126.391 277.926 129.488 277.846V277.849ZM156.539 279.214C160.395 279.164 163.829 280.565 166.671 283.457C171.543 288.415 173.196 294.228 171.564 301.022C170.718 304.23 168.682 306.545 165.584 307.843C165.543 307.86 165.487 307.879 165.446 307.896C165.524 307.938 165.601 307.985 165.68 308.027C162.69 306.405 159.54 305.251 156.042 305.044C156.1 305.044 156.16 305.044 156.218 305.051C158.101 303.242 159.764 300.966 160.816 297.973C161.527 295.899 161.795 294.009 161.685 292.054C161.64 290.895 160.866 290.213 159.913 290.181C159.776 290.174 159.637 290.189 159.495 290.206C153.06 291.223 148.723 297.68 146.738 301.446C146.438 302.075 145.233 304.403 144.289 306.22C143.661 306.693 143.38 307.294 143.367 307.994C143.351 308.025 143.219 308.278 143.216 308.284C142.966 308.092 141.212 306.817 141.212 306.817C141.346 305.936 141.793 305.119 142.053 304.176C145.878 291.412 145.587 288.511 146.428 285.934C147.721 282.036 150.447 279.853 154.861 279.323C155.429 279.257 155.988 279.219 156.539 279.212V279.214ZM196.104 282.066C196.599 282.118 197.261 282.221 197.998 282.345C198.117 282.814 198.236 283.281 198.366 283.742C196.172 283.404 195.046 283.297 194.458 283.062C194.903 282.625 195.789 282.064 196.104 282.066ZM10.9814 284.026C11.1148 284.299 11.2554 284.566 11.4005 284.831C11.2543 284.567 11.1148 284.299 10.9814 284.026ZM190.124 286.136C190.274 286.129 190.462 286.147 190.714 286.182C193.887 286.582 196.804 287.019 199.546 287.491C199.932 288.603 200.329 289.689 200.741 290.704C201.079 291.132 201.437 291.537 201.805 291.928C196.705 290.241 191.867 288.412 188.439 287.044C188.882 286.795 189.326 286.484 189.769 286.236C189.864 286.174 189.975 286.143 190.124 286.137V286.136ZM32.6404 287.119C33.3943 287.378 34.0846 287.698 34.7113 288.082C46.126 294.166 54.3748 294.615 55.6806 304.144C55.7768 304.862 55.8476 305.589 55.9018 306.322C57.0566 307.169 58.2372 307.965 59.4556 308.683C59.3203 304.737 59.2111 304.089 58.7847 302.152C61.0011 304.348 62.4844 307.203 62.957 310.446C64.1638 310.949 65.4152 311.354 66.7189 311.642C66.5947 310.452 66.4147 309.326 66.1674 308.266C66.5982 308.611 69.9568 311.271 74.3068 314.705C77.6324 315.741 81.0632 316.348 84.5389 316.773C80.4932 313.679 75.6675 309.982 65.7759 302.401C69.5508 303 72.4522 302.647 76.2409 301.607C79.7141 300.628 79.2117 300.434 81.282 301.46C81.6583 301.653 99.8545 310.378 99.917 310.442C102.301 311.659 103.417 313.812 102.954 316.393C102.838 317.141 102.639 317.845 102.378 318.515C102.464 318.526 102.55 318.54 102.637 318.552C90.7768 316.879 78.2361 317.822 67.4277 311.8C53.8907 309.314 46.1589 293.769 33.1454 292.527C33.1789 292.527 33.2139 292.527 33.2473 292.535C33.169 291.9 33.0896 291.263 32.9897 290.591C32.8109 289.392 32.6918 288.508 32.6404 287.121V287.119ZM91.7819 288.946C96.9374 290.188 102.094 291.365 107.186 292.606C109.009 293.062 110.196 294.27 110.683 296.229C111.72 300.335 109.736 303.973 107.391 305.655C105.68 306.902 104.103 307.079 102.408 306.308C102.408 306.308 87.536 299.374 86.2809 298.796C91.4581 297.453 94.2353 296.909 94.8176 295.085C95.3343 293.577 94.2757 292.056 91.7819 288.946V288.946ZM126.745 289.114C128.812 290.581 130.243 292.674 130.851 295.39C131.335 297.663 131.507 299.744 131.302 301.634C129.933 299.605 128.565 297.45 127.578 295.046C126.652 292.769 126.415 290.939 126.745 289.114V289.114ZM185.008 289.459C185.898 289.539 186.994 290.368 188.093 290.764C189.474 291.28 197.891 294.313 200.717 295.282C202.98 295.994 203.412 296.944 204.347 298.149C198.26 295.261 190.598 292.55 182.046 290.65C182.869 290.216 183.755 289.593 184.638 289.474C184.756 289.451 184.88 289.446 185.008 289.457V289.459ZM20.451 290.741C20.7029 290.741 21.01 291.754 21.3198 292.387C21.422 292.591 21.5054 292.74 21.605 292.936C20.9224 292.774 20.2609 292.563 19.62 292.307C19.1386 292.115 18.6714 291.898 18.2156 291.658C18.6711 291.898 19.1387 292.115 19.62 292.307C19.9387 291.805 20.2611 290.865 20.451 290.741ZM31.6538 292.438C31.7514 292.438 31.8448 292.452 31.9419 292.455C31.7872 292.448 31.6354 292.439 31.4791 292.44C31.537 292.44 31.5961 292.44 31.6538 292.44V292.438ZM21.6239 292.941C22.2137 293.08 22.8198 293.179 23.4372 293.243C22.8193 293.179 22.2137 293.08 21.6239 292.941ZM23.638 293.267C23.9132 293.292 24.1916 293.306 24.4719 293.315C24.1915 293.306 23.9134 293.292 23.638 293.267ZM25.6711 293.311C25.3983 293.324 25.1304 293.323 24.8619 293.321C25.1301 293.321 25.3985 293.321 25.6711 293.311ZM179.499 293.719C184.155 294.451 188.932 295.942 193.015 297.363C198.103 299.108 201.868 300.778 205.254 302.761C207.197 303.849 209.454 305.317 210.887 307.157C209.815 307.274 208.745 307.14 207.675 306.941C205.349 306.418 202.899 305.64 200.262 304.546C191.975 301.135 182.82 295.953 179.499 293.719V293.719ZM158.201 294.231C157.602 298.008 155.814 300.956 152.578 303.639C151.952 304.138 151.268 304.619 150.557 305.076C151.145 305.087 151.771 305.114 152.446 305.158C152.855 305.106 153.258 305.074 153.658 305.049C153.258 305.075 152.855 305.107 152.446 305.159C150.934 305.061 149.661 305.053 148.569 305.114C148.652 305.106 148.717 305.097 148.803 305.094C151.175 300.503 153.841 296.139 158.201 294.231V294.231ZM175.583 295.067C176.146 295.576 176.959 296.214 178.275 296.982C185.984 301.774 193.072 305.363 199.98 308.069C205.569 310.195 209.657 311.05 212.182 310.441C212.245 310.441 212.435 310.379 212.561 310.381C213.139 311.388 214.259 313.598 215.446 316.087C215.463 316.073 215.488 316.063 215.506 316.05C215.016 316.404 215.215 317.12 216.439 318.419C218.731 322.781 214.648 323.911 208.991 323.815C209.208 323.822 209.43 323.827 209.643 323.827C206.723 320.531 203.21 317.616 198.973 315.435H198.91C199.364 313.863 198.62 312.533 197.872 311.581C195.068 307.964 191.371 305.476 188.425 303.686C180.652 299.019 175.623 297.779 175.625 297.464C175.632 296.707 175.576 295.887 175.583 295.067L175.583 295.067ZM208.321 297.675C209.933 298.101 211.505 298.483 213.063 298.824C222.534 302.523 233.368 304.43 238.14 313.72C237.726 315.62 236.19 316.582 234.105 317C233.209 317.18 232.214 317.259 231.158 317.265C230.812 317.265 230.46 317.265 230.103 317.251C230.46 317.262 230.812 317.268 231.158 317.265C232.213 317.258 233.209 317.18 234.105 317C233.361 315.931 232.6 314.871 231.81 313.826C231.623 313.509 231.312 313.13 230.937 312.811C230.593 312.493 230.168 312.331 229.743 312.328C229.318 312.328 228.892 312.478 228.543 312.791C227.66 313.573 226.284 315.153 224.971 316.757C225.587 316.842 226.207 316.919 226.827 316.99C226.203 316.919 225.589 316.842 224.971 316.757C222.603 316.43 220.37 316.056 218.623 315.873C218.789 315.891 218.938 315.9 219.112 315.922C217.948 313.462 216.736 311.009 215.474 308.579C213.428 304.716 210.749 301.162 208.321 297.675V297.675ZM114.365 300.357C117.183 302.398 122.371 307.233 124.679 310.026C124.488 310.276 123.533 311.466 123.533 311.466C118.963 308.023 117.087 306.368 112.945 304.505C113.586 303.187 114.037 301.867 114.365 300.357ZM175.027 301.247H175.09C182.625 304.21 187.954 307.218 192.332 310.973C193.646 312.056 194.521 313.009 195.142 314.023C194.765 313.956 194.2 313.762 193.635 313.568C190.492 312.659 190.175 312.845 187.917 311.629C183.84 309.514 179.704 306.833 175.26 303.391C175.01 303.2 174.635 302.882 174.572 302.882C174.573 302.693 174.963 301.435 175.027 301.247V301.247ZM154.367 305.012C154.496 305.012 154.623 305.013 154.752 305.012C154.537 305.012 154.321 305.02 154.103 305.026C154.191 305.026 154.28 305.014 154.367 305.012ZM147.332 305.217C146.968 305.264 146.64 305.323 146.332 305.391C146.639 305.324 146.97 305.264 147.332 305.217ZM146.122 305.437C145.84 305.506 145.586 305.585 145.351 305.672C145.585 305.585 145.841 305.506 146.122 305.437ZM145.061 305.784C145.042 305.792 145.022 305.8 145.003 305.809C145.022 305.8 145.042 305.792 145.061 305.784ZM144.663 305.982C144.645 305.992 144.627 306.001 144.61 306.011C144.627 306.001 144.645 305.992 144.663 305.982ZM172.907 306.145L180.486 311.314C179.856 311.307 179.164 311.24 178.535 311.172C177.716 311.102 178.097 310.601 172.587 306.646C172.651 306.458 172.78 306.27 172.907 306.145V306.145ZM110.715 307.512C112.851 308.287 114.92 309.312 117.737 311.479C114.842 311.076 111.95 310.358 109.129 308.759C109.7 308.322 110.208 307.886 110.715 307.512ZM143.394 308.392C143.406 308.501 143.428 308.615 143.452 308.728C143.428 308.614 143.406 308.502 143.394 308.392ZM166.619 308.555C166.742 308.627 166.866 308.696 166.988 308.769C166.866 308.696 166.742 308.626 166.619 308.555ZM134.78 308.957C140.512 308.803 144.794 313.443 144.196 319.008C143.892 321.941 142.799 324.245 140.87 326.001C142.393 325.978 143.916 325.952 145.437 325.921C145.489 325.82 145.525 325.735 145.526 325.702C145.582 325.703 145.68 325.797 145.783 325.913C146.016 325.906 146.247 325.913 146.479 325.906C147.855 325.881 149.23 325.861 150.599 325.858C150.358 325.628 150.121 325.411 149.877 325.172C151.452 325.186 150.634 325.115 152.271 325.255C153.363 325.345 154.52 325.441 155.679 325.618C155.694 325.728 155.718 325.842 155.714 325.944C152.667 325.819 149.58 325.849 146.479 325.906C139.651 326.033 132.758 326.29 126.082 325.35C125.598 325.282 125.118 325.202 124.637 325.121C125.118 325.203 125.598 325.281 126.082 325.35C126.659 325.432 127.238 325.504 127.818 325.568C126.641 324.338 125.731 322.789 125.28 320.992C123.755 314.99 127.762 310.487 132.245 309.327C133.113 309.098 133.961 308.979 134.78 308.957H134.78ZM143.513 309.015C143.566 309.205 143.635 309.401 143.714 309.6C143.635 309.401 143.566 309.205 143.513 309.015ZM167.525 309.097C168.126 309.463 168.723 309.842 169.315 310.235C168.723 309.842 168.126 309.464 167.525 309.097ZM169.903 309.332C170.139 309.332 170.391 309.4 170.673 309.528C170.169 309.528 169.728 309.519 169.224 309.516C169.445 309.391 169.667 309.329 169.903 309.331V309.332ZM143.839 309.889C143.902 310.03 143.969 310.172 144.044 310.318C143.97 310.173 143.902 310.03 143.839 309.889ZM105.086 310.302C105.274 310.366 105.398 310.43 105.585 310.557C111.346 314.703 117.772 314.757 121.861 315.422C121.662 316.681 121.657 317.312 121.467 317.5C121.339 317.688 120.71 317.618 120.269 317.55C119.262 317.416 118.065 317.469 108.493 316.948C107.863 316.94 107.234 316.811 106.479 316.678C106.481 316.426 106.484 316.173 106.486 315.921C106.567 313.779 106.143 311.949 105.086 310.302L105.086 310.302ZM169.525 310.372C170.119 310.769 170.709 311.181 171.299 311.594C170.709 311.18 170.119 310.77 169.525 310.372ZM144.184 310.585C144.277 310.755 144.379 310.927 144.485 311.102C144.379 310.927 144.277 310.755 144.184 310.585ZM145.417 312.478C145.49 312.578 145.563 312.678 145.639 312.779C145.563 312.678 145.49 312.578 145.417 312.478ZM146.041 313.29C146.377 313.717 146.728 314.147 147.099 314.583C146.728 314.147 146.377 313.717 146.041 313.29ZM173.981 313.499C174.704 314.017 175.425 314.531 176.155 315.041C175.426 314.531 174.704 314.017 173.981 313.499ZM178.441 314.758C180.709 314.84 185.243 315.069 191.718 316.699C196.248 317.828 200.427 320.162 204.118 323.502C205.474 323.64 206.812 323.742 208.089 323.792C201.537 323.543 193.295 321.863 190.158 321.56C188.734 321.34 187.37 320.976 186.051 320.51C185.559 320.336 185.075 320.145 184.596 319.943C185.075 320.145 185.56 320.336 186.051 320.51C186.557 320.689 187.07 320.851 187.591 320.996C185.842 319.817 184.007 318.858 182.067 318.131C181.124 317.807 180.054 317.735 179.68 317.29C179.244 316.719 178.875 315.644 178.441 314.758V314.758ZM147.441 314.987C147.726 315.316 148.023 315.647 148.318 315.978C148.022 315.646 147.726 315.317 147.441 314.987ZM176.219 315.084C177.006 315.633 177.8 316.166 178.601 316.685C177.8 316.166 177.005 315.633 176.219 315.084ZM216.366 315.791C216.342 315.791 216.32 315.798 216.296 315.798C216.32 315.798 216.342 315.791 216.366 315.791ZM229.644 316.645C229.798 316.848 229.933 317.049 230.084 317.251C229.779 317.241 229.471 317.226 229.16 317.206C228.597 317.171 228.026 317.113 227.453 317.054C228.024 317.113 228.596 317.17 229.16 317.206C229.323 317.02 229.478 316.828 229.644 316.645V316.645ZM180.256 317.723C181.179 318.273 182.117 318.787 183.076 319.255C182.117 318.787 181.179 318.273 180.256 317.723ZM150.186 318.055C151.37 319.352 152.541 320.637 153.482 321.799C152.553 321.728 151.733 321.721 150.725 321.713C150.095 321.705 147.954 321.69 147.324 321.622C147.392 321.119 147.588 320.3 147.723 319.23C147.788 318.978 147.79 318.725 147.854 318.537C147.981 318.474 148.234 318.477 148.423 318.416C149.036 318.299 149.597 318.175 150.186 318.055ZM183.11 319.271C183.567 319.493 184.029 319.704 184.497 319.903C184.029 319.704 183.567 319.493 183.11 319.271ZM107.378 319.392C107.424 319.401 107.47 319.41 107.515 319.421C107.469 319.41 107.424 319.401 107.378 319.392ZM108.921 319.756C109.027 319.782 109.133 319.808 109.238 319.836C109.133 319.808 109.027 319.782 108.921 319.756ZM110.506 320.188C110.638 320.227 110.771 320.265 110.903 320.305C110.771 320.264 110.638 320.227 110.506 320.188ZM112.133 320.701C112.262 320.745 112.392 320.786 112.521 320.832C112.392 320.787 112.262 320.744 112.133 320.701ZM113.7 321.268C113.844 321.324 113.99 321.377 114.134 321.434C113.99 321.376 113.844 321.324 113.7 321.268ZM121.413 321.782C121.603 321.793 121.76 321.829 121.87 321.909C122.245 322.227 122.363 323.111 122.608 323.996C122.309 324.093 121.708 324.208 120.939 324.348C121.474 324.483 122.011 324.607 122.55 324.722C121.332 324.462 120.121 324.165 118.923 323.798C117.737 323.087 116.526 322.476 115.298 321.931C115.407 321.979 115.517 322.021 115.625 322.071C116.827 322.036 118.029 321.993 119.224 321.951C119.98 321.959 120.844 321.751 121.413 321.782V321.782ZM153.528 321.854C153.796 322.186 154.043 322.509 154.272 322.822C154.044 322.509 153.796 322.186 153.528 321.854ZM154.387 322.985C154.592 323.273 154.775 323.552 154.938 323.82C154.777 323.552 154.591 323.273 154.387 322.985ZM155.026 323.963C155.097 324.083 155.162 324.202 155.222 324.318C155.162 324.202 155.096 324.083 155.026 323.963ZM155.294 324.462C155.499 324.879 155.632 325.263 155.679 325.609C155.632 325.264 155.496 324.878 155.294 324.462ZM122.682 324.752C123.184 324.858 123.688 324.955 124.193 325.046C123.687 324.956 123.184 324.858 122.682 324.752ZM25.0802 362.136C25.1417 362.326 25.2031 362.516 25.265 362.643L25.0802 362.136Z" fill="black"/>
</svg>
