<svg width="384" height="283" viewBox="0 0 384 283" fill="none" xmlns="http://www.w3.org/2000/svg">
<path d="M63.8444 0.676515C56.3794 1.65504 50.4759 4.55984 43.0081 3.07773C32.4424 5.14128 36.358 20.991 26.0055 22.7726C27.6835 40.2453 15.0757 53.0169 3.036 62.5605C-7.29301 77.836 10.8746 91.8759 25.4595 91.2731C37.4202 91.5621 48.7602 95.8522 61.0863 94.9539C79.5214 106.731 63.081 141.899 87.4619 147.868C102.74 153.558 103.334 173.07 115.301 181.735C118.217 204.306 127.444 230.909 112.288 251.156C101.469 255.088 102.637 271.116 113.953 272.7C115.893 285.154 132.955 283.027 141.951 281.112C152.111 277.123 149.767 264.712 157.188 259.069C157.913 246.609 150.247 233.957 155.244 220.97C161.774 205.307 163.384 187.863 170.195 172.461C219.143 182.826 232.741 182.062 289.227 179.446C284.064 200.245 299.09 228.241 278.092 243.625C271.073 257.095 291.396 260.819 300.377 256.84C307.223 253.683 309.548 243.214 314.324 236.284C316.096 223.889 311.612 207.87 314.92 197.951C323.591 216.202 319.657 238.133 309.89 254.967C309.62 276.445 348.738 269.102 344.221 249.355C350.014 239.158 337.982 229.072 341.677 218.228C341.208 198.554 347.388 177.534 337.384 159.205C334.356 142.651 336.475 118.19 339.103 105.749C342.252 134.943 335.341 171.171 361.192 192.494C370.101 196.515 364.822 213.625 377.202 210.745C390.798 195.932 382.216 171.269 367.125 160.505C346.865 140.935 362.698 109.791 351.111 86.2914C346.617 67.8813 335.367 49.3791 315.359 45.7964C300.572 42.7114 285.543 51.3624 271.076 44.5185C226.418 39.3029 182.856 36.0517 138.248 29.0684C132.082 28.0082 121.408 32.6135 119.492 31.0601C129.152 21.5161 123.282 3.18138 108.673 5.42631C99.1725 4.87766 87.3259 22.5609 81.3865 9.15314C77.18 3.87955 70.642 0.520362 63.8444 0.676515ZM64.0401 6.75521C64.7109 6.75296 65.3782 6.79878 66.0417 6.88185C66.7413 10.8562 67.6157 14.4844 68.484 17.6939C65.7135 16.7629 62.8183 16.2254 59.8133 16.1364C59.4516 16.1205 59.0337 16.1196 58.6719 16.1068C57.9987 13.5594 58.3046 13.1744 56.6688 8.93763C56.6141 8.79638 56.5557 8.66555 56.4993 8.52812C58.9439 7.37215 61.5077 6.76189 64.0401 6.75521ZM69.5909 7.76338C73.3548 9.19558 76.7612 12.1848 79.2221 16.9226C86.3997 24.8316 93.8637 18.6134 101.377 14.4309C102.031 15.5314 102.772 16.6113 103.629 17.6528C105.734 20.2054 108.073 21.9157 110.836 23.0276C108.347 25.3525 106.289 27.7329 103.789 32.5042C103.173 33.6609 102.623 34.877 102.086 36.2343C99.9089 36.8489 98.0533 36.8439 96.9779 36.0484C98.4 37.0647 99.8357 37.8288 101.284 38.4036C101.077 38.9961 100.87 39.598 100.657 40.2571C100.071 42.1539 100.316 42.7981 102.009 43.9198C106.49 46.8614 111.189 48.9065 115.966 49.9755C120.365 50.9745 124.187 51.0073 128.126 49.9919C120.969 54.7322 114.153 60.8642 107.999 68.0569C107.999 68.0569 106.987 69.3017 106.705 69.5618C94.4669 61.8203 83.5388 47.8619 76.6416 31.1357C73.3471 23.2051 72.0076 17.9286 70.5021 11.8668C70.1244 10.3406 69.8439 9.03586 69.5909 7.76338ZM47.4191 8.95742C48.7788 9.25368 50.4037 9.93523 52.3712 11.1004C52.7625 10.7908 53.1621 10.5033 53.5652 10.2255C53.7133 10.6137 53.8559 11.014 53.9912 11.4343C55.2728 15.475 55.894 19.2891 55.7839 23.6706C53.3081 17.7894 50.6246 13.0792 47.4191 8.95742ZM43.4818 9.43438C43.8951 9.92549 44.3032 10.4029 44.73 10.9409C49.5631 17.1777 51.2949 21.7439 54.0044 28.0553L54.0212 28.1112C48.2611 24.5286 43.5325 20.4645 39.6682 15.8354C40.6511 13.0567 41.6382 10.5703 43.4818 9.43438ZM110.713 11.4277C111.868 11.4698 113.022 11.7247 114.175 12.2385C115.358 13.9634 116.707 15.4278 118.257 16.6413C118.392 18.3919 118.163 20.0944 117.655 21.7217C115.833 21.3456 114.001 20.8004 112.191 20.077C109.767 19.106 107.766 17.5366 105.992 15.3058C105.387 14.5522 104.835 13.7577 104.331 12.9309C106.459 11.9775 108.587 11.3503 110.713 11.4277ZM38.3208 19.5178C41.5013 23.0657 45.1077 26.1513 49.0917 28.9928C45.0155 28.0798 41.3386 26.6949 38.0313 24.7265C37.3836 24.3372 36.7811 23.9336 36.2074 23.521C37.0761 22.3176 37.747 20.9414 38.3208 19.5178ZM59.1818 19.5359C60.3067 19.5105 61.5182 19.5775 62.8872 19.7793C65.2634 20.1684 67.5383 20.8254 69.7109 21.7497C71.6651 27.9208 73.426 31.7652 73.7108 32.7558C73.3807 32.8506 72.7975 32.8982 72.1763 33.0173C71.2091 33.1764 70.3526 33.305 69.5662 33.4712C68.8373 30.5228 67.424 27.89 65.4776 25.8876C62.9401 23.2808 60.8698 22.0888 59.2476 21.0063C59.2148 20.4792 59.1977 20.0077 59.1818 19.5359ZM114.844 24.4601C115.13 24.44 115.342 24.5864 116.321 24.8186C114.119 28.8067 110.394 32.1238 106.721 34.2261C108.674 30.4918 111.226 27.1491 113.892 24.9502C114.19 24.7452 114.377 24.5711 114.597 24.5078C114.693 24.4801 114.772 24.4651 114.844 24.4601ZM59.2081 25.0094C61.3973 26.4055 63.1072 27.9997 64.4792 29.8694C65.252 30.8984 65.6784 31.9678 66.2325 33.8939C66.2796 34.0587 66.3274 34.2231 66.3591 34.333C65.8088 34.4912 65.1486 34.6814 64.4332 34.8873C60.7461 35.948 57.0587 37.4253 53.4123 39.2489C52.5535 38.5425 51.9698 37.7584 51.4255 36.902C50.5262 35.4327 49.6437 34.0185 49.1295 32.4384C55.5496 33.2133 54.7864 33.2535 56.5799 33.2738C57.5237 33.2404 58.2537 32.6734 58.4565 31.7213C58.776 30.1396 58.7536 30.2646 59.2081 25.0094ZM33.8982 25.8465C37.3154 28.3875 40.1822 29.4707 41.1348 29.9121C41.0486 30.2349 40.978 30.6123 40.8453 31.1868C39.9347 36.5136 40.2581 41.3653 41.8321 46.2158C38.0379 48.9757 34.3932 52.0513 30.9149 55.495C30.4873 54.0091 29.8551 52.2231 28.8524 50.1876C28.1459 48.7479 27.4093 47.4278 26.6436 46.1977C29.7429 40.2795 31.4943 33.6818 31.8046 26.9419C32.5874 26.6629 33.2752 26.2861 33.8982 25.8465ZM44.2186 31.1095C44.9898 31.3046 45.162 31.4935 45.3912 32.0831C46.1979 34.4728 47.264 36.7289 48.6444 38.8345C49.1021 39.5966 49.6544 40.2715 50.1904 40.892C48.2966 41.973 46.4737 43.0938 44.6117 44.2849C43.7644 41.1323 43.4433 37.947 43.689 34.6587C43.8045 33.1954 43.9767 32.1324 44.2186 31.1095ZM136.68 35.1142C137.336 35.1165 137.991 35.1537 138.646 35.208L138.656 35.226C135.473 36.7972 135.151 36.7101 134.215 36.9793C130.799 38.1003 127.479 37.9342 124.104 37.1224C128.3 36.0635 132.508 35.0993 136.68 35.1142ZM143.152 35.7803C146.821 36.2311 150.488 36.6988 154.153 37.1865C159.639 40.4259 165.532 42.9676 172.001 44.8786C173.882 45.4101 175.534 45.7701 177.068 45.9246C175.686 46.9183 175.207 47.116 173.179 47.9377C171.606 48.2712 169.506 48.635 167.406 48.5841C162.718 48.4431 158.106 47.3276 153.61 45.1648C151.194 44.0129 148.98 42.3248 146.514 39.7571C145.391 38.6289 144.261 37.2834 143.152 35.7803ZM75.0923 36.1109C76.1976 38.2956 78.1397 42.1466 78.2896 42.461C76.1349 42.8423 75.529 42.6002 70.5761 44.0251C68.2097 44.7058 65.8275 45.3317 63.3593 46.2799C58.753 48.0816 54.329 50.3081 50.2512 52.9112C43.2117 57.439 36.5756 63.1613 32.0546 68.5734C31.4817 69.2744 31.4284 70.1242 31.8309 70.9022C32.6911 72.4424 33.519 73.8718 34.3868 75.231C37.3047 79.9064 40.5633 84.1791 44.1117 88.0167C41.0658 87.6605 38.1665 86.8409 35.6598 85.0003C34.9203 85.1194 34.1339 85.2095 33.3177 85.2766C29.5324 80.036 26.2988 74.4444 23.8198 68.7379C23.8029 68.6828 23.7861 68.6271 23.8409 68.6112C33.7437 55.3944 47.5517 44.5699 60.8048 39.6848C66.5666 37.5505 66.8028 37.5426 73.801 36.1849C74.1469 36.1452 74.5642 36.1436 75.0361 36.1273L75.0923 36.1109ZM140.478 38.0385C140.564 38.1323 140.928 38.5649 140.96 38.6749C140.92 38.7459 140.881 38.8164 140.841 38.8871C137.733 42.5818 132.586 45.1936 127.995 46.6335C121.934 48.5557 113.821 47.0761 106.372 42.7241C105.451 42.2145 104.033 41.4316 103.876 41.2982C103.868 41.117 104.178 40.3185 104.514 39.3673C108.919 40.2758 113.419 39.6534 117.956 38.6322C122.228 40.549 126.38 41.3209 130.509 41.0844C132.381 40.9631 134.386 40.267 135.062 40.1321C138.568 39.0639 139.181 38.709 140.478 38.0385ZM164.294 38.5598C169.518 39.2818 174.741 40.0098 179.965 40.7308C180.2 41.1851 180.352 41.6072 180.404 41.9857C180.436 42.0955 180.358 42.2372 180.193 42.285C179.619 42.5689 178.998 42.6883 178.203 42.6189C174.459 42.4448 169.91 40.7144 166.911 39.6108C166.029 39.278 165.157 38.9234 164.294 38.5598ZM143.205 41.3048C143.378 41.4935 143.567 41.7366 143.812 41.9643C143.222 42.1934 142.594 42.4933 142.004 42.7225C141.47 42.9357 141.87 42.8803 143.205 41.3048ZM184.585 41.3673C187.398 41.7502 190.213 42.1171 193.028 42.484C191.635 45.8575 191.732 49.5173 193.346 51.9705C193.448 52.1194 193.551 52.2689 193.653 52.4178C191.655 52.5159 189.872 53.1493 188.356 54.301C184.876 56.9108 183.111 60.5165 183.104 65.0473C183.079 67.8554 184.065 70.2526 185.964 72.0897C185.233 72.2406 184.825 72.4761 184.511 72.6259C184.157 72.8464 184.102 72.8633 183.693 72.6835C179.34 71.0159 176.648 69.9436 171.889 70.1803C167.965 70.4155 164.867 71.2458 161.526 72.6835C161.353 72.4947 161.1 72.0328 160.824 71.695C156.849 65.7478 151.06 61.573 143.741 59.3288C131.912 55.7004 120.181 67.1196 113.688 78.1043C113.374 78.6712 112.975 79.5602 113.472 80.6683C114.183 82.311 114.909 84.0093 115.691 85.6912C120.042 94.8077 128.784 105.104 139.086 104.047C142.618 103.687 145.511 102.973 148.129 101.922C153.788 99.6389 156.992 96.6908 158.35 95.4062C158.539 95.2331 158.689 95.1313 158.783 95.0444C160.893 96.1654 167.219 101.377 176.169 100.59C176.57 100.535 176.93 100.548 177.332 100.493C177.277 100.926 177.168 101.375 177.146 101.918C176.876 104.915 177.472 107.604 178.845 109.891C180.131 112.083 181.847 113.496 184.027 114.239C182.134 115.737 180.981 117.736 180.624 120.223C180.002 124.275 181.009 127.978 183.705 131.135C185.967 133.821 188.5 134.344 189.908 134.475C188.229 136.508 187.581 139.018 187.925 142.077C188.173 144.389 189.152 146.967 191.486 149.692C191.282 149.81 191.077 149.929 190.818 150.064C189.113 150.971 186.33 152.487 183.56 155.905C182.681 156.993 181.684 158.292 180.861 159.78C179.466 162.386 179.059 163.456 178.706 164.094C178.58 164.072 178.579 164.072 177.95 163.954C170.962 162.449 163.571 163.681 157.347 166.902C153.811 168.694 151.157 171.484 149.574 175.097C146.856 181.182 146.303 188.788 147.908 197.682C148.162 198.979 148.526 200.246 148.82 201.473C149.065 202.534 149.689 203.248 150.791 203.765C151.802 204.228 152.823 204.647 153.852 205.038C153.729 205.269 153.609 205.509 153.479 205.726C152.766 207.514 152.114 209.332 151.523 211.173C148.893 210.355 146.292 209.435 143.729 208.418C143.249 208.199 142.856 208.074 142.588 207.972C142.391 207.91 142.249 207.83 142.162 207.319C139.351 192.576 140.269 174.436 146.188 159.386C146.775 157.906 147.45 156.521 148.093 155.026C148.171 154.884 148.248 154.741 148.594 154.702C150.859 154.289 153.809 154.393 160.056 151.047C165.635 148.072 169.438 144.714 172.026 140.454C173.853 137.485 174.602 134.29 174.305 130.979C174.225 130.287 174.521 129.248 173.874 128.242C172.742 124.099 169.243 120.22 164.881 118.317C163.102 117.517 161.402 116.993 159.711 116.705C154.281 115.645 148.854 115.836 143.705 117.198L143.651 117.213C141.795 117.806 140.034 118.312 138.509 119.228C138.36 119.33 138.196 119.378 137.825 119.127C125.076 111.056 113.117 96.6198 106.624 81.5055C106.079 80.2322 105.549 79.0141 105.004 77.7408C104.988 77.6858 104.957 77.5753 105.075 77.3626C111.477 68.1322 120.137 59.5035 129.502 53.1152C133.288 50.5362 137.499 48.1924 142.467 45.9888C143.74 45.444 145.101 44.9936 146.445 44.4873C146.72 44.408 146.681 44.4772 147.894 45.3803C150.123 47.1226 152.658 48.4799 155.515 49.5052C159.23 50.8199 162.535 51.5377 165.697 51.76C169.332 51.9659 172.227 51.6696 174.837 50.7995C177.706 49.7956 179.977 48.3673 181.601 46.3507C182.19 45.7046 183.054 44.9796 183.445 43.8541C184.019 43.0944 184.344 42.2528 184.585 41.3673ZM196.765 42.9692C198.639 43.207 200.513 43.4436 202.388 43.6698C201.985 44.2 201.605 44.7668 201.161 45.3688C199.577 47.7314 198.927 50.2427 199.309 52.8142C199.113 52.7516 198.955 52.6184 198.688 52.5165C196.467 51.4272 195.458 49.5723 195.658 46.9526C195.765 45.4619 196.14 44.136 196.765 42.9692ZM206.623 44.1698C208.975 44.4407 211.329 44.6987 213.684 44.9445C214.361 45.5178 215.038 46.0914 215.715 46.6648C212.775 47.6295 211.426 49.9832 209.74 52.6136C208.751 54.1492 208.337 55.8172 208.498 57.6183C207.309 57.0069 205.979 56.3184 204.758 55.597C203.396 54.7971 202.67 53.5161 202.603 51.6284C202.578 50.9205 202.626 50.2509 202.829 49.7156C203.615 47.2962 204.878 45.508 206.623 44.1698ZM80.0263 45.5974C80.097 45.6366 80.4199 46.1387 80.6727 46.6023C82.6531 49.9653 85.0983 53.075 85.5409 54.199C88.6785 62.4132 91.655 68.8274 94.9698 74.9646C93.9785 74.8328 88.9977 74.2982 87.3928 74.1044C86.9602 74.0503 86.8742 73.9558 86.7399 73.6966C84.6237 69.2404 83.2363 67.3159 77.9968 53.8668C77.5701 52.7978 77.2205 51.5882 76.8488 50.5034C76.8093 50.1571 76.7541 50.1731 75.4492 46.2586C76.8567 45.9728 78.2804 45.7422 80.0263 45.5974ZM222.486 45.8013C226.383 46.1454 230.286 46.4445 234.194 46.6878C235.634 46.7764 237.073 46.8661 238.512 46.9575C239.061 47.6494 239.542 48.2716 240.087 48.9492C241.466 50.6379 240.674 50.9843 241.441 53.028C239.685 52.1031 237.608 51.9269 235.194 52.4425C231.082 53.2678 231.893 54.2251 231.176 53.5971C229.286 51.9959 223.7 47.2865 223.7 47.2865C223.136 46.7924 222.734 46.3256 222.486 45.8013ZM72.0678 46.9329C72.0998 47.043 74.235 53.2214 74.8834 55.0608C76.9468 60.7835 78.3363 63.5421 79.2763 65.7742C80.7064 69.2956 81.8431 71.1728 82.87 73.4992C80.1635 73.2051 77.4566 72.9117 74.7502 72.6177C71.3072 65.2063 71.5837 65.9606 69.2603 59.9554C67.7193 56.0488 67.1592 54.7205 65.3477 49.0446C66.621 48.4998 66.8238 48.3818 72.0678 46.9329ZM244.904 47.3917C253.599 48.0324 262.258 48.9306 270.834 50.6844C271.659 55.4275 272.698 61.4356 272.698 61.4356C269.839 59.5765 266.643 58.4093 263.182 57.9752C263.056 57.9528 262.93 57.9296 262.678 57.8831C261.577 57.7828 260.745 58.2005 260.22 59.0673C258.659 61.7209 257.624 63.9253 257.055 67.1278C256.172 66.1304 245.483 53.4145 245.483 53.4145C244.932 52.7391 244.609 52.2358 244.529 51.9607L244.513 51.9064C244.111 50.3147 244.206 48.9071 244.904 47.3917ZM24.6157 49.6729C25.1678 50.6495 25.674 51.6124 26.1256 52.5215C27.0256 54.4076 27.6506 56.3731 28.0005 58.4176C25.9907 60.545 24.0687 62.7673 22.1931 65.1542C21.5972 61.803 20.7289 58.6867 19.7262 55.8947C21.5588 53.9647 23.1886 51.8787 24.6157 49.6729ZM218.072 49.6807C218.921 49.7345 219.261 49.8739 219.67 50.0541C220.434 50.4303 220.291 50.3523 227.688 56.3877C227.632 56.4036 227.649 56.4589 227.594 56.4748C225.183 58.6581 223.206 61.3125 221.789 64.4613C221.75 64.5323 221.749 64.5322 221.709 64.6028C221.229 64.3832 214.119 60.5898 214.119 60.5898C212.859 59.9391 212.489 59.271 211.937 58.1787C211.699 56.9362 211.775 55.9615 212.175 55.0719C213.045 53.332 213.931 52.0625 214.92 50.9438C215.807 50.0926 216.876 49.6674 218.072 49.6807ZM62.1405 50.3238C62.5356 51.2827 65.6902 60.8027 68.3755 66.8231C68.8256 67.7662 69.4351 69.2609 70.7619 72.216C69.1019 72.0381 65.6554 71.6591 63.004 71.3493C62.6971 71.3175 62.5561 71.2382 62.4613 70.9085C59.2302 63.198 61.4656 69.1102 55.9171 54.3796C55.9171 54.3796 55.6798 53.553 55.6638 53.498C60.0566 51.1617 60.1126 51.1456 62.1405 50.3238ZM307.767 51.0277C311.561 50.9869 315.28 51.6435 318.875 53.7529C322.508 54.63 325.55 56.0523 328.151 57.8761C328.202 58.0988 328.254 58.3223 328.297 58.5504C328.464 59.3366 328.465 60.1703 328.396 60.9648C328.186 62.5148 327.505 63.6642 326.311 64.4844C326.012 64.6891 316.034 71.432 315.939 71.5187C315.167 70.9065 314.255 70.6329 313.342 70.3592C308.817 68.9201 304.317 69.023 301.29 69.8937C299.969 70.2737 299.169 70.8026 298.54 71.1026C298.694 69.1515 298.501 67.2414 298.017 65.3544C297.954 65.1339 297.947 64.8981 298.182 64.4729C298.39 64.0971 302.238 55.9768 304.491 51.2284C305.587 51.1203 306.681 51.0395 307.767 51.0277ZM276.319 51.9323C276.913 52.0816 277.506 52.2288 278.099 52.3879C284.687 54.6754 291.444 53.3171 298.113 52.151C296.934 54.9081 295.676 57.8436 295.144 59.0899C294.734 58.4928 294.291 57.7853 292.297 55.618C291.761 54.9974 290.974 54.7479 290.093 55.0013C285.659 56.158 280.42 59.6901 277.895 64.1703C277.622 62.1123 277.003 57.2671 276.319 51.9323ZM52.7264 55.2973C55.5716 62.7018 53.3044 57.9308 58.8183 70.8838C56.3637 70.6365 53.1532 70.2495 50.6986 70.0023C50.6278 69.9631 50.5018 69.9391 50.2727 69.3493C49.1194 66.5826 46.7103 60.4836 46.457 59.603C48.3498 58.1051 50.4634 56.5442 52.7264 55.2973ZM237.676 55.521C239.116 55.5377 240.255 56.0573 241.179 57.0949C257.557 75.086 257.037 74.104 257.457 75.354C252.113 73.9714 246.373 75.5618 241.682 78.52C241.031 78.9463 239.915 79.625 240.201 81.0326C240.272 81.4887 240.683 83.3358 240.692 83.5719C239.779 83.2982 230.367 80.4057 227.29 79.4438C225.196 78.7947 223.952 77.3655 223.491 74.9358C223.054 72.7971 223.199 70.6087 223.887 68.4443C225.341 63.557 227.994 59.935 232.017 57.3477C233.58 56.3616 235.239 55.706 237.04 55.5451C237.258 55.527 237.471 55.5186 237.676 55.521ZM193.745 55.97C194.955 55.9801 195.98 56.5122 197.084 57.0883C196.008 57.6961 194.82 58.3354 193.8 59.7609C192.089 62.1002 191.151 64.6351 190.928 67.3807C190.805 69.0248 191.051 70.0856 191.525 71.3197C191.328 71.2572 191.076 71.2093 190.754 71.1239C188.708 70.64 187.454 69.3914 186.892 67.2294C186.646 66.1679 186.504 65.2561 186.627 64.0288C187.093 60.6772 188.551 58.2922 191.152 56.7693C191.615 56.5169 192.024 56.2792 192.464 56.1525C192.918 56.0219 193.342 55.9668 193.745 55.97ZM17.1572 58.3728C19.6875 66.6521 20.6358 75.0043 20.1768 84.278C9.79379 81.8725 1.30605 75.475 9.44038 63.8249C12.2716 62.2657 14.8428 60.4297 17.1572 58.3728ZM290.187 58.4304C290.187 58.4304 290.328 58.5081 290.501 58.6969C293.914 62.482 294.644 66.2645 294.565 65.9893C295.072 67.7504 295.272 69.0637 295.164 70.3461C295.017 72.1161 294.501 73.6352 293.575 74.9742C291.975 77.2818 290.13 78.9443 287.906 80.1203C285.069 81.6515 283.249 80.5063 281.64 77.8112C280.693 76.1769 280.045 74.3369 279.655 71.9463C279.351 69.6501 279.844 67.424 281.107 65.3923C283.476 61.6124 286.359 60.2467 290.021 58.4781C290.131 58.4462 290.187 58.4304 290.187 58.4304ZM201.12 59.5751C201.691 59.6052 202.297 59.7689 202.886 60.0685C204.13 60.6641 205.319 61.2758 206.437 61.8481C205.361 62.4558 204.206 63.2053 203.414 64.8035C202.544 66.5434 201.893 68.2196 201.464 69.8329C201.011 71.5721 201.297 72.9798 201.63 74.1354C200.284 73.8075 198.938 73.4786 197.742 73.0482C195.829 72.4068 194.765 70.9861 194.423 68.7606C194.312 67.9585 194.366 67.1085 194.584 66.2114C194.967 64.8499 195.413 63.7079 196.017 62.7C196.895 61.196 198.113 60.2501 199.819 59.7593L199.873 59.7429C200.089 59.6658 200.321 59.6138 200.562 59.5883C200.743 59.5691 200.93 59.5651 201.12 59.5751ZM331.763 60.9303C333.138 62.3189 334.362 63.8423 335.468 65.4713C335.46 65.4746 335.427 65.4944 335.42 65.4975C335.106 65.6474 334.996 65.6798 334.854 65.6012C333.154 65.0773 331.691 64.9618 330.284 65.2476C331.167 64.0117 331.65 62.5786 331.763 60.9303ZM263.032 61.4089C263.083 61.4078 263.144 61.4123 263.221 61.4205C266.911 62.0273 269.902 63.3134 272.423 65.4483C274.471 67.1829 275.804 69.5393 275.966 71.7572C276.103 74.101 276.032 77.5783 274.393 80.3736C273.554 81.8067 272.186 82.4371 270.55 82.1334C267.796 81.6744 264.946 80.0516 262.668 77.7274C261.731 76.7459 261.035 75.575 260.537 74.0499C260.188 72.4223 260.028 71.0381 260.175 69.6849C260.398 66.9393 261.196 64.3264 262.701 61.6886C262.819 61.4757 262.88 61.4134 263.032 61.4089ZM43.6676 61.7165C44.7661 64.499 46.5691 69.105 46.7349 69.4744C45.901 69.4752 36.7732 68.4077 36.5215 68.3609C36.9219 67.8883 43.2198 62.024 43.6676 61.7165ZM92.3038 61.9665C98.5059 68.4052 102.695 70.955 104.522 72.3361C103.714 73.4623 102.906 74.5877 102.027 75.6748C101.5 75.7073 100.887 75.6462 100.328 75.5679C99.03 75.4049 99.0295 75.4045 98.3035 74.1239C95.6438 69.2282 94.1439 66.0849 92.3038 61.9665ZM139.229 62.2313C140.151 62.2324 141.092 62.3371 142.048 62.5536C148.761 64.1382 155.219 68.7737 158.572 74.4232C158.384 74.5966 158.109 74.676 157.724 74.7867C157.165 74.7086 155.274 73.1086 149.522 71.9628C147.114 71.4637 144.714 71.6175 142.144 72.4167C140.289 73.01 138.702 73.705 137.397 74.5564C135.127 75.9843 133.155 77.624 131.483 79.4756C130.478 80.5393 130.44 81.4448 131.205 82.6548C135.811 89.5527 141.781 93.3175 147.987 93.1412C150.111 93.0667 152.565 92.8959 154.971 92.1445C155.356 92.0338 155.261 92.1198 156.451 93.1494C156.254 93.088 156.216 93.1573 156.216 93.1573C153.177 96.0574 149.734 98.1793 146.024 99.3659C143.524 100.204 141.385 100.64 139.364 100.864C136.926 101.089 134.659 100.668 132.384 99.5945C127.747 97.3532 123.098 92.3742 119.704 85.9618C118.946 84.5709 118.283 83.0943 117.651 81.7268C117.383 81.2082 117.208 80.6024 116.947 79.9028C116.9 79.738 116.915 79.7933 117.998 78.171C118.752 77.0606 119.489 75.8944 120.258 74.8389C124.802 68.8841 129.531 65.022 134.797 63.0302C136.212 62.5116 137.694 62.2291 139.229 62.2313ZM209.746 64.1128C210.35 64.0849 211.012 64.2095 211.782 64.4795C211.94 64.6126 220.191 68.8541 220.317 68.8774C220.279 68.9483 220.254 69.0728 220.286 69.1833C220.02 70.749 219.883 72.3384 220.052 74.3755C220.268 76.5775 220.94 78.2909 222.075 79.7519C212.112 77.017 207.65 75.7984 207.099 75.5399C205.406 74.8351 204.427 73.091 204.668 71.2342C204.7 70.9274 204.784 70.6043 204.831 70.3526C206.24 66.5509 206.421 66.1418 206.97 65.5666C207.893 64.6309 208.74 64.1591 209.746 64.1128ZM331.754 68.3461C332.245 68.3454 332.784 68.4234 333.389 68.5846C335.964 69.3527 338.616 71.7361 340.479 75.0811C341.145 76.6793 341.776 78.3023 342.379 79.946C342.923 82.1388 343.138 84.5231 342.861 87.0131C342.708 88.4389 342.288 89.7626 341.596 91.1051C341.326 90.3934 341.041 89.6825 340.739 88.9752C337.664 82.8611 335.697 87.3983 334.276 94.521C327.777 94.6941 322.532 94.8077 321.763 94.8714C321.291 94.8873 321.023 94.7853 320.692 94.4635C318.32 91.8091 315.131 89.6283 311.487 88.7696C314.133 86.1612 315.387 83.0589 316.222 79.5414C316.325 79.2741 316.338 78.9131 316.354 78.5513C316.32 77.6075 316.744 77.0085 317.804 76.3458C321.356 74.192 329.449 69.1824 329.638 69.0089C330.256 68.5703 330.937 68.3473 331.754 68.3461ZM36.1663 71.6799C37.8421 71.9129 46.827 72.9035 46.827 72.9035C46.3249 73.6438 41.9391 80.1499 41.9391 80.1499C40.0151 77.6049 37.5157 74.0924 36.1663 71.6799ZM306.18 72.5993C308.626 72.6119 310.948 73.0155 313.16 73.8689C313.302 73.9468 313.302 73.9471 313.318 74.0021C313.355 77.0304 312.885 82.6464 309.084 86.4211C308.064 87.4298 306.948 88.1084 305.627 88.4884C302.876 89.28 300.367 89.4664 297.833 88.944C295.622 88.5075 294.33 87.3299 294.185 85.5839C293.92 82.383 295.978 77.3202 298.389 75.137C300.29 73.458 303.679 72.604 306.18 72.5993ZM50.7759 73.3755C53.4273 73.6855 58.4794 74.2587 58.912 74.313C58.7001 74.6125 56.9105 77.0941 56.024 78.3622C51.3413 84.963 50.166 87.1888 49.4453 88.2713C49.3483 88.2713 49.2526 88.2747 49.1559 88.2747C46.7438 85.9304 44.3946 83.3058 44.1791 82.9607C44.2733 82.8742 50.4383 73.6531 50.5324 73.5664C50.6502 73.354 50.7208 73.3914 50.7759 73.3755ZM173.041 73.7324C175.84 73.738 178.539 74.3114 181.205 75.4215C180.232 76.5953 179.47 77.8864 178.899 79.4213C178.466 79.3672 178.199 79.2651 177.262 79.1171C172.478 78.2291 167.554 78.0959 162.151 78.5776C159.603 78.8338 157.833 79.1055 156.52 79.3046C157.431 78.7443 158.399 78.1684 159.365 77.5925C160.882 76.8581 164.646 75.2386 166.297 74.7636C168.626 74.0677 170.864 73.7283 173.041 73.7324ZM62.7194 74.7077L70.9247 75.6847C65.1347 83.4939 63.2688 86.2167 61.6044 88.8058C59.09 88.2559 56.2971 88.2113 53.4255 88.2368C54.9975 85.7653 56.8399 83.1715 58.9219 80.1499C61.6599 76.2042 62.6803 74.7785 62.7194 74.7077ZM146.089 75.0728C147.115 75.0386 148.202 75.1427 149.379 75.4001C151.086 75.7431 152.786 76.2679 154.352 76.9494C150.503 79.7252 150.205 79.9301 148.792 81.2305C147.724 82.0738 147.309 82.9096 148.372 84.3307C150.587 87.2677 151.731 88.5484 152.354 89.263C147.88 90.0734 144.347 90.0162 140.693 87.671C138.291 86.1572 136.259 84.0601 134.374 81.4443C134.287 81.3501 134.271 81.2963 134.271 81.2963C134.31 81.2253 134.366 81.2085 134.46 81.1219C136.501 79.1046 138.503 77.5762 140.759 76.5103C141.482 76.1238 142.309 75.8851 143.173 75.5761C144.101 75.2793 145.064 75.1071 146.089 75.0728ZM188.004 75.4593C188.651 75.4492 189.201 75.6451 190.298 75.9626C188.963 77.1214 187.966 78.422 187.45 79.9411C185.915 84.1364 186.104 87.8957 188.037 91.0936C186.117 91.0499 184.819 90.8861 183.502 89.4176C182.549 88.3811 181.996 87.2894 181.774 86.102C181.226 83.1611 181.716 80.5168 183.316 78.2092C184.203 76.9412 185.272 76.0975 186.593 75.7175C187.191 75.5454 187.615 75.4654 188.004 75.4593ZM23.4234 75.6452C24.0469 76.7767 24.6857 77.9633 25.2934 79.0398C24.7454 80.4488 24.1426 81.8721 23.5237 83.2419C23.6293 80.7089 23.6089 78.1539 23.4234 75.6452ZM75.1104 76.1484C76.7862 76.3814 82.0728 76.9455 82.9933 77.0382C78.4726 82.7939 74.7479 87.4868 70.0531 94.8977C69.8456 94.6637 69.6453 94.4275 69.4248 94.1987C68.2141 92.1687 66.666 90.8269 64.8855 89.9357C66.871 86.9213 69.8741 82.6025 74.6466 76.4017C74.8587 76.1022 74.9293 76.1414 75.1104 76.1484ZM195.3 77.4033C195.714 77.392 196.145 77.4388 196.594 77.5481C197.829 77.9077 199.12 78.2526 200.355 78.6122C199.13 79.7392 198.291 81.1718 197.964 82.9344C197.714 84.1383 197.553 85.4362 197.359 87.0411C197.166 89.063 197.845 90.5959 198.452 91.6725C197.186 91.6197 196.028 91.5351 194.872 91.4505C192.307 91.235 190.803 89.9397 189.956 87.2039C189.845 86.8187 189.711 86.1432 189.78 85.3487C190.106 82.7524 190.189 80.7609 191.948 79.0036C192.955 77.9988 194.055 77.4373 195.3 77.4033ZM87.0507 77.5135C87.3183 77.4923 88.5828 77.6204 95.0619 78.3934C90.1723 84.3881 89.7169 84.4601 82.6479 94.4782C81.2043 96.5024 80.67 96.7155 75.9508 101.231C75.4928 101.691 75.0293 102.133 74.5644 102.568C73.9494 100.895 73.1829 99.2826 72.2092 97.7495C76.8019 90.3756 81.6854 84.0189 86.9586 77.5661C86.9822 77.5444 86.9586 77.5206 87.0507 77.5135ZM253.48 78.15C256.648 78.1633 259.126 79.2389 261.047 81.4113C262.411 83.045 263.498 84.7584 264.359 86.7154C264.675 87.3992 264.731 88.2165 264.795 88.8535C264.884 90.1985 264.351 91.247 263.157 92.0672C261.908 92.9032 260.509 93.4238 258.92 93.702C257.607 93.9012 256.263 93.9908 255.013 93.9931C250.592 93.9539 246.691 90.5465 244.589 84.8947C244.296 84.0851 244.233 83.4483 244.028 83.1498C244.028 83.1498 243.742 81.7416 243.654 81.2304C245.98 79.7868 247.992 78.9111 250.075 78.4904C251.29 78.2601 252.424 78.1455 253.48 78.15ZM99.2393 78.8539C99.2797 78.8561 99.3249 78.8651 99.3742 78.8802C99.8779 78.974 100.364 79.0132 100.726 79.0282C101.646 79.1208 101.647 79.1213 101.695 79.2864C103.331 83.1064 103.157 82.5007 103.315 83.051C103.111 83.1699 102.725 83.2803 102.52 83.3981C98.1029 85.0267 95.95 86.2414 91.4946 88.7745C91.4398 88.7904 90.2454 89.6105 90.1903 89.6264C92.7405 86.2711 91.3607 88.0974 98.894 79.0792C99.0236 78.908 99.1174 78.8472 99.2393 78.8539ZM205.398 80.0117C205.572 80.014 205.739 80.0269 205.896 80.0561C207.478 80.3758 218.307 83.2201 218.827 83.3684C216.423 85.3707 214.767 88.1113 213.751 91.6214C213.689 91.8181 213.564 92.2117 213.518 92.4635C213.085 92.4094 205.249 92.1002 204.258 91.9684C202.511 91.6963 201.392 90.7071 200.831 88.962C200.466 87.6962 200.617 87.5931 200.959 85.4687C201.215 83.6669 201.316 82.984 201.865 81.9918C202.634 80.6758 204.18 80.0028 205.398 80.0117ZM280.151 81.3373C281.413 82.8217 282.846 83.6611 284.538 83.9491C283.512 86.3894 282.47 88.7749 281.444 91.2152C281.444 91.2152 280.941 87.6051 280.151 81.3373ZM166.446 81.7008C170.294 81.6141 174.018 81.9281 177.677 82.6333C177.928 82.6798 178.127 82.7427 178.253 82.7649C178.269 82.8199 178.213 83.2534 178.213 83.2534C178.123 85.4246 178.527 87.4534 179.443 89.3946C172.773 89.4073 166.494 88.2926 160.229 85.9835C158.426 85.3103 156.16 84.4734 153.924 83.329L154.474 83.1711C158.625 82.2747 162.597 81.7874 166.446 81.7008ZM291.032 82.0807C290.697 83.6073 290.457 85.8812 291.389 88.2943C289.15 89.8322 286.857 91.3855 284.673 92.9076C284.876 92.3723 286.984 87.8927 289.375 83.1531C289.375 83.1531 290.624 82.3175 291.032 82.0807ZM276.467 83.232C277.024 86.4088 277.85 91.356 277.89 91.702C277.228 91.0582 272.584 85.4819 272.584 85.4819C273.992 85.1961 275.274 84.4693 276.467 83.232ZM26.7571 84.3405C26.7571 84.3405 27.4336 84.9299 27.9035 85.3437C27.8235 85.337 27.7439 85.3336 27.6633 85.3306C27.2815 85.1362 26.8987 84.9402 26.5219 84.7632C26.6002 84.6222 26.6787 84.4814 26.7571 84.3405ZM224.159 84.6086C224.427 84.6131 224.704 84.6413 224.987 84.6941C225.365 84.7641 239.618 88.5297 242.27 89.2565C242.789 89.4051 243.158 89.6563 243.411 90.1199C244.736 92.2413 246.368 93.9775 248.306 95.3269C248.376 95.3661 248.446 95.4054 248.462 95.4602C248.407 95.4761 248.353 95.4914 248.353 95.4914C243.316 98.0727 240.53 102.271 238.589 107.537C238.511 107.679 238.99 107.48 232.056 109.474C232.002 109.49 231.946 109.507 231.836 109.538C229.949 110.022 228.007 110.52 226.081 111.075C223.896 111.763 222.054 111.16 220.226 109.362C218.54 107.643 217.394 105.529 216.744 102.856C215.675 98.5161 216.013 94.3082 217.665 90.3172C218.755 88.097 219.901 86.6936 221.991 85.2582C222.621 84.8084 223.354 84.5959 224.159 84.6086ZM267.583 85.9079C268.434 86.7952 273.511 92.4249 275.229 94.2546C274.835 94.1292 267.64 91.9089 267.57 91.8698C268.157 90.3899 268.383 88.8948 267.836 86.7878C267.811 86.4966 267.662 86.1832 267.583 85.9079ZM104.784 86.0839C105.335 86.7593 110.69 98.7452 121.298 109.935C118.495 108.477 115.323 107.603 111.854 107.349C106.866 106.997 101.015 107.785 96.0865 109.501C92.6668 110.663 92.1321 110.878 92.4682 114.117C93.2116 120.637 93.7505 122.507 95.5915 127.043C96.0499 128.222 97.3595 130.705 97.7855 131.357C91.8791 132.492 87.6159 136.454 84.615 140.858C84.4863 140.836 84.3616 140.81 84.2318 140.787C76.3479 130.981 78.4425 117.624 75.6696 106.22C81.8482 99.5617 88.3012 94.4303 95.3595 90.4044C100.444 87.5714 104.382 86.1395 104.784 86.0839ZM155.568 87.8009C160.039 89.6727 164.423 91.0341 169.136 91.883C172.284 92.4671 175.627 92.6969 180.174 92.7596C181.731 92.7882 182.077 92.7473 182.872 93.2349C181.316 94.0402 180.037 95.1827 179.049 96.7183C178.892 97.0022 178.726 97.0499 178.616 97.0818C173.56 97.9404 169.744 97.3095 165.005 94.919C161.509 93.124 158.019 90.3135 155.568 87.8009ZM345.805 89.4916C346.021 90.0784 346.236 90.6686 346.458 91.2481C346.051 91.2771 345.644 91.3066 345.237 91.3352C345.472 90.7128 345.652 90.0991 345.805 89.4916ZM294.141 91.2054C294.254 91.211 294.392 91.2752 294.667 91.4044C295.36 91.7414 296.446 92.2036 298.609 92.475C297.651 93.287 296.559 94.2555 295.728 95.5078C295.359 95.6737 295.707 95.6336 286.653 95.8548C287.305 95.4288 288.978 94.4114 293.763 91.3665C293.939 91.2564 294.028 91.2022 294.141 91.2054ZM309.19 91.8237C313.991 91.991 318.237 96.0253 320.75 100.047C320.884 100.306 320.915 100.417 320.97 100.401C320.97 100.401 320.932 100.472 320.799 100.629C319.041 102.803 317.179 104.412 315.12 105.54C314.248 106.03 313.171 106.638 312.275 106.836L312.165 106.867C309.468 107.643 307.078 107.616 304.598 106.244C302.346 105.045 300.785 103.765 299.595 102.32C299.129 101.739 298.806 101.236 298.554 100.772C296.817 97.637 300.659 94.6247 303.764 93.1954C304.393 92.8952 305.092 92.6358 305.792 92.3742C306.944 91.953 308.082 91.7852 309.19 91.8237ZM280.485 95.2677C281.487 95.247 282.505 95.849 282.839 96.8926C283.195 98.3393 282.623 99.4565 281.263 99.9073C279.369 100.572 277.502 98.4283 278.505 96.5308C278.937 95.6766 279.706 95.2836 280.485 95.2677ZM264.734 95.2874C264.86 95.2807 264.987 95.2852 265.117 95.2975C265.292 95.3144 265.472 95.3489 265.665 95.3979C267.617 95.9686 273.355 97.4756 274.323 97.7334C271.461 98.5566 270.855 98.7319 266.224 99.8254C264.971 98.16 263.347 97.0778 261.82 96.3255C262.425 96.1514 262.977 95.9918 263.59 95.6369C263.996 95.4196 264.358 95.3076 264.734 95.2874ZM347.773 95.5226C348.677 98.9856 349.217 102.504 349.538 106.053C347.979 105.824 346.152 105.551 346.112 105.563C346.026 105.469 345.868 104.919 345.828 104.573C345.536 103.485 345.087 102.399 344.509 101.392C344.135 99.5181 343.695 97.654 343.16 95.8022C343.716 95.7585 346.229 95.6098 347.773 95.5226ZM187.025 95.8302C187.293 95.8302 187.569 95.8403 187.856 95.8532C185.847 98.3975 185.193 101.922 186.089 106.073C186.598 108.668 187.843 110.097 188.797 111.134C188.301 111.276 187.79 111.365 187.334 111.436C186.06 111.564 184.934 111.173 183.792 110.31C182.981 109.769 182.429 109.093 182.058 108.425C179.722 104.032 180.737 100.105 182.479 97.8762C183.736 96.2633 185.152 95.8365 187.025 95.8302ZM194.196 96.1147C194.905 96.1203 196.053 96.1758 198.169 96.2825C197.071 97.8498 196.578 99.6605 196.724 101.823C196.933 104.623 196.962 107.416 198.995 109.512C197.769 109.805 196.401 110.019 194.765 110.132C192.854 110.324 191.366 109.501 190.214 107.568C189.67 106.712 189.362 105.847 189.25 105.045C189.154 103.881 188.994 102.914 189.032 102.009C189.122 99.8381 189.858 98.2561 191.413 97.0341C191.9 96.6552 192.365 96.4037 192.861 96.2611C193.218 96.158 193.487 96.1115 194.196 96.1147ZM204.015 96.5078C205.879 96.5673 211.598 96.7694 212.935 96.8614C212.935 100.794 212.89 101.879 214.621 106.863C211.955 107.331 207.466 108.088 205.169 108.391C202.653 108.757 200.698 107.353 200.293 104.907C200.062 103.484 199.98 101.958 200.064 100.384C200.218 98.4332 201.75 96.92 203.322 96.5867C203.543 96.5237 203.779 96.5173 204.015 96.5078ZM252.825 97.7248C253.143 97.7089 253.475 97.7123 253.823 97.7316C257.403 97.9531 260.598 99.1194 262.662 100.909C265.861 103.743 261.843 108.832 258.433 111.481C257.703 112.049 256.776 112.554 255.565 112.902C251.862 113.908 247.392 112.868 243.502 110.114C242.675 109.518 241.936 109.017 241.707 108.845C241.739 108.538 242.13 107.829 242.552 106.813C243.602 104.247 245.164 102.01 247.284 100.268C248.093 99.5583 249.059 98.9821 250.301 98.3269C251.049 97.9778 251.872 97.7726 252.825 97.7248ZM286.809 99.5044C288.296 99.4943 294.398 99.5843 294.705 99.6162C294.752 99.7811 294.832 100.056 294.841 100.292C295.349 102.47 296.223 103.648 297.784 105.345C296.391 105.269 296.036 105.071 294.233 103.981C293.949 103.824 288.526 100.5 286.809 99.5044ZM324.416 99.9468C325.819 99.9558 330.144 100.023 333.325 100.064C332.35 106.583 331.656 113.541 330.942 116.486C330.882 119.549 330.72 122.677 330.541 125.824C330.265 125.714 329.991 125.585 329.717 125.416C312.487 114.821 312.432 115.253 311.982 114.31C311.421 112.981 310.71 111.756 309.89 110.561C313.728 110.232 317.257 108.621 320.344 105.886C321.569 104.759 322.629 103.68 323.602 102.506C323.908 102.12 324.693 101.118 324.416 99.9468ZM275.138 101.193C274.872 101.508 271.355 105.44 269.188 107.851C268.615 108.552 268.111 108.041 265.422 108.636C266.449 107.029 267.037 105.55 267.191 104.016C267.199 103.835 267.223 103.709 267.607 103.598C268.598 103.313 271.734 102.411 271.734 102.411C271.844 102.379 271.954 102.347 272.048 102.261C273.778 101.644 274.588 101.352 275.138 101.193ZM284.784 102.411C285.367 102.779 291.486 106.858 291.486 106.858C290.175 107.89 289.389 109.309 288.991 111.032C287.207 107.315 288.369 109.9 284.784 102.411ZM277.943 103.484C277.849 103.988 276.807 110.306 276.186 114.775C276.124 114.972 276.131 115.208 276.068 115.405C275.371 112.984 275.189 111.725 273.306 109.943C273.149 109.81 273.062 109.715 272.959 109.566C273.053 109.48 277.409 104.115 277.943 103.484ZM281.53 103.942C281.846 104.626 281.713 104.366 285.156 112.195C283.621 111.623 282.173 111.563 280.609 112.132C280.592 112.077 281.444 104.681 281.53 103.942ZM297.175 108.617C299.567 108.646 301.975 109.144 304.251 110.218C306.172 111.095 307.644 112.696 308.584 114.928C309.99 118.158 310.39 121.619 309.783 125.309C309.698 125.632 309.643 125.647 309.533 125.679C305.728 126.536 302.274 126.338 298.976 125.023C296.016 123.849 294.109 121.775 293.167 118.709C292.424 116.54 292.004 114.872 292.189 112.614C292.303 110.734 293.134 109.481 294.565 109.07C295.501 108.8 296.341 108.619 297.175 108.617ZM346.578 110.078C347.985 110.295 348.744 110.422 349.839 110.596C350.015 114.434 350.017 118.297 350.018 122.155C348.661 121.646 347.729 121.296 346.385 120.79C346.33 118.669 346.229 116.555 346.099 114.445C346.381 113.069 346.532 111.707 346.545 110.384C346.569 110.258 346.537 110.148 346.578 110.078ZM109.517 110.678C110.173 110.679 110.82 110.701 111.458 110.741C115.108 111.002 118.508 112.051 121.454 114.004C125.179 116.389 129.448 120.046 131.383 124.078C131.218 124.125 131.029 124.299 130.825 124.417C125.525 120.698 122.391 118.501 115.602 118.308C112.235 118.204 108.987 118.723 107.423 119.292C106.503 119.616 105.938 120.552 106.208 121.488C107.388 125.796 109.423 129.144 111.913 131.586C109.725 131.024 106.609 130.548 102.558 130.76C101.921 130.824 101.569 131.046 100.922 130.04C98.0744 125.735 96.1583 119.493 95.8167 113.335L95.8007 113.279L95.8545 113.263C99.9674 111.61 104.927 110.672 109.517 110.678ZM216.991 110.879C217.177 110.883 217.327 110.944 217.522 111.156C219.114 112.962 221.337 114.468 223.775 114.661C222.314 115.796 221.318 117.512 220.849 119.197C220.717 119.771 220.662 119.787 220.512 119.889C214.523 122.267 210.522 123.895 210.412 123.927C210.121 123.949 209.657 124.204 209.123 124.417C206.733 125.223 204.63 123.921 203.942 122.152C203.318 120.604 202.876 119.064 202.613 117.531C202.263 115.486 203.541 113.508 205.687 112.891C206.238 112.733 205.27 112.892 216.79 110.889C216.863 110.882 216.929 110.877 216.991 110.879ZM268.336 111.563C270.711 111.461 272.029 112.626 272.647 115.316C273.217 117.714 273.113 120.247 272.402 122.954C271.269 127.094 267.198 129.516 263.683 130.349C262.016 130.768 260.42 131.228 258.846 131.145C258.304 131.122 258.068 131.129 257.981 131.036C256.282 126.579 256.016 122.544 257.213 119.041C257.894 117.058 259.062 115.531 260.759 114.387C262.755 113.038 264.933 112.114 267.252 111.685C267.636 111.619 267.997 111.579 268.336 111.563ZM240.674 112.3C241.249 112.433 246.787 117.393 254.596 116.576C253.46 119.048 252.97 121.692 253.141 124.563C253.149 124.798 253.133 125.161 253.174 125.507C253.166 125.687 253.174 125.924 252.893 126.184C252.626 126.499 241.862 138.594 241.729 138.751C240.739 139.87 239.397 140.376 237.587 140.3C236.195 140.224 234.762 139.801 233.431 139.111C231.801 138.21 230.431 137.174 229.336 136.059C225.167 131.716 223.056 126.246 223.747 121.4C223.973 119.905 224.716 117.307 227.357 116.547C228.898 116.104 233.859 114.499 233.859 114.499C233.969 114.467 234.118 114.364 234.212 114.277C240.163 112.387 240.494 112.294 240.674 112.3ZM199.712 114.073C198.968 115.836 198.98 117.739 199.636 119.814C200.736 123.431 200.84 124.831 203.478 126.753C202.684 127.101 201.71 127.44 200.381 128.002C198.314 128.894 196.497 128.582 194.661 126.965C192.826 125.348 191.472 120.852 192.168 118.507C192.778 116.484 193.917 115.263 195.734 114.741C196.064 114.646 195.717 114.686 199.712 114.073ZM282.946 115.109C284.184 115.203 285.291 115.957 285.73 116.26C288.085 118.026 289.82 120.327 290.934 123.165C291.392 124.344 291.497 125.744 291.202 127.617C290.673 131.165 288.209 135.032 284.903 137.83C280.824 135.667 278.059 132.888 276.526 129.217C275.831 127.629 275.624 125.663 275.999 124.066C276.623 121.265 278.314 117.619 280.969 115.663C281.436 115.32 281.926 115.157 282.408 115.112C282.588 115.096 282.769 115.096 282.946 115.109ZM189.56 115.861C188.47 118.081 188.262 120.463 188.951 123.066C189.244 124.292 189.593 125.504 190.232 126.691C191.479 128.954 192.834 129.934 193.716 130.515C192.537 130.973 193.126 130.745 192.537 130.974C191.318 131.503 190.052 131.449 188.737 130.814C187.903 130.398 187.217 129.882 186.642 129.333C184.372 126.828 183.565 124.022 184.157 120.693C184.468 118.876 185.825 116.757 187.971 116.139C188.356 116.028 188.868 115.941 189.56 115.861ZM152.518 119.584C153.06 119.576 153.589 119.58 154.107 119.596C157.564 119.699 160.537 120.329 163.298 121.508C165.187 122.276 166.787 123.484 168.174 124.992C164.35 124.543 160.599 124.967 156.824 125.517C154.182 125.859 151.564 126.494 148.969 127.002C147.727 127.24 146.602 127.682 145.446 128.015C137.026 130.437 130.379 133.839 123.316 138.493C128.673 129.98 137.41 121.209 147.303 119.972C149.163 119.739 150.894 119.608 152.518 119.584ZM133.083 120.25C133.682 120.674 134.264 121.042 134.863 121.466C134.619 121.655 134.36 121.789 134.116 121.979C133.934 121.554 133.58 120.942 133.083 120.25ZM313.356 121.362C313.867 121.691 326.672 130.164 326.672 130.164C328.137 131.113 328.863 132.393 328.898 134.171C328.89 134.769 328.933 135.532 328.792 136.287C328.614 137.531 328.278 138.64 327.745 139.687C325.229 144.82 321.301 148.155 315.767 150.045C314.414 150.315 313.023 150.656 311.67 150.509C309.286 150.301 307.799 149.477 307.096 148.07C305.47 144.903 299.469 132.746 297.203 127.975C300.124 129.221 303.365 129.719 307.163 129.46C308.272 129.38 309.334 129.133 310.372 129.013C311.867 128.822 312.754 127.971 312.925 126.492C313.359 123.447 313.319 123.1 313.356 121.362ZM114.265 121.67C118.126 121.604 121.331 122.379 124.225 124.049C125.942 125.045 127.194 125.877 128.297 126.811C127.347 127.859 125.006 130.081 122.888 133.074C122.77 133.286 122.715 133.302 122.283 133.248C117.884 132.249 114.672 130.193 112.448 127.02C111.352 125.488 110.609 123.735 109.898 122.092C109.953 122.076 110.063 122.045 110.173 122.013C111.618 121.806 112.978 121.692 114.265 121.67ZM220.364 124.757C220.404 125.103 220.547 126.015 220.547 126.015C221.23 129.632 222.288 132.067 223.7 134.283C218.546 137.91 217.988 138.25 216.276 139.338C215.215 140.001 214.145 140.012 212.807 139.503C211.933 139.158 211.216 138.531 210.743 137.713C210.167 136.747 209.561 135.669 209.008 134.577C208.305 133.17 208.288 131.865 208.883 130.622C209.298 129.787 209.792 129.228 210.421 128.928C211.977 128.122 212.677 127.861 214.705 127.039C218.006 125.673 219.759 124.931 220.364 124.757ZM346.478 125.661C347.851 126.211 349.124 126.722 350.038 127.097C350.073 130.535 350.172 133.958 350.469 137.347C349.474 138.433 348.073 138.842 346.68 138.499C346.55 134.226 346.532 129.941 346.478 125.661ZM165.921 128.143C166.951 128.204 168.07 128.359 169.148 128.585C169.58 128.64 169.989 128.819 170.32 129.141C170.478 129.275 170.541 129.496 170.478 129.692C170.118 130.511 169.616 130.834 169.144 131.268C167.361 132.734 165.972 133.909 160.651 136.333C154.403 139.263 147.295 141.486 141.256 142.448C135.161 143.427 127.973 143.708 122.395 143.167C132.23 135.928 143.163 131.471 149.721 130.24C152.607 129.708 159.494 127.966 165.921 128.143ZM272.938 128.758C273.017 129.033 273.066 129.199 273.097 129.309C273.319 130.08 273.807 130.535 273.418 132.911C273.043 134.508 270.469 150.622 270.244 152.533C269.942 155.004 268.592 156.527 265.833 157.499C264.693 157.887 263.434 158.069 261.932 158.024C256.716 157.915 252.104 155.965 248.345 152.22C247.266 151.16 246.343 149.818 245.529 148.026C245.079 147.083 244.959 146.044 245.051 144.707C245.12 143.912 245.347 143.252 245.842 142.692C246.666 141.621 252.985 133.964 254.743 131.79C254.893 132.104 255.004 132.489 255.154 132.803C255.644 134.092 256.628 134.407 257.351 134.436C262.456 134.576 266.764 133.396 270.606 130.801C271.446 130.202 272.2 129.507 272.938 128.758ZM205.169 130.974C204.718 133.547 205.76 135.928 207.062 138.175C208.112 139.959 208.689 141.342 211.5 142.619C210.345 143.369 209.15 144.189 207.995 144.938C206.84 145.688 205.621 145.8 204.031 145.244C203.173 144.955 202.449 144.508 201.873 143.958C199.943 142.011 198.91 139.866 198.74 137.412C198.635 135.596 199.292 134.154 200.643 133.051C201.185 132.657 201.019 132.705 203.252 131.765C205.318 130.872 205.004 131.021 205.169 130.974ZM293.631 131.506C296.245 137.071 300.415 147.013 301.845 150.117C302.903 152.554 301.507 155.161 299.756 156.737C297.738 158.629 295.696 159.812 293.384 160.477L292.503 160.73C288.36 161.863 284.577 161.759 280.901 160.374C279.295 159.763 278.13 159.025 277.263 158.083C276.759 157.572 276.222 156.952 276 156.181C275.723 155.427 275.683 154.664 275.768 153.925C276.001 151.832 277.519 138.882 277.783 136.899C278.988 137.983 280.738 139.506 283.753 141.082C284.8 141.615 285.727 141.525 286.646 140.784C291.186 137.094 292.785 133.537 293.631 131.506ZM104.312 133.96C108.705 133.962 113.035 134.97 116.421 136.901C113.424 136.631 110.365 136.974 107.102 137.853C103.059 138.779 99.1913 141.619 96.2658 145.72C93.8739 143.982 91.1802 142.603 88.1198 141.68C90.3118 138.79 93.2316 136.089 96.5257 135.057C99.0168 134.318 101.675 133.958 104.312 133.96ZM170.817 134.182C169.728 141.169 162.344 146.57 155.883 149.382C154.516 150.014 153.187 150.575 151.78 150.861C145.836 152.154 140.181 151.756 133.452 149.7C130.713 148.879 128.022 147.805 125.534 146.614C130.403 146.763 135.548 146.831 142.287 145.608C150.779 144.059 152.524 143.081 157.091 141.35C161.563 139.705 167.102 137.217 170.817 134.182ZM195.652 134.963C195.363 136.238 195.099 138.221 195.992 140.705C196.625 142.489 197.555 144.069 198.674 145.475C200.07 147.218 201.654 147.955 202.921 148.425C201.201 149.695 200.101 150.428 197.684 149.693C194.639 148.841 192.422 145.902 191.819 143.394C191.558 142.278 191.289 141.344 191.413 140.116C191.553 138.944 191.904 137.889 192.54 136.991C193.254 135.952 194.048 135.603 195.652 134.963ZM226.366 137.748C226.523 137.881 226.752 138.053 226.925 138.241C229.383 140.573 231.824 142.434 235.145 143.207C235.106 143.277 227.162 151.7 226.785 152.047C225.356 153.292 223.609 153.437 221.963 152.481C221.656 152.449 221.342 152.182 221.098 151.955C219.955 150.675 218.985 149.583 218.157 148.57C217.968 148.326 217.856 147.942 217.707 147.627C217.176 145.575 217.599 144.142 219.044 142.952C219.436 142.66 225.918 138.055 226.366 137.748ZM113.806 140.065C114.153 140.058 114.499 140.061 114.844 140.071C115.765 140.096 116.679 140.179 117.584 140.321C117.765 140.328 117.907 140.406 118.104 140.469C117.861 141.075 117.155 142.351 116.693 143.437C116.348 144.311 116.65 145.356 117.39 145.858C118.004 146.337 118.115 146.306 118.768 146.714C115.618 149.229 113.457 150.207 110.407 151.204C108.661 151.766 106.766 152.013 104.784 151.75C103.85 151.644 102.951 151.462 102.067 151.245C101.071 150.034 100.007 148.902 98.8693 147.855C100.731 145.113 103.009 143.079 105.764 141.696C106.023 141.561 106.228 141.443 106.448 141.38C108.909 140.555 111.377 140.112 113.806 140.065ZM350.89 141.1C350.914 141.272 350.939 141.444 350.964 141.616C350.807 141.511 350.655 141.411 350.496 141.305C350.631 141.242 350.759 141.169 350.89 141.1ZM242.051 142.769C240.901 146.02 241.868 149.793 245.021 153.713C244.825 154.067 240.535 161.319 239.821 162.359C238.526 164.28 236.033 164.522 234.403 163.62C233.057 162.875 231.774 161.932 230.607 160.778C230.032 160.229 229.692 159.671 229.573 159.05C229.503 159.01 229.503 159.011 229.487 158.956C229.052 157.651 229.263 156.518 230.071 155.392C230.322 155.022 230.456 154.865 232.599 152.58C241.752 142.557 240.699 143.456 242.051 142.769ZM329.814 143.012C329.814 143.836 329.814 144.659 329.831 145.479C329.558 145.201 328.843 144.474 328.814 144.445C328.964 144.342 329.177 144.042 329.294 143.83C329.482 143.563 329.645 143.287 329.814 143.012ZM347.867 145.221C347.867 145.221 349.946 146.648 350.969 147.307C351.668 147.796 352.175 148.367 352.518 149.022C352.666 149.54 352.83 150.055 352.995 150.57C353.047 150.987 353.053 151.43 353.009 151.905C352.94 152.7 352.767 153.344 352.469 153.966C351.498 155.881 350.317 157.264 348.789 158.316C348.053 154.933 347.569 151.517 347.243 148.081C347.636 147.155 347.851 146.212 347.867 145.221ZM214.134 146.391C214.191 147.209 214.326 148.302 214.942 149.614C215.692 151.186 218.6 154.46 220.049 155.354C220.931 155.935 221.9 156.193 222.726 156.372C221.91 157.263 221.053 158.225 220.165 159.076C218.634 160.589 216.842 160.984 214.646 160.186C213.843 159.881 213.063 159.449 212.417 158.861C211.283 157.816 210.384 156.764 209.745 155.578C209.492 155.114 209.334 154.565 209.184 154.251C208.652 151.782 209.2 149.956 211.218 148.481C212.153 147.795 213.2 147.077 214.134 146.391ZM325.973 147.825C326.162 148 328.326 150.289 330.171 152.203C330.414 154.896 330.8 157.559 331.373 160.176C330.551 160.953 329.597 161.636 328.595 162.324C327.605 163.026 328.037 162.663 327.023 163.074C325.624 163.596 323.666 163.206 322.538 161.564C322.435 161.415 317.338 153.229 317.235 153.079C320.647 151.681 322.416 150.994 325.353 148.361C325.541 148.187 325.785 147.998 325.973 147.825ZM120.48 149.557C118.02 154.624 113.227 158.503 108.175 161.015C107.17 158.967 106.09 156.992 104.895 155.14C108.639 155.415 111.488 154.561 113.235 153.787C117.668 151.796 118.752 151.007 120.48 149.557ZM124.153 149.691C124.35 149.754 124.491 149.834 124.633 149.912C124.46 150.14 123.354 151.472 123.276 151.614C123.676 150.724 123.918 150.117 124.153 149.691ZM127.909 151.353C128.09 151.359 128.374 151.518 128.641 151.619C129.924 152.144 130.105 152.152 136.087 153.887C134.224 159.428 131.124 163.358 126.653 165.836C125.521 166.459 123.171 167.613 122.95 167.676C121.782 160.921 122.68 156.373 127.909 151.353ZM305.537 151.558C306.758 152.696 308.287 153.449 310.214 153.729C310.899 153.83 311.456 153.906 311.928 153.89C312.345 153.889 312.557 154.008 312.897 154.566C314.049 156.499 318.018 163.043 318.492 163.86C319.534 165.825 319.135 167.966 317.321 169.322C317.266 169.338 317.266 169.338 317.227 169.409C315.742 170.254 314.311 171.081 312.77 171.524C312.417 171.608 312.076 171.642 311.742 171.651C310.962 170.788 310.102 170.097 309.132 169.641C309.161 170.035 309.176 170.431 309.198 170.825C308.442 170.246 307.824 169.387 307.416 168.238C305.938 164.135 305.195 161.965 304.823 160.88C304.206 159.151 304.381 159.757 304.302 159.482C303.637 157.171 303.385 157.541 304.288 156.328C304.963 155.359 305.611 153.265 305.537 151.558ZM194.911 152.195C194.934 152.195 194.951 152.205 195.022 152.244C195.785 152.62 197.652 153.514 200.184 153.203C199.871 153.77 199.635 154.196 199.525 154.228C199.155 154.393 195.785 156.554 194.701 157.343C190.439 160.304 186.6 163.885 183.096 168.151C182.495 167.966 181.893 167.782 181.295 167.589C182.876 162.977 185.611 157.678 190.361 154.479C192.301 153.146 194.345 152.381 194.533 152.207C194.589 152.191 194.713 152.213 194.768 152.197C194.859 152.201 194.889 152.194 194.911 152.195ZM205.656 152.344C205.604 154.028 205.992 155.584 206.766 157.03C208.7 160.645 211.717 163.472 215.738 163.984C213.603 166.505 211.692 166.697 209.505 166.135C206.742 165.44 204.285 163.108 203.084 160.176C202.626 158.997 202.481 157.667 202.722 156.227C202.916 155.039 203.466 154.047 204.345 153.377C204.832 152.998 205.263 152.636 205.656 152.344ZM139.501 154.573C139.682 154.58 140.004 154.666 140.256 154.713C140.288 155.657 140.339 156.656 140.316 157.616C139.908 162.202 138.624 165.609 136.782 169.357C133.941 175.155 127.474 179.089 121.618 181.078C120.022 176.737 117.218 172.928 112.007 170.041C111.769 169.403 111.522 168.771 111.276 168.138C111.166 166.603 111.191 165.099 111.357 163.622C111.373 163.26 111.466 163.174 112.527 162.512C115.779 160.563 118.568 158.032 120.648 155.527C118.54 160.006 118.85 166.472 120.304 170.284C120.597 171.094 121.502 171.549 122.344 171.367C123.169 171.129 123.901 170.978 124.64 170.646C132.208 167.337 136.526 162.876 139.257 155.178C139.32 154.982 139.423 154.714 139.501 154.573ZM144.047 154.941C144.198 154.949 144.351 154.965 144.504 154.981C144.245 155.532 144.104 155.87 143.603 157.027C143.63 155.886 143.696 156.107 143.655 155.344C143.663 155.164 143.63 155.053 143.599 154.943C143.745 154.932 143.895 154.932 144.047 154.941ZM355.28 155.989C356.218 157.509 357.298 158.923 358.464 160.272C358.107 160.869 357.681 161.454 357.171 162.029C355.876 163.533 354.227 164.425 352.709 164.742C352.033 164.877 351.301 165.028 350.561 164.943C350.456 164.933 350.367 164.913 350.269 164.9C350.109 164.16 349.97 163.409 349.872 162.636C349.789 162.345 349.718 162.053 349.639 161.762C350.732 161.227 351.717 160.496 352.597 159.591C353.748 158.412 354.634 157.214 355.28 155.989ZM272.454 156.488C272.463 157.141 272.316 158.493 271.69 164.394C271.058 170.127 270.851 172.016 270.741 172.879C267.031 173.052 262.299 173.266 259.098 173.418C258.858 172.736 258.809 171.965 258.958 171.096C258.98 170.97 259.006 170.845 259.045 170.773C259.045 170.773 261.235 163.885 261.923 161.721C262.197 160.808 262.34 162.138 267.709 160.295C269.494 159.663 271.513 158.189 272.454 156.488ZM248.337 156.751C248.408 156.79 248.424 156.845 248.495 156.884C251.693 159.301 254.306 160.099 257.603 160.997C257.438 161.462 254.873 169.112 254.873 169.112C254.356 170.631 253.516 171.648 252.014 172.02L251.904 172.051C251.094 172.344 250.119 172.268 249.049 171.86C247.963 171.398 246.876 170.935 245.617 170.285C244.711 169.83 244.017 169.077 243.52 167.969C243.211 167.105 243.179 166.16 243.625 165.019C243.828 164.483 248.298 156.822 248.337 156.751ZM199.281 158.351C199.561 160.773 200.374 162.565 201.518 164.262C201.605 164.356 201.707 164.506 201.738 164.616C201.566 164.844 201.322 165.033 201.039 165.293C198.851 167.356 196.393 169.224 193.615 170.982C191.281 170.446 188.966 169.853 186.672 169.208C189.13 166.353 191.741 163.843 194.574 161.67C196.09 160.519 197.694 159.463 199.281 158.351ZM226.2 159.545C226.952 162.368 228.623 163.614 230.576 165.019C232.088 166.133 233.679 167.523 236.747 167.415C236.143 168.423 235.437 169.699 234.605 170.951C233.868 172.116 232.752 172.796 231.423 172.939C230.055 173.155 228.812 172.975 227.749 172.387C225.725 171.36 222.379 169.046 222.381 165.53C222.393 164.335 222.667 163.421 223.256 162.775C224.245 161.657 225.234 160.538 226.2 159.545ZM300.205 160.78C300.631 161.849 300.6 161.739 302.039 165.913C301.96 166.055 301.928 165.944 302.458 167.579C303.249 169.914 303.44 170.575 303.558 171.196C303.821 172.729 303.24 174.028 301.928 175.061C300.899 175.834 300.208 175.913 299.091 176.174C298.14 176.388 297.299 176.571 296.371 176.66C296.103 176.695 295.832 176.692 295.564 176.666C295.762 173.099 295.389 170.914 293.427 171.829C292.69 171.863 292.339 171.88 291.615 171.913C291.477 170.854 291.267 169.029 290.812 165.21C290.812 165.21 290.764 164.628 290.748 164.573C292.163 164.106 296.685 163.46 299.906 160.984C300 160.898 300.11 160.867 300.205 160.78ZM276.38 161.853C278.814 163.477 281.655 164.447 284.794 164.795C285.408 164.857 285.95 164.88 286.202 164.927C286.245 164.914 286.839 169.415 287.131 172.12C282.632 172.325 279.312 172.483 275.351 172.666C275.465 171.276 275.723 168.626 276.38 161.853ZM360.551 162.537C366.398 168.578 373.421 173.713 375.876 182.15C376.926 183.39 377.447 185.576 377.621 188.115C373.797 186.32 369.827 185.377 365.574 185.235C365.212 185.219 364.794 185.22 364.432 185.207C363.759 182.66 364.067 182.273 362.431 178.036C360.187 172.306 357.011 169.763 354.962 168.028C354.734 167.855 354.576 167.724 354.403 167.535C354.773 167.369 355.142 167.202 355.495 166.981C357.64 165.935 359.308 164.431 360.551 162.537ZM332.282 163.737C333.029 166.276 333.978 168.763 335.182 171.181C334.804 171.375 334.42 171.54 334.024 171.668C332.806 172.197 329.55 172.895 327.633 169.752C327.633 169.752 325.984 167.128 325.661 166.625C329.019 166.574 330.867 164.776 332.282 163.737ZM204.173 167.073C205.315 167.936 206.465 168.618 208.197 169.252C207.145 170.715 205.999 171.996 204.751 173.101C202.556 172.77 200.37 172.388 198.194 171.959C200.165 170.534 202.129 168.941 204.173 167.073ZM219.174 167.226C219.491 168.743 219.989 169.852 220.746 170.826C221.958 172.435 223.409 173.736 225.103 174.721C222.707 174.704 220.305 174.623 217.902 174.482C217.574 173.821 217.33 173.118 217.202 172.382C216.78 169.881 217.792 168.636 219.174 167.226ZM166.751 167.326C159.569 173.435 159.032 191.555 155.175 202.045C154.34 201.723 153.508 201.386 152.681 201.014C152.075 200.771 152.138 200.574 151.956 199.733C151.893 199.512 151.829 199.292 151.765 199.072C150.027 190.336 150.219 183.548 152.403 177.676C153.836 173.748 156.348 171.297 159.916 169.616C161.488 168.865 163.076 168.17 164.743 167.751C165.417 167.585 166.085 167.449 166.751 167.326ZM213.897 168.984C213.443 170.766 213.484 172.517 214.018 174.196C212.245 174.043 210.473 173.856 208.705 173.638C209.793 172.41 210.816 171.065 211.932 169.609C211.932 169.609 213.677 169.047 213.897 168.984ZM321.701 169.015C322.277 169.982 322.924 170.988 323.5 171.954C324.833 174.312 324.617 176.458 322.89 178.326C321.029 180.258 318.864 181.301 316.531 181.475C315.72 178.91 314.834 176.533 313.763 174.569C314.219 174.436 314.686 174.264 315.166 174.053C319.725 172.086 320.423 171.409 321.701 169.015ZM351.734 169.609C354.016 171.503 357.955 174.032 360.163 180.714C360.406 181.48 360.616 182.236 360.811 182.992C357.199 178.915 353.807 174.637 351.734 169.609ZM240.724 169.846C241.576 171.567 243.025 172.878 244.985 173.684C245.272 173.805 245.535 173.931 245.809 174.056C243.216 174.183 240.337 174.322 238.322 174.421C238.414 174.054 238.55 173.69 238.747 173.334C239.413 172.13 240.097 170.98 240.724 169.846ZM139.162 171.831C135.966 187.647 137.908 199.782 137.823 200.938C137.768 200.954 137.657 200.985 137.547 201.017C133.309 201.815 128.945 202.205 124.49 202.215C123.825 196.034 123.889 189.823 122.574 184.266C130.142 181.593 135.965 177.266 139.162 171.831ZM336.804 174.135C336.834 174.185 336.859 174.237 336.891 174.287C337.002 175.767 337.059 177.264 337.095 178.767C336.688 178.814 336.269 178.849 335.846 178.83C333.982 178.77 332.673 177.955 331.774 176.486C331.796 176.36 331.357 175.652 331.167 175.409C333.15 175.491 334.981 175.21 336.804 174.135ZM305.377 176.273L305.876 177.799C305.885 178.036 306.31 179.103 306.603 179.913C307.148 181.603 306.813 183.13 305.667 184.533C303.948 186.636 300.71 187.389 298.499 187.37C297.13 187.345 295.678 186.843 294.615 185.927C294.849 183.842 295.098 181.779 295.295 179.924C295.794 179.965 296.305 179.977 296.833 179.923C298.398 179.771 300.009 179.368 302.085 178.711C303.39 178.276 304.498 177.36 305.377 176.273ZM327.019 177.972C327.224 178.271 327.39 178.641 327.626 179.049C328.502 180.228 328.646 181.557 328.107 183.202C327.794 184.186 327.229 185.122 326.436 185.886C324.316 188.045 321.879 189.105 319 189.039C318.892 189.036 318.788 189.019 318.681 189.013C318.295 187.586 317.911 186.161 317.518 184.771C317.741 184.729 317.967 184.682 318.206 184.62C320.093 184.137 321.845 183.394 323.447 182.337C325.05 181.28 326.236 179.806 327.019 177.972ZM334.412 181.924C335.247 182.029 336.083 182.122 337.124 182.072C337.114 183.78 337.073 185.498 337.003 187.228C336.075 185.786 335.27 184.189 334.539 182.363L334.412 181.924ZM331.197 183.386C332.14 185.979 333.738 189.405 336.73 192.504C336.138 202.117 335.171 211.948 335.723 221.574C335.46 220.941 335.161 220.28 334.819 219.587C332.033 213.91 328.813 209.939 324.901 207.163C324.853 206.535 324.813 205.897 324.761 205.274C322.484 201.843 320.941 197.105 319.559 192.189C324.727 191.906 329.955 188.301 331.197 183.386ZM308.737 186.092C308.899 186.526 309.032 186.949 309.16 187.376C309.108 188.45 309.051 189.525 308.989 190.602C308.364 192.144 307.194 193.339 305.589 194.207C301.479 196.283 297.892 195.409 296.049 193.973C294.859 193.035 294.37 192.084 294.134 191.049C294.167 190.573 294.198 190.099 294.24 189.618C296.468 190.717 298.833 190.97 301.367 190.297C304.591 189.489 306.587 188.974 308.737 186.092ZM366.042 188.791C366.957 188.804 367.914 188.861 368.988 189.019C372.038 189.487 374.925 190.449 377.641 191.874C377.451 196.176 376.607 200.643 375.731 203.126C375.027 200.008 373.633 197.288 371.595 195.182C371.166 194.741 370.754 194.353 370.352 193.986C369.024 192.218 367.565 190.497 366.042 188.791ZM308.662 195.784C308.444 199.116 308.226 202.454 308.047 205.795C303.257 208.715 300.586 213.159 299.517 219.91C299.097 222.593 299.031 225.472 299.266 228.98C299.491 231.835 300.133 234.689 301.177 237.488C301.438 238.187 301.715 238.942 302.157 239.649C302.378 240.002 302.386 240.239 302.057 240.751C299.492 244.69 296.53 248.4 293.189 251.875C289.231 252.138 285.162 251.693 283.431 250.29C284.912 248.218 286.017 246.022 286.584 243.749C286.929 243.501 287.29 243.249 287.686 242.988C297.697 232.118 296.48 215.152 294.994 201.427C294.456 200.177 294.174 198.584 294.057 196.797C295.491 197.775 297.265 198.353 299.391 198.553C302.333 198.839 305.062 198.174 307.576 196.557C307.963 196.31 308.32 196.051 308.662 195.784ZM138.215 204.163C138.532 205.68 138.524 205.864 138.781 208.41C138.168 209.181 137.131 209.718 136.511 210.254C136.511 210.254 136.401 210.285 136.22 210.278C135.969 210.252 129.762 208.258 125.115 206.601C125.051 206.256 124.995 205.91 124.939 205.565C131.297 205.5 135.766 204.651 137.647 204.267C137.867 204.204 138.105 204.195 138.215 204.163ZM307.829 210.069C307.717 211.1 307.597 212.699 307.714 215.087C307.671 218.511 307.731 221.929 307.963 225.333C310.543 231.735 308.494 235.505 305.795 239.354C305.313 238.477 304.856 237.584 304.456 236.662C304.093 235.813 303.824 234.878 303.468 233.848C302.215 228.25 302.119 223.153 303.282 218.289C304.117 214.772 305.74 211.922 307.829 210.069ZM126.069 210.614C129.068 211.668 131.251 212.336 133.259 213.036C131.272 214.621 129.363 216.063 127.541 217.6C127.369 217.745 127.208 217.825 127.042 217.873C126.876 215.454 126.582 213.083 126.125 210.816C126.105 210.749 126.087 210.681 126.069 210.614ZM141.098 211.079C141.208 211.047 141.617 211.226 141.83 211.344C142.735 211.798 142.364 211.549 144.946 212.653C142.384 218.038 141.065 223.185 140.308 226.56C139.137 218.138 139.041 213.04 139.001 212.694C139.079 212.553 139.472 212.261 140.053 211.796C140.43 211.449 140.768 211.174 141.098 211.079ZM325.223 211.724C328.501 214.799 330.657 218.645 332.259 221.87C336.783 231.175 334.02 243.53 329.639 252.536C329.998 242.204 328.466 231.703 325.459 224.113C325.588 219.976 325.468 215.823 325.223 211.724ZM148.221 213.678C148.276 213.662 149.686 214.209 150.26 214.342C150.36 214.372 150.457 214.399 150.556 214.428C147.173 226.704 146.644 239.833 150.236 252.071C154.809 258.427 147.467 260.038 145.938 257.314C146.405 261.623 146.169 266.199 144.675 269.809C144.502 269.108 144.326 268.415 144.159 267.7C143.223 263.619 142.703 259.538 142.328 256.368C140.69 242.181 142.31 228.13 146.82 216.881C147.266 215.74 148.143 213.819 148.221 213.678ZM135.741 215.242C136.15 219.772 135.897 219.308 137.124 228.131C137.347 229.735 137.698 232.197 138.151 234.391C138.493 236.199 138.59 237.779 138.506 239.353C138.353 241.72 138.284 247.283 138.317 247.809C138.309 247.99 138.349 248.337 138.365 248.392C137.013 249.079 135.827 249.718 134.577 250.137C133.207 244.751 133.824 246.897 133.033 244.145C130.554 230.557 130.611 231.376 129.666 222.292C129.555 221.49 129.474 220.381 129.442 220.271L135.741 215.242ZM126.916 227.947C127.362 231.575 128.03 235.185 128.618 238.742C129.27 242.666 130.291 246.423 131.108 250.3C131.203 250.63 131.276 251.087 131.324 251.252C131.268 251.268 131.212 251.284 131.157 251.299C129.499 251.955 127.337 252.518 124.506 253.035C123.481 249.02 123.032 247.006 122.705 245.265C124.961 239.859 126.358 233.904 126.916 227.947ZM324.656 233.545C326.147 240.373 326.617 247.377 326.128 255.036C326.12 255.217 326.101 255.76 326.076 255.886C324.141 253.282 322.343 250.505 320.726 247.66C322.71 243.15 323.938 238.402 324.656 233.545ZM338.41 237.946C338.598 238.413 338.778 238.883 338.945 239.331C338.701 239.236 338.463 239.139 338.213 239.047C337.945 238.945 337.607 238.803 337.411 238.741C337.418 238.56 337.502 238.237 337.565 238.04C337.837 237.983 338.121 237.959 338.41 237.946ZM336.833 242.124C337.932 242.49 338.963 242.912 339.935 243.382C339.995 245.433 338.989 246.988 335.799 247.727C337.205 249.825 337.816 251.689 337.838 253.324C336.56 252.456 335.342 251.433 334.3 250.301C336.093 245.555 336.685 242.643 336.833 242.124ZM120.347 250.14C120.617 251.368 120.794 252.186 121.141 253.763C119.98 253.959 118.85 254.118 117.74 254.247C118.68 252.946 119.548 251.573 120.347 250.14ZM318.788 250.959C319.568 252.26 320.385 253.567 321.258 254.888C319.993 254.076 318.787 253.232 317.625 252.359C317.961 251.908 318.347 251.442 318.788 250.959ZM138.435 251.947C138.556 253.402 139.172 259.064 139.132 259.135C138.04 259.687 135.092 260.834 133.952 261.222C130.713 262.392 127.474 263.143 124.659 263.715C122.009 264.239 119.131 264.591 115.607 264.771C114.336 264.838 113.061 264.87 111.783 264.879C109.871 263.2 109.814 260.683 113.145 257.952C113.566 257.935 113.987 257.932 114.408 257.906C116.878 257.792 119.574 257.432 122.806 256.86C125.416 256.407 128.2 255.726 131.707 254.658C133.947 253.954 136.753 252.729 138.435 251.947ZM332.835 253.702C332.874 253.631 333.923 254.58 334.309 254.886C333.758 254.628 333.19 254.317 332.6 254.129C332.678 253.987 332.757 253.844 332.835 253.702ZM316.02 255.408C316.045 255.43 316.195 255.55 316.211 255.566C316.107 256.125 315.983 256.665 315.842 257.189C315.783 256.644 315.842 256.049 316.02 255.408ZM332.733 257.903C333.376 258.223 334.026 258.601 334.679 259.028C334.433 259.205 334.187 259.383 333.921 259.544C333.483 258.892 333.073 258.323 332.733 257.903ZM329.676 259.496C330.064 259.934 330.439 260.417 330.802 260.922C329.747 261.262 328.644 261.517 327.523 261.672C328.021 261.581 328.49 261.293 328.806 260.82C329.112 260.434 329.346 260.008 329.676 259.496ZM323.416 260.108C324.321 260.563 325.424 261.079 326.455 261.557C326.75 261.686 327.066 261.731 327.376 261.699C325.957 261.885 324.525 261.92 323.176 261.809C323.226 261.325 323.288 260.842 323.368 260.358C323.406 260.288 323.391 260.233 323.416 260.108ZM139.784 262.641C139.958 263.246 139.682 263.326 141.132 269.404C141.561 271.256 141.864 272.485 142.155 273.683C140.641 275.191 138.627 276.195 136.021 276.465C136.376 275.386 136.721 274.125 136.993 272.621C137.413 270.355 137.307 268.12 136.674 265.919C136.5 265.314 136.311 264.653 136.082 264.064C137.261 263.605 138.369 263.108 139.784 262.641ZM132.952 265.204C133.165 265.738 133.394 266.327 133.569 266.932L133.585 266.988C133.766 267.412 133.855 268.339 133.864 269.409C133.864 271.736 133.42 274.1 132.474 276.402C132.014 276.345 131.537 276.269 131.048 276.175C128.855 273.251 128.465 272.594 127.111 271.412C126.552 270.918 125.702 270.864 125.105 271.274C123.13 272.647 122.222 273.392 120.95 274.471C119.475 272.897 119.673 270.309 122.391 267.513C122.685 267.472 122.985 267.431 123.273 267.391C127.888 266.659 130.782 265.947 132.952 265.204Z" fill="black"/>
</svg>
