<svg width="383" height="383" viewBox="0 0 383 383" fill="none" xmlns="http://www.w3.org/2000/svg">
<path d="M294.256 316.547C284.507 315.096 285.093 311.734 286.04 310.391C288.118 307.441 290.773 310.573 297.312 310.748C298.061 310.768 306.197 311.253 309.217 306.962C310.255 305.487 311.135 303.139 311.346 299.045C311.429 297.43 311.496 294.401 310.706 291.722C309.108 286.307 310.317 284.298 313.301 285.159C317.062 286.244 317.44 296.422 317.451 296.667C318.112 311.316 309.968 318.887 294.256 316.547ZM108.745 320.995C103.623 318.902 104.631 310.317 110.78 311.673C117.488 313.153 115.281 323.665 108.745 320.995ZM340.694 162.466C333.536 161.032 335.408 151.482 341.587 152.902C347.392 154.236 346.911 163.712 340.694 162.466ZM325.862 210.02C326.424 211.208 330.048 217.147 326.087 218.231C322.822 219.125 321.995 216.101 319.283 210.128C315.454 201.692 313.699 199.773 315.699 197.769C318.529 194.933 319.977 197.568 322.779 203.495L325.862 210.02ZM206.037 323.027C202.041 321.17 195.397 319.219 198.057 315.434C199.993 312.678 204.298 315.68 209.767 318.182C219.09 322.446 219.112 322.618 218.972 324.892C218.948 325.294 218.684 328.957 212.354 326.013C211.593 325.66 206.29 323.145 206.037 323.027ZM301.406 200.603C298.054 198.136 301.998 193.037 305.095 196.152C307.54 198.612 303.92 202.453 301.406 200.603ZM301.438 186.275C298.753 184.721 301.014 178.598 304.693 181.541C307.833 184.054 304.521 188.06 301.438 186.275ZM300.087 147.358C295.279 145.036 298.79 137.095 303.687 139.221C308.911 141.489 304.895 149.68 300.087 147.358ZM87.2959 135.577C84.8184 134.628 85.2922 129.888 88.5936 130.205C92.4451 130.574 91.0122 137.002 87.2959 135.577ZM293.914 135.531C291.895 134.688 291.503 129.996 295.216 130.218C298.929 130.44 297.851 137.175 293.914 135.531ZM50.7238 134.753C46.6323 133.164 48.3836 126.302 52.9482 126.261C59.7949 126.199 56.6155 137.041 50.7238 134.753ZM329.705 134.677C323.32 132.393 327.329 123.94 332.179 126.786C337.314 129.799 334.689 136.459 329.705 134.677ZM94.8236 126.503C88.9748 124.331 92.6459 115.267 98.1197 117.328C104.323 119.665 100.672 128.675 94.8236 126.503ZM284.811 126.42C278.431 123.487 283.214 114.38 289.051 117.931C291.788 119.596 291.955 123.073 290.298 125.104C288.301 127.553 285.529 126.75 284.811 126.42ZM107.295 119.538C104.082 118.291 104.458 114.049 107.905 114.012C112.464 113.964 111.442 121.148 107.295 119.538ZM273.773 119.389C270.375 117.596 273.156 112.597 276.7 114.359C280.14 116.068 276.861 121.019 273.773 119.389ZM81.8255 105.794C82.6612 100.789 82.6994 94.7094 86.9172 96.0073C89.6834 96.8585 88.7433 100.278 87.8608 105.608L86.5471 113.543C85.8316 117.864 85.2106 119.685 82.4188 119.001C79.3268 118.243 80.3447 114.711 81.1661 109.722C81.2179 109.408 81.4713 107.916 81.8255 105.794ZM295.227 104.641C294.52 100.29 293.52 96.4947 296.644 95.9406C300.254 95.3005 300.344 99.1063 301.211 104.439C301.314 105.072 302.034 109.612 302.05 109.717C302.71 113.972 304.202 117.992 300.789 118.992C298.496 119.663 297.37 117.818 296.832 114.517L295.227 104.641ZM64.5757 114.207C59.2742 112.627 60.6159 104.86 66.5295 104.871C72.5241 104.883 73.0456 113.147 65.626 114.498C64.5127 114.19 64.5966 114.213 64.5757 114.207ZM316.415 114.23C310.458 112.403 311.022 104.898 316.686 104.793C322.131 104.693 324.988 113.139 317.328 114.496C316.415 114.23 316.433 114.236 316.415 114.23ZM116.704 110.174C113.083 108.962 114.719 103.337 118.204 104.587C121.799 105.876 120.434 111.424 116.704 110.174ZM264.865 110.252C260.572 109.04 264.29 102.092 267.614 105.067C269.888 107.102 267.802 111.082 264.865 110.252ZM121.012 100.528C118.391 99.5686 117.519 97.0598 117.787 95.6904C118.431 92.3929 121.455 90.1676 124.666 91.6086C130.646 94.2919 126.081 102.382 121.012 100.528ZM259.118 100.496C256.609 99.4735 254.722 96.2866 256.447 93.4608C258.069 90.8046 261.585 90.7579 263.392 92.1209C268.947 96.3107 263.124 102.127 259.118 100.496ZM69.1339 96.503C65.9811 94.5217 64.3637 81.8736 67.9015 73.263C71.099 65.4806 82.2241 64.9899 86.2265 65.1701C92.0498 65.4323 99.6847 67.4497 97.1714 71.5572C94.582 75.789 90.0575 68.223 78.0999 72.1751C69.8659 74.8966 71.9424 87.4466 72.1489 88.4665C73.0024 92.6822 74.3901 93.9398 72.9651 95.8374C71.6575 97.5787 69.529 96.7513 69.1339 96.503ZM310.733 96.2859C307.765 93.5902 311.829 92.2776 311.347 82.9333C311.096 78.0692 310.291 73.7031 304.644 72.0087C297.152 69.7607 289.951 72.7043 289.021 72.835C285.954 73.2666 284.232 69.6518 287.033 67.6727C290.17 65.4564 299.936 63.8514 308.358 66.9155C315.103 69.3695 317.546 76.2712 317.479 84.645C317.405 93.7934 313.921 99.1801 310.733 96.2859ZM132.557 90.1168C130.248 89.435 130.074 85.7786 133.011 85.1227C137.513 84.1169 137.366 91.5371 132.557 90.1168ZM248.796 90.1174C245.342 88.9726 246.969 83.7774 250.73 85.2922C254.009 86.6128 252.152 91.2294 248.796 90.1174ZM81.6766 88.022C74.0222 86.1505 77.3263 76.3413 83.5788 76.5911C92.1472 76.9334 88.4305 89.6732 81.6766 88.022ZM110.25 80.579C116.29 79.583 118.482 78.9511 119.493 81.3431C121.122 85.1981 115.955 85.6319 112.649 86.162L104.633 87.4487C99.5806 88.261 97.2188 88.7364 96.5036 86.023C95.4704 82.1031 101.565 82.0115 103.731 81.6542L110.25 80.579ZM269.472 85.9976C266.144 85.4637 263.483 85.4845 263.619 82.1159C263.683 80.5356 265.012 79.2741 267.943 79.7223C268.353 79.7849 270.904 80.2309 273.051 80.5849L279.494 81.6473C283.91 82.3756 287.025 82.4903 286.764 85.6293C286.551 88.1742 285.006 88.4889 279.518 87.6087L269.472 85.9976ZM299.769 88.0651C298.826 87.9164 292.525 84.793 295.158 79.7066C296.672 76.7827 299.289 76.1658 301.382 76.8239C308.75 79.1393 306.275 89.0913 299.769 88.0651ZM142.535 84.5408C136.21 82.1532 140.991 74.1584 145.833 76.9846C150.959 79.9772 147.317 86.346 142.535 84.5408ZM237.366 84.5258C231.53 82.0108 237.062 73.9272 241.882 77.2228C246.277 80.2276 241.781 86.429 237.366 84.5258ZM170.949 325.993C168.751 327.031 166.982 327.523 166.027 327.186C163.819 326.408 163.225 323.341 166.351 321.623C168.631 320.369 180.155 315.041 181.063 314.681C183.02 313.906 185.763 314.134 185.574 317.391C185.482 318.975 186.112 318.822 176.07 323.558C174.942 324.09 172.077 325.46 170.949 325.993ZM183.23 82.1874C179.941 80.7423 181.65 76.2829 185.324 76.7853C188.654 77.2406 187.58 84.0986 183.23 82.1874ZM197.413 82.1444C194.993 80.9591 195.41 76.197 199.177 76.8155C203.719 77.5614 201.445 84.1199 197.413 82.1444ZM154.7 182.271C146.48 179.651 152.087 168.641 158.383 172.94C162.857 175.994 160.435 184.098 154.7 182.271ZM188.914 350.91C180.199 348.535 170.757 334.9 175.673 332.618C179.306 330.932 180.116 335.468 181.738 337.853C186.532 344.903 191.267 345.606 193.606 344.797C199.657 342.704 203.347 334.277 203.878 333.532C205.287 331.555 209.346 331.886 208.985 335.621C208.452 341.147 197.677 353.299 188.914 350.91ZM157.802 345.096C151.559 343.67 152.661 334.286 158.568 335.424C165.428 336.745 164.045 346.522 157.802 345.096ZM225.949 306.963C222.826 305.092 225.806 301.039 228.607 302.661C231.494 304.334 228.812 308.679 225.949 306.963ZM45.6283 208.081C41.6717 206.664 35.8316 202.139 32.7041 196.265C28.7928 188.92 34.5179 182.564 36.7897 180.131C40.417 176.246 47.1388 171.534 49.6204 174.563C52.4266 177.989 46.9596 179.721 45.4552 180.656C43.2127 182.05 35.5026 188.166 37.8709 193.212C41.3017 200.521 48.8498 202.392 49.8309 204.063C51.2435 206.47 49.2407 209.374 45.6283 208.081ZM47.8548 196.253C40.5576 194.972 43.5234 183.299 50.6336 186.04C56.1639 188.172 54.1095 197.351 47.8548 196.253ZM75.0386 173.297C69.2135 171.284 72.1982 163.126 77.3901 164.812C83.4193 166.77 80.3645 175.137 75.0386 173.297ZM58.0616 143.143C58.1994 143.002 61.4483 139.692 61.5176 139.622C61.5871 139.552 64.9285 136.181 64.9983 136.111C65.06 136.049 68.0312 133.087 68.0933 133.026C70.2251 130.915 72.4525 128.027 74.8667 129.807C77.9218 132.06 74.9091 134.508 72.4753 137.013C72.4138 137.076 69.8228 139.723 69.3892 140.162C69.1789 140.375 66.3657 143.207 65.8718 143.701C65.4492 144.124 62.4107 147.143 62.3398 147.213C61.9031 147.644 59.2726 150.219 59.2098 150.28C57.1343 152.297 54.6969 155.516 52.3994 152.722C50.5365 150.457 52.4249 148.974 55.0408 146.257C55.101 146.195 57.9404 143.267 58.0616 143.143ZM142.459 305.315C137.384 303.41 139.746 296.643 144.635 297.129C147.894 297.453 148.835 300.78 147.907 302.804C147.307 304.113 145.155 306.327 142.459 305.315ZM223.278 345.084C221.653 344.701 219.58 342.934 220.152 340.009C220.681 337.302 223.288 335.187 225.748 335.386C228.302 335.593 230.334 338.256 229.671 340.871C228.504 345.472 224.023 345.259 223.278 345.084ZM169.147 80.0162C163.559 79.0116 164.195 70.9645 169.869 71.1742C176.075 71.4036 175.259 81.115 169.147 80.0162ZM190.35 338.95C183.151 336.892 186.381 326.37 193.588 329.068C195.334 329.721 197.422 332.023 196.817 334.889C196.123 338.177 192.553 339.58 190.35 338.95ZM238.092 305.333C232.484 303.192 235.165 295.628 240.56 297.37C246.431 299.266 243.076 307.236 238.092 305.333ZM182.908 304.719C179.053 302.089 183.416 298.774 185.615 299.712C189.069 301.187 186.669 307.286 182.908 304.719ZM143.567 324.348C143.355 324.14 140.108 320.926 140.038 320.856C139.264 320.087 136.602 317.42 136.532 317.35C136.101 316.916 133.527 314.307 133.466 314.244C129.817 310.519 128.959 309.479 130.562 307.609C133.062 304.691 135.559 308.201 137.309 309.872C137.679 310.226 140.013 312.475 140.38 312.831C140.519 312.967 143.716 316.092 143.855 316.229C143.924 316.297 146.916 319.255 147.331 319.669C147.826 320.162 150.347 322.696 150.409 322.758C152.485 324.86 155.817 327.485 153.727 329.787C151.334 332.423 149.578 330.198 146.703 327.411C146.64 327.35 143.63 324.41 143.567 324.348ZM212.347 310.654C206.973 308.93 208.823 300.42 214.573 302.121C220.324 303.823 218.057 312.487 212.347 310.654ZM238.825 158.002C233.78 156.304 236.296 148.577 241.219 149.143C246.872 149.791 245.087 160.11 238.825 158.002ZM237.248 124.73C233.544 123.416 231.878 118.32 233.065 115.838C234.619 112.588 238.349 110.738 241.486 111.483C243.862 112.047 247.223 115.03 246.193 119.614C245.904 120.898 244.938 122.615 243.251 123.737C242.745 124.074 240.116 125.747 237.248 124.73ZM116.573 149.606C112.272 147.779 111.433 142.639 112.335 140.375C113.699 136.951 117.342 136.039 119.669 136.33C124.421 136.923 126.593 142.538 125.175 145.719C123.56 149.34 118.832 150.565 116.573 149.606ZM68.1454 59.7987C68.1454 63.9951 64.7366 67.4039 60.5402 67.4039C56.3437 67.4039 52.9349 63.9951 52.9349 59.7987C52.9349 55.6022 56.3437 52.1934 60.5402 52.1934C64.7366 52.1934 68.1454 55.6022 68.1454 59.7987ZM211.806 56.2112C212.601 55.8362 219.215 52.4454 218.972 57.7111C218.855 60.2371 215.647 60.9971 207.008 65.075C203.838 66.5718 199.416 69.3833 197.856 66.2434C196.014 62.5394 201.428 61.1106 205.956 58.9726L211.806 56.2112ZM212.212 80.0094C206.701 78.8347 208.915 70.3229 214.125 71.1247C220.413 72.0924 218.612 81.3735 212.212 80.0094ZM162.997 129.027C156.487 126.151 162.355 118.546 167.05 121.585C170.749 123.979 167.803 131.149 162.997 129.027ZM141.918 158.07C136.203 156.532 138.482 148.516 142.919 149.159C145.246 149.496 147.329 151.841 147.235 154.06C147.123 156.722 144.49 158.762 141.918 158.07ZM153.031 146.304C147.817 143.994 149.319 137.059 155.131 137.923C161.456 138.863 158.561 148.754 153.031 146.304ZM207.422 114.107C199.851 112.243 199.893 100.162 209.702 101.314C211.69 101.547 216.512 104.723 215.555 109.43C214.881 112.739 211.248 115.049 207.422 114.107ZM182.612 133.407C176.986 132.177 178.037 123.044 184.643 125.186C190.765 127.172 187.41 134.456 182.612 133.407ZM216.766 128.883C212.101 126.167 214.906 119.272 220.145 121.155C223.453 122.344 223.196 125.531 222.716 126.645C221.961 128.396 219.183 130.291 216.766 128.883ZM202.992 159.708C197.683 157.598 200.28 149.072 206.124 149.998C214.588 151.341 210.008 162.496 202.992 159.708ZM198.94 133.408C192.624 132.028 195.386 123.619 201.509 125.059C206.782 126.299 203.719 134.453 198.94 133.408ZM184.479 179.43C182.796 178.467 179.848 170.376 179.788 169.733C179.52 166.846 182.112 165.677 184.011 166.737C185.594 167.621 188.892 175.617 188.867 176.976C188.821 179.49 186.399 180.529 184.479 179.43ZM195.871 179.574C192.823 177.958 195.481 173.432 195.96 172.386C197.935 168.073 198.582 165.575 201.701 166.562C204.944 167.588 202.769 171.859 202.108 173.353C200.398 177.22 199.14 181.307 195.871 179.574ZM271.656 70.098C266.178 67.8238 267.631 59.2988 273.772 60.7683C280.47 62.3714 278.017 72.7391 271.656 70.098ZM176.598 159.876C173.654 159.023 172.536 156.284 172.592 154.552C172.726 150.37 177.72 149.611 179.266 150.059C185.52 151.869 183.634 161.915 176.598 159.876ZM274.217 180.592C264.758 178.143 267.874 165.583 275.328 167.067C284.911 168.973 281.837 182.564 274.217 180.592ZM161.831 155.275C159.022 153.622 160.51 147.238 163.402 142.839C166.251 138.504 172.311 134.35 181.262 137.914C189.715 141.28 188.727 144.389 188.21 145.257C185.827 149.256 182.974 144.298 177.356 143.014C173.106 142.042 169.335 143.276 167.524 147.716C166.31 150.695 166.072 157.77 161.831 155.275ZM218.619 155.25C215.536 153.426 217.886 146.374 211.704 143.335C205.857 140.461 199.953 146.959 197.296 146.748C195.007 146.567 193.785 143.756 195.547 141.831C196.953 140.293 207.664 132.982 216.191 138.971C218.284 140.442 221.752 143.918 222.885 151.509C223.488 155.55 219.888 156.002 218.619 155.25ZM67.7745 322.459C67.7745 326.656 64.3657 330.064 60.1691 330.064C55.9727 330.064 52.5639 326.656 52.5639 322.459C52.5639 318.263 55.9727 314.854 60.1691 314.854C64.3657 314.854 67.7745 318.263 67.7745 322.459ZM226.071 79.4024C223.381 78.0342 225.026 73.9393 227.939 74.7318C230.851 75.5242 229.927 81.3636 226.071 79.4024ZM163.048 260.811C156.851 258.6 161.893 250.041 166.682 253.198C171.049 256.077 168.133 262.626 163.048 260.811ZM140.626 270.086C136.93 268.137 135.957 263.84 137.808 260.544C138.677 258.996 142.289 255.757 146.069 257.299C149.439 258.674 151.297 263.049 150.235 265.924C149.001 269.264 143.961 271.844 140.626 270.086ZM242.85 69.1303C242.78 69.0627 239.574 65.9411 239.365 65.7368C238.946 65.326 235.951 62.3719 235.882 62.303C235.758 62.1803 232.864 59.2862 232.803 59.2244C231.399 57.8097 227.641 54.5793 229.326 52.3949C231.917 49.0355 234.464 52.5799 236.358 54.4098C236.419 54.469 239.289 57.2669 239.411 57.3862C240.175 58.134 242.665 60.5886 242.873 60.7935C243.427 61.3417 245.918 63.8135 246.332 64.2264C246.393 64.2874 249.015 66.9119 249.38 67.2799C252.373 70.3055 254.766 72.2501 252.552 74.4955C250.277 76.8035 248.585 74.6131 245.931 72.0878C245.56 71.7345 243.28 69.5459 242.85 69.1303ZM142.306 124.823C136.171 122.891 136.764 117.384 137.1 116.226C137.378 115.267 139.05 110.851 143.848 111.36C146.522 111.643 150.847 114.05 150.523 118.262C150.434 119.41 149.644 122.788 146.746 124.391C145.419 125.125 143.753 125.278 142.306 124.823ZM227.467 146.479C221.492 144.245 225.134 136.432 230.366 138.107C236.947 140.214 231.616 148.03 227.467 146.479ZM172.009 114.022C163.74 111.472 168.299 99.5528 176.761 101.362C179.906 102.035 182.62 105.663 180.674 109.973C178.235 115.377 172.558 114.191 172.009 114.022ZM255.711 167.73C250.776 165.318 254.185 158.286 258.614 159.653C264.027 161.324 261.571 170.596 255.711 167.73ZM175.481 49.2554C170.698 46.4037 181.012 32.3573 189.714 30.928C199.212 29.3676 209.682 42.9062 208.953 47.4072C208.514 50.1135 205.397 49.9809 204.283 48.879C202.975 47.5846 200.507 40.4051 194.133 37.3822C190.246 35.5386 185.499 38.9485 182.164 43.505C180.289 46.0659 179.116 51.4223 175.481 49.2554ZM172.931 280.524C168.819 279.111 166.591 274.64 168.007 271.418C169.767 267.416 174.211 267.357 176.473 268.058C184.644 270.588 181.51 283.473 172.931 280.524ZM250.649 55.881C245.703 53.7823 247.227 46.1668 252.628 47.9847C259.417 50.2702 255.745 58.0432 250.649 55.881ZM262.755 149.625C253.119 146.723 258.481 134.748 266.179 136.464C275.469 138.536 270.567 151.977 262.755 149.625ZM330.806 323.201C330.806 327.398 327.397 330.807 323.201 330.807C319.004 330.807 315.596 327.398 315.596 323.201C315.596 319.005 319.004 315.596 323.201 315.596C327.397 315.596 330.806 319.005 330.806 323.201ZM223.922 46.3618C215.642 43.2854 222.464 32.1666 228.348 38.5103C232.271 42.7394 227.639 47.743 223.922 46.3618ZM199.105 15.6509C199.105 19.8474 195.696 23.2562 191.5 23.2562C187.303 23.2562 183.894 19.8474 183.894 15.6509C183.894 11.4545 187.303 8.04565 191.5 8.04565C195.696 8.04565 199.105 11.4545 199.105 15.6509ZM330.806 59.0567C330.806 63.2532 327.397 66.662 323.201 66.662C319.004 66.662 315.596 63.2532 315.596 59.0567C315.596 54.8602 319.004 51.4514 323.201 51.4514C327.397 51.4514 330.806 54.8602 330.806 59.0567ZM317.822 174.992C321.026 168.186 322.07 164.562 324.251 163.728C325.762 163.151 329.844 163.438 326.404 170.763L322.836 178.36C321.169 181.911 319.993 184.468 319.015 184.866C318.174 185.207 312.958 185.467 315.825 179.218C315.864 179.134 317.383 175.922 317.822 174.992ZM181.446 256.898C177.998 255.838 178.07 248.622 183.393 248.535C190.606 248.418 188.176 258.969 181.446 256.898ZM305.376 217C298.695 213.811 304.904 204.692 310.052 209.771C313.606 213.278 309.572 219.002 305.376 217ZM23.9977 190.758C23.9977 194.954 20.5889 198.363 16.3924 198.363C12.1959 198.363 8.78711 194.954 8.78711 190.758C8.78711 186.561 12.1959 183.153 16.3924 183.153C20.5889 183.153 23.9977 186.561 23.9977 190.758ZM123.982 167.842C119.062 165.759 122.328 157.741 127.071 159.798C132.763 162.266 129.06 169.992 123.982 167.842ZM304.717 157.763C301.151 156.653 303.573 151.366 306.649 153.102C309.111 154.49 307.704 158.694 304.717 157.763ZM106.486 180.626C97.8259 178.152 102.452 165.089 110.363 167.097C118.82 169.244 114.335 182.867 106.486 180.626ZM199.105 367.349C199.105 371.545 195.696 374.954 191.5 374.954C187.303 374.954 183.894 371.545 183.894 367.349C183.894 363.152 187.303 359.744 191.5 359.744C195.696 359.744 199.105 363.152 199.105 367.349ZM374.212 190.758C374.212 194.955 370.803 198.363 366.607 198.363C362.41 198.363 359.001 194.955 359.001 190.758C359.001 186.562 362.41 183.153 366.607 183.153C370.803 183.153 374.212 186.562 374.212 190.758ZM117.242 245.593C108.695 243.891 111.82 232.19 118.354 232.022C128.972 231.749 126.857 247.509 117.242 245.593ZM263.166 245.619C255.139 243.825 256.159 231.802 264.929 232.026C268.491 232.117 271.435 236.424 271.316 239.589C271.103 245.263 264.749 245.973 263.166 245.619ZM171.344 244.965C160.657 242.146 159.301 229.135 161.331 227.113C162.515 225.934 165.243 225.676 166.156 229.106C166.823 231.608 167.5 237.68 172.503 239.018C178.874 240.723 183.211 234.761 186.331 235.23C188.142 235.502 190.615 238.676 184.972 242.143C180.229 245.058 175.381 246.031 171.344 244.965ZM205.407 245.08C192.78 242.51 193.232 235.179 197.527 235.205C200.105 235.22 202.355 238.836 207.498 239.198C209.318 239.326 213.642 239.66 215.946 233.595C216.135 233.097 217.524 222.945 221.937 227.055C224.801 229.722 220.266 248.104 205.407 245.08ZM152.711 243.832C146.709 241.648 151.443 234.454 155.075 235.283C161.647 236.784 158.545 245.955 152.711 243.832ZM226.804 243.622C221.332 240.732 225.839 232.785 230.887 236.058C237.522 240.361 230.605 245.629 226.804 243.622ZM140.713 232.378C136.543 230.11 138.365 222.934 144.124 223.912C149.703 224.86 146.486 235.517 140.713 232.378ZM239.123 232.43C232.9 229.669 237.009 221.946 242.108 224.228C247.206 226.51 244.069 234.625 239.123 232.43ZM175.6 231.51C169.332 228.753 173.739 219.782 180.336 222.28C185.963 224.41 182.437 234.517 175.6 231.51ZM203.499 231.754C198.883 229.795 198.676 221.585 205.287 221.887C214.102 222.29 210.514 234.731 203.499 231.754ZM124.194 222.14C119.784 220.227 121.538 211.773 127.256 214.12C132.974 216.468 128.762 224.122 124.194 222.14ZM255.969 222.078C250.354 219.469 254.431 211.73 259.518 214.246C263.834 216.381 260.96 224.397 255.969 222.078ZM149.956 221.855C141.633 220.029 135.521 213.676 137.564 204.528C138.703 199.431 141.84 194.343 144.313 194.084C145.846 193.924 148.287 195.469 146.97 198.482C146.697 199.109 137.565 211.638 149.275 215.415C152.395 216.422 156.604 216.071 156.187 219.818C155.999 221.512 154.695 222.895 149.956 221.855ZM228.627 221.956C226.88 221.132 225.536 217.432 229.847 216.409C230.764 216.191 238.143 215.595 239.673 209.906C241.333 203.734 235.494 199.297 235.865 196.544C236.717 190.219 245.928 196.379 245.929 207.927C245.931 220.847 230.641 222.907 228.627 221.956ZM181.712 215.542C179.981 215.102 179.07 213.577 180.879 209.217C182.5 205.308 183.534 201.231 186.879 202.244C190.625 203.379 187.949 208.067 187.059 210.07C185.878 212.727 184.827 216.332 181.712 215.542ZM195.169 207.843C192.939 202.857 196.356 201.612 198.269 202.299C200.968 203.269 203.994 212.92 202.997 214.449C202.194 215.681 199.646 217.638 196.909 211.684C196.768 211.378 195.376 208.305 195.169 207.843ZM107.248 214.809C98.414 212.231 101.523 199.507 108.868 201.373C118.837 203.905 115.044 217.083 107.248 214.809ZM272.284 214.712C267.953 213.17 267.78 207.717 269.086 205.242C271.164 201.305 276.185 199.782 279.411 202.849C281.739 205.063 282.355 209.13 279.659 212.294C277.948 214.303 275.063 215.701 272.284 214.712ZM154.243 209.876C147.354 207.527 151.242 198.003 157.241 199.601C159.631 200.237 160.798 202.164 160.653 204.757C160.406 209.18 156.262 210.565 154.243 209.876ZM226.93 209.984C220.589 208.457 221.628 199.548 226.887 199.464C230.589 199.405 232.925 202.475 232.692 205.041C232.485 207.309 230.177 210.766 226.93 209.984ZM127.903 203.285C122.635 201.357 126.747 193.257 131.342 194.916C136.448 196.76 133.851 205.461 127.903 203.285ZM252.387 203.447C247.49 202.129 248.49 194.592 253.209 194.741C259.677 194.946 258.974 205.218 252.387 203.447ZM173.176 201.852C166.982 204.608 164.372 199.254 169.626 196.815C178.04 192.909 178.28 193.438 179.392 194.307C181.214 195.731 181.412 198.139 176.847 200.205C176.773 200.238 173.323 201.787 173.176 201.852ZM212.405 202.817C208.456 201.537 203.577 199.533 202.884 197.461C202.447 196.153 202.977 194.359 204.779 193.873C206.807 193.327 214.547 196.99 215.599 198.24C217.61 200.632 214.741 203.575 212.405 202.817ZM189.66 194.905C186.263 193.591 185.937 185.44 193.067 186.93C197.99 187.959 196.454 197.532 189.66 194.905ZM176.847 181.757C183.306 184.712 179.914 188.197 177.679 188.281C177.433 188.29 167.009 185.479 167.027 182.019C167.03 181.391 167.242 177.465 172.977 180.018C173.055 180.052 176.77 181.722 176.847 181.757ZM204.69 188.119C202.539 187.393 201.853 184.294 204.193 182.736C204.545 182.503 212.344 178.596 214.139 179.217C217.707 180.451 216.097 183.55 214.786 184.42C212.637 185.848 206.32 188.669 204.69 188.119ZM130.161 333.83C124.55 331.332 127.017 324.645 132.019 325.964C137.802 327.489 136.068 336.459 130.161 333.83ZM81.8587 305.193C79.2857 304.48 76.1069 300.664 77.5459 297.408C78.0256 296.322 80.1986 292.954 84.1889 294.108C86.7995 294.863 89.4672 298.378 88.4647 301.445C87.1907 305.344 83.3225 305.598 81.8587 305.193ZM143.016 187.481C140.247 185.914 136.044 177.163 137.644 170.638C138.378 167.643 141.03 162.394 149.091 160.308C157.004 158.261 156.687 162.552 155.847 164.026C154.322 166.704 147.866 164.838 144.471 169.983C140.865 175.445 146.547 182.659 146.679 182.885C148.805 186.543 145.472 188.87 143.016 187.481ZM237.533 187.703C233.266 185.828 238.59 180.346 239.443 177.286C241.387 170.315 236.777 167.755 234.92 166.923C231.808 165.53 225.478 165.977 227.24 161.378C228.263 158.71 234.216 159.374 239.105 162.33C247.962 167.683 245.896 176.382 245.396 178.39C244.158 183.357 240.657 189.076 237.533 187.703ZM76.9709 157.764C73.9035 156.703 75.5877 151.37 78.9262 153.085C81.7233 154.521 79.8466 158.759 76.9709 157.764ZM58.0349 173.325C55.5132 167.932 54.0159 164.952 57.0598 163.773C59.5478 162.809 61.0959 164.844 63.8258 171.489C66.3644 177.668 69.9775 182.164 67.3086 184.387C63.3864 187.654 61.0419 179.749 59.9181 177.344C59.5798 176.62 59.0126 175.415 58.0349 173.325ZM196.721 304.465C194.138 301.802 197.967 297.453 200.888 300.435C203.647 303.251 199.062 306.879 196.721 304.465ZM74.2517 216.94C69.6165 214.604 72.1756 207.635 77.1184 208.463C79.8423 208.919 81.3676 211.683 80.433 214.142C79.4204 216.806 76.5543 218.101 74.2517 216.94ZM235.615 319.939C236.122 319.433 239.174 316.407 239.246 316.335C239.645 315.941 242.51 313.122 242.576 313.057C249.048 306.722 250.123 305.52 252.261 307.196C255.516 309.747 249.664 314.407 248.333 315.734L243.404 320.645C243.033 321.015 239.749 324.253 239.674 324.327C239.612 324.388 236.588 327.342 236.525 327.404C231.94 331.844 231.307 331.579 229.768 330.041C227.199 327.474 230.65 324.95 232.561 323.009C232.622 322.947 235.554 320 235.615 319.939ZM80.8284 316.549C80.2928 316.468 62.7778 316.372 66.0414 293.856C67.4777 283.947 70.6744 284.57 71.9576 285.266C75.1567 287.003 72.5052 290.279 71.9731 294.846C69.9538 312.179 82.925 312.49 91.9823 309.715C98.2918 307.781 97.967 312.093 97.2315 313.28C95.4688 316.122 86.4514 317.398 80.8284 316.549ZM128.696 186.986C124.133 185.334 124.444 177.659 130.111 178.435C136.636 179.329 134.237 188.992 128.696 186.986ZM278.252 294.568C279.613 294.354 285.877 292.233 286.728 296.103C287.339 298.883 285.441 299.335 279.494 300.316L272.415 301.485C268.002 302.219 263.762 303.42 263.619 299.844C263.502 296.933 264.856 296.675 270.612 295.77L278.252 294.568ZM132.307 296.624C129.662 295.45 130.686 291.175 134.048 291.757C135.64 292.033 136.747 293.559 136.212 295.168C135.527 297.224 133.069 296.962 132.307 296.624ZM248.559 296.775C245.38 295.826 246.989 290.61 250.737 291.888C253.776 292.924 252.456 297.939 248.559 296.775ZM97.8983 190.987C97.2051 190.01 86.7472 180.735 87.798 162.802C87.8315 162.231 88.5813 147.415 98.366 136.195C104.361 129.32 109.202 126.745 110.928 125.828C118.927 121.573 121.046 122.751 122.173 121.87C123.106 121.14 123.531 108.154 137.986 96.8388C147.062 89.734 157.655 86.5583 168.522 87.2092C180.623 87.9342 187.19 93.2694 191.637 97.3882C194.264 94.9026 211.155 79.346 236.449 91.4204C242.477 94.2978 249.012 98.9857 253.718 105.474C260.741 115.158 259.73 120.976 261.253 121.959C262.56 122.801 271.621 122.081 283.7 134.915C295.37 147.315 295.474 163.53 295.491 164.161C295.928 180.786 287.335 188.171 285.35 190.981C289.343 196.634 301.931 209.696 292.088 233.713C291.718 234.614 287.765 245.139 277.229 253.012C267.73 260.111 263.305 258.68 261.253 260.003C259.939 260.85 260.057 271.572 248.221 282.573C234.951 294.908 209.733 301.695 191.637 284.573C176.013 299.043 158.389 295.195 149.662 291.784C143.485 289.37 135.784 284.89 129.407 276.282C122.545 267.021 123.485 260.741 121.882 259.921C121.346 259.647 108.199 258.953 96.6635 243.555C93.5051 239.339 87.4055 229.148 87.7199 215.689C88.0693 200.732 96.0312 193.593 97.8983 190.987ZM172.476 288.24C184.739 285.786 187.657 278.582 190.414 277.625C193.541 276.539 194.756 279.438 198.272 282.4C201.866 285.429 205.276 286.708 207.222 287.33C218.72 291 236.153 288.519 248.161 273.839C255.787 264.515 253.619 256.394 256.559 254.845C258.535 253.803 267.375 254.319 276.836 245.464C288.387 234.652 293.227 216.739 286.255 202.536C280.931 191.691 273.376 194.149 281.71 185.886C286.826 180.814 291.573 170.725 288.503 156.647C285.737 143.964 276.748 136.266 274.718 134.647C262.412 124.827 255.934 130.704 254.886 124.039C252.588 109.425 242.632 101.817 237.295 98.7335C225.707 92.0395 214.697 92.4406 208.552 94.2321C195.58 98.0144 195.602 105.545 190.812 104.451C188.151 103.843 188.413 101.699 182.664 97.8298C178.842 95.257 175.236 94.3298 172.987 93.8281C163.796 91.777 148.031 93.534 136.03 107.017C128.131 115.892 128.778 124.734 127.55 126.464C125.95 128.718 119.39 126.408 109.312 134.034C92.0271 147.113 92.6149 166.73 95.1732 175.015C98.3833 185.409 104.607 187.35 105.056 190.216C105.768 194.753 99.4517 195.303 95.7687 205.24C90.0174 220.758 97.1835 236.723 106.171 245.284C111.094 249.974 116.315 252.588 121.914 253.79C133.496 256.274 123.984 256.346 133.011 270.935C140.267 282.661 156.419 291.452 172.476 288.24ZM120.322 290.151C114.575 286.542 119.798 278.093 125.259 282.122C131.478 286.712 124.153 292.558 120.322 290.151ZM258.537 290.342C253.265 287.82 256.343 281.36 260.484 281.118C268.201 280.667 265.851 293.84 258.537 290.342ZM81.5726 274.709C79.9179 264.795 79.9188 264.948 81.3562 263.543C82.5783 262.348 85.3838 261.393 86.5472 268.419L87.8609 276.353C89.1601 284.2 88.9919 285.385 86.7435 285.988C83.7909 286.78 83.1886 284.367 82.4085 279.694C82.3087 279.096 81.6724 275.307 81.5726 274.709ZM296.642 268.621C297.369 264.135 299.121 260.775 302.137 263.771C303.079 264.706 303.202 265.492 301.305 277.016C299.807 286.114 299.249 286.157 297.045 286.088C293.616 285.98 294.491 281.865 295.093 278.156L296.642 268.621ZM116.135 277.254C113.3 275.745 114.91 270.8 118.353 271.737C122.369 272.83 119.598 279.099 116.135 277.254ZM265.099 277.475C261.597 276.506 262.711 270.148 266.818 271.872C269.951 273.188 268.601 278.444 265.099 277.475ZM64.7944 276.909C59.3075 274.99 60.4674 266.616 66.559 267.701C73.5737 268.951 71.6972 279.322 64.7944 276.909ZM315.284 277.003C309.634 275.479 312.578 266.958 317.999 267.634C324.775 268.479 322.065 278.833 315.284 277.003ZM106.91 267.753C104.034 266.765 104.697 262.363 108.188 262.268C112.579 262.147 111.385 269.291 106.91 267.753ZM274.853 267.933C270.745 267.226 271.893 261.65 275.546 262.342C279.531 263.098 278.628 268.583 274.853 267.933ZM95.2774 264.553C88.7391 262.413 92.7183 253.363 98.0713 255.416C104.316 257.811 101.089 266.456 95.2774 264.553ZM284.976 264.628C279.101 262.495 282.175 253.799 287.841 255.292C294.452 257.034 290.667 266.695 284.976 264.628ZM51.6817 255.513C46.8529 253.842 47.5524 245.706 52.8282 247.074C56.8518 248.118 57.0697 251.449 56.7375 252.794C55.9942 255.803 52.6582 255.851 51.6817 255.513ZM329.076 255.55C326.606 254.735 325.871 251.66 326.822 249.781C327.65 248.143 330.317 246.141 332.923 247.378C337.329 249.47 333.536 257.022 329.076 255.55ZM64.7252 245.593C64.6565 245.524 61.8449 242.682 61.2979 242.126C60.8902 241.711 58.0441 238.804 57.9089 238.665C57.7904 238.543 55.0143 235.676 54.9556 235.614C52.4751 233.025 50.4551 231.537 52.401 229.21C54.4594 226.747 56.5346 229.065 59.2533 231.71C59.3163 231.771 62.0143 234.418 62.3892 234.789C62.8146 235.21 65.8506 238.242 65.9211 238.312C65.9915 238.383 69.3639 241.791 69.4339 241.863C69.5576 241.989 72.4517 244.96 72.513 245.023C73.4209 245.964 77.7604 249.06 75.2995 251.73C73.3212 253.876 71.9407 252.772 67.7937 248.663C67.7321 248.602 64.7865 245.655 64.7252 245.593ZM313.86 241.773C314.279 241.348 317.221 238.385 317.361 238.244C317.781 237.823 320.451 235.165 320.874 234.747C321.371 234.256 323.925 231.754 323.988 231.693C325.447 230.275 328.396 226.464 330.81 229.182C332.803 231.426 330.753 232.959 328.308 235.529C327.654 236.216 325.382 238.578 325.322 238.64C325.253 238.71 321.96 242.09 321.891 242.16C321.822 242.231 318.491 245.608 318.421 245.678C318.236 245.865 315.689 248.41 315.315 248.781C312.751 251.321 310.539 254.126 308.114 251.895C305.477 249.468 308.809 246.959 310.783 244.921C310.844 244.858 313.798 241.836 313.86 241.773ZM86.68 251.203C84.2859 249.204 86.5192 244.969 89.4355 246.585C92.6341 248.358 89.8171 253.823 86.68 251.203ZM293.195 251.145C290.812 248.679 293.921 244.843 296.519 246.725C299.385 248.801 295.808 253.849 293.195 251.145ZM79.8986 242.899C74.4844 241.257 77.7507 231.658 83.4795 234.817C87.3503 236.951 84.8052 244.387 79.8986 242.899ZM300.935 242.909C295.525 241.31 297.752 231.84 303.714 234.825C306.749 236.345 306.147 239.802 305.632 240.809C304.507 243.008 302.021 243.229 300.935 242.909ZM41.5229 229.032C36.1787 227.526 36.2275 220.008 41.1758 219.465C43.8381 219.173 46.6424 221.431 47.1402 223.911C47.948 227.935 43.7176 229.65 41.5229 229.032ZM76.9254 228.991C74.1727 227.993 75.2235 223.628 78.2137 224.11C81.6027 224.657 80.3424 230.23 76.9254 228.991ZM154.705 307.003C151.535 305.254 154.792 300.372 157.64 302.921C159.888 304.932 157.346 308.461 154.705 307.003ZM304.709 229.117C302.511 228.372 302.034 224.544 305.129 224.089C309.023 223.518 308.531 230.414 304.709 229.117ZM156.118 46.2089C150.874 43.6741 153.912 35.9065 159.856 36.8892C166.593 38.0029 161.723 48.9185 156.118 46.2089ZM206.467 280.621C199.554 278.594 200.524 267.313 210.118 267.789C214.502 268.006 215.679 272.269 215.664 273.732C215.621 277.869 210.657 281.85 206.467 280.621ZM136.53 64.6117C136.6 64.5413 139.824 61.3158 140.035 61.106C140.175 60.966 143.492 57.6843 143.563 57.6147C144.563 56.6317 146.508 54.7358 146.697 54.5528C148.321 52.9787 151.245 48.9332 153.919 52.3922C155.514 54.4551 153.208 56.3719 150.405 59.2089C150.344 59.2709 147.452 62.1741 147.329 62.2972C147.19 62.4353 144.69 64.9138 143.853 65.7367C143.784 65.8048 140.449 69.065 140.38 69.1327C140.318 69.192 137.433 71.9727 137.309 72.0905C133.552 75.6777 132.089 76.6297 130.387 74.1228C128.79 71.7707 131.277 69.951 133.466 67.7166C133.527 67.6543 136.161 64.9831 136.53 64.6117ZM339.257 228.963C331.718 226.544 339.21 215.538 344.521 220.582C347.678 223.581 344.157 230.536 339.257 228.963ZM108.077 70.1612C106.178 69.442 104.966 66.7038 105.706 64.2758C106.698 61.0156 110.143 60.0437 112.33 60.9584C117.942 63.3053 113.765 72.3157 108.077 70.1612ZM129.239 55.899C124.066 53.8032 128.473 46.0645 133.523 47.9816C137.899 49.643 134.579 58.0624 129.239 55.899ZM334.82 208.343C334.161 208.15 330.492 205.065 335.294 202.639C341.733 199.386 345.783 194.431 345.783 190.981C345.783 189.101 343.945 183.79 335.321 179.328C331.115 177.153 333.452 174.55 334.227 173.933C337.629 171.221 351.58 181.829 351.799 190.527C351.85 192.53 351.791 196.919 345.098 203.168C339.883 208.036 336.146 208.729 334.82 208.343ZM298.205 305.113C290.742 302.445 296.154 291.652 302.617 294.323C309.943 297.351 304.133 307.232 298.205 305.113ZM249.28 333.779C244.578 330.651 250.532 323.082 254.924 326.631C259.033 329.951 253.071 336.301 249.28 333.779ZM237.533 270.193C228.471 266.708 233.832 255.496 240.4 257.017C250.646 259.391 246.091 273.484 237.533 270.193ZM170.949 55.9684C171.158 56.0669 176.051 58.3944 176.155 58.4435C181.859 61.1288 188.37 63.3363 184.956 66.7805C182.879 68.8764 181.194 67.5354 170.822 62.5511C167.601 61.0035 164.671 59.9563 164.333 58.2813C163.87 55.9912 165.586 54.9304 166.027 54.7751C166.504 54.6068 167.743 54.4542 170.949 55.9684ZM320.854 147.192C320.783 147.122 317.411 143.759 317.341 143.689C316.569 142.914 313.91 140.228 313.841 140.157C313.162 139.468 310.828 137.075 310.766 137.012C307.972 134.13 305.707 132.282 308.114 130.067C310.517 127.856 312.935 130.841 315.255 133.139C315.317 133.2 318.232 136.108 318.356 136.233C318.425 136.303 321.692 139.604 321.83 139.745C321.899 139.815 325.202 143.189 325.27 143.26C325.33 143.322 327.85 145.927 328.268 146.364C330.359 148.546 333.562 151.081 330.196 153.296C327.647 154.973 324.959 151.22 323.966 150.252C323.904 150.191 320.916 147.253 320.854 147.192ZM216.997 260.772C214.434 259.854 214.339 257.529 214.491 256.176C214.672 254.58 216.861 252.012 219.614 252.721C222.552 253.478 223.657 256.435 222.641 258.581C221.657 260.661 219.277 261.589 216.997 260.772ZM333.348 196.195C325.818 194.29 330.28 182.248 337.097 186.391C342.479 189.662 338.64 197.533 333.348 196.195ZM189.66 52.9152C183.609 50.7936 186.579 41.4448 192.983 43.1203C199.787 44.9006 196.883 55.4474 189.66 52.9152ZM154.833 79.413C151.694 77.8054 154.424 72.9336 157.452 75.1083C159.99 76.9303 157.524 80.7909 154.833 79.413ZM305.812 173.408C299.784 171.586 302.967 164.1 307.619 164.595C313.702 165.242 311.668 175.178 305.812 173.408ZM198.038 256.516C192.832 253.831 195.817 247.395 200.855 248.636C206.707 250.076 204.286 259.739 198.038 256.516ZM168.179 310.587C162.053 308.268 166.325 300.816 171.272 302.032C176.572 303.334 173.794 312.712 168.179 310.587ZM251.528 186.87C248.749 185.629 248.78 182.032 249.797 180.484C250.739 179.051 252.995 177.617 255.686 178.8C259.842 180.626 256.833 189.239 251.528 186.87ZM78.1529 185.809C75.6229 183.26 79.5138 179.243 82.0974 181.568C85.0255 184.202 81.0093 188.687 78.1529 185.809ZM78.6507 200.504C75.0989 197.809 79.208 193.754 81.7492 195.701C85.0165 198.204 81.565 202.716 78.6507 200.504ZM59.9141 204.617C61.914 200.341 64.3029 194.033 67.6741 197.901C69.6828 200.206 66.8092 202.993 63.9705 210.09C60.2961 219.276 58.606 218.675 57.397 218.31C53.3528 217.088 56.3741 212.188 56.7916 211.295L59.9141 204.617ZM40.6951 162.454C34.8933 161.109 37.569 152.02 43.2637 152.866C50.3329 153.916 46.6903 163.844 40.6951 162.454ZM270.892 321.033C266.285 319.054 268.101 310.494 274.416 311.643C277.111 312.133 278.299 315.076 277.576 317.718C276.867 320.309 273.36 322.092 270.892 321.033ZM79.5676 147.145C74.417 144.601 78.0358 137.452 82.5913 139.257C87.7752 141.31 85.1727 149.914 79.5676 147.145ZM103.741 300.314C100.248 299.74 95.6298 299.585 96.5101 295.982C97.263 292.902 100.607 293.857 103.889 294.378C104.072 294.408 107.921 295.024 108.47 295.114C108.642 295.142 112.687 295.816 112.773 295.831C113.91 296.024 121.485 296.321 119.455 300.645C118.271 303.167 116.612 302.429 110.197 301.375L103.741 300.314ZM225.974 182.415C218.979 180.407 223.609 169.118 229.844 172.437C235.891 175.655 231.324 183.951 225.974 182.415Z" fill="black"/>
</svg>
