<svg width="407" height="298" viewBox="0 0 407 298" fill="none" xmlns="http://www.w3.org/2000/svg">
<path d="M66.2943 0.000229985C64.3985 0.00189592 62.5223 0.055286 60.6718 0.159665C43.5923 -0.349194 28.2418 12.3684 14.0582 16.1748C-4.67591 17.7635 9.45479 39.549 0.05883 49.8074C-1.06818 66.6535 14.42 77.2234 10.3391 95.7182C5.86058 118.929 36.923 137.192 52.1762 117.12C59.406 110.185 55.3092 90.7203 60.7889 88.882C68.0424 107.138 52.1666 128.653 64.3632 146.15C48.3294 154.713 18.362 169.712 32.2143 192.716C44.8546 212.785 51.6587 242.653 80.1212 245.937C89.2163 252.577 105.8 234.126 99.8733 250.676C101.903 266.062 70.2752 283.376 93.8034 289.624C113.935 302.846 135.194 282.24 136.942 261.861C143.58 232.885 124.032 205.369 134.072 176C156.567 181.237 181.73 181.705 202.696 172.846C207.321 191.138 221.419 203.338 230.97 218.301C218.803 232.906 196.216 239.951 188.932 260.156C177.019 274.021 184.819 306.273 206.698 296.022C224.27 286.607 222.246 260.618 242.254 253.393C251.49 245.055 244.054 266.722 238.572 267.283C213.844 292.128 258.306 310.639 271.02 285.831C281.778 265.114 280.311 241.708 272.506 220.771C274.986 205.161 256.732 190.818 270.791 176.018C276.844 161.052 278.448 170.827 281.893 180.977C296.807 213.983 332.099 234.599 365.593 243.457C379.308 235.171 392.216 235.375 406.317 246.192C395.78 218.872 372.156 201.361 351.867 185.526C321.777 159.708 317 111.333 276.954 96.6292C253.884 72.0033 219.386 78.9077 189.653 78.2812C166.912 76.9831 148.431 58.5645 137.288 40.5195C127.37 11.7121 94.7316 -0.0220352 66.2943 0.000229985V0.000229985ZM66.0731 9.37924C71.7631 9.3914 77.5705 9.86794 83.2709 10.8727C83.5608 11.8378 83.8439 12.7829 84.2112 13.9475C84.6485 15.3535 86.759 22.0208 87.3772 23.948C88.1601 26.3535 90.7758 33.9162 90.8359 34.09C90.9712 34.4812 90.9724 34.6257 90.7383 35.7771C89.6369 41.3159 89.5008 44.7205 89.7085 48.9793C89.4008 48.7939 89.093 48.6083 88.6852 48.5547C87.913 48.4325 87.4863 47.8997 86.9835 47.1491C85.5603 45.0123 69.7797 21.7644 61.4755 9.4736C62.9969 9.41179 64.5296 9.37591 66.0731 9.37924V9.37924ZM58.4966 9.63141C66.8074 21.8342 84.8795 48.5235 84.9043 48.5954C84.4697 48.7455 83.8344 49.015 83.0269 49.635C82.264 46.444 78.7846 44.9704 75.6554 46.0525C74.8731 46.323 74.4562 46.6626 73.9797 46.9734C73.7491 47.1503 73.4751 47.3429 73.2444 47.52C72.6249 45.4473 70.6737 44.029 68.419 43.9815C68.1715 43.9689 67.9677 43.9437 67.7504 44.0189C67.5178 44.0504 67.3573 44.0082 66.9613 43.7066C65.1099 42.0112 55.1137 33.6451 44.3622 25.4903C44.0397 25.2611 43.1736 24.588 43.0266 24.4442C43.0682 24.2837 43.1665 24.0064 43.2234 23.8894C44.9081 19.6099 46.5007 15.9721 48.693 12.0619C51.0778 11.3452 53.4596 10.6296 55.783 9.84936V9.85104C56.6807 9.76672 57.5859 9.69364 58.4966 9.63141V9.63141ZM86.0382 11.4047C90.4536 12.327 94.7775 13.5854 98.9069 15.2214C98.8768 15.2698 98.8442 15.3213 98.8142 15.3694C95.6452 20.6987 93.9051 24.9514 92.1602 30.1774C89.366 22.239 89.1792 21.1349 88.067 17.9188C87.3299 15.7875 86.6775 13.6015 86.0382 11.4047V11.4047ZM45.1594 13.1374C41.8774 19.3762 38.9141 26.805 37.7603 34.6839C31.7565 34.9108 24.4002 36.4344 21.2377 37.1388C19.468 37.5359 16.557 38.3199 13.466 39.2261C14.0885 36.692 14.2813 34.3539 13.4498 32.686C12.6147 29.9207 12.3071 28.1401 12.3793 27.0391C13.8575 27.012 15.4891 26.9044 17.2648 26.6763C18.5284 27.22 19.8569 27.7508 21.0327 27.7924C21.7895 26.709 22.6013 25.7077 23.4616 24.7794C23.5816 24.7214 23.6948 24.6775 23.8163 24.6167C26.3103 23.3771 28.5499 21.5351 30.5923 19.1259C35.0415 16.4894 40.0549 14.72 45.1594 13.1374H45.1594ZM101.303 16.2252C103.095 17.0154 104.848 17.8738 106.545 18.8184C97.8701 34.0623 96.0636 50.978 102.013 64.5779C106.237 74.26 116.405 86.2173 123.845 93.5219C125.316 94.9598 126.962 96.4837 127.667 97.1157C111.464 85.2989 99.6841 70.9306 96.4536 64.2623C95.159 61.6445 94.3501 59.5888 93.7741 57.501C89.7405 43.0354 94.176 28.1063 101.303 16.2252V16.2252ZM108.733 20.1004C109.77 20.7377 110.781 21.4111 111.771 22.1129C110.004 21.9255 108.163 21.7314 107.858 21.6818C108.149 21.1357 108.441 20.6192 108.733 20.1004V20.1004ZM106.638 24.1644C106.864 24.1454 107.869 24.2816 112.968 24.781V24.7793C114.041 24.8928 114.791 24.9951 115.599 25.0982C116.232 25.6417 116.852 26.1997 117.458 26.7755C117.672 27.3196 117.813 27.8164 118.146 28.7798C118.193 29.0556 118.239 29.1854 119.201 31.9669C111.406 30.6725 106.036 30.4857 104.071 30.2896C104.79 28.2891 105.597 26.2583 106.548 24.2262C106.574 24.1931 106.562 24.1707 106.638 24.1644V24.1644ZM42.1985 27.1139C47.0212 30.5067 60.3601 41.2209 64.591 45.013C64.0863 45.382 63.5527 45.8112 63.0064 46.3405C61.8988 43.5607 58.8488 42.619 56.0238 43.5959C54.4592 44.137 53.0912 45.2445 52.4039 46.212C51.3182 44.0572 49.4305 43.103 47.0352 43.4935C44.9158 43.8371 43.1818 44.8748 41.8341 46.6057C41.7772 46.7222 41.6343 46.8705 41.5624 46.9441C40.8471 46.7048 40.1741 46.3042 40.1226 45.5921C40.0527 44.5458 39.8947 43.5292 39.8981 42.5547C39.811 37.3783 40.554 32.2079 42.1985 27.1139V27.1139ZM103.285 32.7999C103.3 32.8436 103.198 32.831 106.138 33.0293C111.524 33.4053 109.529 33.2676 120.03 34.6481C120.132 34.6606 120.191 34.6905 120.206 34.7343C121.093 37.2985 121.319 37.9504 121.364 38.0808C121.319 37.9501 121.048 37.1683 122.476 41.2972C110.845 39.0422 103.895 39.2075 101.813 38.9544C101.988 37.7745 102.929 33.4584 103.285 32.7999V32.7999ZM122.907 32.9382C124.145 34.6095 125.287 36.3827 126.32 38.263C125.789 38.8487 125.279 39.3991 124.717 40.0363C122.283 32.9956 122.405 33.4886 122.477 33.4149C122.615 33.2567 122.766 33.097 122.907 32.9382ZM37.4545 37.3178C37.3838 38.802 37.33 40.33 37.3325 41.8861C35.3084 41.6616 33.2417 41.5978 31.134 41.6941C24.941 41.9169 18.3451 42.7925 11.94 44.071C12.1667 43.4523 12.3884 42.8303 12.5973 42.2082C16.0948 41.1364 20.3155 39.8924 25.6351 38.8763C29.9744 38.057 33.8057 37.4605 37.4545 37.3178V37.3178ZM127.617 40.7961C127.719 41.0126 127.832 41.2196 127.932 41.4387C128.367 43.5797 129.004 45.5336 129.795 47.3394C129.261 47.9616 128.753 48.5507 128.152 49.2608C128.08 49.3344 128.051 49.3934 127.979 49.4674C127.033 46.7293 126.265 44.3661 125.89 43.4251C125.77 43.0774 125.738 42.8458 126.097 42.4783C126.67 41.8483 127.111 41.3573 127.617 40.7961V40.7961ZM101.599 41.5754C101.75 41.59 102.198 41.6178 103.573 41.6534C108.345 41.8036 115.917 42.5921 122.986 44.04C123.351 44.1087 123.482 44.2086 123.618 44.5997C123.903 45.4254 125.378 49.8297 125.679 50.6989C122.254 50.0828 115.427 48.2116 101.91 47.6794C101.561 47.6542 101.27 47.6573 101.066 47.6306C100.928 45.6833 101.294 41.9563 101.406 41.5769C101.594 41.56 101.448 41.5606 101.599 41.5752V41.5754ZM33.6199 44.2402C33.4342 44.5475 33.206 44.8699 32.9919 45.2358C32.935 45.3523 32.8195 45.4415 32.7625 45.558C28.8661 46.9544 26.4314 50.3265 26.1427 54.4164C25.3535 55.3705 24.5932 56.266 23.774 57.1333C21.581 57.405 19.4041 57.8657 17.2144 58.4283C16.6464 58.5733 16.096 58.729 15.5566 58.8985C15.5131 58.639 15.4688 58.3798 15.4248 58.1371C17.6272 55.955 19.9001 53.4388 22.4448 50.1962C24.2373 47.922 26.1561 45.1664 26.6877 44.5932C27.2093 44.4128 31.3652 44.1927 33.6199 44.2402ZM36.7777 44.3655C37.0249 44.378 37.2294 44.4038 37.4333 44.4305C37.45 44.6194 37.4658 44.8072 37.4675 44.9528C37.0746 44.9434 36.6678 44.8896 36.275 44.8795C36.3755 44.7476 36.4593 44.5722 36.5597 44.4403C36.588 44.3814 36.6322 44.3667 36.7777 44.3655V44.3655ZM23.3006 44.7917C22.0247 46.4494 20.6639 48.282 19.2577 49.9847C17.7805 51.7707 16.2586 53.485 14.6976 55.1176C14.1962 53.7999 13.6551 54.017 13.0479 56.7965C12.3188 57.5204 11.5787 58.2202 10.8353 58.9082C11.0598 56.2786 11.7361 52.1597 11.7708 50.6518C14.2335 47.9215 15.5152 46.1578 15.8087 45.9224C15.9675 45.8188 15.416 45.9132 23.3006 44.7917ZM58.02 45.6377C58.3453 45.6285 58.6877 45.6678 59.0595 45.7581C59.8032 45.9388 60.4195 46.4558 60.675 47.1946C60.8319 48.2108 60.7923 48.5172 60.5547 49.3779C60.5547 49.3779 59.0927 55.2848 58.9522 55.7228C58.7633 55.7385 52.3655 55.8107 52.2201 55.8122C52.5333 53.9036 52.9984 51.3093 53.4452 49.6463C53.9622 47.7645 55.1689 46.4714 57.0813 45.8101C57.3855 45.705 57.6947 45.6468 58.02 45.6377V45.6377ZM47.8389 45.9159C47.9969 45.9217 48.161 45.9391 48.3286 45.9664C49.5955 46.1121 50.3645 47.2081 50.2874 48.1106C50.1968 49.1151 50.4167 48.0664 49.4105 53.0368C48.8613 55.9516 48.8029 55.9223 48.8329 56.0092C48.4702 56.086 48.3845 56.1166 48.2391 56.1182C44.7508 56.3026 42.196 56.7962 41.8617 56.8145C41.9373 55.7665 42.6558 51.0905 42.7093 50.6827C42.9688 49.1819 43.7556 47.9368 45.1399 46.8742C45.8321 46.343 46.4698 46.2199 46.6285 46.116C46.9432 45.9708 47.3649 45.8974 47.8389 45.9159V45.9159ZM67.9375 46.4886C68.2156 46.4836 68.5434 46.5171 68.8859 46.5927C70.213 46.9123 70.9808 48.0079 70.8366 49.4202V49.4236C70.8111 49.7729 70.754 49.889 69.1414 55.2152C69.1414 55.2152 68.8057 56.3537 68.7623 56.3687C66.6079 56.1893 64.4526 56.0093 62.2548 55.8448C62.6849 53.9931 63.2244 51.472 63.8166 49.8075C64.3519 48.2599 65.3739 47.2732 67.2428 46.6269L67.2851 46.6107C67.4297 46.5362 67.6594 46.4937 67.9375 46.4887L67.9375 46.4886ZM11.8912 46.6935C11.3494 47.3442 10.7939 47.9832 10.2334 48.6165C10.4352 48.0671 10.6583 47.481 10.8809 46.8969C11.2469 46.824 11.3696 46.7968 11.8912 46.6935V46.6935ZM36.7696 47.4338C38.0649 47.521 39.4546 48.3051 39.4409 49.6724C39.4459 50.1086 38.4883 56.9105 38.4599 56.969C38.4163 56.9847 38.5045 56.953 37.7506 57.1658C35.9654 57.4913 33.9225 58.1981 32.0386 58.8008C31.039 59.1465 30.2949 58.9662 29.6617 58.2607C29.249 57.7709 28.9665 57.2353 28.858 56.6403C28.4408 54.4489 28.9262 52.3358 30.3141 50.2987C30.3427 50.2402 30.3714 50.1817 30.4149 50.1669C32.2841 48.2553 34.3544 47.3445 36.7696 47.4338V47.4338ZM77.7086 48.2261C78.192 48.217 78.6566 48.3247 79.1028 48.5596C79.7462 48.8722 80.1577 49.3621 80.3832 50.014C80.5636 50.5356 80.5838 51.0153 80.5019 51.4815C80.2928 52.2837 78.2475 57.905 78.234 58.0069C78.0302 57.9786 77.0385 57.7882 76.3534 57.636C75.5812 57.5138 72.7253 56.9932 72.0551 56.8844C71.9962 56.856 73.2438 52.7261 73.7357 51.1935C74.1004 49.9969 74.9636 49.1149 76.1939 48.5921C76.7222 48.3608 77.2251 48.2352 77.7086 48.2261V48.2261ZM131.014 49.796C132.005 51.5788 133.155 53.2041 134.407 54.7206C133.344 56.0061 132.261 57.371 131.166 58.8252C131.061 58.5208 129.333 53.5235 129.078 52.7846C128.957 52.437 128.985 52.2327 129.273 51.9386C129.617 51.5277 129.96 51.1177 130.29 50.6631C130.514 50.3825 130.776 50.0834 131.014 49.796V49.796ZM101.256 50.289C106.519 50.1718 117.614 51.2985 126.686 53.6111C126.997 54.0875 127.133 54.6241 127.329 55.1891C127.736 56.5081 127.66 56.146 127.931 56.9283C127.931 56.9283 128.877 59.6661 129.027 60.1007C128.561 60.0188 127.992 59.7768 127.467 59.6663C113.423 56.2023 104.046 56.5257 102.109 56.271C101.867 55.4301 101.417 53.0068 101.256 50.289ZM86.7362 50.847C87.2577 50.8247 87.7817 50.9343 88.3224 51.161C89.0093 51.4588 89.4949 52.0202 89.7654 52.8025C89.7688 53.0931 89.8461 53.4571 89.7524 54.1707C89.6002 54.8559 89.1313 55.8934 87.2763 60.3789C82.7388 59.0772 83.6872 59.285 82.5941 59.079C82.1712 58.9818 81.7477 58.8851 81.3967 58.7146C81.564 58.0729 81.9322 57.1659 83.2872 53.4858C83.6401 52.5365 84.2284 51.8465 85.1679 51.3269C85.6953 51.0229 86.2147 50.8692 86.7362 50.847H86.7362ZM10.9606 51.5433C10.6632 52.3455 10.2992 53.4051 9.78274 55.059C9.20432 54.8801 8.95863 54.3816 8.93838 53.6501C9.67596 52.9042 10.3514 52.1997 10.9606 51.5433V51.5433ZM136.133 56.6712C137.427 58.0526 138.794 59.3465 140.194 60.5872C138.182 62.9985 136.263 65.5106 134.471 68.0969C132.112 61.419 132.205 61.8255 132.305 61.6934C133.468 60.0427 134.753 58.3589 136.133 56.6712V56.6712ZM56.1116 58.3779C56.9662 58.3695 57.8336 58.372 58.7081 58.3862C68.1633 58.5713 77.0048 59.9411 85.6152 62.608C88.4463 63.4779 91.1345 64.4949 93.6765 65.5136C94.0708 65.6691 94.3942 65.8988 94.5729 66.275C98.6974 73.5586 104.173 79.5468 108.984 84.4522C117.561 93.213 125.228 98.6394 128.087 100.716C128.541 101.046 128.879 101.318 129.113 101.432C129 101.666 128.888 102.045 128.819 102.41C127.412 107.908 126.951 113.469 127.521 118.916C126.318 116.705 124.895 114.422 122.539 111.831C120.566 109.643 119.678 109.464 119.596 108.665C119.318 105.89 117.925 103.695 116.64 101.949C115.031 99.8295 112.696 97.7184 111.349 96.919C110.559 96.4625 109.808 96.9657 109.462 97.2314C107.919 98.3976 106.483 100.012 105.553 101.404C104.883 100.03 103.182 94.8286 98.1406 88.835C97.8747 88.489 97.5953 88.2449 97.3597 87.9858C91.8672 83.2189 87.514 82.7293 81.8181 81.8768C75.2045 80.9038 75.3057 80.9179 68.5687 79.3063C68.9168 77.9208 69.1683 76.9578 68.3214 75.353C67.638 74.0809 66.0157 73.3279 64.4478 73.5781C63.6203 73.7182 62.8964 74.0168 62.2027 74.4029C62.4135 73.7461 62.4261 73.6454 62.4646 73.1941C62.569 70.8224 60.4742 69.4048 58.4316 70.1112C57.7362 70.3517 57.1717 70.5475 56.4077 71.1524C57.0633 69.9525 56.8458 68.7619 56.2125 68.0564C55.2701 67.0198 53.3217 67.013 51.9305 68.7592C50.3237 70.726 51.2805 73.0707 53.0856 73.225C53.333 73.2376 53.5213 73.2225 53.8991 73.1876C54.2333 73.1687 54.8402 72.8135 55.1143 72.6215C54.4722 73.7194 54.2652 74.6662 54.3351 75.7125C54.3639 76.5479 54.8051 77.3009 55.4658 77.7868C55.1593 78.2505 54.853 78.7477 54.5433 79.3177C49.594 84.1521 48.855 90.7154 48.3026 97.0231C47.5492 95.1649 46.8297 93.202 46.2039 91.1761C45.3575 88.306 44.4806 85.3492 43.8514 82.4039C42.2992 74.9606 41.3877 67.5382 41.4501 60.1205C41.4333 59.9316 41.4606 59.7285 41.4435 59.5397C44.7459 58.9937 50.1298 58.4349 56.1115 58.3781L56.1116 58.3779ZM91.4021 58.6593C91.6426 59.3547 92.0487 60.5293 92.6499 62.2677C91.8326 62.0153 91.0009 61.719 90.299 61.3778C90.4814 60.7795 91.0341 59.5651 91.4021 58.6593ZM103.078 58.861C103.287 58.8677 103.622 58.8863 104.188 58.9098H104.189C113.064 59.2469 121.427 60.6373 129.815 62.9429C129.917 62.9555 129.991 63.0276 130.036 63.1576C131.328 66.8954 131.253 66.6785 131.342 66.7937C131.613 67.5761 131.927 68.3423 132.154 69.1397C132.259 69.4438 132.33 69.3705 132.068 69.3154C121.153 66.0345 113.656 65.3193 104.996 64.7618C104.953 64.7775 104.937 64.7333 104.865 64.6609C104.612 64.2129 103.387 61.2307 102.72 58.8822C102.786 58.8595 102.869 58.8542 103.078 58.861H103.078ZM27.101 59.4386C27.2466 59.4369 27.3052 59.4672 27.3352 59.5525C27.7796 60.2747 28.2229 60.9961 28.6823 61.7618C28.6104 61.8354 28.5542 61.9523 28.4822 62.0253C26.6012 64.1843 25.7898 67.0449 26.852 69.6945C27.5551 71.4463 28.8852 72.0555 29.7609 72.3365C29.1155 73.1437 28.6412 73.6005 28.0608 75.0177C26.8598 78.1579 28.008 82.0424 31.4626 82.7454C30.7319 83.728 30.5907 84.0204 30.3499 84.5903C27.0692 81.826 21.8943 77.031 17.4307 72.8035C16.9373 69.2489 16.4554 65.0381 15.9568 61.5064C18.6891 60.5946 21.1692 59.9351 24.7176 59.5817C25.473 59.515 26.302 59.5201 27.101 59.4386V59.4386ZM38.7885 60.3106C38.8118 61.0811 39.0273 67.3327 39.0423 67.3762C38.6228 67.5701 35.5067 68.5491 35.2761 68.7265C32.4946 69.6884 31.7865 70.0314 30.986 69.9678C29.3697 69.7969 29.0348 68.5494 28.9247 67.8089C28.6696 65.8048 30.0214 63.0996 32.6291 62.1978C34.6283 61.5064 36.7594 60.9154 38.7885 60.3106V60.3106ZM142.122 62.258C143.528 63.449 144.922 64.61 146.298 65.7688C143.268 69.3034 140.622 72.9399 137.643 77.4124C137.568 77.1952 135.839 72.1969 135.583 71.458C135.508 71.2405 135.523 71.1393 135.652 70.9488C135.852 70.685 136.038 70.3762 136.195 70.1272C137.746 67.737 139.779 65.0399 142.122 62.258H142.122ZM148.268 67.4575C149.604 68.6328 150.872 69.8338 152.041 71.0855C147.257 76.3764 143.895 81.7354 142.716 83.6385C142.587 83.8293 142.502 84.0042 142.402 84.1364C142.022 84.024 141.906 83.9677 140.49 83.5328C139.512 83.2384 139.761 83.395 139.011 81.3674C138.726 80.5416 138.755 80.6293 139.512 79.4428C142.273 75.0031 145.115 71.112 148.268 67.4575V67.4575ZM106.174 67.4673C115.094 67.9346 122.597 69.0881 131.982 72.0226C132.419 72.163 132.74 72.2468 132.959 72.317C133.441 72.4423 133.239 72.5612 134.425 75.849C134.441 76.0379 134.44 75.8916 135.357 78.6879C127.197 75.9142 119.599 74.0657 110.749 73.3794C109.701 73.3038 110.066 73.3736 108.958 71.8582C107.982 70.4439 107.035 68.9701 106.174 67.4673V67.4673ZM39.3693 70.5714C39.5544 71.5292 39.3862 72.0267 40.0852 76.0182C40.2769 77.5576 40.2307 77.4263 40.1437 77.4564C38.407 78.2032 36.1894 78.8243 34.2235 79.8934C33.7319 80.1604 33.195 80.2983 32.5982 80.2611C31.0271 80.2205 30.492 79.0913 30.3385 78.3658C29.9129 76.7126 30.7133 74.2457 32.9968 72.9694C33.8209 72.5382 35.1099 72.0449 36.153 71.6842C36.7615 71.4739 36.5436 71.5491 36.7175 71.4889C36.7175 71.4889 38.7174 70.7968 39.3693 70.5714V70.5714ZM59.4191 72.5236C59.7271 72.57 59.9302 72.8654 59.8486 73.368C59.7545 73.747 59.6025 74.0884 59.3996 74.3962C58.6528 74.5692 57.8895 75.0158 57.1138 75.7563C57.0586 75.7239 56.9923 75.6638 56.9788 75.6245C56.9471 75.3918 56.9154 75.1598 56.9137 75.0144C57.0477 73.9949 57.9523 72.9534 59.0823 72.5627C59.2019 72.5214 59.3165 72.5082 59.4191 72.5236L59.4191 72.5236ZM153.756 73.0459C153.944 73.2828 154.133 73.5197 154.312 73.7617C154.319 73.7675 154.325 73.7735 154.332 73.7796C154.187 75.4932 153.938 78.5758 153.803 80.2416C153.778 80.591 153.707 80.8108 153.578 81.0014C152.375 82.5855 149.095 87.029 149.095 87.029C148.583 86.8165 146.902 86.0349 144.87 85.0832C147.676 80.3938 151.322 75.7525 153.756 73.0459H153.756ZM156.735 75.8767C157.104 76.1771 157.476 76.4705 157.852 76.7568C157.139 80.4442 156.305 84.0119 155.379 87.3365C156.008 83.4866 156.445 79.6212 156.735 75.8767V75.8767ZM112.252 76.0524C112.372 76.0654 112.488 76.0864 112.612 76.093C114.273 76.3943 122.859 76.8802 134.702 81.1542C134.921 81.2248 135.096 81.3085 135.315 81.3787C136.572 81.9173 136.483 81.6573 136.813 82.6135C137.009 83.1786 137.007 83.1779 137.053 83.3082C137.26 83.6258 137.41 84.0609 136.75 84.8245C136.262 85.3826 135.879 86.2449 135.463 86.7296C135.084 86.6175 134.704 86.5061 134.31 86.3505C131.709 85.3034 125.129 83.4423 119.549 82.5013C118.82 82.364 118.091 82.2267 117.291 82.1629C116.839 82.1245 116.532 81.9382 116.193 81.5203C115.588 80.7563 112.121 76.3598 111.87 76.0572C112.008 76.0339 112.132 76.0393 112.252 76.0522V76.0524ZM64.6625 76.1549C64.8568 76.1363 65.0632 76.1371 65.2889 76.1565C65.7552 76.2384 66.1971 76.6708 66.2455 77.0919C66.2939 77.5131 66.2405 77.9207 66.1414 78.1982C66.0784 78.417 66.0002 78.6228 65.9153 78.823C65.2916 77.8849 64.6433 77.044 63.9744 76.3468C64.0219 76.3224 64.0638 76.2959 64.1127 76.272C64.2865 76.2119 64.4683 76.1735 64.6625 76.1549V76.1549ZM18.0961 76.9699C21.2917 79.9613 24.9746 83.327 29.1102 86.9167C29.6533 87.3615 29.8313 87.7378 29.8813 88.3045C29.9695 89.6851 30.6669 90.8554 31.9719 91.8153C32.6904 92.3453 33.4491 92.5695 34.0608 92.6499C32.5876 94.8624 32.4571 97.437 33.6882 99.5902C34.5185 101.006 35.9379 101.879 37.5391 102.006C37.2113 102.606 36.9568 103.278 36.7761 104.022C35.6095 103.443 26.8762 99.1868 19.6921 95.684C19.3685 90.0397 19.4553 84.191 18.7339 79.4883C18.5142 78.9384 18.3035 78.0444 18.0961 76.9699V76.9699ZM160.224 78.452C162.412 79.8996 164.702 81.1353 167.07 82.1939C166.895 84.0267 166.938 85.8657 167.309 87.7838C167.602 89.1912 167.977 90.278 168.556 91.2459C168.897 91.8091 168.912 91.8526 168.977 92.4628C168.977 92.4628 168.921 92.5793 168.949 92.6661C168.248 96.2662 168.26 100.106 169.011 104.809C165.917 99.9428 162.046 95.7832 156.897 91.8706C156.839 91.8423 156.825 91.7997 156.853 91.7404C158.203 87.2582 159.323 82.8402 160.224 78.452H160.224ZM40.8059 80.6337C41.4936 83.6074 42.24 86.7559 42.2717 86.9883C42.0694 87.107 36.4561 89.7286 35.9496 89.9525C34.8781 90.3717 33.4207 90.0973 32.826 88.9406C32.3648 88.0296 32.2683 87.1864 32.4908 86.2822C32.8958 84.7798 33.7277 83.665 34.9865 83.0838C37.0694 82.0716 38.7632 81.3401 40.8059 80.6337ZM67.6414 81.753C69.6139 82.1025 71.214 82.9621 83.2286 84.696C84.3066 84.8585 85.2842 85.0074 86.2318 85.215C89.526 85.8762 92.5671 87.3558 95.2106 89.6531C95.6366 90.0411 96.0782 90.4721 96.4324 90.9335C100.045 95.3288 101.24 98.2244 102.852 101.9C102.261 101.034 101.343 99.6484 99.2941 97.2426C97.4963 95.1393 95.2243 93.4911 92.3148 92.113C90.4581 91.2467 88.6924 90.7875 86.4612 90.2453C77.8273 88.0732 76.6946 86.9082 74.5101 86.6418C73.549 86.5363 72.7306 87.4039 72.9158 88.3614C73.0073 88.7677 73.1422 89.1579 73.3062 89.4905C75.5379 93.9739 76.2767 94.9838 78.0421 99.3852C78.7452 101.137 79.5375 103.004 80.5898 104.782C82.3974 107.757 84.5311 109.987 87.1966 111.644C89.4375 113.059 90.7975 113.756 92.1862 114.395C87.6068 113.254 83.6913 111.64 80.1619 109.454C79.6639 109.139 79.2682 108.839 78.8571 108.494C76.0666 106.053 74.1423 103.166 73.0736 99.9351C72.9663 99.6016 72.8162 99.1067 72.6929 98.7133C72.7671 96.4392 72.6904 94.151 72.3642 91.8413C71.1366 89.2344 69.5271 85.2639 67.6414 81.753V81.753ZM169.507 83.2058C170.316 83.5199 171.13 83.8199 171.954 84.0973C171.918 84.2157 171.877 84.3289 171.853 84.4601C171.803 85.1587 171.228 85.7465 170.124 88.4639C169.571 86.8635 169.423 85.007 169.507 83.2058ZM174.752 84.9612C180.668 86.6459 186.896 87.5091 193.153 87.9417C194.116 93.0014 193.696 97.9433 191.903 102.198C189.976 106.757 188.573 108.75 186.938 110.775C185.419 108.916 183.756 107.059 181.95 105.494C181.744 105.322 181.758 105.22 181.771 105.118C181.771 105.118 182.21 102.872 182.389 101.983C185.421 101.324 187.118 98.2073 187.218 95.3993C187.261 94.119 186.927 92.8732 186.23 91.703C185.311 90.1717 183.484 89.392 181.758 89.7459C176.738 90.8492 175.763 98.5824 179.677 101.316C179.926 101.474 179.808 101.271 179.218 104.492C179.193 104.696 179.133 104.667 178.424 105.009C176.398 105.905 175.382 106.062 172.232 107.93C172.187 107.799 172.128 107.626 172.083 107.495C171.079 103.609 170.643 99.8178 170.96 95.6694C171.166 93.311 171.838 90.8899 172.987 88.3028C173.508 87.1498 174.099 86.0357 174.752 84.9612V84.9612ZM119.3 85.0197C125.011 85.9156 129.625 87.4345 132.427 88.363C133.581 88.7427 133.624 88.729 134.194 88.9699C133.995 89.3793 132.06 93.2111 132.06 93.2111C130.295 92.7509 128.338 92.0161 126.72 91.6997C125.627 91.4938 124.763 90.9657 123.968 90.0729C122.45 88.3592 120.787 86.6465 119.3 85.0197V85.0197ZM139.218 85.7714C139.262 85.7556 139.336 85.8275 139.438 85.8413C151.889 89.905 162.078 97.2816 168.403 108.816C168.639 109.221 168.955 109.989 168.985 110.075C168.87 110.164 168.825 110.178 166.851 111.785C166.704 111.642 166.615 111.527 166.468 111.383C160.955 104.726 153.644 99.9064 144.697 97.1124C143.34 96.7059 142.803 96.6978 141.987 97.8559C136.634 105.595 133.73 113.946 133.522 122.63C133.526 123.066 133.53 123.211 133.517 123.313C133.328 123.329 133.021 123.291 132.832 123.307C132.338 123.285 131.103 123.37 130.797 123.33C130.766 123.243 130.721 123.112 130.631 122.851C130.282 121.561 130.15 120.05 129.987 118.452C129.002 107.163 132.48 95.6934 138.889 86.2267V86.225C139.018 86.0343 139.174 85.7861 139.218 85.7711L139.218 85.7714ZM152.924 86.1423C152.804 87.0599 152.64 87.9917 152.475 88.9242C152.066 88.7253 151.744 88.4961 151.421 88.267C151.635 87.9012 152.165 87.1834 152.924 86.1423ZM228.002 86.8841C229.872 86.8848 231.735 86.9596 233.59 87.0957C233.745 87.6947 233.886 88.1922 234.046 88.8397C234.093 89.1155 234.078 88.927 234.285 90.6553C233.11 92.181 231.284 94.2233 229.992 95.6921C229.702 94.43 228.762 89.5977 228.58 88.9308C228.352 88.088 228.202 87.6003 228.002 86.8841V86.8841ZM225.399 86.933C226.58 91.0242 227.47 94.9674 227.82 97.8543C227.866 98.1301 227.794 98.2025 227.766 98.261C226.258 99.9503 226.345 99.9208 226.243 99.9074C226.243 99.9074 223.958 99.7725 223.157 99.7089L223.143 99.665C222.209 94.7153 221.64 91.7278 220.156 87.2405C221.901 87.09 223.65 86.9858 225.399 86.933H225.399ZM236.345 87.3576C236.649 87.392 236.954 87.4181 237.257 87.4568C237.028 87.725 236.801 87.9893 236.569 88.2589L236.538 88.1727C236.478 87.8903 236.407 87.6353 236.345 87.3576V87.3576ZM217.57 87.4894C217.664 87.7599 217.854 88.3093 217.854 88.3093C219.243 92.8894 220.017 95.8324 220.556 99.7821C220.076 99.8011 215.875 100.038 215.875 100.038C215.724 99.4575 214.635 94.4817 214.396 93.9318C214.173 93.4253 214.182 92.888 214.349 92.2464C214.761 90.9197 215.291 89.1783 215.742 87.7139C216.351 87.6358 216.96 87.5574 217.571 87.4894H217.57ZM240.244 87.9059C244.576 88.6695 248.805 89.8959 252.848 91.6948C248.924 90.8158 244.217 89.9961 238.81 89.5278C239.172 89.1271 239.588 88.6588 240.244 87.9059ZM196.047 88.1173C197.01 88.1649 197.972 88.1964 198.933 88.2279C198.446 89.939 197.432 92.0373 196.198 93.5104C196.198 92.2452 196.128 91.0527 196.013 89.876C195.967 89.3589 196.17 88.7856 196.047 88.1173H196.047ZM212.87 88.119C211.657 92.1549 210.82 95.5437 210.295 97.8315C210.646 94.7458 211.143 91.5289 211.741 88.2898C212.116 88.2287 212.494 88.1767 212.87 88.119V88.119ZM201.536 88.2979C204.086 88.3493 206.6 88.3534 209.096 88.3468C208.382 92.3275 207.83 96.3582 207.445 100.423C207.327 101.632 207.341 101.53 207.254 101.56C200.864 103.624 197.111 104.873 191.269 109.083C192.083 107.78 193.123 105.864 194.256 103.088C196.111 98.6024 195.458 97.5615 196.237 97.0002C198.937 95.0585 200.619 91.6518 201.536 88.2979V88.2979ZM76.3631 89.7475C76.4797 89.8041 76.5831 89.8177 76.6999 89.8744C81.8991 91.8232 85.5418 92.5093 88.7958 93.4763C91.8309 94.3732 95.0232 96.2875 96.9514 98.3456C98.3649 99.9004 99.6775 101.586 100.195 102.38C97.1116 102.328 97.4751 102.251 92.7231 102.58C92.098 102.602 91.3739 102.901 91.4021 104.108C91.4282 106.435 91.808 109.223 92.1683 111.532C88.8295 109.475 85.9409 108.576 82.6966 103.275C81.2298 100.863 79.6608 95.9057 77.3588 91.6412C77.0915 91.1497 76.8092 90.6151 76.3631 89.7475V89.7475ZM43.1226 90.1493C43.348 90.8012 44.0385 92.7995 44.0385 92.7995C44.0402 92.9453 44.1013 93.1196 44.1914 93.3803C44.4169 94.0323 45.1078 96.0303 45.1529 96.1607C45.1093 96.1764 39.5148 99.1339 39.4279 99.1639C37.7077 100.099 35.6147 98.9731 35.4615 96.9823C35.295 95.0935 36.0788 93.7036 37.8124 92.6661C38.7368 92.103 41.9942 90.6855 43.1226 90.1493ZM236.996 91.9894C237.096 91.9887 237.219 92.0007 237.383 92.017C239.494 92.2116 242.492 92.4391 245.581 92.9281C250.869 93.7146 256.219 95.0093 261.531 96.7122C261.686 96.826 261.844 96.9345 261.999 97.0506C262.322 97.3695 262.652 97.6785 262.985 97.9844C261.512 99.1648 259.921 100.262 258.313 101.323C258.269 101.339 258.183 101.368 258.111 101.442C255.866 101.001 250.183 98.7822 239.727 97.5322C236.887 97.2003 234.022 97.0724 232.421 96.9449C233.282 95.9172 236.167 92.5832 236.167 92.5832C236.588 92.1094 236.693 91.9919 236.996 91.9894V91.9894ZM182.591 92.2497C183.219 92.2587 183.86 92.5841 184.227 93.2225C185.221 94.9711 184.47 98.0052 182.823 99.0126C181.856 99.5908 181.185 99.4815 180.505 98.5002C180.224 98.1108 180.031 97.6915 179.983 97.2702C179.546 94.5992 180.804 92.7531 181.977 92.3473C182.173 92.2796 182.381 92.2463 182.591 92.2497V92.2497ZM129.053 94.9308C129.768 95.17 130.383 95.3959 130.981 95.5783C130.882 95.8559 130.784 96.1329 130.626 96.382C130.112 95.8787 129.568 95.434 129.053 94.9308V94.9308ZM212.874 98.2545C213.012 98.9365 213.166 99.6615 213.305 100.343C213.014 100.347 212.695 100.409 212.42 100.456C212.527 99.6401 212.706 98.8963 212.874 98.2545V98.2545ZM19.8987 98.6059C27.2246 102.176 36.3661 106.629 36.4295 106.672C37.3353 107.04 36.947 107.466 37.936 108.779C35.9019 108.947 33.9131 109.245 32.0125 109.659C29.6624 110.18 27.3713 110.73 25.1129 111.657C24.7598 111.803 24.4357 111.897 24.0798 111.943C21.4223 108.663 20.3779 103.832 19.8987 98.6059V98.6059ZM46.3942 99.1867C47.0018 100.421 47.401 101.446 47.7738 102.353C47.6173 103.559 47.4186 104.73 47.1507 105.854C44.252 107.57 43.6767 107.912 43.0624 108.125C41.5695 108.592 39.8439 107.826 39.4165 106.028C39.0793 104.49 39.5322 103.263 40.8579 102.172C41.2324 101.848 41.7378 101.624 42.2294 101.357C44.2388 100.273 45.642 99.5441 46.3942 99.1867ZM230.28 99.5349C230.321 99.5194 230.348 99.5347 230.398 99.5415C237.684 99.5035 246.979 100.912 255.223 103.365C253.635 104.401 251.352 105.676 249.762 106.566C248.822 107.086 248.794 107.145 248.473 107.061C243.399 105.896 238.982 104.943 231.881 104.528C231.342 104.519 229.45 104.394 229.014 104.399C228.785 103.457 228.614 102.543 228.472 101.57C229.904 99.9072 230.157 99.5821 230.28 99.535V99.5349ZM110.65 99.5446C113.788 101.866 116.242 105.444 116.594 107.025C114.97 106.127 115.088 106.185 114.109 105.745C113.407 105.404 112.719 105.105 112.161 104.617C111.867 104.329 111.386 104.204 111.039 104.324C110.676 104.401 110.265 104.202 109.74 104.092C109.229 103.879 107.347 103.361 107.347 103.361C108.16 101.912 109.237 100.666 110.65 99.5446V99.5446ZM264.954 99.6797C266.082 100.595 267.25 101.457 268.451 102.275C259.383 107.956 252.825 110.428 243.288 114.159C235.258 116.547 233.635 117.059 231.981 117.484C241.541 114.032 254.238 107.695 263.527 100.784C264.011 100.424 264.487 100.057 264.954 99.6797V99.6797ZM145.457 100.012C147.544 100.701 149.78 101.68 152.34 103.033C152.633 103.175 152.751 103.378 152.828 103.74C154.581 112.185 157.066 123.733 157.265 124.589C157.357 124.995 157.362 125.431 157.193 125.928C156.675 127.664 156.375 129.471 156.265 131.261C156.265 131.261 145.819 101.2 145.457 100.012H145.457ZM142.996 100.913C143.338 101.622 153.875 132.087 153.875 132.087C152.755 130.82 151.462 129.613 149.981 128.568C149.41 128.182 149.086 127.808 148.877 127.345C148.861 127.301 139.679 108.629 139.53 108.34C139.263 107.848 139.436 107.642 139.563 107.306C140.754 104.559 142.081 102.348 142.996 100.913H142.996ZM220.691 102.356C222.392 102.348 224.114 102.421 225.851 102.574C226.257 103.747 226.447 104.996 226.65 106.288C228.532 118.483 226.264 130.361 220.204 139.852C220.076 140.043 219.918 140.293 219.79 140.484C218.884 140.116 218.036 139.775 217.276 139.405C217.347 139.186 217.446 138.91 217.544 138.632C218.588 135.741 220.955 128.938 219.85 118.566C219.591 116.271 219.25 114.296 218.779 112.513C218.492 111.541 217.875 111.026 216.812 110.907C210.087 110.313 203.45 111.1 196.989 113.383C193.844 114.421 191.403 115.947 190.564 116.334C190.43 116.089 189.289 114.195 189.199 113.934C189.228 113.876 189.343 113.788 189.559 113.567C197.877 106.347 208.781 102.407 220.691 102.356ZM270.737 103.749C279.026 108.932 288.352 112.685 295.214 119.466C294.926 119.745 294.666 120.066 294.464 120.45C294.193 120.933 294.067 121.415 293.941 121.896C293.843 122.174 293.847 122.464 293.806 122.77C290.98 122.336 287.965 121.92 285.064 121.268C281.841 120.534 277.772 119.459 275.135 119.009C271.419 118.396 267.642 118.729 263.919 120.065C262.919 120.41 262.038 120.959 261.2 121.491C256.491 124.336 254.795 126.043 251.255 129.457C250.942 127.424 250.034 125.645 249.129 124.011C248.758 123.361 248.115 123.049 247.346 123.217C246.838 123.296 246.387 123.404 245.909 123.569C243.026 124.517 237.816 126.756 235.593 130.882C235.394 131.291 235.134 131.527 234.772 131.604C231.265 132.72 228.029 134.617 224.311 137.654C227.072 132.272 228.599 127.122 229.444 120.699C229.444 120.699 229.486 120.683 229.574 120.653C233.097 119.727 232.271 120.012 232.938 119.83C237.781 118.496 241.737 117.274 245.345 116.027C252.717 113.436 263.122 108.876 270.737 103.749V103.749ZM72.2471 104.185C73.4578 106.549 75.0966 108.652 77.8094 110.951C78.2053 111.252 78.5873 111.508 79.0703 111.779C84.239 114.906 88.5418 116.095 91.1239 116.808C91.4449 116.891 91.7656 116.975 92.0431 117.074C90.9062 118.149 89.0087 120.118 88.2459 122.134C88.0769 122.63 88.156 123.138 88.5388 123.541C91.2907 126.434 94.2498 128.378 97.5338 129.432C100.482 130.359 101.346 129.622 102.066 130.298C105.681 133.573 109.728 135.288 112.591 136.39C108.084 136.586 103.658 137.435 99.4861 138.878C99.1819 138.983 96.5024 139.959 95.7784 140.257C95.5178 140.348 95.4314 140.377 95.0788 140.061C87.9184 132.33 78.4958 124.477 69.6978 118.704C70.5265 113.865 71.6254 109.046 72.2471 104.185V104.185ZM98.318 104.881C104.45 104.965 109.874 106.315 114.784 108.966C117.476 110.419 119.751 112.356 121.639 114.72C123.601 117.156 125.867 120.752 126.889 123.707C123.782 124.149 121.29 124.963 120.304 125.207C120.086 125.282 119.896 125.298 119.679 125.373C119.505 125.433 119.359 125.434 119.139 125.219C116.905 123.12 116.865 123.426 116.949 123.105C117.386 121.835 117.225 120.529 116.568 119.053C114.661 114.944 110.183 113.671 107.515 115.664C106.231 116.594 105.666 118.054 105.844 119.695C105.972 120.77 106.332 121.668 106.835 122.419C108.504 124.712 110.682 125.807 113.328 125.72C113.72 125.729 114.245 125.696 114.678 125.401C115.4 124.956 115.42 125.436 117.034 126.727C117.782 127.344 117.797 127.387 117.741 127.649C117.507 128.801 117.109 132.15 117.068 134.986C113.364 134.126 109.872 132.609 106.386 130.408C100.702 126.778 97.5778 120.559 95.9997 115.996C94.8861 112.634 94.222 109.167 93.9758 105.359C93.9596 105.17 93.9733 105.068 93.9579 105.024C95.451 104.909 96.9029 104.861 98.318 104.881V104.881ZM155.664 105.047C157.481 106.219 160.256 108.47 162.271 110.498C162.727 110.973 162.979 111.421 162.971 111.959C163.169 116.756 163.764 113.973 160.302 119.16C159.888 119.79 159.503 120.507 159.103 121.181C155.42 103.915 155.866 106.193 155.664 105.047V105.047ZM229.391 107.043C234.991 107.052 242.336 108.308 245.237 108.959C244.659 109.256 237.872 112.43 237.872 112.43C237.742 112.475 237.395 112.595 236.943 112.556C235.312 112.342 230.26 111.802 229.793 111.72C229.708 110.63 229.51 108.51 229.391 107.043ZM179.932 107.31C179.981 107.302 180.02 107.304 180.05 107.318C183.736 110.52 186.836 114.558 189.053 118.998C189.559 120.039 189.95 121.169 190.384 122.284C191.464 125.268 191.936 128.461 191.828 131.808C191.635 136.595 189.951 140.73 186.76 144.169C183.996 144.054 184.023 143.996 181.424 144.359C181.761 141.956 181.885 140.063 181.361 137.422C181.161 136.421 181.252 136.683 181.665 135.907C182.66 133.86 182.389 131.813 180.886 129.997C179.412 128.268 177.467 127.287 175.123 127.124C173.726 127.023 172.435 127.226 171.263 127.778C168.759 128.838 167.559 130.858 167.866 133.574C167.899 133.952 167.901 134.098 167.801 134.23C166.399 136.369 165.436 138.648 164.882 141.126C163.624 140.442 162.877 139.971 160.351 139.142C160.015 139.014 159.927 138.899 159.852 138.681C155.932 127.629 163.127 116.917 171.949 111.19C174.693 109.414 177.006 108.226 179.296 107.531C179.557 107.441 179.785 107.333 179.932 107.31V107.31ZM138.121 111.162C139.905 114.633 145.072 125.351 145.369 125.929C140.678 123.902 140.336 124.604 139.818 123.81L136.623 118.931C136.474 118.642 136.443 118.408 136.483 118.103C136.791 115.758 137.347 113.425 138.121 111.162V111.162ZM41.1117 111.201C42.3467 111.185 43.582 111.236 44.8145 111.335C43.4135 113.31 41.3791 114.903 38.3379 115.931C32.818 116.771 28.9599 115.923 26.2355 113.965C31.1042 112.247 36.1088 111.266 41.1117 111.201ZM212.563 113.331C213.354 113.324 214.112 113.335 214.745 113.372C213.639 114.678 207.064 122.257 193.123 138.367C193.56 137.097 194.185 134.545 194.202 133.468C194.209 132.785 194.436 132.171 194.923 131.467C207.412 112.989 206.636 113.841 207.071 113.69C207.527 113.533 210.191 113.351 212.563 113.331V113.331ZM203.412 114.226C202.425 115.735 194.901 126.902 194.272 127.898C193.753 123.163 192.792 123.057 193.419 121.916C194.331 120.19 195.169 118.537 195.908 117.016C196.079 116.665 196.338 116.429 196.758 116.235C196.758 116.235 198.351 115.636 198.829 115.47C200.437 114.914 202.773 114.349 203.412 114.226V114.226ZM229.823 114.338C230.302 114.319 232.137 114.56 232.588 114.598C231.865 114.897 231.778 114.928 231.734 114.943C231.734 114.943 229.996 115.543 229.823 115.604C229.801 114.833 229.838 114.527 229.823 114.338V114.338ZM216.729 115.023C216.874 116.286 217.148 116.094 217.566 122.227C217.585 122.706 217.443 122.999 216.996 123.396C214.736 125.443 203.795 135.311 201.65 137.269C201.103 137.799 200.524 138.096 199.901 138.263C198.161 138.718 196.552 139.275 195.106 140.018C196.543 138.403 216.716 115.125 216.729 115.023ZM110.445 117.224C110.754 117.221 111.089 117.274 111.476 117.408C112.965 117.915 113.967 118.98 114.597 120.66C114.584 120.762 114.554 120.821 114.647 121.373H114.649C114.749 122.506 114.143 123.007 113.025 123.151C112.981 123.167 112.938 123.182 112.879 123.152C111.308 123.112 108.879 121.859 108.447 119.624C108.292 118.753 108.615 117.717 109.571 117.387C109.854 117.289 110.136 117.227 110.445 117.224V117.224ZM192.303 118.408C192.19 118.642 192.048 118.936 191.934 119.17C191.83 119.011 191.769 118.837 191.724 118.706H191.726C191.928 118.587 192.086 118.483 192.303 118.408H192.303ZM94.1954 118.517C95.3579 121.035 95.6271 121.672 95.6271 121.672C95.6425 121.715 95.6288 121.817 95.6434 121.861C95.5796 122.661 95.8438 122.863 96.5056 123.51C97.2408 124.229 96.9215 124.29 99.12 127.13C95.4465 126.357 92.2597 123.615 90.8928 122.336C91.7775 120.813 93.1137 119.329 94.1954 118.517H94.1954ZM271.142 121.369C271.633 121.357 272.133 121.36 272.644 121.378C274.141 121.424 275.763 121.741 277.609 122.168C277.354 122.626 277.303 124.381 277.282 126.73C275.692 126.582 273.8 126.38 271.344 126.061C267.324 125.554 264.579 125.773 260.956 126.977C258.493 127.733 255.446 129.757 253.323 131.076C256.214 128.178 259.155 125.848 262.188 123.924C264.778 122.304 267.711 121.459 271.142 121.37V121.369ZM69.2748 121.386C71.3906 122.795 73.4705 124.271 75.5025 125.809C81.692 130.481 87.2304 135.524 90.7611 139.12C83.5342 133.301 75.6554 128.233 68.8876 124.584C68.9946 123.516 69.1204 122.45 69.2748 121.386V121.386ZM297.041 121.418C298.298 122.873 299.441 124.467 300.454 126.226C299.952 127.672 298.61 127.596 297.42 126.045C296.225 124.56 296.261 122.553 296.933 121.542C296.966 121.491 297.006 121.461 297.041 121.418V121.418ZM277.726 122.193C278.392 122.348 279.084 122.517 279.815 122.694C285.08 123.987 287.179 124.429 294.011 125.472C294.274 125.528 294.305 125.76 294.161 125.907C293.873 126.201 293.672 126.465 293.457 126.686C293.184 127.024 292.854 127.332 292.537 127.685C287.152 133.109 284.419 137.535 281.382 140.794C281.063 138.898 280.738 137.003 280.403 135.113C281.27 134.297 282.302 133.359 284.019 131.895C285.935 130.26 285.991 130.143 286.334 129.587C286.849 128.825 286.401 127.666 285.482 127.4C284.1 126.984 283.16 127.205 278.8 126.862C278.464 125.297 278.111 123.739 277.726 122.193ZM136.07 122.819C136.247 123.05 136.396 123.34 136.573 123.57C136.369 123.545 136.209 123.502 136.063 123.504V123.502C136.048 123.313 136.073 122.964 136.07 122.819L136.07 122.819ZM132.405 125.877C142.651 125.925 152.308 130.517 155.635 140.139H155.637C155.742 140.443 155.741 140.444 155.355 141.016C154.897 141.661 154.124 142.804 153.147 145.185C151.313 143.679 149.35 142.507 147.043 141.748C146.488 141.55 146.418 141.624 146.077 141.061C144.67 138.823 142.362 137.918 139.781 138.616C138.273 139.04 137.148 139.867 135.966 140.811C135.922 140.826 135.894 140.884 135.865 140.942C134.618 142.542 133.261 144.665 133.758 147.51C134.07 149.397 135.161 150.724 136.812 151.418C137.323 151.63 137.602 151.874 137.796 152.293C138.898 154.637 140.312 156.192 142.076 157.917C140.704 158.733 139.605 159.355 137.85 161.033C137.821 161.091 137.822 161.092 137.661 161.049C132.167 160.078 127.406 156.859 124.34 151.934C122.711 149.334 122.338 148.54 121.42 145.743C120.007 141.658 119.493 137.359 119.76 132.644C119.874 131.144 120.119 129.599 120.276 128.085C120.289 127.983 120.318 127.925 120.449 127.88C124.295 126.536 128.395 125.859 132.405 125.877H132.405ZM247.302 125.908C247.391 126.024 247.555 126.357 247.645 126.618C248.197 127.789 248.554 128.687 248.94 130.646L248.956 130.69C246.073 130.373 245.536 130.363 245.389 130.22C244.891 129.905 244.381 129.839 243.859 130.019C243.468 130.155 243.207 130.244 242.35 130.298C240.548 130.434 239.56 130.533 239.008 130.626C239.223 130.406 239.44 130.185 239.727 129.891C241.728 128.08 243.768 127.082 246.158 126.255C246.636 126.09 247.113 125.925 247.302 125.908L247.302 125.908ZM217.452 126.403C217.331 128.586 216.931 131.79 215.95 135.146C215.868 135.612 215.668 135.875 215.264 136.112C214.354 136.719 212.78 137.798 212.447 137.962C211.956 138.229 209.866 137.249 205.258 137.432C206.367 136.416 209.216 133.825 217.452 126.403V126.403ZM68.6761 127.426C70.4772 128.422 71.2228 128.878 73.5144 130.195C73.7635 130.353 73.9266 130.54 74.0318 130.844C74.2422 131.453 75.024 133.858 75.2194 134.423C76.2899 137.8 77.6652 141.071 78.9027 143.806C79.7378 145.658 80.6583 147.335 81.4618 148.955C81.3898 149.028 79.5044 150.751 79.3306 150.811C78.5584 150.689 77.7713 150.523 76.9407 150.372C76.7368 150.347 76.604 150.244 76.4119 149.97C76.2482 149.637 75.195 147.716 74.8827 147.094C74.5729 146.477 74.2758 145.848 73.9765 145.221C73.2773 140.86 70.3506 135.832 68.6256 130.95C68.5896 129.771 68.619 128.597 68.676 127.426H68.6761ZM295.712 127.999C295.859 128.142 295.962 128.303 296.109 128.446C296.519 128.791 297.063 129.235 297.75 129.533C299.26 130.116 300.756 129.707 301.773 128.728C304.501 133.304 307.158 137.929 309.825 142.547C308.411 144.229 306.951 145.851 305.44 147.406C300.639 152.375 301.456 151.362 295.276 156.565C294.858 156.904 294.423 157.055 293.885 157.047C291.078 156.948 287.694 157.285 284.475 157.748C283.488 153.15 282.678 148.492 281.894 143.829C282.726 143.065 283.526 142.219 284.297 141.289C291.027 133.171 288.495 135.556 295.668 128.015L295.712 127.999ZM268.098 128.349C270.398 128.39 272.803 128.881 277.263 129.284C277.251 130.976 277.224 132.832 277.152 134.765C272.995 138.832 271.33 140.98 266.541 142.708L266.499 142.724C264.878 143.382 261.652 143.766 259.953 143.916C261.252 141.764 262.225 140.358 263.528 137.231C263.796 136.458 263.585 135.849 262.868 135.465L262.87 135.463C259.898 133.766 257.884 133.149 255.942 132.458C257.372 131.526 258.889 130.709 260.465 129.92C261.246 129.504 262.158 129.188 263.377 128.913C265.276 128.469 266.686 128.323 268.098 128.349L268.098 128.349ZM279.334 129.453C280.387 129.528 281.478 129.601 282.757 129.657C281.68 130.569 280.729 131.41 279.866 132.198C279.694 131.281 279.516 130.366 279.334 129.453ZM174.66 129.666C176.291 129.729 177.959 130.434 178.896 131.56C181.461 134.615 177.295 137.905 173.498 136.493C170.884 135.548 169.311 132.685 171.282 130.787C172.145 129.957 173.391 129.618 174.66 129.666V129.666ZM77.3083 132.582C77.8799 132.968 82.0862 135.844 83.6988 136.989C84.0947 137.29 84.4038 137.62 84.5691 138.099C86.1126 142.139 87.1627 143.771 87.4032 144.466C87.2445 144.57 85.0942 146.091 83.5361 147.214C83.4174 147.012 83.3146 146.854 83.2107 146.695C82.0197 144.236 80.6984 141.822 79.7682 139.273C79.4375 138.317 78.9911 137.449 78.5887 136.566C78.4685 136.218 78.8313 137.408 77.3083 132.582V132.582ZM243.952 132.868C248.035 132.884 252.269 133.728 256.614 135.388C257.899 135.868 259.36 136.434 260.707 137.233C260.679 137.292 260.666 137.392 260.594 137.466C254.752 149.558 246.569 153.898 242.223 155.401C238.485 156.693 231.45 157.034 228.126 156.286C228.167 156.125 228.268 155.992 228.31 155.832C229.907 151.727 230.126 149.268 230.327 149.004C230.427 148.872 231.414 148.629 232.79 148.104C233.427 147.835 233.456 147.921 233.867 148.265C234.382 148.768 235.117 149.487 237.039 149.698C239.966 150 242.499 148.882 244.016 146.654C245.661 144.236 244.488 140.846 241.7 139.961C237.365 138.541 232.879 141.892 232.627 145.385C232.599 145.589 232.572 145.503 231.674 145.862C231.456 145.937 231.455 145.936 229.398 146.599C228.945 146.415 228.562 145.868 227.991 145.481C227.038 144.838 224.238 142.935 223.286 142.291C225.884 139.252 232.233 134.817 236.773 133.734C239.106 133.146 241.502 132.858 243.952 132.868V132.868ZM169.354 136.612C170.034 137.593 171.483 138.406 172.579 138.902C172.579 138.902 171.07 146.918 170.933 147.647C169.546 144.623 167.317 142.961 167.257 142.787C167.358 141.39 168.03 139.114 169.127 137.08C169.212 136.905 169.298 136.729 169.354 136.612V136.612ZM178.974 138.541C179.303 140.617 179.196 142.696 178.696 144.767C178.599 145.19 177.698 145.26 175.358 146.653C174.592 147.112 173.942 147.628 173.396 148.158C173.408 148.056 175.044 139.559 175.086 139.398C176.453 139.411 177.774 139.151 178.974 138.541V138.541ZM276.942 138.546C276.767 140.767 276.484 142.943 276.052 144.907C273.97 146.026 272.573 146.376 270.353 146.694C266.766 147.155 263.058 147.125 258.674 146.549C260.156 146.474 263.046 146.106 264.469 145.857V145.859C268.561 145.028 272.162 143.198 275.083 140.388C275.877 139.621 276.409 139.084 276.942 138.546V138.546ZM114.878 138.764C115.438 138.768 116.007 138.782 116.586 138.803C116.833 138.816 117.125 138.813 117.286 138.854C117.361 139.071 117.382 139.695 117.429 139.971C117.466 140.64 117.747 141.175 117.65 141.598C117.274 141.777 116.634 141.755 116.082 141.849C108.087 143.494 101.131 147.019 94.7649 152.529C94.5342 152.706 94.3184 152.927 94.1027 153.147C92.7217 154.501 92.5217 154.764 93.3853 156.557C97.0968 164.616 103.181 171.515 110.502 175.942C110.634 176.042 110.809 176.128 110.941 176.228C110.456 177.077 109.999 177.866 109.571 178.598C109.352 178.528 109.134 178.458 108.857 178.359C106.682 177.592 104.534 176.618 102.436 175.465C101.34 171.642 98.7457 170.552 95.4221 170.726C90.9099 167.045 86.8644 162.394 83.6597 156.855C82.8445 155.483 82.0869 154.139 81.4455 152.707C81.3855 152.533 81.356 152.446 81.356 152.446C81.4698 152.212 86.8682 147.28 93.1738 144.126C100.129 140.626 106.475 138.705 114.878 138.764V138.764ZM215.225 139.094C215.196 139.153 215.212 139.197 215.168 139.212L215.225 139.094ZM206.158 140.057C213.619 140.06 221.481 143.368 227.485 148.381C227.749 148.581 227.793 148.712 227.709 149.033C225.834 157.944 220.557 166.807 212.355 171.051C210.89 168.155 209.164 165.426 206.875 163.058C207.42 162.578 207.87 162.028 208.185 161.381C208.683 160.43 208.907 159.525 208.925 158.594C209.011 155.888 208.129 153.616 206.262 151.877C203.896 149.678 201.146 149.606 198.868 151.319C198.565 151.57 198.478 151.6 198.333 151.602C195.728 151.529 194.491 151.47 190.852 152.485C190.792 151.046 190.913 150.128 190.393 147.923C190.225 147.155 190.225 147.155 190.541 146.803C194.796 142.053 200.355 140.055 206.158 140.057V140.057ZM88.4232 140.659C89.2153 141.261 89.9783 141.922 90.7269 142.539C89.5418 143.192 89.9464 142.954 89.6288 143.162C89.2413 142.322 88.8106 141.499 88.4232 140.659V140.659ZM141.57 140.97C143.032 141.035 144.109 141.984 144.299 143.378C144.664 146.123 142.96 148.367 140.598 149.136C137.931 150.009 135.788 148.317 136.325 145.649C136.643 144.177 137.387 142.948 138.556 142.106C138.902 141.84 139.564 141.366 139.999 141.216C140.553 141.024 141.083 140.949 141.57 140.97V140.97ZM239.942 142.22C240.12 142.226 240.293 142.25 240.464 142.288C240.843 142.4 241.164 142.484 241.413 142.641C242.935 143.526 242.39 145.466 240.946 146.355C239.775 147.052 238.658 147.34 237.449 147.222C236.226 147.061 235.027 146.406 235.305 145.239H235.304C235.595 143.971 236.705 143.1 237.907 142.636C237.95 142.62 237.995 142.604 238.038 142.591C238.821 142.32 239.408 142.199 239.942 142.22L239.942 142.22ZM158.7 142.244C161.228 144.63 163.111 147.823 164.054 151.535C164.798 154.392 165.075 158.286 165.253 161.192C163.908 159.273 162.547 157.165 161.316 155.012C158.957 150.864 158.107 146.439 158.7 142.244ZM162.691 142.81C165.455 144.19 167.397 146.146 168.604 148.794C169.289 150.211 169.514 152.129 169.241 153.732C168.941 155.538 168.409 157.376 167.69 159.377C167.224 152.823 166.53 148.003 162.691 142.81V142.81ZM118.257 143.772L118.33 143.843C118.302 143.902 118.274 143.96 118.246 144.019C118.23 143.975 118.213 143.933 118.213 143.933H118.215C118.199 143.889 118.228 143.83 118.257 143.772L118.257 143.772ZM146.9 144.426C148.814 145.175 150.616 146.304 152.173 147.712C152.32 147.856 152.408 147.97 152.324 148.291C151.968 150.215 152.018 152.193 152.475 154.078C150.243 152.125 145.735 148.234 145.735 148.234C146.421 147.121 146.771 145.881 146.9 144.426ZM115.051 144.715C115.405 144.697 115.789 144.99 118.488 146.271C118.781 146.413 118.928 146.557 119.033 146.861C119.798 148.932 120.738 151.088 121.966 152.951C111.56 149.591 107.721 148.34 106.275 147.818C112.31 145.147 111.458 145.638 114.894 144.741C114.951 144.728 115 144.718 115.051 144.715V144.715ZM311.191 144.91C312.755 147.609 314.333 150.296 315.931 152.97C315.187 153.054 314.411 152.801 313.768 152.215C313.342 151.827 309.421 147.101 309.363 147.073C309.968 146.361 310.58 145.635 311.191 144.91ZM155.968 145.182C155.984 146.491 156.158 147.842 156.45 149.249C157.361 153.995 159.625 157.3 162.214 161.27C160.413 160.142 158.976 159.082 157.712 157.961C156.875 157.229 156.24 156.378 155.676 155.308C154.369 152.937 154.207 148.954 155.968 145.182V145.182ZM183.009 146.684C177.417 149.931 174.821 154.527 172.078 160.244C172.1 158.339 172.284 156.619 172.585 154.958C173.284 151.067 175.963 148.682 179.614 147.419C180.7 147.043 181.832 146.799 183.009 146.684V146.684ZM186.8 147.658C185.797 151.654 183.526 155.215 180.212 158.015C178.44 159.504 176.421 160.98 173.721 162.741C176.278 157.332 178.397 153.046 182.682 149.959C183.966 149.028 185.278 148.184 186.8 147.658V147.658ZM275.183 147.95C274.833 148.879 274.426 149.71 273.945 150.401C272.927 154.128 271.201 157.601 269.223 160.971C266.107 161.846 262.576 162.911 259.624 163.932C256.321 165.074 253.022 166.506 249.851 167.749C248.649 168.213 246.971 169.135 246.305 169.317C242.734 166.027 240.353 163.783 235.45 161.002C234.309 160.375 233.123 159.764 231.851 159.182C234.455 159.254 237.158 159.05 240.09 158.523C241.382 158.319 242.627 157.839 243.801 157.433C244.192 157.297 244.396 157.324 244.631 157.439C246.94 158.49 249.546 158.709 252.812 158.163C254.467 157.883 256.6 157.437 258.755 156.351C259.492 155.95 259.847 155.291 259.707 154.464C259.377 152.242 258.819 150.49 258.046 148.957C258.25 148.985 258.498 148.994 258.804 149.035C261.338 149.326 265.588 149.803 271.251 149.014C272.539 148.826 273.827 148.474 275.183 147.95V147.95ZM307.062 149.425C308.77 151.268 309.035 151.614 309.551 152.262C310.791 153.877 311.128 154.004 311.445 155.062C311.911 156.41 311.719 157.545 310.858 158.573C309.595 160.129 307.543 159.963 306.348 158.479C305.167 156.892 303.944 155.32 302.704 153.705C302.704 153.705 306.89 149.631 307.062 149.425V149.425ZM103.145 149.552C103.279 149.536 103.423 149.56 103.591 149.624C105.678 150.313 121.049 155.361 123.442 156.09C124.259 156.343 124.815 156.685 125.329 157.189C126.477 158.397 127.769 159.46 129.219 160.418C103.932 155.538 98.2916 154.423 96.7757 154.12C98.5328 152.588 100.51 151.126 102.748 149.72C102.885 149.624 103.011 149.568 103.145 149.552V149.552ZM255.435 149.567C255.627 149.841 255.642 149.884 256.569 152.142C256.569 152.142 256.994 153.795 257.132 154.332C257.045 154.363 256.974 154.436 256.93 154.451C254.004 155.56 250.727 156.353 247.652 155.762C248.62 155.184 249.703 154.517 250.871 153.675C251.491 153.217 252.481 153.265 252.92 152.14C252.961 151.98 253.335 151.655 255.435 149.567V149.567ZM144.069 150.174C144.26 150.302 150.444 155.657 150.797 155.973C147.826 155.687 144.812 156.68 144.725 156.71C144.506 156.64 142.115 154.791 140.467 151.857C141.556 151.627 142.612 151.164 143.681 150.453C143.796 150.365 143.998 150.247 144.069 150.174V150.174ZM188.194 151.265C188.382 153.779 187.925 155.979 186.902 158.085C185.778 160.323 184.108 161.824 181.805 162.621C180.284 163.147 177.79 163.816 176.265 164.051C181.677 160.282 185.633 157.649 188.194 151.265ZM72.1755 152.075C72.6968 152.171 73.3553 152.293 73.3697 152.288C65.5471 158.935 60.8269 164.703 56.1165 171.344C56.016 171.476 55.9011 171.564 55.6252 171.611C53.1698 171.828 50.4371 171.946 48.9094 171.891C48.9663 171.774 49.0519 171.597 49.1957 171.45C51.3952 168.138 53.7572 164.982 56.2613 161.973C59.7239 159.901 62.9967 157.86 65.3345 155.663C68.623 154.733 70.805 153.513 72.1755 152.075V152.075ZM201.985 152.664C202.573 152.63 203.209 152.796 203.849 153.198C204.655 153.698 205.699 154.749 206.034 156.141L206.05 156.183C206.996 158.776 205.926 162.017 203.203 161.742C200.7 161.538 198.456 158.567 199.221 155.432H199.219C199.621 153.787 200.69 152.74 201.985 152.664H201.985ZM76.7585 152.925C76.8069 152.93 76.8567 152.943 76.9114 152.96C77.4361 153.071 78.8067 153.377 78.8067 153.377C79.7406 154.952 79.3993 154.388 80.009 155.588C80.1427 155.833 80.2324 156.094 80.2774 156.224C79.933 156.635 74.3388 160.859 67.6674 169.005C66.6776 170.223 67.0985 170.173 65.3117 170.353C62.5086 170.69 59.2422 171.236 59.2271 171.193C60.5764 169.607 65.8979 161.636 76.2883 153.128C76.4826 152.951 76.613 152.906 76.7585 152.925V152.925ZM196.201 154.098C196.457 154.096 196.711 154.103 196.966 154.119C196.529 155.389 196.442 156.684 196.645 157.976C196.647 158.122 197.052 157.884 188.23 160.935C190.348 157.916 190.364 155.429 190.624 155.339C192.6 154.528 194.414 154.108 196.201 154.098V154.098ZM317.352 155.339C317.741 155.98 318.13 156.619 318.522 157.257C317.68 157.316 314.583 157.535 314.206 157.561C314.328 156.789 314.277 156.077 314.24 155.409C315.392 155.716 316.423 155.675 317.352 155.339V155.339ZM300.327 155.842C300.9 156.373 301.36 157.138 301.934 157.815C302.023 157.931 302.113 158.046 302.187 158.118C300.875 157.842 299.578 157.609 298.398 157.433C298.758 157.211 299.046 156.916 299.333 156.623C299.664 156.313 299.951 156.02 300.327 155.842ZM96.2958 156.67C96.7771 156.795 127.179 162.681 128.695 162.984C127.288 163.276 125.84 163.728 124.522 164.28C122.901 164.938 123.207 164.979 122.144 164.859C121.94 164.831 101.257 163.421 101.111 163.423C100.515 163.386 100.515 163.385 99.8651 162.491C98.8159 161.005 97.6923 159.301 96.2958 156.67V156.67ZM149.763 158.469C151.693 158.511 153.559 159.108 155.209 160.433C156.779 161.739 158.163 163.206 159.328 164.604C157.339 163.637 155.497 162.814 153.701 162.121C148.632 160.128 144.868 160.359 142.312 160.708C144.693 159.282 147.282 158.416 149.763 158.469ZM81.6131 158.537C82.4567 159.851 83.3578 161.193 84.2015 162.507C83.5979 163.154 81.4107 165.127 79.9878 166.641C78.8091 167.876 78.0776 167.592 77.6012 167.903C77.6012 167.903 71.0164 169.402 70.7406 169.449C73.8405 165.749 76.9297 162.443 81.4537 158.64C81.4972 158.624 81.5261 158.568 81.6131 158.537ZM292.964 159.671C298.399 159.677 303.441 160.711 308.992 163.307C321.302 169.074 329.173 179.732 333.61 187.637C336.266 192.363 338.609 197.733 339.999 202.314C340.03 202.4 339.999 202.459 339.969 202.517C339.769 202.781 339.568 203.045 339.353 203.265C335.567 207.817 331.075 212.121 326.074 215.802C324.235 214.634 322.449 213.449 320.72 212.251C324.933 209.552 329.099 206.225 332.858 202.349C333.636 201.643 333.814 200.755 333.338 199.8C333.056 199.265 332.802 198.671 332.564 198.121C324.026 178.532 307.032 163.931 285.973 164.07C285.642 162.812 285.325 161.55 285.031 160.28C287.82 159.892 290.437 159.669 292.964 159.671V159.671ZM320.058 159.718C322.392 163.444 324.797 167.121 327.335 170.705C326.229 170.481 325.612 170.346 324.382 170.1C323.857 169.989 323.349 170.069 322.541 169.278C319.219 166.145 314.911 163.255 311.343 161.521C312.772 160.589 312.855 160.268 312.986 160.223C312.992 160.221 318.494 159.831 320.058 159.718V159.718ZM226.465 159.925C226.785 160.009 227.004 160.079 227.223 160.15C238.012 163.912 246.608 171.741 252.435 181.696C253.486 183.328 253.932 184.196 254.589 185.672C254.634 185.803 254.679 185.933 254.709 186.02C251.027 189.726 243.565 194.739 236.335 197.191C233.756 198.061 231.246 198.692 228.734 199.114C228.137 198.567 227.547 198.044 226.979 197.576C226.174 196.89 225.434 196.164 224.742 195.409C231.087 193.401 237.169 189.772 241.73 185.496C241.989 185.261 242.25 185.024 242.465 184.803C243.142 184.229 243.263 183.456 242.919 182.602C242.456 181.546 241.935 180.462 241.282 179.277C237.706 172.874 233.008 167.589 227.278 163.683C227.087 163.555 226.896 163.426 226.764 163.325C226.485 163.081 226.134 162.911 225.842 162.769C225.549 162.627 225.257 162.484 225.08 162.253C225.321 161.683 225.794 161.081 226.121 160.481C226.207 160.306 226.292 160.131 226.465 159.925ZM197.4 160.441C197.922 161.12 198.455 162.221 200.028 163.289C197.916 164.003 195.738 164.851 193.523 165.705C192.131 164.617 190.598 163.828 188.968 163.356C191.561 162.411 197.27 160.486 197.4 160.441V160.441ZM169.421 161.99C169.44 163.589 169.342 164.157 169.75 165.476C170.037 166.447 170.786 167.064 171.775 167.111C173.056 167.155 174.173 167.011 175.088 166.841C173.51 167.721 171.701 168.649 171.57 170.163C168.729 170.367 165.898 170.438 163.076 170.386C165.723 168.667 164.292 166.749 162.466 164.394C163.432 164.936 164.443 165.608 165.609 165.886C166.47 166.124 167.326 165.78 167.871 165.105C168.601 164.122 169.011 163.056 169.421 161.99V161.99ZM145.418 163.07C147.744 163.11 150.159 163.55 152.388 164.376C154.958 165.336 157.401 166.486 159.595 167.625C151.879 168.25 146.079 168.504 139.976 163.802C141.34 163.367 142.853 163.127 144.427 163.076C144.755 163.066 145.086 163.064 145.418 163.07V163.07ZM267.202 164.269C266.755 164.976 266.306 165.68 265.853 166.384C260.584 167.42 255.433 168.726 250.751 170.212C253.992 168.75 252.53 169.45 261.059 166.112C262.777 165.639 264.861 164.975 267.202 164.269V164.269ZM223.65 164.451C223.841 164.58 224.06 164.649 224.25 164.778C223.975 164.824 223.684 164.828 223.393 164.832C223.494 164.7 223.593 164.568 223.65 164.451V164.451ZM85.7812 164.541C85.8547 164.612 86.2832 165.146 86.3717 165.261C86.2849 165.293 84.6328 165.861 84.1982 166.011C84.4138 165.791 85.507 164.733 85.7812 164.541ZM132.767 165.087C134.003 165.076 135.265 165.185 136.548 165.426C136.811 165.481 136.795 165.438 136.81 165.481C137.001 165.609 137.059 165.639 137.059 165.639C137.365 166.143 137.614 166.708 137.887 167.267C135.107 166.689 132.332 166.067 129.567 165.395C130.612 165.206 131.678 165.097 132.767 165.087V165.087ZM185.864 165.465C187.512 165.464 189.132 165.934 190.644 166.799C189.299 167.294 187.942 167.762 186.575 168.183C183.851 167.884 180.996 167.981 177.853 168.22C179.082 167.552 180.457 166.883 181.891 166.387C182.978 166.011 184.049 165.592 185.182 165.492C185.41 165.474 185.637 165.465 185.864 165.465V165.465ZM128.796 165.551C124.31 170.496 122.663 183.89 122.583 197.487C119.819 196.752 117.041 195.617 114.341 194.077C112.585 193.078 109.99 191.348 108.403 189.853C108.415 189.606 108.486 189.387 108.541 189.124C111.009 177.953 118.753 167.792 128.796 165.551ZM49.9766 165.78C48.8445 167.342 47.7024 168.978 46.526 170.768C46.3253 171.032 46.0114 171.529 45.911 171.661C45.0938 171.637 43.9364 171.492 42.667 171.268C44.7182 169.29 47.2743 167.491 49.9766 165.78V165.78ZM102.829 166.138C104.372 166.237 118.563 167.169 119.175 167.249C117.891 168.18 116.624 169.299 115.301 170.68C114.87 171.121 115.07 170.858 108.894 171.29C108.517 171.324 108.239 171.226 107.975 171.025C106.023 169.462 104.303 167.867 102.829 166.138V166.138ZM287.143 166.678C287.051 166.831 286.937 167.009 286.83 167.173C286.782 167.008 286.732 166.845 286.684 166.68C286.828 166.681 287.011 166.676 287.143 166.678V166.678ZM290.314 166.846C292.366 167.012 294.436 167.366 296.405 167.853C295.058 169.986 292.693 173.522 290.244 176.768C289.339 174.654 288.538 172.505 287.816 170.327C288.558 169.252 289.317 168.12 290.097 166.921C290.125 166.862 290.168 166.847 290.314 166.846V166.846ZM227.387 167.233C227.808 167.251 227.988 167.354 228.297 167.612C230.19 169.147 231.85 170.715 233.309 172.4C231.708 172.273 218.201 171.347 216.949 171.245C218.161 170.388 219.386 169.282 220.723 167.944C221.011 167.65 221.227 167.575 221.561 167.557C225.314 167.415 226.686 167.204 227.387 167.233ZM141.125 167.687C141.362 167.819 141.598 167.938 141.834 168.059C141.672 168.029 141.511 168.001 141.349 167.97C141.273 167.873 141.202 167.787 141.125 167.687V167.687ZM85.0393 168.445C81.6091 169.923 77.8311 171.522 75.1348 172.309C74.279 172.508 74.5154 172.766 66.527 174.993C59.727 176.858 53.344 178.239 46.0932 178.8C43.3882 179.006 40.762 178.908 38.2142 178.566C38.5959 176.737 39.4517 175.056 40.6611 173.493C44.1243 174.222 47.736 174.55 51.4831 174.406C61.9497 173.998 72.3555 172.15 85.0393 168.445V168.445ZM299.001 168.609C299.307 168.65 302.11 169.578 304.554 170.874C301.129 176.531 297.935 180.873 294.451 185.025C293.348 183.193 292.353 181.322 291.447 179.422C296.137 173.392 298.551 169.07 299.001 168.609V168.609ZM89.7882 169.091C89.9053 169.148 89.7448 169.106 90.8327 170.14C91.2334 170.515 91.6384 170.879 92.0447 171.24C88.5355 172.019 84.6057 173.486 80.8924 174.412C73.3273 180.502 46.3387 176.439 59.3166 191.088C55.2495 193.096 52.9564 195.626 50.6176 198.5C49.6122 199.748 49.1035 200.394 48.5059 201.149C46.5519 196.884 44.291 192.804 41.1377 189.36C39.7744 187.366 38.896 185.516 38.4192 183.785C39.2743 183.086 40.1422 182.387 41.006 181.678C41.265 181.442 41.5681 181.337 41.961 181.348C48.5513 181.55 58.0859 179.713 64.264 178.161C72.7036 175.972 73.8743 175.274 79.2785 173.454C82.0166 172.507 84.3879 171.347 86.9656 170.358C88.4281 169.804 89.5408 169.079 89.7882 169.091V169.091ZM263.87 169.488C263.016 170.836 262.181 172.189 261.399 173.557C259.206 175.814 256.909 177.983 254.481 180.015C253.031 177.792 252.069 176.275 251.935 176.03C252.482 175.5 255.216 172.853 256.31 171.793C257.029 171.058 257.462 170.907 257.694 170.876C257.781 170.844 260.161 170.267 260.263 170.28C261.869 169.902 262.608 169.742 263.87 169.488V169.488ZM306.924 172.099C307.626 172.44 311.565 174.97 312.006 175.402C311.834 175.607 311.649 175.914 311.52 176.104C306.005 184.921 301.363 189.933 300.159 191.518C299.894 191.88 299.621 192.222 299.326 192.534C298.358 191.198 297.475 189.856 296.707 188.511C296.429 188.113 296.167 187.711 295.9 187.309C298.528 184.211 302.224 179.51 306.179 173.184C306.393 172.818 306.667 172.48 306.924 172.099V172.099ZM251.896 172.54C251.681 172.761 251.379 173.012 251.076 173.262C250.817 173.498 250.545 173.835 250.343 173.954C250.137 173.781 249.959 173.551 249.767 173.277C250.201 173.127 251.273 172.707 251.273 172.707C251.419 172.706 251.461 172.691 251.896 172.54V172.54ZM326.351 173.117C327.5 173.333 328.547 173.546 329.645 173.76C334.198 179.298 340.662 187.458 346.173 193.055C345.808 193.298 345.445 193.537 345.081 193.792C344.879 193.911 344.791 193.94 344.557 193.826C343.561 193.197 339.727 191.118 338.543 190.506C338.118 190.263 337.825 189.976 337.573 189.528C333.45 181.124 328.486 175.493 326.351 173.117V173.117ZM213.572 173.61C213.716 173.607 213.866 173.607 214.024 173.619C219.409 173.995 235.318 175.111 235.463 175.109C235.565 175.122 235.667 175.137 235.77 175.294C237.13 177.257 238.148 178.511 239.813 181.779C236.411 181.138 224.084 178.757 215.015 176.99C214.552 175.851 214.07 174.725 213.572 173.611V173.61ZM112.775 173.648C112.674 173.78 112.486 173.941 112.43 174.058C112.196 173.944 112.021 173.859 111.787 173.745C112.048 173.655 112.484 173.651 112.775 173.648ZM313.973 177.009C315.471 178.243 316.984 179.665 318.545 181.364C315.488 186.314 311.875 190.921 308.533 195.045C307.236 194.812 306.201 194.635 301.594 193.698C305.585 189.057 307.938 186.15 312.729 178.898C313.244 178.136 313.644 177.463 313.973 177.009V177.009ZM102.946 178.649C103.361 178.849 103.773 179.053 104.198 179.241C103.835 179.232 103.409 179.233 102.984 179.234C102.976 179.031 102.959 178.843 102.947 178.649L102.946 178.649ZM216.157 179.832C225.881 181.721 239.259 184.32 239.332 184.33C237.647 185.789 235.743 187.177 233.607 188.597C233.087 188.923 232.898 188.939 232.635 188.884C232.468 188.802 223.853 186.013 217.904 184.079C217.3 182.675 216.724 181.256 216.157 179.832V179.832ZM258.213 180.12C257.667 181.548 257.216 183.006 256.894 184.506C256.527 183.774 255.939 182.561 255.802 182.283C255.99 182.121 256.276 181.829 256.694 181.489C257.238 181.016 257.708 180.576 258.213 180.12ZM93.6748 180.603C93.5568 190.151 99.8728 212.976 96.4275 215.412C85.5627 207.517 69.6843 202.736 69.0015 187.676C77.753 187.149 85.5031 182.033 93.6748 180.603V180.603ZM103.908 181.774C105.273 181.798 106.623 181.911 107.923 182.137C107.246 183.977 106.873 184.446 105.972 188.456C105.889 188.776 105.849 189.082 105.794 189.344C105.78 189.446 105.737 189.461 105.737 189.461L104.207 189.99C103.823 187.373 103.417 184.759 102.953 182.152C102.96 182.021 102.96 181.905 102.966 181.777C103.28 181.774 103.595 181.768 103.908 181.774L103.908 181.774ZM320.372 183.407C321.917 185.063 324.207 188.31 324.371 188.643C323.814 189.565 323.871 189.449 323.212 190.358C319.345 195.636 319.916 194.757 319.201 195.783C318.943 196.164 318.657 196.603 318.355 196.854C315.411 196.363 312.54 195.8 311.388 195.565C311.46 195.492 311.489 195.434 311.561 195.36C316.052 189.914 319.026 185.284 320.372 183.407V183.407ZM219.345 187.227C223.994 188.737 229.834 190.632 229.834 190.632C228.286 191.362 226.752 192.135 225.563 192.497C225.343 192.539 224.241 192.95 223.001 193.309C221.575 191.409 220.392 189.358 219.345 187.227V187.227ZM256.401 188.008C256.277 189.731 256.323 191.508 256.6 193.361C256.587 193.421 256.581 193.478 256.57 193.538C256.013 192.403 255.455 191.27 254.662 189.686C254.646 189.642 254.647 189.641 254.631 189.598C255.185 189.081 256.053 188.316 256.401 188.008H256.401ZM325.939 190.924C328.206 194.665 328.565 195.562 330.307 199.193C329.39 199.073 321.14 197.449 321.14 197.449C321.14 197.449 325.71 191.246 325.939 190.924ZM252.527 191.251C252.927 191.843 252.869 191.814 253.761 193.55C256.587 199.19 255.893 198.31 257.206 201.263C257.729 202.493 257.518 201.883 258.799 205.868C258.36 205.582 252.293 201.404 252.293 201.404C251.97 201.175 251.792 200.944 251.659 200.698C249.504 195.312 248.841 194.52 248.66 193.999C248.747 193.967 252.166 191.473 252.527 191.251ZM106.594 191.939C106.696 191.951 107.385 192.541 107.913 192.943C109.233 193.946 111.812 195.633 112.823 196.305C112.723 196.437 112.579 196.583 112.478 196.715C110.653 198.612 108.505 200.28 105.906 201.908C105.859 201.938 105.811 201.966 105.764 201.995C105.405 198.856 105.007 195.72 104.575 192.59C105.945 192.117 106.512 191.928 106.594 191.939V191.939ZM60.5237 193.427C61.0956 194.667 61.6562 195.895 62.2092 197.096C61.9919 197.275 61.7706 197.446 61.5584 197.635C60.8529 198.268 60.1626 198.945 59.559 199.592C54.6555 204.606 53.3427 205.461 51.1935 207.427C50.7116 206.252 50.2266 205.081 49.7277 203.911C50.6995 202.716 51.6544 201.524 52.5731 200.355C53.4627 199.269 54.4108 198.209 55.0997 197.387C56.5309 195.811 58.2941 194.524 60.5237 193.427V193.427ZM339.732 194.085C340.507 194.498 341.341 194.94 342.132 195.396C341.929 195.515 340.975 195.99 340.975 195.99C340.888 196.021 340.612 196.067 340.568 196.083C340.568 196.083 340.001 194.722 339.732 194.085V194.085ZM348.123 194.965C349.748 196.479 351.231 197.666 352.477 198.349C355.233 201.817 358.128 204.923 360.826 207.664C367.518 214.5 373.572 219.239 377.305 222.007C376.611 222.797 379.054 226.315 375.071 225.49C380.76 230.284 377.077 228.375 373.301 226.961C370.715 225.907 369.372 225.552 368.799 225.62C368.693 225.471 368.588 225.305 368.482 225.162C366.873 223.042 364.538 220.931 363.192 220.131C362.401 219.675 361.65 220.176 361.304 220.442C359.761 221.608 358.325 223.225 357.395 224.617C356.725 223.242 355.024 218.041 349.983 212.047C349.717 211.701 349.438 211.457 349.202 211.198C346 208.412 343.207 207.091 340.261 206.309C340.505 206.03 341.754 204.576 342.171 204.092C342.803 203.387 342.968 202.599 342.639 201.788C342.4 201.238 342.158 200.253 341.783 199.312C341.678 199.008 341.572 198.703 341.512 198.529C341.555 198.514 341.599 198.498 341.686 198.469C343.965 197.559 346.103 196.348 348.123 194.965V194.965ZM246.495 195.333C246.882 196.172 247.269 197.01 247.657 197.849C246.57 196.96 245.764 196.315 245.353 195.97C245.714 195.748 246.09 195.57 246.495 195.333ZM302.489 196.504C303.641 196.725 306.092 197.211 308.242 197.578C308.446 197.606 308.475 197.693 308.52 197.823C309.682 201.701 310.141 203.2 310.472 204.365C307.487 201.784 304.805 199.159 302.489 196.504ZM116.334 198.01C116.846 198.223 118.773 199.015 118.875 199.029C118.819 199.146 118.805 199.248 118.748 199.366C116.346 205.646 115.492 212.462 116.227 219.653C116.503 222.282 116.862 224.444 117.419 226.198C117.631 226.952 118.16 227.354 118.874 227.447C120.804 227.675 122.907 227.724 125.051 227.646C125.166 228.178 125.283 228.688 125.402 229.156C126.727 230.345 127.574 232.229 128.123 234.479C123.59 235.691 118.733 236.316 113.721 236.187C112.543 236.155 111.349 236.083 110.258 236.023C110.258 236.023 110.243 235.978 110.228 235.935C109.728 234.064 109.444 232.119 109.207 230.449C107.75 218.496 110.323 206.658 116.334 198.01H116.334ZM311.317 198.17C311.826 198.237 313.138 198.513 317.627 199.393C317.846 199.464 318.066 199.534 318.285 199.605C318.405 199.955 319.634 204.49 319.755 204.983C320.286 206.941 320.545 207.97 320.675 209.19C319.902 209.714 319.166 210.189 318.444 210.64C316.826 209.471 315.261 208.29 313.763 207.097C313.183 204.458 313.487 205.798 311.317 198.17V198.17ZM240.689 198.222C240.859 198.234 241.071 198.498 241.975 199.426C248.602 206.285 255.669 212.454 263.509 217.889C263.424 218.63 263.28 219.394 263.052 220.188C261.677 229.069 271.411 242.943 268.569 243.983C266.93 243.608 268.323 246.875 269.327 250.378C268.658 248.638 268.273 247.536 267.635 245.343C266.925 243.01 265.896 239.472 264.861 236.618C263.66 233.287 261.533 230.373 258.303 227.646C257.892 227.301 257.467 227.06 257.042 226.818C252.005 223.791 249.06 223.01 244.069 221.524C245.019 220.611 246.4 219.257 247.484 217.325C248.183 216.11 248.133 215.544 247.103 214.538C245.437 212.934 241.449 209.505 236.877 208.795C235.201 206.087 233.113 203.511 230.991 201.306C233.431 200.789 235.901 200.067 238.365 199.118C239.061 198.878 239.799 198.621 240.508 198.279C240.58 198.242 240.632 198.218 240.689 198.222V198.222ZM245.405 199.359C251.102 203.984 257.115 208.051 262.614 211.309C263.028 212.413 263.337 213.558 263.491 214.762C257.286 210.314 251.092 205.05 245.405 199.359V199.359ZM63.3497 199.504C65.3585 203.656 67.5245 207.357 70.6625 209.984C67.7286 210.413 65.426 209.98 61.168 209.449C57.3088 208.983 54.822 208.967 53.3378 208.896C58.578 204.62 60.9908 201.617 63.3497 199.504V199.504ZM321.081 200.096C321.285 200.124 329.623 201.716 329.842 201.786C327.598 204.022 323.807 207.133 323.042 207.593C322.741 206.724 323.127 207.417 321.961 203.343C321.537 201.836 321.447 201.575 321.081 200.096ZM111.725 200.722C108.853 206.242 107.649 211.438 107.093 214.621C106.76 211.294 106.42 207.968 106.055 204.643C107.9 203.619 109.759 202.332 111.725 200.722V200.722ZM122.591 201.202C122.626 203.584 122.712 205.933 122.83 208.235C121.221 209.685 119.398 211.335 118.571 212.078C118.757 209.24 119.219 206.355 120.016 203.452C120.185 202.956 120.371 202.648 120.776 202.411C121.435 202.016 122.037 201.603 122.591 201.202ZM337.689 209C337.777 209.116 337.924 209.258 338.085 209.446C337.81 209.492 337.52 209.496 337.2 209.558C337.344 209.411 337.689 209 337.689 209ZM341.575 209.407C343.562 210.228 345.408 211.343 347.126 212.792C347.552 213.18 347.992 213.611 348.346 214.073C351.959 218.468 353.156 221.364 354.768 225.039C354.25 224.245 353.273 222.83 351.224 220.424C349.839 218.811 348.152 217.448 346.088 216.264C345.032 214.196 343.833 212.276 342.594 210.661C342.254 210.243 341.914 209.825 341.575 209.407ZM367.381 210.371C371.097 213.263 374.852 216.282 377.686 218.968C373.98 216.175 370.531 213.269 367.381 210.371ZM52.8448 211.393C52.9847 211.399 53.0833 211.407 53.2353 211.413C65.7628 211.967 66.1943 213.603 72.7693 212.182C73.1 213.009 73.6969 213.667 74.4938 214.219C73.8952 214.595 73.2915 214.96 72.6782 215.298C71.6952 215.832 70.6674 216.236 69.5074 216.541C65.3018 217.606 61.9971 217.191 57.7971 216.162C56.6386 215.871 55.5818 215.614 54.6116 215.386C53.9968 214.08 53.4151 212.743 52.8448 211.393V211.393ZM123.027 211.566C123.196 214.008 123.402 216.359 123.647 218.543C122.33 220.061 119.618 223.199 119.425 223.413C118.868 220.394 118.951 221.338 118.569 215.874C118.554 215.685 118.595 215.525 118.753 215.421C118.832 215.356 121.38 213.051 123.027 211.566V211.566ZM339.922 211.818C340.175 211.835 340.349 211.949 340.56 212.241C343.808 216.567 345.437 220.432 346.898 224.939C347.215 225.856 347.504 226.767 347.752 227.729C340.946 224.448 334.446 220.94 328.44 217.258C329.855 216.183 331.334 214.983 332.912 213.62C333.517 213.119 333.772 212.592 335.138 212.46C336.634 212.284 338.115 212.064 339.639 211.829C339.744 211.817 339.838 211.812 339.922 211.818V211.818ZM238.541 211.849C240.512 212.58 242.865 213.982 245.143 216.188C244.33 217.636 243.21 218.9 241.84 220.006C240.841 217.821 240.441 217.084 240.436 216.648C240.403 215.899 240.113 215.501 239.834 215.231C239.519 214.105 239.071 212.974 238.541 211.849V211.849ZM76.9927 215.493C81.0596 217.115 86.8922 218.188 90.2307 222.547C88.5668 223.149 86.8839 223.785 85.202 224.493C80.9176 226.315 77.6738 227.631 73.5681 229.829C72.0016 230.66 70.673 231.402 69.4993 232.081C67.56 231.034 65.9532 229.962 64.9196 228.986C61.0299 226.196 58.2953 222.455 56.0547 218.273C58.5544 218.845 60.587 219.245 62.0937 219.443C65.662 219.912 69.2351 219.408 72.7238 217.958C73.6213 217.598 74.5015 217.051 75.3105 216.576C75.907 216.213 76.4599 215.851 76.9927 215.493V215.493ZM348.28 221.054C348.442 221.241 348.631 221.371 348.794 221.558C350.207 223.113 351.521 224.799 352.039 225.593C351.006 225.561 350.367 225.539 349.828 225.531C349.346 223.995 348.834 222.516 348.28 221.054V221.054ZM124.081 221.978C124.242 223.124 124.411 224.19 124.589 225.199C123.256 225.229 122.004 225.219 121.306 225.194C121.692 224.74 123.316 222.867 124.081 221.978V221.978ZM239.935 222.245C239.967 222.339 240.006 222.432 240.036 222.526V222.528C241.177 225.685 241.869 229.095 242.13 232.946C242.132 233.092 242.15 233.281 242.122 233.485C242.078 233.5 241.976 233.485 241.933 233.499C238.044 233.802 234.318 233.586 230.865 232.917C234.334 230.281 237.404 227.222 239.559 223.25C239.707 222.92 239.827 222.584 239.935 222.245L239.935 222.245ZM362.494 222.757C365.632 225.078 368.086 228.656 368.438 230.237C366.814 229.339 366.93 229.397 365.951 228.957C365.249 228.616 364.563 228.318 364.005 227.83C363.711 227.542 363.229 227.416 362.881 227.537C362.518 227.613 362.109 227.415 361.584 227.304C361.073 227.092 359.191 226.575 359.191 226.575C360.004 225.126 361.081 223.878 362.494 222.757ZM243.894 224.114C249.917 225.632 252.159 227.045 255.744 228.968C256.446 229.31 257.017 229.841 257.517 230.301C260.809 233.347 262.534 236.644 263.582 240.661H263.58C263.792 241.415 264.021 242.357 265.544 247.183C267.52 253.458 268.452 254.888 269.009 256.642C269.041 256.729 268.94 256.86 268.882 256.832C268.533 256.807 268.154 256.694 267.789 256.626C262.818 255.338 259.017 254.749 255.802 254.28C255.769 252.852 255.617 251.403 255.374 249.952C257.675 250.716 259.524 251.427 260.855 251.774C261.235 251.886 261.613 251.853 261.947 251.834C262.281 251.815 262.599 251.609 262.843 251.33C263.216 250.86 263.066 250.425 263.034 250.193C262.957 249.83 262.866 249.424 262.687 249.047C262.018 247.673 261.408 246.474 260.813 245.317C258.169 240.344 257.537 237.253 255.536 233.857C253.771 230.867 251.58 228.609 248.958 226.936C246.966 225.679 245.399 224.81 243.893 224.114H243.894ZM91.5664 224.787C91.7483 225.188 91.9179 225.603 92.0642 226.047C86.5648 228.721 80.9745 231.866 76.2118 235.066C74.8269 234.561 73.5003 233.996 72.2243 233.411C73.9745 232.425 75.6983 231.519 77.4174 230.69C82.755 228.114 84.7401 227.378 90.0257 225.355C90.9596 225.007 91.1269 224.951 91.5664 224.787ZM243.911 226.977C245.126 227.676 246.267 228.304 247.307 228.918C250.514 230.875 252.916 233.742 254.618 237.679C257.082 243.396 255.626 240.735 259.7 248.717C258.099 248.156 256.64 247.638 254.774 247.068C254.717 246.837 254.666 246.607 254.605 246.378C256.087 232.69 248.426 236.577 241.33 242.068C241.272 242.026 241.212 241.987 241.155 241.944C240.158 241.17 239.38 240.466 238.731 239.717C237.759 238.594 236.756 237.384 235.884 236.128C236.976 236.189 239.012 236.311 242.877 235.948C243.153 235.901 243.385 235.869 243.661 235.823C244.154 235.701 244.7 235.172 244.65 234.606C244.607 232.09 244.529 230.171 243.911 226.979V226.977ZM350.438 228.142C353.172 228.164 355.753 228.468 358.212 229.022C357.957 230.06 371.622 236.157 360.497 233.483C357.18 232.089 353.906 230.631 350.684 229.128C350.611 228.803 350.531 228.476 350.438 228.142ZM370.487 228.467C371.99 229.956 373.361 231.263 371.157 230.364C370.985 229.695 370.757 229.063 370.487 228.467ZM93.0192 228.529C93.2649 229.094 93.4745 229.632 93.6374 230.137C92.5732 229.942 91.6289 229.75 90.901 229.579C91.3528 229.335 92.144 228.949 93.0192 228.529ZM87.4439 231.401C87.5256 231.391 87.592 231.405 87.6505 231.433C89.1579 231.739 91.3431 232.273 94.158 232.782C94.2557 235.511 92.614 236.889 90.0615 237.355C87.0514 236.799 83.9072 236.074 80.8989 235.129C82.8481 233.871 85.4061 232.403 87.1413 231.511C87.2641 231.444 87.3621 231.411 87.4439 231.401V231.401ZM228.03 234.92C228.336 235.008 228.381 235.02 228.773 235.133C227.989 236.522 226.941 237.713 225.588 238.862C225.516 238.935 225.516 238.934 225.472 238.949C225.472 238.949 225.414 238.921 225.399 238.878C224.87 238.462 224.36 238.022 223.867 237.567C225.278 236.713 226.668 235.832 228.03 234.92V234.92ZM233.127 236.595C234.044 237.981 235.12 239.41 236.579 241.095C237.391 242.054 238.294 242.923 239.283 243.708C238.723 244.167 238.202 244.609 237.667 245.06C236.539 243.425 235.32 241.427 234.379 239.374C233.977 238.491 233.559 237.565 233.127 236.595V236.595ZM230.499 237.163C231.29 238.725 232.447 242.142 235.674 246.732C234.808 247.472 233.957 248.203 233.26 248.771C231.015 249.488 228.653 251.144 226.383 253.229C222.248 249.115 218.252 245.673 214.974 243.043C217.082 241.632 219.29 240.304 221.517 238.977C222.294 239.751 223.135 240.5 224.073 241.235C225.203 242.11 225.739 241.973 226.893 241.087C228.464 239.862 229.511 238.527 230.499 237.163V237.163ZM128.656 237.357C129.422 243.233 128.851 250.489 129.03 255.112C126.123 267.228 122.608 276.119 117.553 280.733C120.969 273.685 123.513 265.532 125.267 258.178C127.163 250.113 127.959 244.295 128.656 237.357V237.357ZM123.748 238.024C123.595 238.709 123.414 239.452 123.261 240.137C123.168 239.586 122.834 238.193 122.834 238.193C123.007 238.133 123.342 238.115 123.748 238.024ZM120.263 238.499C120.323 238.672 121.147 242.182 121.846 244.909C121.908 245.228 121.955 245.505 121.885 245.724C121.132 248.612 120.332 251.223 119.487 253.705C117.7 248.679 116.38 243.733 115.664 239.553C115.617 239.277 115.585 239.046 115.597 238.798C115.713 238.71 120.22 238.514 120.263 238.499ZM109.805 238.513C109.849 238.498 110.096 238.511 110.3 238.536C111.305 238.627 111.494 238.61 112.978 238.681C113.433 240.421 113.055 240.309 114.878 247.269C115.37 249.678 117.054 254.546 117.727 256.211V256.212C118.146 257.284 118.19 257.414 118.091 257.691C117.385 259.59 116.467 262 115.404 264.412C113.229 259.811 112.348 256.418 112.052 255.985C111.675 254.753 110.254 249.939 109.888 248.46C109.826 248.227 109.783 248.008 109.726 247.779C110.019 244.785 110.046 241.714 109.77 238.557C109.776 238.549 109.802 238.519 109.805 238.513V238.513ZM125.684 240.809C124.452 252.865 121.101 266.674 115.809 278.528C115.034 280.273 114.141 281.926 113.147 283.5C110.919 284.341 108.438 284.542 105.657 284.043C109.048 280.796 111.895 277.002 114.174 272.672C120.952 259.769 124.226 247.006 125.684 240.809V240.809ZM212.778 244.569C217.16 248.058 221.104 251.618 224.538 255.036C224.017 255.58 223.506 256.137 223.004 256.71C219.666 252.568 216.104 248.703 212.285 244.94C212.449 244.815 212.612 244.691 212.778 244.569V244.569ZM209.851 246.933C210.772 247.179 210.95 247.255 211.216 247.53C213.393 249.745 215.216 251.644 216.822 253.473C212.769 252.821 209.501 251.994 206.12 250.917C207.227 249.466 208.482 248.15 209.851 246.933V246.933ZM204.603 253.165C208.989 254.533 213.204 255.641 218.556 256.377C219.678 256.524 219.417 256.469 220.538 257.881C220.767 258.165 221.022 258.489 221.264 258.788C220.464 259.793 219.718 260.802 219.02 261.797C209.881 260.401 204.1 258.37 201.5 257.385C202.396 256.116 203.295 254.945 204.16 253.923C204.3 253.664 204.454 253.416 204.603 253.165V253.165ZM108.702 254.081C110.145 258.912 111.388 261.727 113.806 267.104C113.97 267.437 113.927 267.598 113.856 267.817C112.89 269.806 111.894 271.853 110.752 273.757C110.737 273.713 110.261 272.759 110.246 272.715C107.849 267.754 107.624 267.101 106.472 264.191C106.182 263.47 106.098 263.231 105.94 262.819C107.083 259.968 108.028 257.062 108.702 254.081H108.702ZM255.723 256.845C259.144 257.368 263.159 258.042 267.555 259.188C267.527 259.247 267.543 259.29 267.514 259.349C267.332 259.947 267.023 261.027 267.536 262.505C267.652 262.864 267.822 263.187 268.03 263.476C267.196 268.592 266.254 274.367 264.088 279.002C257.585 278.007 251.272 276.365 245.25 274.092C246.368 272.363 247.559 270.713 248.641 269.312C253.298 266.246 255.315 261.767 255.723 256.845H255.723ZM200.765 259.804C201.1 259.932 201.539 260.072 201.977 260.213C204.758 261.156 209.789 262.842 217.466 264.109C216.195 266.116 215.252 267.899 214.743 269.195C210.693 268.393 206.672 267.353 202.914 266.019C202.677 265.615 202.513 265.137 202.375 264.601C202.134 263.76 202.239 264.209 200.765 259.804ZM198.707 261.736C199.084 262.825 200.286 266.296 200.511 266.948C200.601 267.209 200.56 267.37 200.446 267.604C200.217 267.926 199.987 268.25 199.802 268.557C198.088 271.194 195.703 274.306 192.91 277.513C193.425 272.392 195.826 266.672 198.707 261.736H198.707ZM104.455 266.26C105.585 269.089 106.89 271.922 108.93 275.943C109.079 276.232 109.066 276.335 108.922 276.482C107.705 278.168 106.485 279.708 105.076 281.12C102.847 276.927 102.832 276.884 101.282 273.527C101.121 273.172 101.09 273.092 100.983 272.855C102.251 270.686 103.414 268.49 104.454 266.26H104.455ZM203.939 269.12C207.466 270.124 210.584 270.962 213.947 271.66C213.524 272.944 212.835 274.832 211.828 276.953C210.451 276.638 209.04 276.298 207.549 275.901H207.547C207.007 275.747 206.644 275.678 206.425 275.608C206.221 275.58 206.148 275.51 206.028 275.162C205.772 274.423 206.839 277.508 203.939 269.12H203.939ZM201.64 270.353C202.692 273.396 202.632 273.223 202.72 273.339C203.036 274.251 203.308 275.179 203.667 276.077C203.876 276.54 203.792 276.86 203.447 277.271C203.09 277.714 200.259 281.78 195.264 287.117C193.903 285.484 193.166 283.508 192.91 281.325C196.094 277.874 198.915 274.316 201.64 270.353V270.353ZM99.4373 275.41C100.779 278.367 102.064 280.889 103.205 282.887C103.057 283.026 102.897 283.161 102.745 283.298C100.713 282.636 98.5339 281.645 96.1933 280.303C97.3266 278.685 98.4067 277.054 99.4373 275.41ZM243.861 276.368C244.496 276.609 245.127 276.836 245.766 277.089C245.427 277.936 244.691 279.747 244.691 279.747C244.555 279.356 244.541 279.312 244.105 278.052C244.133 277.993 244.044 277.878 243.97 277.806C243.97 277.806 243.777 277.248 243.622 276.799C243.703 276.655 243.778 276.512 243.861 276.368V276.368ZM248.862 278.159C250.802 278.704 252.785 279.234 254.74 279.823C254.74 279.823 253.401 283.547 252.809 285.212C251.877 287.723 248.86 288.426 247.26 287.034C246.569 286.445 246.224 285.591 246.345 284.673C246.437 283.814 246.751 283.171 248.862 278.159V278.159ZM207.17 278.465C207.534 278.534 207.914 278.645 208.395 278.771C209.171 278.967 209.885 279.129 210.617 279.301C210.01 280.376 209.33 281.451 208.564 282.47C208.285 281.65 208.134 281.226 208.027 281.087C208.027 281.087 207.41 279.16 207.17 278.465V278.465ZM204.886 279.742C205.742 282.219 205.832 282.48 205.966 282.726C206.307 283.712 206.457 284.146 206.648 284.697C204.211 287.148 201.144 288.839 197.378 288.63C199.592 286.208 202.101 283.281 204.886 279.742V279.742ZM242.063 279.908C242.923 282.617 243.474 285.36 243.744 288.109C240.198 287.244 240.389 283.844 242.063 279.908ZM257.89 280.485C258.465 280.561 261.052 281.023 262.795 281.364C261.085 284.055 258.778 286.102 255.584 287.006C255.652 286.791 255.706 286.539 255.802 286.269C256.028 285.656 257.592 281.172 257.89 280.485V280.485Z" fill="black"/>
</svg>
