<svg width="355" height="355" viewBox="0 0 355 355" fill="none" xmlns="http://www.w3.org/2000/svg">
<path d="M1.1416 10.2297H4.49929" stroke="#3F3F3F" stroke-width="0.1" stroke-linecap="round" stroke-linejoin="round"/>
<path d="M76.6609 303.149C56.8698 307.456 48.025 304.231 53.5778 280.032C50.9619 278.429 34.161 274.11 23.327 256.462C15.1067 243.071 15.6115 229.13 15.9809 224.562C17.2055 209.419 21.8825 201.071 23.3022 197.397C1.91903 179.601 3.87928 178.509 23.32 161.731C19.6165 152.223 11.874 136.2 17.7431 115.69C17.8734 115.235 20.6533 103.849 29.1632 94.9553C41.237 82.3374 50.5919 80.9211 53.5749 79.1041C50.3993 64.1561 52.6565 59.8841 55.0304 57.3219C58.5463 53.527 69.9475 53.9956 76.5454 56.007C78.674 53.7528 83.8264 28.5041 113.655 20.0484C132.248 14.7778 150.05 21.6868 159.31 25.775C168.683 13.8615 174.338 10.2761 177.18 10.2301C182.833 10.1388 194.639 25.336 194.983 25.6578C197.612 24.9975 215.988 14.4414 239.774 19.8376C249.682 22.0854 257.317 27.348 263.096 32.9106C273.731 43.1479 276.652 54.7602 277.718 56.007C286.432 53.4178 295.961 54.0088 299.318 57.3861C299.604 57.6737 301.864 57.9984 302.159 67.1174C302.492 77.425 300.497 78.351 300.747 79.0258C301.41 80.8199 313.724 80.7839 327.008 97.102C348.26 123.207 334.126 154.63 330.943 161.716C338.475 168.301 344.849 173.18 346.368 178.422C348.401 185.439 331.45 195.97 331.091 197.386C330.962 197.898 337.625 210.676 338.145 222.795C338.763 237.203 337.52 245.082 330.987 256.377C325.866 265.232 317.829 270.937 314.734 273.001C305.337 279.266 301.077 279.222 300.748 280.103C300.622 280.44 303.898 287.187 301.471 298.065C299.356 307.546 282.842 304.637 277.718 303.124C274.729 306.617 273.854 318.258 258.869 330.01C254.838 333.172 242.935 341.661 223.925 340.859C216.891 340.563 210.668 339.071 205.675 337.661C199.721 335.98 195.68 333.325 195.01 333.477C192.989 333.936 194.384 336.875 183.072 345.95C178.696 349.462 176.651 350.007 172.315 346.796C164.174 340.769 160.975 334.745 159.135 333.449C155.91 335.055 136.394 344.494 114.482 339.307C102.064 336.368 94.3704 329.538 89.5114 324.554C80.449 315.258 78.1986 305.72 76.6609 303.149ZM187.897 329.718C185.126 329.668 179.331 338.39 175.424 335.757C175.336 335.697 171.139 332.79 171.052 332.729C166.541 329.588 167.361 330.107 166.448 329.726C165.685 329.974 162.135 331.881 162.065 332.174C161.751 333.478 171.447 342.736 173.568 344.38C176.798 346.884 177.985 346.927 182.708 342.736C184.833 340.85 191.172 334.532 192.255 332.216C191.405 331.361 187.997 329.72 187.897 329.718ZM139.496 309.778C139.458 309.735 136.996 309.118 136.636 309.306C135.831 309.725 136.982 310.456 132.355 319.814C124.027 336.658 116.72 335.252 117.217 337.017C117.528 338.124 133.423 338.325 136.381 337.513C137.019 335.259 137.639 325.866 138.38 320.901C138.644 319.132 139.643 309.947 139.496 309.778ZM217.641 309.313C216.987 309.287 215.727 309.485 214.711 309.821C214.621 313.163 217.696 336.973 217.884 337.497C218.988 337.877 221.37 338.232 229.537 338.1C230.9 338.079 236.954 337.316 237.031 337.023C237.304 335.99 232.5 336.586 224.506 324.371C219.793 317.17 218.417 310.385 217.641 309.313ZM115.669 301.936C114.884 302.18 111.549 308.538 109.706 314.283C105.869 326.245 107.689 335.064 113.132 334.938C123.777 334.692 133.56 312.68 133.581 308.687C132.553 308.233 130.592 308.017 125.911 306.337C118.147 303.551 116.521 301.672 115.669 301.936ZM220.656 308.654C221.49 315.42 233.46 337.625 242.565 334.764C252.658 331.594 241.196 302.621 238.64 301.939C238.093 301.793 236.311 303.212 230.005 305.732C225.821 307.404 221.393 308.389 220.656 308.654ZM110.022 298.39C109.108 299.023 109.904 298.298 101.436 309.327C99.8157 311.436 100.128 311.037 97.5836 314.353L97.0462 315.053C96.0902 316.303 93.153 320.165 93.0734 320.269C91.7693 321.978 91.502 322.132 91.5094 322.454C91.5434 323.928 103.083 332.755 106.337 333.401C106.171 332.157 103.611 327.489 105.923 317.719C108.25 307.886 112.086 302.853 113.053 300.419C112.346 299.584 110.503 298.563 110.022 298.39ZM177.179 322.605C176.839 322.772 169.774 327.574 169.382 327.986C170.124 329.075 176.891 333.394 177.079 333.405C177.652 333.438 184.37 328.731 184.949 327.97C184.806 327.847 177.343 322.699 177.179 322.605ZM259.278 317.735C258.915 317.262 256.679 314.325 255.667 313C244.888 298.89 244.637 298.484 244.271 298.431C243.932 298.383 241.813 299.8 241.335 300.189C241.563 302.589 245.1 305.088 247.937 316.093C250.951 327.789 248.293 330.951 247.993 333.348C251.237 332.771 260.701 325.551 262.754 322.519C262.436 321.755 263.165 322.804 259.278 317.735ZM156.633 309.077C155.959 309.082 151.861 309.883 151.124 310.156C151.965 311.822 156.125 317.725 158.296 321.4C158.464 321.686 162.91 328.141 163.072 328.176C163.573 328.286 172.803 322.744 173.91 321.332C173.3 320.743 161.505 317.022 156.633 309.077ZM197.661 309.023C197.429 309.452 195.773 312.952 188.723 317.306C184.325 320.023 180.415 321.059 180.372 321.239C180.193 321.991 189.987 327.913 191.253 328.161C191.895 327.584 202.847 310.982 203.187 310.189C202.568 309.913 198.89 309.206 197.661 309.023ZM206.57 310.213C206.46 310.284 206.83 309.761 202.961 315.634C200.406 319.511 200.676 319.033 200.462 319.547C201.304 320.154 212.929 322.529 213.135 322.372C213.525 322.075 212.056 310.908 211.872 310.197C210.511 309.977 206.927 309.985 206.57 310.213ZM147.708 310.223C147.356 309.991 142.75 309.905 142.443 310.193C142.087 310.528 140.804 322.032 141.182 322.341C141.383 322.506 152.25 320.469 153.848 319.61C153.328 318.369 148.082 310.469 147.708 310.223ZM184.421 297.253C183.825 296.271 183.17 295.174 181.12 291.787C177.189 285.295 177.377 285.622 177.231 285.612C176.778 285.579 173.507 291.061 171.11 295.19C167.684 301.091 166.256 302.791 166.301 303.357C166.368 304.18 170.534 307.655 175.184 308.6C178.712 309.318 185.548 307.397 188.01 303.385C187.785 302.863 188.478 303.933 184.421 297.253ZM103.88 301.622C107.615 296.758 107.229 297.24 107.585 296.578C105.571 294.732 104.608 294.195 104.315 294.04C103.508 294.286 100.45 295.733 98.809 296.491C98.6163 296.58 94.0929 298.684 93.9973 298.73C92.6465 299.38 92.9306 299.337 92.8218 299.419C93.2034 300.642 98.242 308.488 98.4555 308.487C98.7755 308.486 98.6767 308.417 100.503 306.027C100.57 305.938 103.203 302.503 103.88 301.622ZM249.872 294.034C249.05 294.574 249.971 293.895 246.659 296.578C246.97 297.094 254.729 307.495 255.862 308.487C256.894 307.74 260.87 300.829 261.48 299.473C260.736 298.767 250.373 294.146 249.872 294.034ZM158.391 300.169L148.029 290.046C147.305 289.339 147.285 289.365 147.109 289.4C146.567 289.507 145.716 293.265 141.434 293.337C137.747 293.398 137.406 291.337 135.699 290.101C131.949 293.824 127.073 294.649 125.605 286.967C124.831 287.005 117.463 287.893 118.81 280.067C118.414 279.937 100.435 281.414 98.047 282.166C98.6834 284.282 107.52 296.948 127.662 304.052C143.059 309.483 158.083 307.658 161.671 303.567C161.275 302.815 162.04 303.733 158.391 300.169ZM235.507 279.987C236.024 286.409 233.045 286.921 228.751 287.033C225.2 297.772 219.89 291.16 218.537 290.119C216.585 291.502 216.16 294.013 211.742 293.236C208.552 292.676 207.62 289.445 207.144 289.387C206.87 289.353 205.704 290.593 205.073 291.21L194.38 301.656C192.308 303.679 192.795 303.362 192.656 303.645C198.822 309.728 215.118 308.042 228.745 303.276C240.528 299.155 254.129 288.043 256.262 282.177C255.544 281.939 255.151 281.912 246.877 281.026C238.476 280.127 237.092 279.776 235.507 279.987ZM97.4779 294.105C102.51 291.771 101.437 292.288 101.983 291.84C101.437 291.027 99.7829 289.334 99.5755 289.302C96.7046 288.86 100.809 294.118 75.7194 285.2C75.0172 288.998 78.9676 301.472 79.5819 302.328C80.303 302.122 78.4747 302.911 90.9485 297.137C91.8631 296.714 93.4285 295.982 97.4779 294.105ZM254.806 289.249C254.591 289.262 252.662 291.278 252.318 291.823C253.24 292.572 258.912 295.106 263.024 296.965C273.99 301.923 274.162 302.464 274.654 302.319C275.667 302.021 279.261 286.735 278.511 285.142C258.09 293.68 255.766 289.193 254.806 289.249ZM74.576 296.19C72.6371 294.508 65.0159 295.266 63.2454 293.408C62.6084 292.739 61.6171 285.234 60.5489 282.184C60.4076 282.09 61.0325 282.029 56.5067 280.908C53.8665 284.227 54.1858 297.962 56.853 300.182C59.1818 302.119 71.1937 302.936 75.7864 300.288C75.6989 299.697 74.8987 296.47 74.576 296.19ZM293.745 282.054C292.165 287.709 291.691 292.818 291.023 293.478C290.365 294.128 288.953 293.766 279.777 296.115C279.42 296.704 279.182 297.29 278.493 300.225C282.076 302.805 294.387 302.118 296.886 300.563C300.552 298.281 300.092 284.663 297.873 280.957C296.943 281.088 294.551 281.771 293.745 282.054ZM199.766 292.577C201.392 290.995 202.743 289.778 202.666 289.538C202.33 288.49 198.946 290.694 196.621 284.514C189.22 286.103 193.076 285.504 188.366 282.897C186.764 284.097 186.88 285.313 184.67 285.906C182.811 286.404 180.986 285.537 180.823 285.798C180.649 286.077 184.427 292.055 184.967 292.878C187.783 297.172 189.312 300.749 190.532 301.51C190.537 301.507 190.731 301.401 190.759 301.388C190.867 301.336 190.84 301.3 195.016 297.214C195.586 296.657 199.195 293.133 199.766 292.577ZM165.76 282.862C164.465 283.054 164.849 286.931 157.735 284.467C153.821 291.848 152.316 288.077 151.687 289.522C151.656 289.595 151.575 289.716 152.224 290.347L157.701 295.682C163.57 301.399 163.622 301.523 163.961 301.483C164.137 301.462 167.731 295.5 168.655 293.994C169.653 292.368 173.359 286.696 173.442 285.746C166.82 286.938 166.896 282.694 165.76 282.862ZM63.7024 282.875C63.659 284.036 65.3401 290.859 65.441 290.99C65.9695 291.68 73.6898 293.113 73.863 293.127C73.9251 292.767 72.6676 284.421 72.5547 284.073C71.5003 283.88 64.0547 282.816 63.7024 282.875ZM290.508 282.841C290.378 282.721 289.907 282.48 281.728 284.097C281.638 284.451 280.319 292.431 280.502 293.138C280.672 293.111 288.408 291.617 288.837 291.08C289.106 290.744 289.753 286.979 290.036 285.827C290.05 285.769 290.863 283.17 290.508 282.841ZM137.673 285.395C136.985 286.173 138.503 290.746 141.359 290.738C143.824 290.732 145.847 286.837 144.03 284.434C139.862 285.753 138.184 284.817 137.673 285.395ZM210.216 284.433C208.51 287.087 210.58 290.721 212.912 290.74C215.903 290.765 217.24 286.001 216.582 285.372C216.117 284.928 214.022 285.629 210.216 284.433ZM133.663 284.902C133.485 284.659 130.515 283.65 130.158 283.534C126.62 287.035 129.45 289.636 130.025 289.913C130.551 290.167 131.544 290.072 131.74 290.008C133.917 289.293 134.114 285.518 133.663 284.902ZM220.542 284.856C220.406 286.478 220.407 289.084 222.394 289.955C225.926 291.504 226.997 284.512 224.229 283.563C224.008 283.487 224.279 283.471 220.542 284.856ZM147.111 283.453C147.384 285.5 151.241 287.642 153.423 286.199C156.822 283.951 153.781 279.176 153.219 279.176C152.923 279.176 153.108 279.524 150.315 281.471C148.275 282.893 148.147 282.578 147.111 283.453ZM201.039 279.178C199.353 280.605 198.263 284.284 200.717 286.073C203.532 288.124 207.418 284.499 207.209 283.547C207.176 283.399 205.435 282.388 201.039 279.178ZM123.571 278.281C121.181 279.606 120.689 282.704 122.268 283.824C122.804 284.204 125.207 285.67 127.389 281.865C127.32 281.786 124.301 278.692 123.571 278.281ZM226.972 281.925C228.498 285.266 231.681 284.628 232.55 283.276C233.99 281.035 231.286 278.242 230.649 278.298C230.443 278.316 227.656 281.017 226.972 281.925ZM167.787 277.11C167.117 279.768 168.997 283.552 171.3 283.409C173.074 283.299 174.998 281.316 175.046 277.022C168.512 276.97 168.644 276.956 167.787 277.11ZM179.259 277.09C178.935 278.646 179.947 282.988 182.81 283.383C185.401 283.741 187.196 279.376 186.536 277.147C186.395 277.109 181.842 276.653 179.259 277.09ZM151.335 270.516C151.168 270.34 148.159 269.311 139.973 266.262C130.377 262.688 128.486 261.994 128.236 261.998C127.836 262.004 123.388 265.065 122.655 265.642C120.585 283.213 145.095 287.918 152.667 275.514C152.343 273.68 151.478 270.666 151.335 270.516ZM157.26 277.137C156.579 284.084 165.49 284.194 164.686 277.11C163.662 276.928 158.412 276.849 157.26 277.137ZM189.6 277.022C189.693 284.914 197.087 283.955 197.044 277.105C196.315 276.959 196.151 276.965 189.6 277.022ZM226.117 262.002C225.842 261.983 223.734 262.71 213.158 266.693C203.847 270.199 203.507 270.058 203.039 270.506C202.577 270.949 201.595 275.262 201.717 275.671C201.936 276.398 209.582 284.519 219.561 282.162C229.882 279.725 232.628 267.947 231.621 265.717C231.294 264.99 226.249 262.011 226.117 262.002ZM64.9022 254.763C64.4473 255.243 65.3978 253.167 57.7649 269.69C57.2167 270.876 55.5257 274.535 55.4794 274.633C54.3409 277.06 54.5918 276.372 54.4569 277.111C56.6055 278.905 71.134 281.589 71.5159 281.003C71.7923 280.578 70.6959 280.58 68.3516 273.173C67.1982 269.528 65.3137 259.553 67.5304 257.265C66.7712 256.387 65.6909 255.281 64.9022 254.763ZM298.831 274.67C298.557 274.086 296.781 270.218 296.13 268.814C288.849 253.122 289.932 255.374 289.377 254.611C286.528 257.382 287.111 256.845 286.841 257.183C290.555 263.977 283.711 278.294 282.731 281.027C285.154 281.44 297.074 278.676 299.855 277.179C299.738 276.429 300.097 277.369 298.831 274.67ZM100.419 256.299C100.131 256.012 99.3835 256.355 90.529 258.682C84.3453 260.308 78.3767 261.815 78.1701 261.966C76.0906 263.483 78.1353 272.403 82.069 275.723C87.1555 280.016 93.5483 279.62 94.5017 278.766C94.9808 278.337 94.828 278.357 96.7822 271.058C99.4554 261.074 100.633 256.514 100.419 256.299ZM253.885 256.244C253.534 256.552 253.945 257.193 256.626 267.611C259.258 277.835 259.35 278.34 259.66 278.678C261.482 280.666 269.664 278.326 272.7 275.262C275.976 271.956 278.329 263.804 276.238 262.038C276.074 261.899 271.732 260.616 265.892 259.227C256.022 256.879 254.257 255.917 253.885 256.244ZM113.327 274.286C113.327 270.066 113.307 271.789 113.989 269.644C108.403 268.442 109.676 265.048 109.596 262.764C104.264 263.35 105.72 263.784 102.335 261.099C102.173 261.438 97.6108 278.182 97.7029 279.305C98.4519 279.314 115.96 277.406 116.324 277.318C115.304 275.952 115.271 277.192 113.327 274.286ZM244.737 262.774C244.707 269.172 243.293 268.707 240.337 269.695C242.221 276.137 239.491 275.29 237.929 277.314C238.579 277.478 247.478 278.309 249.021 278.553C250.821 278.838 256.467 279.394 256.579 279.29C256.871 279.019 256.282 277.307 254.272 269.581C251.838 260.222 252.22 261.558 251.961 261.099C249.557 262.836 250.431 263.793 244.737 262.774ZM119.976 268.683C119.369 268.319 115.601 271.122 115.825 272.878C115.84 272.996 116.35 275.476 121.478 274.606C121.283 272.292 120.081 268.746 119.976 268.683ZM234.33 268.615C233.715 269.957 234.485 269.309 232.661 274.536C234.982 275.253 238.386 274.555 238.461 272.735C238.523 271.219 235.808 268.956 234.33 268.615ZM151.977 260.552C151.844 262.221 155.062 273.932 155.279 274.107C155.581 274.351 173.189 274.489 174.69 274.091C173.433 271.143 165.873 266.664 164.2 265.829C162.77 265.117 153.566 260.719 151.977 260.552ZM202.38 260.569C201.217 260.646 193.88 263.761 189.074 266.513C185.703 268.444 180.579 271.636 179.618 274.128C179.814 274.186 179.272 274.288 183.029 274.304C183.286 274.305 189.314 274.312 189.442 274.312C190.334 274.311 195.684 274.291 195.812 274.29C197.389 274.279 198.808 274.289 198.965 274.184C199.199 274.029 202.439 261.409 202.38 260.569ZM269.874 179.56C269.84 177.758 265.764 179.717 257.611 160.667C252.337 148.343 246.449 130.971 246.38 110.348C225.924 110.31 194.282 102.767 177.229 86.7745C176.606 87.1829 171.34 95.7417 144.351 104.277C120.388 111.855 112.205 109.363 107.92 110.509C107.889 111.243 108.964 124.326 101.865 146.733C98.4656 157.464 95.5428 163.344 93.7306 166.794C87.3763 178.889 84.3451 178.688 84.3827 179.64C84.4178 180.529 88.9706 181.172 96.5879 198.225C100.801 207.658 106.875 222.815 107.919 248.621C113.439 250.08 123.645 246.726 148.017 256.069C176.76 267.089 173.797 270.298 177.246 272.355C180.722 268.953 184.662 263.453 207.677 255.595C225.528 249.5 237.735 248.789 246.38 248.787C246.44 230.623 251.087 215.97 253.833 208.184C255.127 204.515 256.988 199.289 260.092 193.229C266.682 180.363 269.893 180.568 269.874 179.56ZM113.832 260.631C111.627 262.911 111.628 266.687 113.893 266.976C115.365 267.163 118.12 265.06 118.155 264.467C118.189 263.891 114.36 260.867 113.832 260.631ZM236.108 264.413C236.705 265.463 239.387 267.687 241.101 266.701C242.823 265.711 242.596 262.864 240.358 260.538C235.97 264.075 236.219 264.211 236.108 264.413ZM44.8002 257.271C58.416 246.77 57.4853 247.749 58.3382 246.67C58.1602 246.288 56.7724 243.812 56.4343 243.716C55.3613 243.41 50.4477 248.142 39.2131 250.726C28.3896 253.215 25.2434 250.626 23.3501 250.425C23.9138 253.32 31.6372 263.98 34.2983 265.251C34.8965 264.859 34.3162 265.274 39.0511 261.66C44.8003 257.271 44.6857 257.359 44.8002 257.271ZM297.908 243.719C297.49 243.838 296.157 246.227 295.962 246.773C296.541 247.474 298.792 249.055 307.919 256.067C319.012 264.589 319.771 265.221 320.075 265.201C321.542 265.108 330.06 253.964 330.975 250.404C330.153 250.514 323.593 253.964 310.269 249.357C300.767 246.072 298.954 243.423 297.908 243.719ZM60.1484 249.074C59.6338 249.39 49.1215 257.134 48.2333 258.356C48.5041 258.684 56.0917 263.491 57.2987 263.903C58.004 262.845 62.7175 252.643 62.685 252.391C62.6529 252.142 60.8812 249.985 60.1484 249.074ZM305.253 257.464C305.166 257.397 301.07 254.264 300.896 254.131C294.485 249.233 295.168 249.719 294.186 249.072C291.359 252.469 291.66 252.109 291.633 252.27C291.549 252.775 296.08 262.652 296.991 263.888C298.201 263.466 305.532 258.951 306.089 258.303C306.061 258.265 306.189 258.189 305.253 257.464ZM108.118 251.612C108.91 252.764 120.378 262.585 121.309 263.065C124.491 261.482 133.167 255.22 133.622 254.841C130.362 253.315 112.628 250.575 108.118 251.612ZM238.793 258.253C246.595 251.465 245.62 252.401 246.141 251.554C241.53 251.133 226.366 252.541 220.624 254.808C220.859 254.989 232.393 263.046 232.987 263.041C233.316 263.038 233.467 262.855 233.658 262.711C233.766 262.629 233.15 263.163 238.793 258.253ZM105.838 253.561C105.168 253.626 103.077 258.798 105.636 260.295C107.672 261.487 110.299 258.786 111.112 258.103C106.389 253.779 105.977 253.548 105.838 253.561ZM243.276 258.082C244.055 258.959 246.072 260.587 247.44 260.644C250.85 260.786 250.104 254.774 248.488 253.612C247.625 254.035 243.633 257.665 243.276 258.082ZM93.9103 247.161C90.9822 246.886 88.6704 248.389 87.0426 242.737C80.4985 244.802 81.2197 241.698 79.4223 240.371C79.3186 240.73 77.4234 258.2 77.3817 258.947C78.1443 259.215 76.4719 259.479 87.2279 256.666C95.632 254.469 95.0375 254.763 95.6021 254.358C93.855 251.44 93.3123 254.53 93.9103 247.161ZM274.857 240.356C272.806 242.118 273.021 245.017 267.259 242.713C265.893 247.965 264.595 246.563 260.366 247.196C261.024 252.351 261.173 251.335 258.596 254.406C260.674 255.293 276.474 259.081 276.848 259.036C277.095 256.795 275.072 241.076 274.857 240.356ZM69.7775 231.147C64.6548 229.802 60.7225 226.148 66.655 221.025C59.8266 212.969 65.0333 212.102 67.3657 209.569C66.9302 208.941 67.7688 209.817 62.1087 204.026C59.5401 201.397 57.4501 199.253 57.3552 199.155C52.9001 194.572 53.4917 195.305 53.0935 195.049C50.4751 197.565 45.6205 211.038 53.4782 231.358C54.5727 234.189 57.6367 241.302 62.7154 247.925C64.0737 249.696 73.0631 259.331 74.507 258.655C74.7282 258.552 75.6544 250.672 76.006 246.535C76.5448 240.195 77.1062 238.291 76.7061 237.965C76.5553 237.842 68.6801 239.435 69.7775 231.147ZM299.211 196.813L293.01 203.165C287.569 208.731 287.424 208.854 286.927 209.586C295.286 216.769 289.143 218.446 287.67 221.042C290.178 223.4 288.498 220.901 290.383 224.382C290.376 225.619 291.089 230.34 284.586 231.057C284.839 239.101 279.346 238.139 277.591 237.942C277.337 238.984 278.484 248.411 278.517 248.623C279.934 257.822 279.174 258.415 279.726 258.668C280.957 259.231 290.786 250.174 295.348 242.386C310.771 216.055 303.977 197.629 301.157 195.06C300.886 195.219 301.187 194.789 299.211 196.813ZM98.6061 245.668C96.7621 247.584 94.885 250.166 97.1242 251.824C98.3035 252.697 102.064 252.3 103.156 250.826C102.736 250.281 99.679 246.735 98.6061 245.668ZM251.052 250.889C253.146 252.653 256.04 252.398 256.9 251.99C257.839 251.544 259.689 250.023 255.653 245.613C254.893 246.435 251.142 250.782 251.052 250.889ZM48.0807 223.129C45.9064 221.499 19.5714 234.142 21.8958 244.759C23.8778 253.812 49.811 246.374 54.7863 241.057C54.1744 238.901 53.2005 238.275 51.0474 232.501C47.7499 223.659 48.3953 223.365 48.0807 223.129ZM299.501 241.037C300.165 241.846 311.378 249.245 324.45 248.883C337.02 248.535 332.395 239.196 326.898 234.115C320.033 227.77 307.477 222.39 306.277 223.116C305.969 223.302 306.07 224.755 303.583 231.703C302.141 235.732 300.06 239.291 299.501 241.037ZM93.6681 235.335C94.2659 236.603 104.239 248.017 105.111 248.605C106.243 244.654 103.173 225.926 101.892 223.123C101.504 223.568 101.732 223.193 97.6996 229.191C93.2718 235.777 94.0629 234.546 93.6681 235.335ZM258.28 238.39C261.019 235.244 260.515 235.707 260.673 235.449C259.742 233.588 252.986 223.768 252.38 223.114C250.529 227.355 248.644 243.508 249.176 248.623C250.072 247.94 249.298 248.731 254.582 242.658C255.397 241.721 257.761 238.986 258.28 238.39ZM92.2586 238.576C91.5866 238.619 88.7771 242.054 90.1947 243.794C91.1779 245.002 94.5591 244.747 96.0917 242.753C95.9611 242.568 92.8244 238.54 92.2586 238.576ZM262.014 238.505C261.072 239.177 258.753 241.964 258.158 242.819C260.411 245.124 264.574 245.155 264.6 242.576C264.609 241.708 263.407 239.369 262.014 238.505ZM82.1414 235.176C81.6481 236.993 81.9284 240.536 83.7888 240.823C85.1961 241.04 87.7485 238.588 88.0721 236.718C87.3838 236.459 82.8687 235.284 82.1414 235.176ZM266.196 236.778C266.797 239.263 269.66 241.175 270.804 240.757C272.121 240.275 272.735 237.702 272.167 235.074C265.766 237.074 267.338 236.29 266.196 236.778ZM46.8937 217.181C45.7825 217.1 20.2874 220.032 19.2183 220.346C18.1424 224.006 18.4283 236.196 19.6271 239.412C21.5571 238.804 22.4179 228.569 47.3689 220.231C47.4475 219.246 47.1345 217.816 46.8937 217.181ZM307.308 217.075C307.063 218.681 306.753 219.918 306.929 220.177C307.902 221.612 309.11 219.032 322.694 227.398C333.395 233.989 333.461 240.001 334.689 239.421C335.379 239.095 336.321 225.158 335.103 220.35C333.5 219.85 316.189 218.231 307.308 217.075ZM74.8358 229.365C71.192 231.06 72.4596 234.009 73.0707 234.66C74.975 236.69 78.4649 233.961 78.4051 233.073C78.3913 232.868 75.3275 229.739 74.8358 229.365ZM275.894 233.135C277.01 235.569 280.6 236.254 281.643 234.043C281.731 233.857 283.009 231.025 279.457 229.38C279.379 229.449 276.196 232.476 275.894 233.135ZM86.2007 205.401C86.1257 205.33 81.9481 203.958 81.2402 204.081C79.5467 204.376 75.2446 210.062 74.2284 216.573C71.9887 230.922 88.6059 234.942 90.8873 234.134C91.017 234.088 93.9318 230.476 94.7182 228.42C94.5661 227.953 86.5596 205.736 86.2007 205.401ZM268.032 205.428C267.448 206.785 259.715 228.085 259.581 228.559C260.234 229.904 262.709 233.528 263.406 234.176C290.37 230.83 277.993 204.806 272.992 204.071C272.788 204.041 268.967 204.999 268.032 205.428ZM71.7966 222.882C65.116 223.106 66.5521 226.354 66.9936 226.968C69.0744 229.865 72.8701 227.357 73.1356 226.669C73.2512 226.369 71.9864 223.325 71.7966 222.882ZM281.139 226.537C283.846 229.811 287.087 227.877 287.574 226.411C288.588 223.365 283.445 222.16 282.405 223.035C282.348 223.083 281.244 226.18 281.139 226.537ZM72.1691 212.642C71.7597 211.678 66.6468 211.595 66.0387 214.946C65.4914 217.961 70.5023 219.759 71.2918 219.043C71.3875 218.956 72.4721 213.356 72.1691 212.642ZM282.953 219.018C283.645 219.705 289.649 217.916 288.005 214.227C287.156 212.324 283.799 211.162 282.063 212.716C282.856 215.798 282.773 218.839 282.953 219.018ZM46.6292 209.011C41.55 206.066 39.0149 203.675 37.1371 202.897C36.5591 203.758 34.3328 215.295 34.34 215.554C34.8153 215.667 41.4724 215.387 46.4924 214.331C46.5718 213.913 46.6292 214.865 46.6292 209.011ZM307.758 209.081C307.584 210.31 307.556 212.919 307.725 214.253C307.958 214.336 315.805 215.629 320.009 215.681C319.652 213.354 317.591 203.588 317.207 202.903C315.955 203.422 308.292 208.666 307.758 209.081ZM73.3203 209.627C73.8698 209.389 73.1383 208.733 77.5903 203.478C74.3748 200.532 71.5695 201.726 70.5594 203.251C68.6407 206.147 72.4277 210.014 73.3203 209.627ZM281.146 209.649C283.257 210.051 284.753 205.061 283.914 203.529C283.147 202.13 280.346 200.176 276.663 203.454C281.209 208.621 280.244 209.477 281.146 209.649ZM35.5335 182.854C34.3363 183.33 29.4917 190.98 28.4637 193.621C29.0586 194.252 46.1206 205.447 46.5149 205.627C46.8641 204.91 47.6495 200.826 47.5825 200.031C39.8511 195.803 36.8059 185.027 35.5335 182.854ZM318.82 182.841C317.982 182.974 317.748 191.722 306.581 200.157C307.27 203.298 307.317 204.672 307.725 205.583C308.691 205.238 316.946 199.542 318.498 198.643C318.651 198.555 325.261 194.18 325.759 193.684C325.316 191.937 319.328 182.76 318.82 182.841ZM73.8323 190.702C70.5277 187.928 70.425 187.376 70.9414 183.254C70.566 183.373 70.418 183.334 66.6437 185.653L59.4914 190.039C57.1443 191.479 55.2703 192.427 55.2252 192.832C55.201 193.05 55.2658 193.116 55.9458 193.814C56.1339 194.007 60.3775 198.34 60.6599 198.629C62.8132 200.835 65.3669 203.471 65.7791 203.889C67.0416 205.17 67.1194 205.113 67.253 205.045C68.224 204.553 65.7423 201.756 72.192 199.038C70.7849 189.799 71.9143 195.056 73.8323 190.702ZM295.188 197.038C295.429 196.791 299.096 193.135 299.067 192.791C299.032 192.379 298.555 192.438 290.304 187.295C283.589 183.11 283.944 183.386 283.311 183.259C284.511 189.771 280.576 189.687 280.451 190.811C280.266 192.479 284.465 191.002 282.07 199.047C288.242 201.331 286.259 204.647 287.111 205.046C287.479 205.218 287.627 204.778 289.011 203.36L295.188 197.038ZM82.5885 182.006C82.3753 184.321 82.3871 199.447 82.5491 201.377C84.2762 202.321 95.6455 204.82 96.201 204.732C95.0169 199.026 86.831 184.183 82.5885 182.006ZM271.816 198.322C271.821 197.526 271.834 192.085 271.834 191.686C271.833 191.422 271.816 185.864 271.809 185.07C271.785 182.098 271.764 182.401 271.744 182.038C266.814 183.979 258.5 202.129 258.111 204.749C259.773 205.028 270.224 202.122 271.753 201.414C271.776 200.982 271.799 200.734 271.816 198.322ZM79.6592 192.075C77.8548 191.683 74.1942 193.115 74.0129 195.482C73.7829 198.486 78.9453 200.023 79.5677 199.486C80.3538 198.809 79.8176 193.1 79.6592 192.075ZM274.778 199.535C274.882 199.607 279.489 198.957 280.185 196.266C280.705 194.252 278.013 191.707 274.699 192.024C274.53 192.909 274.409 199.276 274.778 199.535ZM26.9919 168.769C26.0532 166.703 24.6176 164.521 24.5215 164.499C23.7484 164.322 11.7977 174.905 10.7042 178.716C10.4368 179.648 10.0632 181.158 15.7298 187.008C17.3446 188.676 23.7334 194.776 24.425 194.695C24.941 194.635 27.0168 190.292 27.0089 190.188C26.9715 189.697 20.4107 180.895 20.2213 179.929C19.8695 178.136 26.1207 171.23 26.9919 168.769ZM327.289 168.962C327.529 169.421 326.969 168.658 329.67 172.561C330.469 173.717 333.092 177.495 333.31 177.81C334.85 180.046 334.305 179.849 331.44 183.998C331.297 184.205 327.936 189.083 327.865 189.187C327.162 190.23 327.301 190.155 327.291 190.176C327.546 190.958 328.981 193.881 329.8 194.66C331.712 193.776 344.696 182.824 343.611 178.753C342.586 174.909 330.489 164.308 329.72 164.514C329.427 164.592 327.611 168.001 327.289 168.962ZM53.3863 168.738C51.555 168.803 47.5113 176.761 47.9829 180.66C48.3828 183.965 51.7752 190.173 53.3133 190.392C53.6411 190.439 58.7967 187.305 60.4721 186.238C69.3349 180.592 71.0777 180.301 71.0448 179.551C71.0249 179.098 62.8298 174.295 61.457 173.498C54.9746 169.734 53.9481 168.718 53.3863 168.738ZM289.832 175.321C283.989 178.896 284.104 178.822 283.989 178.896C283.79 179.022 283.259 179.309 283.235 179.524C283.191 179.913 283.421 179.967 291.475 184.819C300.464 190.234 300.436 190.411 300.874 190.4C302.685 190.354 306.757 182.522 306.328 178.663C305.753 173.482 301.779 168.771 300.874 168.731C300.617 168.719 300.581 168.744 289.832 175.321ZM73.2369 185.575C73.3006 187.303 76.5168 189.725 79.5942 188.965C79.8255 188.124 79.7862 188.239 79.7319 181.7C74.593 181.494 73.2034 184.668 73.2369 185.575ZM274.671 188.909C277.151 189.708 281.171 187.729 281.012 185.418C280.789 182.197 275.836 181.546 274.674 181.719C274.465 184.01 274.544 188.201 274.671 188.909ZM28.7398 171.795C28.1086 172.214 23.3213 178.993 23.3205 179.562C23.3196 180.131 28.3616 187.384 28.74 187.353C28.9291 187.338 33.5695 180.543 34.1541 179.567C33.8643 179.078 28.8679 171.935 28.7398 171.795ZM325.488 171.772C325.375 171.923 320.361 179.253 320.205 179.597C321.215 181.394 325.394 187.175 325.525 187.309C326.512 186.738 330.567 180.604 331.039 179.566C329.706 176.598 326.431 172.427 325.488 171.772ZM274.724 177.431C278.331 177.815 281.452 175.215 280.957 173.158C280.438 170.999 276.778 169.523 274.671 170.222C274.462 171.649 274.488 176.009 274.724 177.431ZM73.2208 173.587C73.2196 174.041 73.8349 177.524 79.7319 177.431C79.7969 169.496 79.7219 170.637 79.6161 170.218C76.6934 169.396 73.2254 171.852 73.2208 173.587ZM82.551 157.749C82.4275 158.714 82.4066 160.666 82.4129 167.475C82.4137 168.286 82.4337 174.097 82.4347 174.232C82.4537 176.832 82.3954 177.031 82.5451 177.119C84.3766 178.189 94.7249 161.131 96.218 154.4C95.1071 154.218 83.047 157.483 82.551 157.749ZM271.817 160.785C271.809 157.398 271.756 157.891 271.734 157.707C268.962 156.353 258.388 154.335 258.111 154.382C258.656 158.048 266.912 174.786 271.661 177.125C271.743 176.365 271.792 175.025 271.812 167.573C271.813 167.165 271.817 160.921 271.817 160.785ZM46.5568 153.551C46.153 153.71 29.3387 164.551 28.4637 165.514C29.0211 166.955 34.1571 175.482 35.4517 176.324C36.2394 175.34 36.6351 171.419 41.3381 165.174C46.2804 158.612 47.361 159.561 47.6354 159.114C47.6948 159.018 47.4338 155.764 46.5568 153.551ZM307.757 153.519C307.54 154.034 306.545 158.881 306.584 158.985C307.033 160.2 307.796 157.458 314.05 166.779C319.471 174.858 317.508 175.619 319.076 176.35C324.339 168.674 325.647 166.316 325.763 165.288C323.533 163.988 310.392 154.978 307.757 153.519ZM72.2246 160.165C64.6231 155.876 68.7974 154.599 67.1301 154.082C67.0062 154.043 66.8477 154.159 65.8951 155.133C65.7067 155.326 61.7614 159.379 61.197 159.957C55.6905 165.601 55.1796 166.03 55.235 166.376C55.277 166.639 60.5142 169.724 60.8551 169.931C67.9117 174.22 69.8956 175.542 71.0051 175.943C70.0914 171.538 71.1463 170.72 73.8347 168.426C72.371 165.208 70.122 167.266 72.2246 160.165ZM294.927 161.825L289.081 155.849C288.786 155.547 287.335 154.016 287.131 154.071C286.221 154.319 288.275 157.83 282.07 160.084C282.258 160.716 284.762 164.902 280.402 168.161C281.814 170.594 284.156 169.328 283.338 175.898C284.1 175.712 283.422 176.038 291.79 170.914C299.805 166.007 298.987 166.754 299.056 166.42C299.154 165.935 295.099 162.002 294.927 161.825ZM79.57 159.647C78.737 159.063 72.2796 161.378 74.4609 164.812C75.3716 166.246 77.8855 167.457 79.6553 167.067C79.7918 166.187 79.9347 159.902 79.57 159.647ZM274.617 167.072C275.86 167.353 279.61 166.594 280.192 163.981C280.887 160.859 275.437 159.143 274.765 159.637C274.405 159.901 274.577 166.478 274.617 167.072ZM65.1708 151.99C67.7067 149.393 67.2512 149.682 67.3449 149.508C60.2468 143.753 63.7005 141.591 66.655 138.106C62.4863 134.506 62.1959 129.975 69.7775 127.984C68.7491 120.045 75.9996 121.107 76.7773 121.179C76.6621 116.601 74.7015 100.875 74.5741 100.479C71.8551 101.172 59.5101 111.203 53.2677 128.34C45.9204 148.51 51.0407 163.96 53.1815 164.118C53.5236 164.143 55.1138 162.291 56.2519 161.125L65.1708 151.99ZM277.589 121.185C279.742 121.011 284.796 120.222 284.586 128.074C288.961 128.557 293.614 132.477 287.67 138.089C288.741 139.976 288.766 138.012 290.823 142.18C290.812 148.722 289.238 146.945 286.939 149.614C286.958 149.638 286.837 149.625 287.952 150.771L293.717 156.693C294.482 157.479 298.533 161.63 299.192 162.301C300.97 164.115 300.614 163.738 301.024 164.134C302.454 163.126 306.616 155.099 304.66 142.562C304.572 142.001 302.836 128.327 294.846 115.901C291.34 110.448 281.301 99.7492 279.726 100.463C279.189 100.707 279.9 101.081 278.564 110.228C278.055 113.711 277.383 120.33 277.589 121.185ZM73.3304 149.501C72.5213 149.149 69.3878 152.136 70.1402 154.935C70.9503 157.95 74.9808 158.262 77.5256 155.762C77.4473 155.633 73.4687 149.561 73.3304 149.501ZM276.837 155.745C277.004 156.686 281.502 158.939 283.66 155.951C285.77 153.028 281.922 149.203 281.013 149.543C280.627 149.687 280.561 150.628 278.828 153.038C277.651 154.675 276.767 155.348 276.837 155.745ZM46.5744 144.826C43.9275 144.264 35.0542 143.403 34.3376 143.58C34.3058 145.133 36.8295 155.777 37.0728 156.234C38.1247 155.802 46.0668 150.457 46.633 150.077C46.6294 149.762 46.5803 145.351 46.5744 144.826ZM307.72 144.886C307.632 145.794 307.559 148.338 307.688 149.955C308.907 150.979 316.959 156.297 317.175 156.226C317.669 156.062 319.914 143.765 319.932 143.505C318.95 143.458 309.12 144.424 307.72 144.886ZM94.7182 130.711C94.2281 129.43 91.0647 125.036 90.9363 124.988C90.2261 124.72 78.7377 125.409 75.0576 135.378C71.3393 145.45 79.669 154.835 81.3058 155.057C81.4065 155.071 85.9223 154.028 86.2193 153.75C86.578 153.415 94.566 131.178 94.7182 130.711ZM259.581 130.574C259.851 131.526 264.538 144.036 268.027 153.821C268.437 153.935 272.796 155.138 273.205 155.02C273.602 154.906 283.37 146.888 279.159 135.217C276.216 127.063 267.84 125.132 263.32 125.008C262.476 125.871 259.878 129.973 259.581 130.574ZM71.3641 140.117C70.5947 139.352 65.2788 141.109 66.1069 144.395C66.7333 146.881 70.3621 147.95 72.1584 146.503C72.0614 145.09 71.4554 140.207 71.3641 140.117ZM282.119 146.524C284.011 147.991 288.128 146.713 288.239 143.922C288.363 140.798 283.622 139.375 282.927 140.152C282.841 140.247 282.129 146.396 282.119 146.524ZM19.7746 119.702C18.6309 119.772 18.1018 135.141 19.2252 138.792C20.0306 139.044 31.2248 140.337 33.1819 140.558C45.787 141.98 46.6794 142.125 46.8988 141.958C47.1941 141.733 47.5502 139.171 47.3061 138.892C46.6002 138.083 43.5985 139.012 31.0698 131.384C22.4642 126.145 20.4233 119.661 19.7746 119.702ZM334.684 119.71C333.282 118.989 334.266 125.038 320.323 133.192C313.547 137.155 308.293 138.336 306.959 138.914C306.798 139.977 306.849 139.056 307.308 142.056C325.637 139.779 332.977 139.492 335.101 138.783C336.424 133.608 335.362 120.058 334.684 119.71ZM71.806 136.227C71.9003 136.007 73.2802 132.829 73.1236 132.462C72.6975 131.463 69.0273 129.663 67.1086 131.991C66.5454 132.674 65.2277 136.198 71.806 136.227ZM282.498 136.143C287.323 136.703 288.452 133.565 287.177 132.034C285.944 130.554 283.544 130.108 281.177 132.507C281.324 133.502 282.049 135.33 282.498 136.143ZM47.9295 136.076C48.4683 135.819 47.8499 135.204 51.0474 126.63C53.0801 121.179 54.9921 118.724 54.7571 118.011C54.3719 116.843 41.7669 111.397 35.682 110.514C33.3899 110.182 22.6741 108.999 21.8333 114.728C21.1505 119.38 26.6637 124.887 31.5825 128.402C35.4024 131.132 46.6251 136.697 47.9295 136.076ZM257.546 119.92C256.674 118.918 254.475 116.35 253.602 115.349C250.06 111.29 250.383 111.505 249.161 110.508C248.299 119.724 251.762 134.604 252.382 136.017C253.59 134.709 260.244 124.494 260.675 123.716C260.374 123.208 261.096 124.004 257.546 119.92ZM306.227 136.082C315.684 134.786 334.684 122.05 332.371 114.202C329.372 104.031 299.992 115.587 299.474 118.187C299.399 118.562 300.231 118.726 306.227 136.082ZM93.6694 123.691C93.6136 124.596 94.1401 124.648 97.7663 130.043C101.733 135.944 101.425 135.457 101.896 136.008C103.165 133.202 106.109 115.06 105.118 110.548C104.609 110.857 105.463 109.856 100.087 116.043C93.1454 124.032 93.6817 123.492 93.6694 123.691ZM74.8392 129.744C74.9411 129.734 78.3629 126.68 78.4045 126.067C78.4656 125.166 74.8836 122.324 72.9394 124.669C71.0027 127.005 73.9767 129.833 74.8392 129.744ZM279.566 129.75C282.63 128.221 281.898 125.748 281.765 125.38C280.516 121.937 275.86 124.833 275.891 126.015C275.899 126.329 278.86 129.299 279.566 129.75ZM83.6992 118.317C81.6434 118.78 81.8112 122.837 82.1437 123.96C82.2647 123.942 87.9375 122.423 88.0492 122.373C87.5819 119.919 84.7436 118.082 83.6992 118.317ZM266.219 122.362C266.33 122.415 271.779 123.947 272.14 124.025C272.485 122.797 272.643 118.996 270.767 118.39C268.813 117.759 266.463 121.18 266.219 122.362ZM92.2682 120.609C92.7249 120.618 95.7761 116.844 96.0917 116.369C94.8514 114.828 91.7069 113.964 90.407 115.129C88.4245 116.906 91.8053 120.599 92.2682 120.609ZM258.19 116.266C258.703 117.177 261.571 120.628 262.036 120.618C262.521 120.607 264.686 117.932 264.578 116.479C264.359 113.547 260.015 114.476 258.19 116.266ZM93.9916 111.975C92.5207 105.236 95.7457 105.671 95.5669 104.809C95.5066 104.518 94.5936 104.432 88.4331 102.777C86.254 102.191 78.3711 100.042 77.471 100.109C77.0917 102.327 78.5898 115.878 79.4223 118.76C81.3399 117.332 80.4776 114.394 87.034 116.395C88.8222 110.563 91.0429 112.308 93.9916 111.975ZM271.728 101.257C271.391 101.344 267.69 102.307 266.119 102.712C257.921 104.83 259.233 104.464 258.705 104.782C261.395 108.472 261.015 106.995 260.357 111.959C264.12 112.315 265.894 111.17 267.259 116.418C273.035 114.15 273.53 117.634 274.857 118.775C274.979 118.368 276.04 108.63 276.079 108.207C276.782 100.5 277.079 100.431 276.871 100.185C276.601 99.863 275.696 100.234 271.728 101.257ZM53.578 108.583L45.4414 102.371C35.3932 94.7056 34.4895 93.9322 34.2089 93.9436C33.1069 93.9886 23.7939 105.117 23.3367 108.765C25.6177 108.51 27.532 106.109 37.6663 108.102C49.9144 110.51 55.266 115.749 56.426 115.411C56.7646 115.313 58.3478 112.649 58.3231 112.439C58.2803 112.074 56.8827 111.106 53.578 108.583ZM320.144 93.9336C318.992 94.4447 321.072 93.0706 303.355 106.553C303.263 106.623 298.95 109.931 298.766 110.071C296.608 111.713 295.997 112.075 295.971 112.44C295.961 112.584 297.264 114.932 297.967 115.432C299.651 115.02 304.856 110.964 313.934 108.686C325.492 105.786 329.605 108.608 330.956 108.78C330.541 106.615 325.025 97.8284 320.144 93.9336ZM98.6008 113.463C99.1188 113.002 102.686 109.077 103.137 108.217C102.336 107.27 100.837 106.682 98.5562 106.885C95.6729 107.141 94.9389 109.683 98.6008 113.463ZM255.639 113.463C257.662 111.559 258.365 108.635 257.69 107.784C256.153 105.844 251.35 107.422 251.192 108.188C251.108 108.593 255.539 113.368 255.639 113.463ZM57.2443 95.268C55.0308 95.965 48.2843 100.568 48.2484 100.776C48.1458 101.37 59.8812 109.864 60.1537 109.992C60.492 109.632 62.6521 107.08 62.6932 106.754C62.725 106.501 57.9322 96.017 57.2443 95.268ZM296.991 95.2434C296.54 95.8556 291.596 106.472 291.615 106.725C291.641 107.06 291.759 107.148 294.168 110.071C298.199 107.433 305.887 101.087 306.058 100.839C305.413 99.9908 297.393 95.3837 296.991 95.2434ZM121.315 96.0623C120.4 96.581 120.748 96.3208 118.375 98.3993C117.828 98.8781 117.821 98.8699 111.507 104.343C107.597 107.732 108.141 107.495 108.085 107.571C115.757 108.337 131.741 105.231 133.579 104.31C132.24 103.146 122.111 96.4528 121.315 96.0623ZM240.102 102.008C239.588 101.56 236.4 98.8158 235.799 98.2937C233.382 96.1925 233.795 96.4335 233.025 96.0649C231.94 96.563 224.777 101.45 220.586 104.31C222.787 105.198 230.636 106.523 233.507 106.943C238.774 107.712 244.145 107.756 246.164 107.572C245.648 106.731 245.933 107.091 240.102 102.008ZM105.838 105.57C105.977 105.583 106.389 105.352 111.112 101.028C108.046 98.4527 106.939 97.8263 105.394 99.001C103.297 100.595 105.052 105.494 105.838 105.57ZM248.395 105.58C249.692 104.729 250.569 100.602 249.092 99.1552C247.78 97.8704 245.073 98.8945 243.276 101.062C244.111 101.964 247.751 105.073 248.395 105.58ZM71.521 78.1082C68.4085 77.5699 54.6367 81.3941 54.4239 82.063C54.3496 82.2967 55.5572 84.7804 59.5106 93.2169C64.9297 104.781 64.144 103.535 64.9479 104.495C67.5998 101.908 67.1702 102.308 67.5232 101.832C63.845 98.026 68.3357 87.6974 71.521 78.1082ZM295.363 91.958C295.89 90.8198 295.237 92.2453 296.683 89.1128C297.358 87.6507 298.668 84.826 298.941 84.2427C300.095 81.7816 299.772 82.5333 299.852 81.9456C296.755 80.2966 284.813 77.7571 282.735 78.0982C283.733 80.8221 290.727 95.8179 286.816 101.926C287.434 102.725 288.923 104.11 289.361 104.487C289.667 104.117 289.355 104.931 291.206 100.932L295.363 91.958ZM78.1698 97.1648C78.542 97.4353 99.5397 102.954 100.457 102.875C100.5 102.016 98.1166 93.0353 97.9336 92.4163C95.6958 84.8456 95.275 81.2922 94.6544 80.5249C92.6132 78.0015 84.4055 81.5807 82.4452 83.1269C78.067 86.5803 76.0331 95.6119 78.1698 97.1648ZM259.67 80.4425C259.355 80.7768 259.375 80.8395 256.626 91.5205C253.887 102.165 253.534 102.579 253.885 102.887C254.223 103.184 255.863 102.459 264.784 100.158C275.372 97.4271 275.909 97.3909 276.263 97.0735C277.681 95.802 276.987 88.1667 272.763 83.924C269.704 80.8521 261.53 78.4717 259.67 80.4425ZM171.595 84.8902C171.33 84.8877 165.231 84.8688 164.966 84.8691C164.17 84.8701 158.469 84.9056 158.337 84.9072C155.258 84.9438 155.382 84.9906 155.259 84.9999C155.037 85.5125 151.56 98.2471 152.012 98.5742C152.42 98.8691 161.995 94.383 163.568 93.5895C170.335 90.1765 174.004 86.5741 174.699 85.04C174.273 84.9494 174.64 84.9186 171.595 84.8902ZM195.973 84.8903C195.84 84.8895 190.386 84.8762 189.322 84.8767C188.125 84.8772 184.135 84.8868 182.672 84.8961C180.102 84.9125 180.285 84.924 179.612 84.9471C180.418 87.4957 186.818 91.4286 190.091 93.2424C192.661 94.6667 200.252 98.0388 202.294 98.6696C202.357 98.3944 200.735 89.7254 199.032 84.9385C198.176 84.9099 198.482 84.904 195.973 84.8903ZM113.819 92.1878C111.425 92.5968 111.892 96.6384 113.927 98.5795C114.021 98.512 118.182 95.2581 118.168 94.6823C118.156 94.1811 115.401 91.9178 113.819 92.1878ZM240.311 92.1404C239.038 91.9864 236.121 94.0353 236.109 94.726C236.101 95.1855 239.459 97.8761 240.353 98.5983C242.414 96.4384 242.474 93.6776 241.546 92.7478C241.41 92.6114 240.748 92.1932 240.311 92.1404ZM254.024 90.5082C256.969 79.2851 256.668 80.5052 256.554 79.8584C255.805 79.8246 238.291 81.7295 237.927 81.8194C239.503 83.8325 242.176 83.1486 240.337 89.4356C243.136 90.3719 244.723 89.7956 244.736 96.3552C250.814 95.4062 249.28 96.2554 252.04 98.0656C252.397 97.0312 252.013 98.3157 252.682 95.6624C252.708 95.5591 253.835 91.2295 254.024 90.5082ZM113.986 89.4545C113.375 87.5966 113.327 89.1288 113.327 84.8446C115.174 82.0836 115.456 83.0836 116.326 81.8212C114.146 81.285 98.8392 79.8037 97.717 79.8431C97.6225 80.5865 101.815 97.0038 102.344 97.9959C105.207 96.4168 102.505 95.5738 109.596 96.3676C109.756 91.9482 108.963 90.9511 113.986 89.4545ZM152.667 83.6168C150.971 80.8607 142.678 74.3191 133.446 77.3219C122.365 80.9258 122.469 93.1064 122.638 93.4561C122.754 93.6957 127.332 96.7444 128.17 97.1505C128.639 97.0006 150.973 89.0482 151.324 88.7024C151.549 88.481 152.484 84.6526 152.667 83.6168ZM201.717 83.4632C201.563 83.9798 202.652 88.3196 203.046 88.6879C203.197 88.8293 203.018 88.7645 212.745 92.286C227.338 97.5693 225.705 97.1535 225.987 97.1541C226.791 97.1557 231.529 93.6117 231.596 93.4956C231.994 92.8046 231.412 85.5862 226.924 81.0509C216.238 70.2515 202.297 81.522 201.717 83.4632ZM115.825 86.2531C115.691 87.3117 117.99 90.3968 120.004 90.4571C120.255 89.767 121.458 84.8833 121.466 84.5163C119.364 84.2065 116.062 84.3794 115.825 86.2531ZM232.778 84.5196C232.838 85.2604 234.278 90.403 234.329 90.5157C235.478 90.2419 238.66 88.1344 238.423 86.2598C238.244 84.8534 235.791 83.9228 232.778 84.5196ZM157.18 81.9173C157.418 82.2998 163.503 82.2309 164.686 82.0216C164.882 80.299 164.21 78.2916 162.585 77.0281C159.132 74.344 156.795 81.2984 157.18 81.9173ZM175.046 82.1086C174.975 75.7049 171.211 75.5077 170.22 75.9685C168.09 76.9584 167.341 80.2499 167.787 82.021C168.358 82.1236 167.061 82.1732 175.046 82.1086ZM179.259 82.0416C180.551 82.2598 184.287 82.5883 186.536 81.984C187.203 79.7311 185.309 75.0891 182.606 75.7807C180.268 76.3789 178.825 79.9565 179.259 82.0416ZM189.625 82.0414C191.233 82.3117 196.166 82.1881 197.035 82.0001C197.242 74.0003 188.653 75.5938 189.625 82.0414ZM123.621 80.8306C123.828 80.8204 126.967 77.7418 127.389 77.2865C127.082 76.7535 125.697 73.7818 122.779 75.0429C119.558 76.435 122.57 80.8825 123.621 80.8306ZM226.971 77.2175C227.213 77.5537 230.464 80.834 230.671 80.8427C231.694 80.8858 234.255 77.0404 232.118 75.3445C231.088 74.5277 228.253 74.311 226.971 77.2175ZM153.223 79.9563C154.247 79.9506 157.056 74.3132 152.837 72.6558C149.947 71.5201 146.84 74.9292 147.106 75.6589C147.251 76.0579 148.112 76.1888 150.096 77.5502C153.154 79.6491 152.986 79.9576 153.223 79.9563ZM201.015 79.9741C207.687 74.9807 206.239 76.5777 207.23 75.6411C205.357 68.7704 195.165 74.0394 201.015 79.9741ZM125.608 72.1608C126.84 65.527 131.494 64.2962 135.678 69.0398C136.882 68.3036 137.892 65.4275 141.963 65.836C145.439 66.185 146.09 68.7603 147.122 69.7401C147.237 69.6811 147.167 69.9273 147.996 69.119L156.552 60.7713C156.635 60.6902 160.559 56.8909 160.725 56.7288C161.473 56.0006 161.7 55.7687 161.643 55.4982C161.165 53.2131 150.043 50.5369 138.51 52.3445C125.406 54.3983 115.502 60.6122 113.697 61.7287C104.408 67.4746 98.6888 74.8773 98.0418 76.9637C99.2208 77.3608 106.065 77.9736 108.332 78.2276C119.597 79.4902 118.227 79.3524 118.794 79.0772C117.707 71.7783 123.474 72.0902 125.608 72.1608ZM192.622 55.5641C192.93 56.0152 192.205 55.3356 195.776 58.8498C195.888 58.9598 200.596 63.5648 201.381 64.3314C207.036 69.8495 206.612 69.3919 207.139 69.7418C208.118 68.8198 208.764 66.4261 211.9 65.906C216.667 65.1155 217.798 69.0014 218.53 69.0123C219.171 69.0218 220.08 65.6938 224.384 66.3944C228.069 66.9944 228.607 71.7247 228.679 72.1495C233.904 71.8519 236.633 74.6258 235.417 79.1169C236.647 79.3809 255.475 77.2504 256.261 76.9585C254.942 73.2642 243.061 59.8079 224.235 54.3099C209.05 49.8753 195.899 51.7056 192.622 55.5641ZM63.2637 65.7066C64.2549 64.7222 73.4981 63.8474 74.5765 62.9593C74.9741 62.6319 75.7703 58.9252 75.7847 58.8405C72.0738 56.5875 58.0079 56.1537 56.0885 60.0476C53.5254 65.2474 54.8046 75.7381 56.3951 78.1613C57.5097 78.1259 60.0555 77.2291 60.5369 77.0471C61.5842 73.7084 62.6016 66.3641 63.2637 65.7066ZM279.653 62.9853C285.895 64.6614 290.199 64.9837 290.896 65.5898C291.61 66.2118 293.155 75.0356 293.75 77.0826C294.455 77.3364 296.699 77.9937 297.764 78.1877C300.362 75.0253 299.713 62.4567 297.989 59.5855C296.578 57.2349 284.165 55.4985 278.42 58.8633C279.32 61.8275 279.181 61.6007 279.653 62.9853ZM73.9121 66.0666C73.0575 66.0224 65.9469 67.6423 65.576 67.9974C65.2031 68.3543 63.7705 75.0014 63.5679 76.363C63.751 76.3608 72.4444 75.063 72.6238 75.0265C72.6553 74.8482 73.9201 66.2475 73.9121 66.0666ZM288.842 68.0612C288.418 67.5166 280.633 66.0532 280.462 66.0334C280.433 66.2128 281.228 73.0912 281.728 75.0253C284.566 75.6157 290.342 76.329 290.701 76.2749C290.404 73.5964 288.945 68.1942 288.842 68.0612ZM164.113 57.6596C163.77 57.4982 163.47 57.8498 161.185 60.0646C161.109 60.1377 157.578 63.5875 157.428 63.7341C152.934 68.1132 152.298 68.7152 152.196 68.8197C151.511 69.523 151.723 69.448 151.669 69.5404C154.825 71.3878 154.039 67.9955 157.745 74.6679C164.936 72.1694 164.711 76.3179 165.867 76.2512C166.996 76.1861 166.869 72.3508 173.415 73.3702C173.392 72.7113 173.236 72.5167 169.315 66.2208C164.019 57.7175 164.294 57.745 164.113 57.6596ZM202.648 69.5629C202.767 69.2598 203.213 69.918 196.918 63.7836C191.381 58.3886 190.689 57.5887 190.337 57.6602C189.947 57.7394 188.706 60.1639 185.056 66.1028C182.245 70.6765 180.63 73.0772 180.828 73.3478C181.252 73.9252 182.667 72.1579 185.301 73.4929C187.136 74.4224 187.393 75.4776 188.361 76.2419C190.286 75.2394 190.92 72.2216 196.569 74.7214C199.45 67.9757 202.241 70.602 202.648 69.5629ZM130.2 75.5813C130.344 75.6174 133.488 74.469 133.663 74.2289C134.759 72.7314 132.752 67.7232 129.943 69.2887C127.192 70.8216 128.856 75.2444 130.2 75.5813ZM224.074 75.5934C225.582 75.3296 226.982 70.4863 224.197 69.2164C222.842 68.5991 219.549 69.9602 220.633 74.2913C220.765 74.3566 223.856 75.6315 224.074 75.5934ZM137.68 73.7184C137.852 73.908 143.898 74.6396 144.018 74.5929C145.4 74.0503 144.765 68.4262 141.39 68.3738C138.398 68.3274 137.156 73.14 137.68 73.7184ZM210.216 74.6995C212.497 73.9107 214.613 73.9692 216.518 73.9006C217.31 72.045 215.471 68.0423 212.543 68.4743C210.044 68.843 208.784 72.4603 210.216 74.6995ZM252.319 67.3067C252.852 68.1557 254.663 69.8734 254.806 69.8818C255.059 69.8967 257.64 67.5271 267.513 69.9514C276.472 72.1513 277.013 73.655 278.64 73.9581C279.011 71.5301 275.707 57.2652 274.738 56.8534C274.536 56.7677 273.276 57.3455 264.745 61.3514C251.524 67.56 253.165 66.6008 252.319 67.3067ZM101.988 67.3128C100.877 66.3246 80.0128 56.9471 79.5297 56.8366C78.363 58.5859 75.4759 70.7717 75.6392 73.9214C77.052 73.5652 91.0135 66.3883 99.5759 69.8293C100.443 69.1276 101.496 67.9893 101.988 67.3128ZM183.459 63.4725C187.104 57.4346 188.034 55.9932 187.972 55.6369C187.642 53.7498 179.3 49.7368 175.274 50.5386C167.751 52.0368 166.337 55.5425 166.313 55.7484C166.247 56.314 167.863 58.3603 171.103 63.9415C171.216 64.1377 176.733 73.5312 177.187 73.5175C177.449 73.5096 177.17 73.817 180.736 67.9903C180.901 67.7204 181.768 66.2721 183.459 63.4725ZM98.4555 50.6444C98.0314 50.6417 92.7754 59.4147 92.8151 59.623C92.855 59.8325 93.1062 59.9744 94.0946 60.4495C94.366 60.58 98.0555 62.2847 100.92 63.6209C104.29 65.1926 103.672 64.9305 104.408 65.1144C105.203 64.5642 107.495 62.6568 107.557 62.6044C107.297 61.9745 108.223 63.1694 102.525 55.7334C98.9578 51.0786 98.7161 50.6461 98.4555 50.6444ZM256.517 62.167C259.019 61.0153 261.39 59.9443 261.461 59.7357C261.53 59.5337 256.548 51.1599 255.867 50.6444C255.41 51.0368 247.521 60.9778 246.664 62.5695C249.346 64.7256 249.651 65.1124 249.986 65.1335C250.085 65.1397 250.064 65.1474 250.754 64.8322C251.216 64.6212 253.171 63.7066 256.517 62.167ZM106.326 25.7443C103.805 26.2646 93.6424 33.1926 91.4957 36.6225C91.9272 37.4634 90.9541 36.084 97.1481 44.1975L102.441 51.1368C110.269 61.397 109.714 60.6707 109.953 60.7175C110.376 60.8003 112.442 59.3903 113.024 58.8554C112.643 57.0111 108.423 52.0454 105.923 41.4121C103.555 31.3426 106.308 26.6845 106.326 25.7443ZM249.649 54.0168C261.557 38.4267 262.427 37.4075 262.754 36.5994C260.465 32.8515 250.158 26.095 247.982 25.8C250.947 44.4102 246.372 47.067 241.196 58.7605C241.831 59.4098 243.619 60.5013 244.413 60.7524C244.509 60.6459 244.408 60.8406 245.555 59.3665C245.637 59.2601 248.749 55.1947 249.649 54.0168ZM115.685 57.1933C116.398 57.4019 117.086 56.2049 124.191 53.4573C129.518 51.3972 132.654 50.8246 133.587 50.5095C133.012 41.6878 119.899 22.4616 111.945 24.2856C106.66 25.4975 107.755 35.894 107.943 37.2364C109.313 46.9873 114.863 56.9531 115.685 57.1933ZM238.656 57.1856C243.811 52.0563 251.422 26.8825 242.518 24.3566C233.999 21.9403 221.537 42.3467 220.659 50.473C238.686 57.1031 238.277 57.1188 238.656 57.1856ZM163.076 30.9543C162.913 30.9881 158.632 37.1605 158.296 37.7325C156.397 40.9625 151.965 47.3514 151.081 49.0027C152.043 49.3301 151.63 49.1366 156.609 50.158C159.155 45.7295 164.929 42.1851 166.027 41.5324C173.034 37.3653 173.759 38.8662 173.871 37.8314C173.953 37.0679 163.577 30.8498 163.076 30.9543ZM191.293 30.9824C190.553 30.7487 181.025 36.778 180.373 37.8935C181.394 38.5787 184.284 38.8798 189.585 42.3817C197.244 47.4413 197.268 49.939 197.681 50.1122C197.785 50.1557 200.821 49.9949 203.187 48.9424C202.973 48.4432 195.966 37.7669 195.809 37.5449C191.953 32.076 191.748 31.1264 191.293 30.9824ZM136.394 21.653C136.036 21.2678 132.383 21.03 127.645 21.0063C125.758 20.9968 117.459 21.3055 117.221 22.1094C116.935 23.0723 121.501 22.449 129.168 33.8345C134.075 41.1215 136.104 48.8246 136.517 49.7946C137.114 49.8733 139.339 49.5343 139.497 49.352C139.801 49.0002 139.241 46.1064 138.325 37.7877C136.69 22.9275 136.616 21.8908 136.394 21.653ZM237.031 22.1115C236.745 20.9975 221.598 20.7243 217.87 21.6166C217.617 22.7045 214.758 46.0086 214.701 49.3588C217.504 50.0703 217.686 49.799 217.747 49.7908C218.164 48.8609 220.248 41.1049 224.794 34.3378C232.703 22.5631 237.289 23.1168 237.031 22.1115ZM153.842 39.5442C153.17 39.1356 142.864 36.9705 141.047 36.7205C141.134 38.6932 142.094 48.671 142.481 48.978C142.717 49.1651 146.698 49.0836 147.498 49.0193C148.521 48.1101 153.131 40.9736 153.842 39.5442ZM213.145 36.759C212.885 36.7653 201.792 38.7281 200.453 39.5256C201.88 42.8905 206.619 48.8727 206.781 49.034C206.882 49.0406 211.584 49.2355 211.88 48.9545C212.058 48.7857 213.37 37.7136 213.145 36.759ZM177.225 25.7064C176.655 25.6589 169.369 30.7613 169.386 31.1425C169.394 31.3306 176.781 36.3402 177.113 36.5178C177.285 36.4378 184.088 31.9183 184.949 31.1745C184.39 30.4114 177.602 25.7378 177.225 25.7064ZM192.251 26.9244C191.212 24.5991 180.012 11.6782 176.053 13.2103C172.762 14.484 161.851 25.7947 162.069 26.9506C162.143 27.3453 165.876 29.2177 166.448 29.4057C168.596 28.5416 175.847 22.4707 177.382 22.6332C178.881 22.792 186.947 29.486 187.951 29.4286C188.547 29.3945 192.041 27.1367 192.251 26.9244ZM118.246 322.06C114.687 321.515 113.501 315.076 118.28 314.232C124.909 313.062 123.662 322.888 118.246 322.06ZM234.795 322.058C229.678 321.059 230.731 312.725 236.511 314.347C240.923 315.585 239.292 322.936 234.795 322.058ZM180.666 300.374C180.164 304.598 173.522 303.934 173.582 300.107C173.641 296.279 181.083 296.855 180.666 300.374ZM146.632 304.282C146.235 304.554 145.37 304.433 145.127 304.312C144.97 304.235 138.882 298.43 140.533 296.862C141.663 295.789 142.587 297.127 144.414 299.305C146.375 301.643 147.981 303.359 146.632 304.282ZM130.108 295.165C130.502 296.079 128.492 304.137 126.299 301.163C125.371 299.906 128.478 291.38 130.108 295.165ZM119.748 290.993C119.142 292.581 111.444 291.877 111.291 291.804C106.38 289.471 121.261 287.024 119.748 290.993ZM214.009 297.152C214.191 297.489 214.096 298.212 214.054 298.35C213.779 299.246 209.488 304.166 209.06 304.358C208.643 304.546 207.798 304.388 207.634 304.273C205.911 303.067 212.556 294.46 214.009 297.152ZM227.544 301.499C225.612 302.345 223.318 295.761 224.803 294.485C227.346 294.189 229.061 300.834 227.544 301.499ZM243.713 290.624C243.728 291.039 243.312 291.636 242.995 291.806C241.67 292.515 231.138 292.048 234.995 289.4C235.285 289.2 243.628 288.16 243.713 290.624ZM136.076 276.812C131.25 275.775 133.817 268.838 138.251 270.692C141.128 271.895 141.41 277.958 136.076 276.812ZM216.958 276.858C212.378 276.123 213.578 270.736 217.042 270.417C222.943 269.873 221.41 277.573 216.958 276.858ZM86.7354 271.84C85.714 271.544 84.9086 270.129 84.8204 269.996C84.8204 269.034 84.6562 263.86 89.1641 265.846C92.7155 267.411 91.4562 273.211 86.7354 271.84ZM264.998 271.858C262.105 271.075 262.535 265.786 266.302 265.473C271.107 265.075 270.659 273.392 264.998 271.858ZM175.593 260.227C176.37 259.455 176.126 259.529 177.837 259.433C179.482 261.077 179.131 267.098 177.966 267.738C177.714 267.877 176.869 268.007 176.368 267.723C176.094 267.567 175.797 267.159 175.719 266.978C175.506 266.482 175.552 264.143 175.593 260.227ZM139.697 237.712C138.938 237.423 127.339 243.718 119.695 234.233C114.921 228.31 118.916 217.998 118.916 216.96C114.866 214.371 107.522 213.964 106.866 207.992C106.078 200.809 110.371 196.717 109.794 194.935C109.681 194.588 99.9394 187.964 99.9394 179.566C99.9394 177.39 99.8888 175.96 102.334 172.175C106.026 166.46 109.657 164.788 109.818 164.15C109.893 163.853 105.146 153.234 107.598 148.986C109.989 144.843 118.769 142.599 118.965 142.105C119.24 141.409 113.928 130.758 120.956 123.495C128.069 116.142 139.121 121.72 139.779 121.344C140.015 121.209 142.753 111.678 146.977 109.778C151.065 107.94 161.132 112.118 161.704 112.29C162.211 111.817 169.004 102.734 175.932 102.37C179.137 102.202 181.696 102.28 186.697 106.303C191.253 109.968 191.933 112.081 192.586 112.227C193.125 112.347 200.373 108.622 206.123 109.427C206.548 109.487 208.691 109.531 211.434 114.232C213.539 117.839 213.85 120.281 214.509 121.329C215.639 121.4 226.336 116.497 233.262 123.45C239.889 130.101 235.683 139.514 235.306 142.115C237.552 143.989 243.647 143.681 246.686 148.987C249.123 153.241 244.703 162.941 244.469 164.144C245.817 165.791 254.218 171.432 254.335 178.879C254.478 187.955 246.157 192.974 244.459 195.005C244.59 195.588 248.831 205.69 246.928 209.751C244.945 213.981 235.939 216.554 235.306 217.082C235.747 219.536 239.538 228.748 234.067 234.844C227.219 242.475 220.022 238.578 214.564 237.743C213.594 239.126 211.667 247.851 206.89 249.542C202.769 251.001 193.131 247.001 192.553 246.928C189.502 249.412 185.481 256.606 177.615 256.756C169.372 256.913 164.704 249.685 161.711 246.851C160.455 247.192 149.857 252.258 145.51 248.334C141.117 244.37 141.363 241.935 141.064 241.144C139.862 237.965 140.042 237.843 139.697 237.712ZM186.978 243.807C186.672 244.062 182.945 249.217 179.005 249.734C171.732 250.689 168.628 245.096 167.324 243.807C166.319 244.302 167.61 243.604 164.284 245.541C166.073 248.662 177.266 263.003 189.981 245.56C186.745 243.519 189.685 245.078 186.978 243.807ZM141.05 218.955C138.824 219.603 141.876 244.472 148.354 247.009C153.384 248.98 171.722 239.898 174.733 232.7C171.665 231.588 164.657 232.984 154.929 227.818C139.222 219.477 141.999 218.679 141.05 218.955ZM179.51 232.71C185.073 242.765 203.029 248.56 206.235 246.859C212.331 243.624 215.087 221.856 213.208 218.962C211.079 220.012 204.571 226.454 196.348 229.3C184.659 233.347 183.424 231.414 179.51 232.71ZM177.058 234.49C176.695 234.807 174.676 237.234 174.663 237.716C174.641 238.496 176.215 240.241 177.208 240.19C178.07 240.146 179.789 238.323 179.642 237.546C179.597 237.31 177.736 234.916 177.058 234.49ZM138.374 231.506C137.786 231.102 131.827 234.935 126.611 229.719C123.213 226.322 124.655 223.359 125.248 218.359C124.415 218.012 122.595 217.708 121.833 217.743C119.241 222.576 119.25 230.177 122.889 233.838C127.207 238.182 136.021 236.806 138.977 234.847C139.039 234.103 138.542 231.621 138.374 231.506ZM229.067 218.334C230.11 228.438 230.397 227.036 226.88 230.527C223.752 233.632 218.534 231.749 215.902 231.488C215.635 232.264 215.323 234.032 215.287 234.852C218.112 236.49 227.156 238.451 231.568 233.637C236.943 227.773 232.743 217.919 232.471 217.754C232.175 217.575 229.715 218.094 229.067 218.334ZM182.432 229.968C202.739 226.81 223.545 213.558 227.578 184.292C230.315 164.423 216.963 147.246 210.698 141.948C197.804 131.042 186.491 129.797 182.159 129.162C174.161 127.989 152.721 128.496 136.246 150.241C125.169 164.863 125.684 182.161 127.41 189.129C128.934 195.282 131.771 207.444 145.889 219.108C159.996 230.763 177.158 230.789 182.432 229.968ZM138.061 218.638C137.83 218.404 134.11 219.07 133.988 219.181C133.933 219.231 132.483 221.59 133.698 222.912C134.996 224.323 137.26 222.873 137.685 222.651C138.105 219.129 138.289 218.867 138.061 218.638ZM216.279 218.607C215.971 218.874 216.534 222.468 216.688 222.658C218.346 224.717 222.586 223.53 220.239 219.019C217.204 218.71 217.151 218.579 216.881 218.558C216.435 218.524 216.333 218.559 216.279 218.607ZM123.636 182.246C121.27 183.393 114.084 190.067 110.933 200.103C107.942 209.63 110.365 210.436 115.183 212.536C126.056 217.274 136.666 216.373 137.786 215.587C136.276 212.675 134.945 214.645 128.153 200.119C123.312 189.765 124.804 185.352 123.636 182.246ZM216.505 215.626C219.26 217.502 237.69 215.513 243.631 209.672C248.434 204.95 236.607 184.531 230.326 182.1C230.207 182.789 229.805 192.943 226.666 199.191C217.993 216.458 217.93 212.454 216.505 215.626ZM112.971 169.758C111.174 166.718 111.304 166.796 111.095 166.767C110.789 166.724 102.515 173.711 102.516 179.567C102.517 185.422 110.082 191.665 111.096 192.366C111.408 191.983 111.002 192.722 112.973 189.375C103.403 181.249 105.845 175.913 112.971 169.758ZM241.404 169.766C241.965 170.375 246.936 173.889 247.38 178.212C248.032 184.556 243.404 187.597 241.251 189.397C241.873 190.25 242.489 191.445 243.129 192.37C246.463 190.141 252.792 183.614 251.713 178.037C250.906 173.868 243.997 166.654 243.155 166.763C242.81 166.808 241.537 169.37 241.404 169.766ZM119.048 177.048C118.484 176.997 116.557 178.361 116.555 179.566C116.554 180.414 118.191 182.147 119.036 182.083C119.524 182.045 121.899 180.021 122.246 179.568C121.832 179.065 119.373 177.078 119.048 177.048ZM235.293 177.049C235.05 177.064 232.111 179.105 232.118 179.593C232.124 180.072 234.937 182.043 235.256 182.066C236.04 182.122 237.808 180.417 237.804 179.559C237.801 178.849 236.073 176.998 235.293 177.049ZM230.421 177.024C231.747 177.568 239.478 168.026 241.775 163.166C247.349 151.371 244.657 148.659 237.745 146.003C227.351 142.009 216.701 142.702 216.474 143.528C216.297 144.175 218.28 144.494 222.938 152.643C233.315 170.8 228.062 176.056 230.421 177.024ZM123.673 176.894C124.89 172.985 122.989 169.331 130.052 155.063C134.479 146.118 136.626 145.451 137.831 143.589C136.56 142.594 126.871 142.31 117.745 145.56C108.283 148.929 108.349 151.5 111.187 159.818C112.416 163.422 118.193 174.645 123.673 176.894ZM138.356 127.628C138.657 126.884 139 125.085 139.025 124.349C137.506 123.154 127.752 120.499 122.945 125.257C119.261 128.905 119.176 136.959 121.821 141.418C122.736 141.451 124.892 140.934 125.287 140.781C121.853 122.56 136.136 127.474 138.356 127.628ZM215.821 127.653C226.595 126.631 230.606 126.323 229.066 140.796C229.838 141.099 232.181 141.58 232.471 141.392C232.739 141.218 236.841 131.009 231.557 125.469C226.615 120.286 216.887 123.151 215.322 124.319C215.269 124.991 215.145 124.007 215.821 127.653ZM134.184 140.116C138.47 140.769 137.648 140.59 138.108 140.482C138.183 139.68 137.837 137.429 137.644 136.481C133.142 134.046 132.274 137.66 134.184 140.116ZM216.652 136.519C216.512 136.715 216.14 139.871 216.226 140.507C216.847 140.608 220.073 140.126 220.139 140.083C223.582 137.877 218.681 133.68 216.652 136.519ZM141.132 140.257C148.896 134.787 139.14 140.117 154.893 131.38C163.783 126.45 174.2 126.455 174.596 126.364C172.62 120.044 152.601 109.509 147.974 112.325C144.667 114.337 142.353 122.262 141.782 124.684C139.993 132.269 140.412 139.238 141.132 140.257ZM213.188 140.215C215.495 136.781 211.918 111.543 204.252 112.051C199.462 112.369 194.727 114.099 190.794 116.323C186.117 118.966 179.242 125.205 179.703 126.306C180.006 127.03 189.901 125.94 198.731 131.039C206.262 135.387 197.952 130.697 208.09 136.028C208.557 136.274 211.822 139.724 213.188 140.215ZM177.182 118.935C176.466 118.924 174.569 120.493 174.674 121.49C174.724 121.961 176.697 124.322 177.048 124.639C177.76 124.228 179.587 122.03 179.647 121.458C179.742 120.546 177.887 118.947 177.182 118.935ZM164.29 113.581C165.284 114.25 165.587 114.273 167.12 115.334C169.416 114 171.097 108.379 178.998 109.401C182.953 109.913 186.69 115.116 186.947 115.422C188.173 114.698 188.72 114.362 189.99 113.573C177.049 96.2937 166.079 110.459 164.29 113.581ZM159.452 256.531C156.325 255.565 156.9 251.548 159.781 251.867C161.169 252.021 162.12 253.547 162.189 253.716C162.814 255.242 161.178 257.065 159.452 256.531ZM193.156 256.367C190.288 254.722 193.196 251.196 195.575 251.979C198.811 253.044 195.764 257.861 193.156 256.367ZM134.904 242.706C135.226 242.593 136.748 242.568 137.033 242.656C139.077 243.281 138.992 246.543 137.193 247.299C135.764 247.9 133.384 246.852 133.41 244.755C133.423 243.69 134.473 242.856 134.904 242.706ZM217.067 247.254C214.763 246.202 215.376 241.636 219.194 242.656C222.221 243.465 220.652 248.383 217.273 247.332L217.067 247.254ZM117.429 237.646C117.876 237.579 118.457 237.797 118.698 238.045C119.061 238.418 119.101 239.087 119.071 239.293C118.939 240.185 113.58 245.617 112.679 245.654C111.972 245.683 111.088 244.918 111.084 244.122C111.079 243.034 116.533 237.781 117.429 237.646ZM243.219 244.06C243.236 244.375 243.036 244.857 242.812 245.109C242.476 245.488 241.914 245.668 241.595 245.653C240.691 245.609 235.307 240.14 235.209 239.24C234.626 233.85 243.159 242.94 243.219 244.06ZM114.093 219.547C114.093 223.937 111.946 223.54 110.819 223.02C109.304 222.318 109.089 220.285 109.487 219.466C110.331 217.725 112.4 217.479 114.093 219.547ZM240.316 219.511C241.323 216.836 244.508 218.417 244.921 219.737C245.951 223.028 241.288 224.591 240.297 221.821C240.172 221.473 240.186 219.857 240.316 219.511ZM104.015 198.999C103.778 199.172 103.044 199.423 102.751 199.429C99.1379 199.5 99.5352 193.09 103.051 194.555C104.478 195.15 105.779 197.714 104.015 198.999ZM252.623 194.487C253.186 194.641 254.086 195.518 254.199 196.336C254.363 197.523 252.701 200.226 250.558 199.157C248.945 198.352 249.174 195.663 250.994 194.671C251.483 194.405 252.402 194.426 252.623 194.487ZM88.9369 180.286C88.7565 179.916 88.8302 179.065 88.8945 178.914C88.9592 178.761 88.9149 178.8 89.7109 178.057C91.9831 177.917 92.3893 177.907 96.4061 177.979C98.0023 179.524 97.0794 180.449 96.4372 181.152C95.233 181.16 90.2391 181.238 89.7483 181.025C89.4263 180.885 89.0042 180.424 88.9369 180.286ZM257.198 178.684C257.48 178.136 262.897 176.861 264.896 178.306C265.152 178.49 265.523 178.921 265.495 179.609L265.473 179.819C265.425 180.102 265.307 180.368 265.121 180.588C264.217 181.654 257.945 181.409 257.356 180.686C257.102 180.375 256.886 179.291 257.198 178.684ZM101.892 164.683C99.2006 164.241 99.9206 160.327 102.203 159.823C102.906 159.668 103.655 159.876 103.98 160.102C106.127 161.6 104.077 165.041 101.892 164.683ZM251.562 164.68C248.769 164.075 248.779 159.201 251.882 159.764C254.209 160.186 255.51 165.536 251.562 164.68ZM114.01 139.599C113.3 141.506 110.027 141.553 109.389 139.427C108.005 134.82 115.785 134.832 114.01 139.599ZM240.298 137.306C241.008 135.347 243.522 135.863 244.245 136.613C244.753 137.14 245.228 138.759 244.866 139.6C244.219 141.105 241.117 141.75 240.316 139.62C240.17 139.23 240.188 137.611 240.298 137.306ZM111.281 114.35L111.445 114.103C111.661 113.837 112.195 113.431 112.735 113.487C113.609 113.577 118.827 118.947 119.02 119.623C119.122 119.98 119.076 120.633 118.741 121.023C118.393 121.427 117.909 121.466 117.519 121.552C116.177 121.115 111.284 115.977 111.133 115.47C111.01 115.059 111.141 114.608 111.281 114.35ZM235.258 119.653C235.46 118.981 240.642 113.602 241.513 113.493C242.206 113.406 243.267 114.098 243.221 115.075C243.17 116.149 237.655 121.346 236.949 121.473C236.343 121.581 235.718 121.281 235.487 120.992C235.198 120.632 235.172 119.94 235.258 119.653ZM135.377 116.542C132.171 115.915 133.131 111.514 136.491 111.719C137.955 111.808 138.914 113.611 138.496 115.017C138.239 115.882 137.081 116.876 135.377 116.542ZM217.354 116.527C215.12 115.864 215.369 112.625 217.076 111.876C217.294 111.78 217.455 111.762 217.987 111.767C222.405 111.807 221.313 117.703 217.354 116.527ZM158.905 107.228C155.883 106.366 157.643 102.329 160.288 102.517C163.717 102.76 162.21 108.172 158.905 107.228ZM193.82 107.094C190.698 105.557 192.164 102.445 194.177 102.529C195.9 102.601 197.743 104.535 196.667 106.324C196.484 106.627 195.302 107.823 193.82 107.094ZM175.538 98.7816C175.541 96.1427 175.517 92.6769 175.713 92.1868C175.794 91.9843 176.143 91.4681 176.55 91.311C176.87 91.1873 177.664 91.2112 178.096 91.5191C179.411 92.4566 178.658 98.7119 178.592 98.8432C178.437 99.1532 178.029 99.5307 177.828 99.6111C177.553 99.7209 176.54 99.6507 176.35 99.5678C176.101 99.4592 175.921 99.2273 175.538 98.7816ZM66.4913 246.02C63.262 247.239 64.6865 237.375 65.6986 236.971C68.9036 235.689 67.681 245.571 66.4913 246.02ZM62.1226 227.085C63.6135 229.423 56.3188 230.903 55.6911 230.531C52.5529 228.671 61.1025 225.486 62.1226 227.085ZM59.6277 216.386C58.1888 217.328 50.7999 211.644 52.5909 209.922C53.9185 208.647 56.5278 211.586 58.349 213.099C59.4343 214 61.1032 215.42 59.6277 216.386ZM289.51 245.362C288.804 245.975 288.445 246.25 287.86 246.075C286.147 245.562 286.539 237.701 287.248 237.156C289.813 235.187 289.478 240.426 289.51 245.362ZM292.17 227.057C292.795 226.059 294.05 226.584 297.467 227.843C299.978 228.768 299.095 230.091 298.852 230.33C297.761 231.403 292.586 229.152 292.163 228.433C291.967 228.101 291.965 227.384 292.17 227.057ZM301.56 209.807C304.081 211.533 295.79 217.093 294.649 216.397C292.041 214.805 300.299 208.944 301.56 209.807ZM37.9842 241.461C32.4461 240.359 34.5318 234.154 38.6418 233.859C43.6651 233.498 43.9714 242.652 37.9842 241.461ZM314.624 241.471C308.808 240.32 312.552 231.976 317.166 234.307C322.051 236.775 319.099 242.356 314.624 241.471ZM82.3035 223.121C78.576 222.009 79.1151 216.427 83.0049 216.452C88.1017 216.484 86.6736 224.425 82.3035 223.121ZM269.907 222.958C265.569 220.916 269.27 214.505 272.982 216.837C275.998 218.731 273.998 224.883 269.907 222.958ZM55.8835 182.97C50.9499 181.436 54.3071 174.413 57.7014 176.42C60.8616 178.288 58.9995 183.94 55.8835 182.97ZM296.842 182.887C294.657 181.797 294.108 178.198 296.506 176.471C301.615 172.792 302.246 185.582 296.842 182.887ZM52.3941 147.621C52.6138 147.146 58.1718 141.807 59.6322 142.76C62.1999 144.435 53.6104 150.308 52.5444 149.207C52.1678 148.817 52.2336 147.968 52.3941 147.621ZM62.2155 131.899C61.4355 133.654 53.1531 131.007 55.5195 128.779C56.1648 128.171 63.2356 129.604 62.2155 131.899ZM65.6986 122.161C64.5128 121.686 63.4867 112.417 66.3341 113.06C67.9357 113.422 68.9171 123.448 65.6986 122.161ZM301.89 148.949C300.747 150.88 294.102 144.976 294.051 143.856C293.875 139.933 302.938 147.18 301.89 148.949ZM298.849 128.827C300.828 130.96 293.398 132.971 292.532 132.435C289.563 130.598 297.661 127.547 298.849 128.827ZM287.94 113.054C288.61 112.89 289.067 113.384 289.51 113.769C289.465 120.775 289.634 121.559 288.778 122.077C288.17 122.445 287.31 122.113 287.098 121.895C286.726 121.512 286.042 113.518 287.94 113.054ZM82.3582 142.682C79.2349 142.141 78.7946 136.965 82.1134 136.082C87.602 134.623 87.5638 143.583 82.3582 142.682ZM270.633 142.638C266.144 141.689 267.937 134.785 272.068 136.045C275.94 137.225 274.99 143.559 270.633 142.638ZM37.7653 125.097C32.7376 123.286 34.1195 117.198 39.2937 117.618C44.468 118.038 42.793 126.908 37.7653 125.097ZM314.187 125.102C310.118 123.595 311.278 115.405 317.533 118.115C322.224 120.148 318.4 126.662 314.187 125.102ZM86.4063 93.3681C84.6067 92.4999 84.8205 91.4742 84.8208 89.1128C87.353 85.4628 90.1839 87.8046 90.4169 88.0546C92.9591 90.7814 89.4042 94.8144 86.4063 93.3681ZM267.624 87.2523C268.221 87.6805 268.535 87.7851 269.476 89.1128C269.483 91.4791 269.478 91.6783 269.338 91.9953C267.029 97.2541 259.567 89.638 264.711 87.3918C265.086 87.2284 265.175 87.2523 267.624 87.2523ZM135.601 88.514C131.397 86.8326 133.966 80.7042 138.539 82.5389C141.999 83.9273 139.928 90.2449 135.601 88.514ZM216.155 88.5189C212.538 87.0446 213.615 81.3721 218.201 82.3389C223.424 83.44 220.133 90.1405 216.155 88.5189ZM119.804 68.2981C120.029 69.179 119.221 69.8054 119.068 69.9607C112.523 70.0057 110.458 70.0886 110.603 68.3722C110.758 66.5386 119.35 66.5149 119.804 68.2981ZM128.64 64.7321C127.505 64.4821 125.361 58.7451 126.466 57.8023C128.787 55.8226 131.902 65.4507 128.64 64.7321ZM145.27 54.7598C145.334 54.7347 146.461 54.4377 146.929 55.1972C147.106 55.4842 147.13 55.8675 147.069 56.1787C146.861 57.2296 142.272 63.663 140.597 62.3267C138.929 60.9953 144.939 54.8903 145.27 54.7598ZM243.701 68.507C243.646 70.6849 232.652 71.2006 234.641 67.9481C235.209 67.0188 243.766 65.9661 243.701 68.507ZM227.533 57.6216C229.064 58.2506 226.953 66.0212 224.663 64.5752C223.391 63.7719 225.307 56.7067 227.533 57.6216ZM208.966 54.7328C209.134 54.793 215.529 60.9456 213.667 62.3373C211.822 63.7166 206.263 56.1159 207.538 54.9503C207.922 54.5995 208.803 54.6745 208.966 54.7328ZM180.668 58.7639C180.894 60.7773 178.003 61.8328 177.267 61.8683C176.616 61.8997 173.636 61.0735 173.58 59.0257C173.475 55.1969 180.194 54.5346 180.668 58.7639ZM117.718 44.7744C113.044 43.3296 115.303 35.7208 119.962 37.2105C124.621 38.7002 123.145 46.4522 117.718 44.7744ZM234.302 44.7499C228.836 43.2294 232.141 36.0592 236.415 37.1581C240.536 38.2177 239.921 46.3127 234.302 44.7499ZM160.566 235.431C160.299 236.363 151.705 242.663 150.744 242.536C149.775 242.409 148.885 240.279 148.589 230.508C149.787 229.098 150.345 229.596 156.115 232.182C158.428 233.218 161.021 233.842 160.566 235.431ZM205.657 230.439C205.529 243.757 203.596 242.553 203.349 242.553C202.798 242.553 202.022 242.048 197.587 238.773C195.336 237.111 193.668 236.027 193.695 235.059C193.737 233.52 203.868 228.602 205.657 230.439ZM157.333 224.451C157.168 224.483 156.572 224.546 156.153 224.223C154.986 223.321 156.166 219.378 155.409 219.008C154.457 218.543 151.416 220.935 147.946 217.781C144.88 214.993 146.281 211.736 145.556 211.047C144.896 210.419 141.015 211.85 138.502 208.232C136.559 205.435 137.68 202.89 137.652 201.188C136.627 200.83 133.019 201.762 132.296 200.303C131.714 199.131 134.636 196.202 135.34 194.511C125.383 185.912 132.122 182.564 134.611 179.578C133.625 178.367 129.362 175.933 130.413 170.769C131.264 166.584 135.28 165.065 135.357 164.597C135.421 164.212 131.754 159.998 132.332 158.831C133.149 157.184 137.153 158.75 137.663 157.92C137.959 157.437 136.321 154.013 138.527 150.886C141.756 146.31 144.135 149.443 145.558 148.084C146.373 147.305 144.563 143.366 148.79 140.703C151.778 138.821 155.137 140.403 155.549 140.05C156.017 139.649 155.017 135.847 156.139 134.947C156.56 134.609 157.146 134.655 157.34 134.692C158.573 134.923 160.051 136.872 162.161 137.738C164.718 135.167 164.862 133.17 169.15 132.669C174.023 132.1 176.603 136.99 177.148 136.979C177.327 136.976 180.729 132.241 185.026 132.644C189.863 133.097 191.405 137.563 192.089 137.681C193.008 137.84 196.609 133.636 198.144 134.914C199.38 135.943 197.962 138.936 198.934 140.218C207.408 137.18 208.147 145.157 208.623 148.12C221.418 150.139 215.387 156.052 216.673 157.941C217.119 158.596 220.533 157.507 221.604 158.387C223.477 159.927 218.793 163.391 218.98 164.589C219.073 165.18 222.814 166.406 223.772 170.329C225.306 176.608 219.735 178.583 219.751 179.593C219.768 180.67 224.331 181.776 223.981 187.511C223.725 191.704 219.742 193.752 218.879 194.621C220.716 197.27 222.435 199.196 221.99 200.267C221.369 201.763 216.997 200.772 216.673 201.204C216.519 201.409 217.574 205.259 216.231 207.585C214.061 211.342 210.601 210.7 208.623 211.011C207.963 215.21 206.934 221.79 198.934 218.913C197.967 220.196 199.371 223.167 198.149 224.209C196.739 225.411 194.135 222.142 192.133 221.452C191.308 222.179 189.075 226.532 184.491 226.514C180.21 226.498 178.132 222.799 177.125 222.149C176.282 222.768 173.924 226.695 169.572 226.492C163.986 226.232 163.207 221.549 162.137 221.387C161.799 221.336 158.004 224.321 157.333 224.451ZM165.294 220.636C166.859 224.887 173.163 224.201 173.987 221.175C173.324 220.96 165.641 220.609 165.294 220.636ZM180.334 221.251C181.299 223.706 186.481 225.43 189.108 220.651C188.053 220.605 180.798 221 180.334 221.251ZM158.698 206.726C158.491 207.243 158.441 206.723 158.49 213.683C158.535 220.013 158.605 220.077 158.719 220.138C158.922 220.246 158.906 220.209 163.527 216.985C170.736 211.955 170.047 212.39 170.176 212.291C169.114 211.828 166.724 212.007 163.958 210.634C159.146 208.244 160.574 207.664 158.698 206.726ZM184.189 212.19C184.552 212.608 193.928 219.713 195.539 220.117C195.92 219.116 196.077 207.963 195.54 206.738C192.869 208.632 193.605 210.48 184.189 212.19ZM177.124 210.975C175.815 211.619 167.643 217.406 167.188 217.975C169.933 218.457 182.41 218.883 187.094 217.941C186.458 217.204 177.998 211.401 177.124 210.975ZM148.782 211.013C147.206 213.241 150.28 218.316 154.199 216.32C153.313 215.282 149.84 211.876 148.782 211.013ZM200.158 216.381C204.692 218.124 206.96 213.14 205.514 211.003C204.872 211.408 200.825 215.366 200.158 216.381ZM143.095 201.006C143.995 202.551 154.798 213.136 155.74 213.651C155.883 211.897 155.844 202.587 155.774 201.08C154.541 200.784 144.103 200.895 143.095 201.006ZM204.911 200.906C204.66 200.906 204.534 200.906 198.623 200.906C198.366 201.896 198.318 212.71 198.604 213.692C199.78 212.873 209.949 202.715 211.268 201.017C210.635 200.955 210.252 200.913 204.911 200.906ZM140.389 202.572C138.633 206.451 143.05 209.615 145.771 207.944C144.7 206.659 141.21 203.251 140.389 202.572ZM208.551 207.931C210.634 209.219 215.484 207.342 213.968 202.524C213.246 203.091 209.153 207.044 208.551 207.931ZM179.587 204.854C190.903 203.952 205.576 192.517 202.366 174.641C198.935 155.531 179.913 152.711 172.857 154.1C154.535 157.707 150.839 174.603 151.712 181.464C154.1 200.235 169.431 205.664 179.587 204.854ZM144.494 186.487C144.099 186.88 136.497 197.711 136.62 197.96C136.855 198.439 148.362 198.191 149.953 198.025C146.579 192.911 147.693 198.58 144.494 186.487ZM209.879 186.553C209.239 188.053 209.679 189.676 208.262 192.614C206.355 196.57 205.183 196.635 204.356 198.001C205.659 198.303 216.52 198.492 217.727 197.917C217.421 197.147 210.369 187.222 209.879 186.553ZM136.013 191.462C136.243 190.447 135.589 182.965 135.536 182.8C132.628 183.291 131.803 189.843 136.013 191.462ZM218.234 191.474C223.253 189.426 220.957 183.496 218.81 182.75C218.526 183.389 218.152 191.133 218.234 191.474ZM138.758 169.564C138.647 170.356 137.671 178.812 138.736 189.554C139.834 188.582 145.658 179.783 145.773 179.567C145.161 178.51 139.638 170.412 138.758 169.564ZM208.586 179.563C208.895 180.222 214.262 188.361 215.498 189.525C216.134 187.223 216.24 172.726 215.504 169.629C214.964 170.114 209.21 178.251 208.586 179.563ZM135.528 176.332C135.676 176.242 136.198 168.742 136.06 167.715C130.172 169.709 134.348 177.05 135.528 176.332ZM218.778 176.382C220.022 177 223.941 169.862 218.255 167.712C217.604 170.055 218.622 176.304 218.778 176.382ZM136.635 161.122C136.784 161.946 144.099 172.25 144.484 172.654C145.923 168.841 142.622 170.262 150.045 161.196C148.5 160.747 138.184 160.686 136.635 161.122ZM204.318 161.145C206.592 164.863 206.528 160.069 209.821 172.721C215.644 164.162 217.224 162.489 217.739 161.188C214.988 160.115 204.577 161.074 204.318 161.145ZM155.745 145.548C153.911 146.651 143.459 157.514 143.102 158.131C144.619 158.236 154.542 158.347 155.774 158.052C155.868 156.304 155.857 147.295 155.745 145.548ZM198.616 145.513C198.577 145.764 197.884 155.527 198.623 158.225C203.402 158.225 204.785 158.225 204.911 158.225C207.581 158.221 210.128 158.223 211.267 158.116C208.833 155.032 200.406 146.691 198.616 145.513ZM140.322 156.553C141.878 155.581 145.257 151.936 145.727 151.149C143.594 149.951 138.792 151.906 140.322 156.553ZM213.967 156.608C215.709 151.08 209.941 150.367 208.635 151.155C209.04 151.976 212.648 155.571 213.967 156.608ZM158.712 139.068C158.086 140.827 158.466 152.31 158.716 152.406C159.308 152.631 159.142 150.935 163.786 148.602C166.785 147.095 169.259 147.237 170.277 146.897C166.638 143.847 158.987 139.117 158.712 139.068ZM192.664 140.851C192.563 140.921 187.705 144.273 187.604 144.343C183.692 147.059 184.282 146.7 184.098 146.884C197.34 151.406 186.157 145.87 195.561 152.399C195.689 151.954 195.852 151.631 195.829 144.677C195.825 143.536 195.922 139.128 195.49 138.981C195.298 138.915 194.901 139.318 192.664 140.851ZM148.759 148.143C149.057 148.21 153.828 143.265 154.193 142.774C148.841 140.523 147.566 147.875 148.759 148.143ZM167.149 141.185C167.163 141.201 167.121 141.32 167.931 141.909C168.301 142.177 168.689 142.421 172.638 145.156C177.412 148.461 176.618 147.916 177.099 148.156C178.439 147.571 186.604 141.741 187.113 141.217C183.622 140.367 169.888 140.627 167.149 141.185ZM205.511 148.129C206.721 146.382 204.984 140.999 200.139 142.771C200.97 143.855 204.429 147.295 205.511 148.129ZM165.263 138.457C165.605 138.529 173.329 138.186 173.988 137.955C173.163 135.466 167.542 133.735 165.263 138.457ZM180.334 137.885C181.108 138.298 188.915 138.499 189.088 138.468C186.545 133.66 181.309 135.44 180.334 137.885ZM114.169 206.01C114.035 205.205 115.191 203.742 118.587 199.148C120.126 197.065 120.771 196.104 121.635 196.091C123.396 196.065 127.326 206.722 126.786 207.571C126.01 208.789 115.361 207.286 114.774 206.866C114.365 206.573 114.196 206.176 114.169 206.01ZM232.949 196.111C234.144 196.441 240.408 205.322 240.066 206.252C239.783 207.019 240.006 207.027 235.13 207.584C228.383 208.354 227.967 208.191 227.586 207.723C226.967 206.961 227.267 206.383 230.055 199.921C231.61 196.319 232.027 195.857 232.949 196.111ZM240.087 153.038C240.374 154.231 233.894 162.759 232.948 163.02C230.965 163.568 226.513 152.136 227.774 151.247C228.181 150.961 239.62 151.102 240.087 153.038ZM126.278 151.056C127.955 152.676 123.058 163.509 121.312 163.019C120.626 162.826 119.398 161.076 116.774 157.516C114.6 154.567 114.083 153.752 114.165 153.147C114.362 151.685 119.64 151.082 126.278 151.056ZM150.578 116.637C151.766 116.343 160.296 122.762 160.566 123.703C161.26 126.123 149.761 129.518 149.299 129.317C148.725 129.068 148.3 129.032 149.008 123.064C149.492 118.991 149.166 116.988 150.578 116.637ZM203.842 116.661C205.214 117.165 205.629 125.779 205.657 128.701C203.964 130.288 193.365 125.848 193.725 123.817C193.941 122.596 202.679 116.234 203.842 116.661ZM165.766 214.209C165.564 216.965 159.146 213.826 159.124 212.305C159.084 209.542 165.887 212.555 165.766 214.209ZM195.057 211.846C195.912 213.849 190.037 215.763 189.122 215.174C186.491 213.479 194.096 209.593 195.057 211.846ZM175.996 198.205C176.496 197.982 177.857 198.014 178.276 198.192C181.294 199.477 178.129 204.182 175.493 201.799C174.309 200.728 174.738 198.769 175.996 198.205ZM164.199 194.179C164.338 195.327 164.213 195.672 164.202 195.7C163.98 196.274 163.028 197.389 162.024 197.453C160.647 197.54 159.22 195.806 159.248 194.81C159.273 193.912 161.366 190.439 164.199 194.179ZM192.291 197.453C190.641 197.393 189.078 194.705 190.843 193.101C194.373 189.894 197.057 197.627 192.291 197.453ZM164.267 179.558C164.242 178.445 157.95 176.707 159.55 171.57C160.753 167.708 167.301 169.884 167.463 169.885C167.5 169.248 165.385 163.597 168.881 162.037C169.264 161.866 170.734 161.891 171.872 161.891C176.532 164.259 175.672 165.734 177.253 166.765C179.178 164.406 182.061 159.975 185.604 162.205C188.739 164.178 186.88 168.595 186.811 169.827C187.601 169.94 192.996 167.705 194.65 171.338C196.704 175.849 190.6 178.686 189.994 179.656C192.303 181.866 196.411 183.9 194.623 187.836C193.045 191.31 187.441 189.214 186.811 189.304C186.874 190.425 188.683 196.028 185.169 197.159C180.585 198.635 177.426 192.388 177.242 192.37C176.802 192.326 174.726 196.693 171.67 197.204C164.568 198.391 167.597 189.367 167.463 189.246C166.378 188.271 160.867 192.341 159.55 187.491C158.195 182.504 164.283 180.296 164.267 179.558ZM171.247 188.282C168.239 193.259 169.968 194.615 170.479 194.697C170.877 194.761 173.575 193.834 175.101 189.807C174.735 189.611 171.325 188.309 171.247 188.282ZM179.181 189.71C180.213 192.984 182.98 194.894 183.917 194.679C186.128 194.171 183.494 189.184 183.071 188.06C182.906 188.099 179.255 189.67 179.181 189.71ZM166.51 181.753C165.952 182.055 162.831 183.264 161.969 186.186C163.348 188.493 167.483 186.161 168.316 185.366C168.283 185.292 166.653 181.948 166.51 181.753ZM177.288 184.788C176.284 185.285 175.738 186.654 175.892 186.918C176.045 187.179 178.21 187.232 178.4 186.657C178.454 186.492 178.189 185.791 177.288 184.788ZM187.248 181.608C185.436 185.85 185.975 184.438 185.552 185.443C188.39 186.696 190.812 187.971 192.211 186.509C192.33 184.28 189.253 182.209 187.248 181.608ZM173.217 181.974C171.879 182.628 171.232 183.044 170.726 183.825C171.299 184.704 172.077 185.41 172.998 185.912C173.047 185.876 173.488 185.93 174.771 183.457C174.745 183.423 174.453 182.831 173.217 181.974ZM180.954 181.864C179.765 182.844 179.506 183.381 179.481 183.415C180.153 184.77 180.806 185.584 181.015 185.637C181.493 185.757 182.797 184.653 183.236 183.501C183.2 183.458 183.179 183.064 180.954 181.864ZM169.43 177.98C169.204 178.098 168.85 180.053 169.6 181.16C170.892 180.643 171.924 179.911 171.927 179.633C171.931 179.273 169.748 177.814 169.43 177.98ZM182.36 179.583C182.36 179.774 183.271 180.7 184.41 180.795C184.577 180.475 185.01 179.759 184.574 178.218C183.406 178.475 182.361 179.323 182.36 179.583ZM185.909 173.643C186.086 174.266 185.942 173.717 187.323 177.435C189.438 177.108 192.436 174.258 192.267 172.931C192.122 171.788 189.886 171.32 185.909 173.643ZM161.969 172.945C162.364 174.282 163.794 176.447 166.586 177.286C168.078 173.179 167.755 174.567 167.934 173.549C167.308 172.989 163.326 170.683 161.969 172.945ZM181.398 173.109C180.629 173.688 179.492 175.346 179.545 175.727C179.585 176.013 180.542 176.853 181.036 177.151C181.957 176.828 183.373 175.806 183.443 175.587C183.579 175.159 182.608 173.84 181.398 173.109ZM172.948 172.845C172.817 172.899 171.512 173.25 170.395 175.308C171.204 175.997 172.376 176.782 173.156 177.151C173.193 177.127 173.586 177.072 174.772 175.646C173.719 173.784 172.988 172.898 172.948 172.845ZM175.525 171.75C175.849 173.186 176.754 174.087 177.307 174.409C177.636 173.966 178.78 172.257 178.728 172.043C178.546 171.293 175.951 171.604 175.525 171.75ZM179.368 169.008C183.361 170.77 182.731 170.724 182.965 170.682C183.575 170.573 185.686 165.546 184.222 164.618C183.227 163.987 180.433 165.914 179.368 169.008ZM170.48 164.434C168.915 164.682 169.422 168.685 171.248 170.478C173.245 169.457 174.704 169.167 174.803 168.957C175.175 168.164 171.963 164.198 170.48 164.434ZM158.626 180.501C158.082 182.198 155.439 182.526 154.577 180.604C153.325 177.815 157.436 175.733 158.544 178.486C158.709 178.898 158.712 180.232 158.626 180.501ZM197.157 181.894C196.569 181.724 195.959 181.161 195.788 180.725C195.024 178.78 196.477 176.419 198.678 177.469C201.212 178.677 199.674 182.621 197.157 181.894ZM164.202 163.431C164.235 163.516 164.327 163.895 164.199 164.952C164.044 165.159 163.086 166.935 161.486 166.708C160.835 166.616 159.269 165.662 159.267 164.281C159.265 161.978 163.081 160.536 164.202 163.431ZM192.015 166.686C189.166 165.855 189.691 161.74 192.461 161.76C195.934 161.786 195.672 167.351 192.158 166.712L192.015 166.686ZM178.275 160.939C177.749 161.163 176.326 161.074 176.079 160.982C174.765 160.491 174.297 158.429 175.499 157.338C178.125 154.953 181.289 159.66 178.275 160.939ZM144.219 197.593C142.899 197.409 140.821 192.523 141.621 191.457C143.7 188.686 147.651 198.071 144.219 197.593ZM209.902 197.609C207.134 197.656 210.125 190.221 212.171 191.071C214.088 191.867 211.286 197.586 209.902 197.609ZM144.882 161.627C144.916 161.656 145.356 161.851 145.558 162.511L145.608 162.732C145.79 163.855 143.106 170.412 141.512 167.54C141.116 166.826 142.45 161.333 144.882 161.627ZM212.656 167.711C210.764 170.074 207.727 162.829 209.174 161.776C211.733 159.914 212.914 167.388 212.656 167.711ZM165.753 144.966C165.849 146.63 160.07 148.858 159.253 147.405C158.095 145.348 165.595 142.193 165.753 144.966ZM194.948 147.52C193.869 149.089 186.246 145.7 189.16 143.949C190.093 143.388 196.334 145.502 194.948 147.52Z" fill="black" stroke="black" stroke-width="0.1" stroke-linecap="round" stroke-linejoin="round"/>
</svg>
