<svg width="415" height="415" viewBox="0 0 415 415" fill="none" xmlns="http://www.w3.org/2000/svg">
<path d="M194.139 374.175C187.954 366.508 188.883 367.824 188.361 367.333C186.235 368.188 171.127 377.167 150.178 367.889C136.182 361.689 134.439 357.018 127.879 343.188C126.475 342.953 127.855 343.295 104.731 337.946C85.1273 333.412 83.5321 333.31 82.5645 332.337C81.3536 331.12 82.003 331.295 75.7127 304.553C75.6668 304.359 73.5072 294.997 73.4626 294.802C71.4709 286.083 72.1592 288.414 71.5919 286.89C28.5831 268.435 46.8607 228.984 47.5806 226.486C47.2522 226.152 47.8602 226.569 45.064 224.285C44.4257 223.763 38.0086 218.589 37.0472 217.811C28.5205 210.915 25.1791 209.261 25.8564 206.847C26.1422 205.829 27.3102 205.139 29.6951 203.211L43.4187 192.11C44.9322 190.889 47.3963 189.132 47.5335 188.61C48.5848 184.608 37.5068 177.697 45.4913 154.19C52.8551 132.51 70.2841 128.664 71.6636 128.135C78.5958 103.812 80.6285 84.5216 82.6929 82.6149C84.0643 81.3482 118.208 74.5616 128.083 71.7484C141.477 37.9724 173.424 40.1603 188.42 47.8872C205.476 27.1501 205.676 25.7687 207.427 25.74C209.763 25.7018 225.392 47.677 226.552 47.8214C227.914 47.9909 240.053 38.4294 260.8 45.6378C283.027 53.3602 286.267 70.2982 286.742 71.69C289.049 72.5132 287.303 71.8544 292.417 73.0372L308.526 76.7768C332.765 82.416 331.511 81.9412 332.216 82.6161C334.248 84.5618 339.21 114.716 343.249 128.192C373.614 139.602 376.531 170.068 367.059 188.541C389.98 207.449 388.419 205.253 389.229 207.438C388.679 209.544 387.378 210.057 377.698 217.866C377.347 218.149 369.092 224.826 368.918 224.97C366.96 226.589 367.46 226.321 367.247 226.564C370.255 234.546 376.104 247.058 367.591 265.333C359.052 283.665 344.357 286.41 343.173 286.959C343.025 287.528 342.138 291.546 339.884 301.282C339.273 303.924 338.725 306.349 337.349 312.294C336.973 313.922 335.276 321.244 334.996 322.465C333.237 330.153 333.104 331.495 332.424 332.244C331.887 332.835 331.1 333.091 328.691 333.663C327.715 333.895 321.604 335.291 316.474 336.482L314.655 336.905C314.28 336.991 305.632 338.956 305.257 339.044C304.363 339.254 303.339 339.507 303.026 339.581C300.543 340.166 291.95 342.125 291.724 342.176C286.723 343.297 288.306 342.878 286.732 343.339C278.67 369.382 250.389 377.306 226.418 367.33C219.178 374.677 210.158 388.751 207.911 389.203C206.23 389.542 205.707 388.459 201.598 383.401C201.449 383.216 194.586 374.729 194.139 374.175ZM223.714 365.703C214.878 364.796 217.994 364.731 214.76 364.299C208.73 368.909 207.632 371.608 200.163 364.214C192.835 366.081 195.17 364.935 191.291 365.741C191.384 365.877 191.056 365.576 192.939 367.939C193.088 368.125 198.645 375.004 200.449 377.234C206.621 384.863 206.307 384.574 207.421 385.618C207.466 385.574 207.789 385.437 209.525 383.286L222.383 367.363C222.437 367.297 222.275 367.494 223.714 365.703ZM138.588 356.224C149.549 368.238 172.442 373.12 185.563 365.237C153.123 352.665 165.46 354.522 157.869 349.962C151.763 353.959 148.643 357.503 138.588 356.224ZM229.219 365.225C243.003 373.783 266.955 367.409 276.114 356.407C271.718 355.52 269.94 359.484 256.84 349.775C245.303 363.229 232.663 363.625 229.219 365.225ZM192.044 329.954C192.044 350.242 202.835 366.529 208.193 365.471C211.953 364.729 222.356 350.747 222.833 330.062C210.521 330.37 201.274 330.311 192.044 329.954ZM167.636 340.357C166.234 341.586 168.382 339.637 160.415 347.786C169.898 360.649 191.413 364.518 197.941 361.5C197.107 358.594 197.028 361.197 193.224 351.789C175.344 353.223 170.836 344.256 167.636 340.357ZM247.138 340.355C240.943 348.938 233.18 353.819 221.68 351.664C217.74 360.685 216.741 361.087 216.892 361.498C218.27 365.238 248.369 359.964 254.317 347.788C253.58 346.791 247.924 341.026 247.138 340.355ZM148.45 329.897C146.247 328.334 139.427 331.89 138.209 331.629C136.607 331.284 131.937 321.232 129.346 317.85C128.513 321.33 127.325 346.865 138.081 352.549C151.087 359.422 170.106 332.029 170.469 331.346C166.907 331.972 154.897 337.483 153.226 336.791C151.056 335.892 149.954 330.964 148.45 329.897ZM266.882 329.484C265.705 329.975 263.086 336.362 261.519 336.844C260.147 337.267 248.309 332.095 244.435 331.33C247.214 337.575 264.819 356.901 275.557 353.092C285.958 349.403 286.865 327.162 285.55 317.688C278.062 330.023 278.045 331.204 276.777 331.541C275.605 331.851 268.187 328.939 266.882 329.484ZM174.436 331.491C174.231 331.712 172.818 333.114 169.93 337.523C172.321 345.556 186.222 351.391 191.971 348.56C191.705 347.28 190.727 343.133 189.868 340.663C180.425 338.472 180.203 339.725 174.436 331.491ZM224.914 340.663C224.608 341.595 223.084 347.453 222.847 348.572C230.904 352.277 242.606 344.539 244.852 337.498C244.042 336.061 241.763 332.85 240.364 331.491C236.028 337.667 235.519 338.724 224.914 340.663ZM112.388 325.091C111.405 326.829 109.841 334.549 109.807 335.88C110.477 336.12 124.679 339.813 127.171 339.786C126.106 329.641 125.998 328.193 125.865 327.997C125.71 327.769 119.523 325.79 112.388 325.091ZM302.58 325.084C302.027 325.135 297.386 325.979 288.985 327.791C288.585 333.822 288.517 333.824 287.624 339.802C291.564 339.841 304.762 335.982 305.089 335.835C305.02 334.07 303.199 326.738 302.58 325.084ZM177.358 329.565C177.49 332.151 181.663 337.06 189.424 337.4C188.786 329.356 189.053 331.833 188.801 330.091C187.205 329.933 178.954 329.412 177.358 329.565ZM225.534 337.255C232.249 338.414 238.337 330.715 237.479 329.584C237.063 329.035 237.254 329.755 226.011 329.967C225.376 337.976 225.492 335.941 225.534 337.255ZM96.0567 321.961C86.4315 331.392 88.1697 329.714 87.5359 330.762C91.4423 332.523 105.768 335.047 106.545 335.003C107.141 333.401 108.855 326.521 108.99 324.603C107.526 323.999 99.2129 322.235 96.0567 321.961ZM318.725 321.944C317.162 322.113 307.463 323.718 305.915 324.703C305.934 326.195 305.941 325.791 308.216 335.113C313.326 334.851 327.039 330.869 327.391 330.693C326.484 329.526 327.2 330.186 318.725 321.944ZM170.939 327.82C172.148 327.322 171.907 327.269 171.988 327.217C168.222 323.349 153.243 312.068 152.762 311.968C152.325 311.876 130.911 313.427 130.467 313.481C131.354 315.275 138.629 327.699 138.923 327.856C140.763 328.84 147.301 325.478 149.232 326.266C150.727 326.876 151.024 329.178 154.414 333.583C154.815 333.483 153.962 333.856 159.316 331.947C169.307 328.385 170.483 328.008 170.939 327.82ZM284.315 313.44C263.794 311.926 262.433 311.869 261.998 311.97C261.522 312.08 248.564 321.773 242.827 327.071C244.574 328.465 259.931 333.451 260.294 333.536C262.927 330.896 263.89 327.043 265.532 326.368C267.083 325.73 270.876 327.488 275.87 328.107C279.217 322.615 283.639 314.991 284.315 313.44ZM79.8339 308.514C80.0646 310.82 83.8058 327.194 84.1654 327.335C84.8539 327.604 92.1887 319.67 92.9931 318.736C92.9517 317.959 90.8283 306.323 90.4035 306.025C89.87 305.651 81.2285 307.909 79.8339 308.514ZM324.432 306.003C322.874 309.912 321.845 318.437 322.027 318.93C322.363 319.838 329.66 326.703 330.58 327.489C330.755 327.14 334.908 310.826 334.994 308.486C333.597 307.889 326.385 306.036 324.432 306.003ZM180.128 326.533C183.049 326.871 199.071 327.426 201.131 327.012C197.558 323.351 201.838 328.292 191.415 316.64C186.841 320.528 181.349 325.209 180.128 326.533ZM223.498 316.79C223.274 316.965 215.218 325.422 213.678 327.101C217.039 327.372 233.914 326.678 234.748 326.555C231.553 323.018 225.408 318.216 223.498 316.79ZM186.125 297.546C187.117 307.686 201.339 327.013 207.882 326.714C210.77 326.582 225.678 313.6 228.847 297.283C219.783 308.228 213.327 302.808 207.408 299.281C194.27 306.409 193.986 304.771 186.125 297.546ZM102.091 288.53C98.824 288.553 97.8996 288.985 90.4326 288.989C90.5056 292.61 96.1346 318.017 96.3149 318.593C97.2845 318.996 95.2372 318.621 113.432 322.235C124.275 324.388 125.413 324.834 125.788 324.5C125.962 324.345 126.019 320.78 126.498 312.876C104.011 309.41 106.62 310.828 102.091 288.53ZM319.947 312.422C320.744 308.423 323.247 295.689 323.545 294.237C324.356 290.284 324.316 291.219 324.349 288.989C317.544 288.989 321.063 288.94 312.625 288.513C308.889 322.609 292.999 307.711 288.453 312.849C288.298 313.024 288.563 320.574 289.033 324.52C290.83 324.509 317.952 319.015 318.391 318.608C318.859 318.174 318.949 317.426 319.947 312.422ZM183.537 300.046C182.729 301.377 183.196 299.964 181.702 306.877C181 310.122 179.54 316.809 179.496 317.012C177.881 324.487 178.202 323.419 178.162 323.835C179.996 322.748 188.687 315.043 189.745 313.949C185.334 306.298 184.491 303.574 183.537 300.046ZM225.251 314.03C226.704 315.568 234.961 322.702 236.732 323.858C236.49 320.954 232.093 301.445 231.389 300.169C225.479 315.111 226.321 311.193 225.251 314.03ZM156.852 311.003C157.747 312.001 156.307 310.789 161.138 314.585C163.107 316.131 169.857 321.537 170.038 321.675C172.277 323.396 172.135 323.067 172.18 323.091C172.028 322.386 166.584 306.204 166.255 306.057C165.673 305.797 157.861 310.223 156.852 311.003ZM257.972 311.095C256.867 310.108 250.909 306.656 248.652 306.084C248.168 307.046 243.143 320.924 242.793 323.049C243.908 322.368 242.44 323.482 247.136 319.77C247.324 319.622 256.353 312.542 256.54 312.393C258.202 311.068 257.81 311.261 257.972 311.095ZM234.442 298.161C234.655 303.505 239.562 321.444 239.772 321.882C240.47 320.167 245.474 305.811 245.745 304.354C244.497 303.442 235.872 298.751 234.442 298.161ZM169.087 304.362C169.425 306.172 174.776 321.111 175.104 321.771C175.842 320.525 180.207 301.108 180.389 298.217C178.446 298.896 169.715 303.913 169.087 304.362ZM123.81 309.234C126.315 310.155 132.916 310.649 133.29 310.217C133.974 309.428 132.882 308.788 132.183 299.842C132.089 298.638 131.246 292.132 131.054 291.291C130.082 292.496 124.586 306.638 123.81 309.234ZM136.624 310.301C139.327 310.87 147.047 310.226 149.146 309.387C148.625 308.593 137.664 294.83 134.147 290.964C134.171 291.353 135.895 308.079 136.624 310.301ZM265.637 309.426C267.315 309.96 273.177 310.878 278.182 310.359C278.547 309.251 280.655 293.416 280.794 291.087C278.418 292.67 265.908 309.035 265.637 309.426ZM281.593 310.289C283.087 310.462 288.971 309.935 290.942 309.309C290.747 307.773 285.144 293.206 283.779 291.327C283.594 292.068 281.495 308.765 281.593 310.289ZM111.829 306.561C113.418 307.384 117.65 308.804 120.512 308.723C121.507 307.019 127.209 292.263 127.7 290.352C122.098 294.969 112.698 305.514 111.829 306.561ZM287.213 290.58C287.311 290.956 293.648 308.255 294.299 308.68C294.597 308.875 300.186 308.214 302.955 306.601C301.416 304.388 289.284 292.305 287.213 290.58ZM162.966 285.209C156.806 287.173 157.691 289.621 145.954 285.069C146.12 286.052 153.608 306.718 154.646 308.419C155.646 308.043 176.411 296.97 178.153 295.733C173.463 294.692 167.62 296.88 162.966 285.209ZM251.942 285.078C247.89 294.789 243.578 295.298 236.449 295.712C236.913 295.985 259.735 308.53 260.231 308.322C260.69 308.128 267.397 291.827 269.001 285.051C265.115 286.34 260.827 290.159 251.942 285.078ZM87.1319 289.122C86.0203 288.184 77.0056 287.75 75.0721 287.901C75.1831 290.049 78.4641 303.715 79.2343 305.333C82.0064 304.824 89.516 303.058 89.7479 302.692C90.6345 301.29 87.3432 289.3 87.1319 289.122ZM339.707 287.729C326.547 289.549 330.099 288.77 327.713 289.145C327.2 291.005 325.177 301.015 324.979 302.657C326.814 303.412 334.155 305.121 335.692 305.254C335.761 305.103 335.821 305.575 336.518 302.616C336.668 301.978 338.639 293.465 338.989 291.977C339.974 287.783 339.768 288.934 339.707 287.729ZM135.811 287.779C135.942 287.998 135.57 287.695 137.021 289.517C137.509 290.13 137.192 289.715 145.241 299.666C148.238 303.372 148.752 304.015 149.616 304.884C149.569 303.161 144.45 290.251 143.741 288.68C142.042 288.24 137.561 287.633 135.811 287.779ZM274.823 293.249C279.592 287.389 278.521 288.679 279.156 287.757C275.52 287.584 271.063 288.626 270.941 288.738C270.687 288.971 265.379 302.923 265.157 304.98C265.966 304.253 264.933 305.437 268.356 301.211C268.485 301.052 273.917 294.363 274.823 293.249ZM106.124 294.536C106.316 296.804 107.39 301.103 108.203 303.04C110.231 302.047 122.936 289.034 124.401 287.317C123.269 287.648 108.127 293.292 106.124 294.536ZM306.463 303.082C307.394 301.528 308.356 298.261 308.621 294.283C290.466 287.238 292.715 287.852 290.448 287.286C292.186 289.351 303.96 301.172 306.463 303.082ZM204.528 297.381C202.861 296.567 191.165 291.741 187.211 290.733C187.224 298.524 197.331 304.871 204.528 297.381ZM227.529 290.715C226.134 291.145 211.76 296.56 210.514 297.322C216.76 305.413 228.155 298.356 227.529 290.715ZM202.881 263.899C201.625 268.585 203.968 290.397 207.337 293.887C211.295 290.179 213.028 268.211 211.997 264.121C206.71 263.981 212.552 265.762 202.881 263.899ZM173.948 282.1C174.506 282.395 199.082 292.832 203.475 293.347C198.79 278.989 199.747 269.808 199.373 264.593C172.723 283.579 203.36 265.13 173.948 282.1ZM231.79 285.757C239.11 282.937 239.846 282.641 240.877 282.075C218.231 269.644 223.129 268.674 215.455 264.769C214.975 268.021 215.622 273.381 214.374 281.174C212.68 291.749 211.947 290.343 211.584 293.31C212.72 293.193 210.77 293.849 220.537 290.082C222.112 289.475 230.44 286.277 231.79 285.757ZM183.274 289.443C181.693 287.991 167.045 282.812 166.701 282.712C162.502 289.788 179.564 297.186 183.274 289.443ZM248.291 282.835C246.167 283.208 231.629 288.952 231.521 289.295C229.569 295.463 252.63 292.312 248.291 282.835ZM104.481 281.496C105.298 288.883 105.003 289.126 105.478 290.972C107.818 290.871 122.741 284.647 123.693 283.964C122.59 283.596 107.175 281.805 104.481 281.496ZM291.24 283.906C291.259 283.922 291.136 284.129 292.226 284.637C292.407 284.722 301.123 288.155 301.494 288.299C309.97 291.593 307.82 290.911 309.305 291.007C309.577 289.892 309.516 291.027 310.299 281.496C289.322 284.052 291.983 283.711 291.24 283.906ZM85.6587 267.096C82.0197 263.84 78.981 263.55 78.2653 261.889C77.1176 259.225 82.0299 252.022 83.6976 244.593C75.3875 247.702 60.0759 266.154 61.5055 274.16C63.6204 286.004 87.6294 287.208 97.2884 285.703C92.7961 282.506 83.9832 278.353 83.514 277.144C83.0681 275.995 85.057 271.577 85.6587 267.096ZM336.643 261.79C336.031 263.443 330.047 265.601 329.44 266.875C328.625 268.583 331.944 275.659 331.321 277.222C330.848 278.411 320.965 283.048 317.767 285.704C319.969 286.109 350.543 288.273 353.32 274.367C355.504 263.432 335.859 246.794 331.186 244.505C331.862 248.066 337.399 259.75 336.643 261.79ZM129.651 272.704C129.636 273.381 130.353 280.358 131.048 283.901C143.47 285.718 141.256 285.281 142.391 285.163C142.101 282.989 142.343 285.179 139.219 275.712C130.045 272.788 131.656 272.646 129.651 272.704ZM285.189 272.658C283.789 272.702 285.848 272.109 275.678 275.78C272.288 285.275 272.734 283.731 272.356 285.299C274.438 285.297 282.504 284.216 283.825 283.789C284.123 282.477 285.193 274.003 285.189 272.658ZM162.491 280.945C155.865 275.49 149.175 271.807 142.802 275.481C143.4 282.402 157.781 289.078 162.491 280.945ZM271.977 275.497C268.274 272.937 258.978 273.878 252.287 281.069C258.643 289.087 271.413 282.021 271.977 275.497ZM81.5694 260.507C82.0167 261.811 88.0818 264.407 88.5925 265.5C89.1324 266.656 87.4193 271.985 86.7708 275.972C99.9291 283.732 100.271 283.846 101.532 284.35C102.029 281.743 100.654 272.616 103.14 262.298C102.025 260.664 89.5184 244.645 87.6905 242.979C87.0014 244.294 81.3285 259.805 81.5694 260.507ZM326.338 265.478C327.089 263.953 328.453 264.341 333.335 260.649C332.496 254.007 327.552 243.179 327.188 243.099C326.633 242.976 324.09 246.441 321.048 250.318C313.553 259.867 312.083 261.539 311.912 262.433C311.635 263.871 313.041 264.805 313.222 274.565C313.36 282.013 312.829 282.293 313.43 284.364C314.382 284.011 327.636 276.633 327.949 275.666C328.331 274.489 325.426 267.329 326.338 265.478ZM109.077 268.487C105.507 265.581 105.717 265.897 105.491 265.747C104.588 268.645 104.459 276.108 104.709 278.37C106.571 278.889 122.741 280.93 123.891 280.78C123.294 280.123 124.318 280.9 120.88 278.098L109.077 268.487ZM309.333 265.745C308.544 266.279 292.117 279.363 290.915 280.842C293.257 280.819 308.781 278.777 310.263 278.287C310.6 276.049 310.174 268.381 309.333 265.745ZM110.075 265.258C110.798 266.07 109.66 265.136 113.804 268.506C113.99 268.657 122.917 275.897 123.104 276.047C126.806 279.02 123.184 276.665 127.238 279.137C127.246 278.823 127.375 277.535 126.363 271.341C123.917 270.015 111.458 265.401 110.075 265.258ZM173.089 259.92L172.504 259.03C158.676 261.203 160.418 260.083 157.017 260.464C150.459 275.826 171.973 285.839 182.316 274.225C181.57 272.711 182.804 274.748 178.557 268.279C177.68 266.943 174.406 261.923 173.089 259.92ZM240.829 261.366C240.188 262.333 235.73 269.118 235.518 269.442C233.471 272.57 233.287 272.74 232.586 274.288C243.484 285.427 263.141 276.926 257.896 260.425C242.659 259.885 243.567 258.948 242.697 259.229C242.156 259.403 241.927 259.71 240.829 261.366ZM302.97 266.964C305.019 265.273 304.584 265.366 304.672 265.25C296.875 266.857 288.702 271.148 288.509 271.435C287.982 272.22 287.612 278.319 287.661 279.263C289.383 278.062 290.547 277.045 293.152 274.926C300.212 269.182 302.385 267.446 302.97 266.964ZM58.6791 276.209C58.953 271.742 56.2902 268.577 65.1727 256.93C51.8666 245.326 50.978 232.331 49.7883 229.411C45.184 234.236 42.8666 263.952 58.6791 276.209ZM349.705 256.935C358.002 268.536 356.182 269.695 356.296 276.214C366.827 268.006 373.731 243.111 365.148 229.356C361.172 238.656 363.434 244.786 349.705 256.935ZM134.013 252.395C126.792 257.096 131.447 271.386 139.62 272.129C143.706 262.721 135.609 254.27 134.013 252.395ZM275.371 272.164C276.299 272.557 282.653 269.239 284.137 263.118C285.19 258.771 282.751 252.254 280.968 252.395C280.783 252.41 276.32 258.027 275.479 259.89C273.862 263.469 274.015 271.589 275.371 272.164ZM143.29 260.955C143.198 262.252 143.819 262.062 143.132 271.791C146.184 271.636 147.37 270.864 154.042 271.982C153.509 268.239 152.982 270.313 153.382 261.502C145.946 262.302 146.097 261.315 143.29 260.955ZM261.593 261.693C261.273 266.367 262.54 263.474 260.776 271.845C272.694 271.58 269.879 271.77 271.613 271.748C271.627 271.533 271.564 270.668 271.687 260.954C262.928 262.567 267.052 261.438 261.593 261.693ZM194.402 259.215C193.054 259.181 188.255 264.791 186.201 264.268C184.737 263.896 183.432 260.44 180.511 256.73C178.28 257.013 176.2 258.04 175.654 258.32C176.914 260.603 182.942 269.53 184.756 271.836C187.35 270.291 185.804 270.996 198.205 261.806C195.336 259.65 194.862 259.226 194.402 259.215ZM234.35 256.694C230.777 261.193 234.644 256.555 230.472 262.528C229.448 263.994 228.998 264.34 228.515 264.402C226.787 264.623 223.287 260.711 220.408 259.121C220.332 259.167 219.32 259.603 216.828 261.737C217.815 262.626 228.85 271.185 230.01 271.83C231.965 269.644 238.414 259.787 239.095 258.307C239.007 258.258 238.084 257.446 234.35 256.694ZM119.237 236.767C117.388 239.391 106.768 259.841 106.626 260.357C107.162 260.729 106.125 260.359 110.924 262.147C111.12 262.22 120.548 265.719 120.744 265.791C130.813 269.515 129.171 268.931 129.941 269.058C124.08 253.037 130.65 253.855 129.785 251.999C129.315 250.992 120.363 252.289 119.237 236.767ZM295.625 236.888C293.971 244.492 296.001 247.681 284.979 252.051C289.456 260.501 286.973 263.697 284.92 269.128C285.404 269.015 305.683 261.938 308.226 260.37C307.379 257.286 297.642 239.37 295.625 236.888ZM199.645 248.641C199.334 248.489 193.39 249.405 191.159 250.352C192.977 254.34 200.8 261.667 207.573 261.643C213.458 261.622 224.572 252.427 223.575 250.294C223.363 249.84 216.394 248.706 215.398 248.596C204.161 260.947 202.191 249.889 199.645 248.641ZM183.525 255.425C183.428 255.927 186.275 259.914 187.07 260.746C190.975 258.173 191.523 257.396 192.035 256.837C191.237 255.491 188.674 252.287 188.437 252.014C187.927 252.326 183.593 255.072 183.525 255.425ZM222.742 256.874C222.835 256.961 224.376 258.535 227.785 260.781C228.731 259.702 230.716 257.021 231.31 255.294C229.091 253.563 231.158 255.502 226.502 251.937C224.329 254.649 224.708 254.16 222.742 256.874ZM140.87 232.627C131.358 239.142 134.905 264.305 154.658 257.94C154.683 249.633 154.421 250.782 155.886 242.606C153.645 240.789 141.806 233.169 140.87 232.627ZM261.191 240.99C259.704 241.988 259.273 242.322 259.106 242.857C258.835 243.725 259.648 241.306 260.305 257.972C275.245 264.07 286.135 244.445 274.211 232.734C274.15 232.756 274.35 232.334 271.364 234.284C271.16 234.417 261.393 240.854 261.191 240.99ZM92.0184 242.931C93.8992 246.728 103.068 257.296 103.935 258.06C104.609 257.258 109.132 249.414 108.884 248.837C108.602 248.18 93.0832 243.057 92.0184 242.931ZM305.862 248.864C306.677 251.042 310.139 257.162 310.979 258.113C312.314 256.73 321.933 244.657 322.752 242.918C320.277 243.316 306.476 248.494 305.862 248.864ZM172.533 231.12C171.278 230.419 166.525 228.108 165.961 228.22C162.426 228.92 155.2 251.244 158.065 257.199C164.986 259.03 183.985 253.478 186.703 248.847C186.221 247.045 184.746 243.865 183.654 242.352C178.157 243.822 171.381 239.896 172.533 231.12ZM242.356 230.936C243.363 244.762 231.283 242.228 230.994 242.37C230.867 242.431 228.542 247.439 228.075 248.766C231.964 254.849 251.127 258.601 256.967 257.152C258.931 250.821 253.458 230.712 248.657 228.19C245.284 229.373 246.707 229.229 242.356 230.936ZM63.0756 221.667C54.1954 218.074 54.2471 216.74 53.4686 217.085C50.5575 218.375 53.4209 246.42 67.1646 254.456C68.2593 253.512 73.7921 248.229 74.6094 247.298C66.901 241.65 62.264 236.26 63.0756 221.667ZM340.397 247.115C341.414 248.919 347.502 254.357 347.66 254.492C350.249 252.856 356.009 247.548 360.007 236.43C361.323 232.77 363.595 217.848 361.408 217.035C360.795 216.807 360.832 217.878 351.586 221.762C353.138 234.973 348.028 241.588 340.397 247.115ZM207.214 251.391C208.237 251.448 210.411 250.554 211.863 248.106C210.316 247.207 205.992 246.327 202.916 248.156C204.565 250.805 206.677 251.362 207.214 251.391ZM132.094 248.202C132.349 247.674 131.926 247.221 128.749 239.01C127.081 234.698 126.142 231.787 125.684 231.651C124.793 231.388 120.173 235.581 123.407 243.039C126.221 249.529 131.567 249.295 132.094 248.202ZM289.282 231.649C288.605 231.783 285.661 240.115 284.84 242.265C282.573 248.203 282.365 248.082 282.815 248.568C283.768 249.597 288.936 248.611 291.356 243.326C294.812 235.778 289.98 231.512 289.282 231.649ZM185.039 237.378C185.382 238.628 189.02 246.873 189.595 247.171C190.223 247.497 199.162 245.659 201.182 245.012C200.885 244.813 185.377 237.493 185.039 237.378ZM213.648 245.054C214.553 245.368 223.025 247.152 225.417 247.249C230.432 236.49 229.519 238.422 229.76 237.37C227.762 238.143 214.234 244.646 213.648 245.054ZM93.1016 239.802C94.7676 240.586 110.133 245.995 110.482 245.878C110.727 245.796 115.658 237.757 116.703 234.568C114.777 234.74 94.8873 239.059 93.1016 239.802ZM298.066 234.552C298.674 235.983 303.33 244.703 304.318 245.905C306.817 245.281 320.356 240.466 321.68 239.824C320.399 239.142 299.516 234.607 298.066 234.552ZM77.699 245C78.5487 244.832 83.0058 240.986 83.3789 240.545C70.4325 229.618 76.5483 227.304 74.2712 224.993C74.1557 224.876 66.4831 222.907 66.3225 222.871C62.4484 230.392 73.3055 245.87 77.699 245ZM337.384 244.926C345.053 243.071 351.072 229.372 348.553 222.944C347.415 223.144 340.903 224.749 340.599 225.14C338.405 227.968 343.413 231.451 331.403 240.493C333.84 242.682 336.074 244.22 337.384 244.926ZM193.175 222.672C190.777 221.38 192.823 218.436 192.94 215.109C170.53 213.764 182.929 214.983 172.797 211.822C179.701 238.396 199.828 241.645 203.236 242.052C200.901 237.311 199.758 238.256 199.935 221.996C195.075 222.549 194.371 223.316 193.175 222.672ZM221.73 222.694C220.64 223.246 217.413 222.142 214.97 222.075C214.22 227.681 216.843 232.392 211.691 242.007C215.476 241.626 229.899 234.794 232.762 230.998C235.828 226.931 241.61 215.22 241.876 211.835C235.421 215.22 234.838 214.922 221.88 215.016C222.148 217.15 223.785 221.654 221.73 222.694ZM121.581 211.662C121.705 212.28 131.409 238.297 132.957 241.041C141.721 221.374 138.663 234.479 150.289 215.629C139.949 214.233 152.965 217.257 121.581 211.662ZM207.499 241.101C211.067 241.032 213.154 228.934 211.741 223.771C206.271 225.55 210.239 225.853 203.025 223.817C201.87 227.943 203.572 241.176 207.499 241.101ZM264.583 215.617C276.855 234.19 269.32 217.791 282.004 241.16C282.276 240.62 284.91 233.858 287.494 227.081C292.897 212.907 293.652 212.001 293.137 211.589C292.453 211.042 292.789 212.982 278.887 214.767C272.918 215.533 268.581 215.273 264.583 215.617ZM182.212 239.495C181.68 233.959 175.828 232.383 175.391 232.757C174.662 233.38 176.555 240.538 182.212 239.495ZM232.471 239.39C236.14 240.556 240.386 236.07 239.278 232.584C237.7 233.077 239.243 232.506 234.546 234.659C232.177 239.824 232.841 238.206 232.471 239.39ZM153.139 216.948C152.708 217.457 143.765 229.085 143.05 230.21C144.634 231.819 156.121 239.281 156.435 239.209C157.227 239.026 158.355 234.831 158.213 234.45C157.815 233.384 151.12 230.536 150.677 228.691C150.449 227.744 150.674 227.497 156.004 220.54C153.262 216.853 154.315 217.976 153.139 216.948ZM261.634 216.945C259.596 219.322 259.244 220.076 258.959 220.531C260.348 222.887 263.752 225.842 264.276 228.725C262.616 231.312 262.19 230.108 256.58 234.473C257.256 237.924 258.151 239.141 258.197 239.23C259.952 238.38 270.516 231.33 271.754 230.279C270.96 228.805 262.536 217.935 261.634 216.945ZM77.5644 225.617C77.8811 229.894 80.4586 237.102 85.289 237.648C85.6472 235.849 85.4153 238.562 84.9999 226.189C78.6167 225.567 78.4585 225.655 77.5644 225.617ZM329.47 237.586C332.87 237.201 336.851 232.737 337.218 225.617C332.65 225.809 331.443 225.933 329.884 226.379C329.674 227.708 329.398 236.917 329.47 237.586ZM100.975 225.331C99.1784 226.98 92.0431 235.352 91.0133 236.863C92.4859 236.696 112.833 232.411 115.121 231.478C105.879 229.021 112.464 230.619 100.975 225.331ZM299.708 231.517C300.168 231.694 320.309 236.484 323.732 236.885C322.359 234.536 314.599 225.987 313.937 225.366C310.767 226.623 309.194 228.611 299.708 231.517ZM87.8895 213.706C87.776 215.389 87.8739 232.315 88.4215 234.786C90.2198 233.207 96.7774 225.386 98.1567 223.43C94.5821 220.215 94.1466 220.631 87.8895 213.706ZM316.696 223.617C317.22 224.341 324.486 233.059 326.472 234.861C326.543 233.596 327.356 217.959 326.906 213.763C317.319 223.836 318.319 221.645 316.696 223.617ZM154.3 228.032C155.992 229.487 158.058 230.694 159.515 231.383C160.439 230.446 159.229 231.915 163.067 226.567C157.754 222.512 158.622 223.203 158.081 222.901C156.557 224.441 155.001 226.53 154.3 228.032ZM251.828 226.617C255.321 231.343 253.571 229.429 255.259 231.388C256.087 231.041 257.542 230.405 260.675 227.961C260.277 227.307 259.664 226.152 256.793 222.902C256.275 223.242 257.015 222.579 251.828 226.617ZM177.531 229.769C176.769 227.794 170.188 214.119 169.997 213.822C169.531 214.917 168.332 220.533 167.606 225.477C177.196 229.984 176.238 229.659 177.531 229.769ZM244.848 213.753C244.688 214.071 237.378 229.516 237.234 229.842C238.519 229.625 236.367 230.558 247.188 225.51C246.618 220.508 245.231 214.632 244.848 213.753ZM88.0765 207.421C87.8359 211.789 105.924 227.799 117.538 228.889C114.848 226.126 106.005 221.61 115.788 207.539C106.086 193.855 114.278 189.456 117.625 186.112C105.384 188.006 88.357 202.328 88.0765 207.421ZM297.05 228.927C309.413 227.731 326.596 212.084 326.783 207.705C326.907 204.787 313.827 189.291 297.336 186.138C300.157 189.926 308.487 192.078 299.185 207.528C303.791 216.282 307.043 222.206 297.05 228.927ZM124.238 227.666C123.728 225.896 118.469 212.096 117.531 210.51C108.549 218.145 118.372 228.239 124.238 227.666ZM297.409 210.402C296.961 210.993 291.156 225.129 290.647 227.675C293.982 227.84 306.307 222.739 297.409 210.402ZM166.373 199.63C166.51 199.324 165.408 193.113 164.733 191.393C152.444 195.523 147.958 216.472 164.561 223.803C165.251 222.433 166.165 217.518 166.433 215.491C153.672 205.547 165.855 200.789 166.373 199.63ZM248.488 215.506C248.545 216.012 248.32 219.843 250.272 223.799C262.245 218.773 266.791 198.896 250.259 191.334C249.365 192.989 248.338 199.255 248.571 199.712C249.72 201.963 260.559 204.837 248.488 215.506ZM382.514 204.914C380.731 203.472 374.716 198.642 374.393 198.379C365.152 190.89 366.939 192.187 365.526 191.502C365.054 193.761 365.979 192.501 364.065 200.257C370.036 206.282 370.099 208.449 364.13 214.881C365.947 222.998 365.056 220.468 365.564 223.613C368.329 222.248 385.212 207.832 385.519 207.42C383.481 205.475 385.861 207.62 382.514 204.914ZM49.2821 191.412C48.7727 191.744 49.3339 191.196 45.8189 194.031L34.7499 202.966C29.2767 207.379 30.0839 206.829 29.4384 207.572C30.3893 208.77 47.9111 222.879 49.2648 223.591C49.7059 221.32 49.0674 220.805 50.8365 214.835C44.8566 208.796 44.5313 206.724 50.8351 200.182C48.832 193.159 49.8761 195.105 49.2821 191.412ZM84.9119 222.846C84.9682 222.238 85.268 214.306 85.0504 192.351C72.8023 190.236 48.2917 201.195 49.5334 208.075C50.8952 215.621 75.0539 224.322 84.9119 222.846ZM329.988 222.877C341.578 224.208 366.539 213.75 365.416 206.84C364.799 203.04 349.841 192.168 329.82 192.168C330.639 206.885 329.879 219.193 329.988 222.877ZM203.932 219.582C204.007 221.131 208.23 223.916 210.984 219.483C207.137 211.231 208.507 213.467 207.396 212.024C206.486 213.212 203.924 219.415 203.932 219.582ZM196.279 213.689C196.202 213.784 195.362 218.133 195.38 219.718C198.484 219.294 197.31 219.263 201.118 218.863C201.794 217.674 204.601 211.212 205.114 209.943C204.006 210.257 196.399 213.54 196.279 213.689ZM213.484 218.835C219.82 219.328 214.772 219.493 219.534 219.693C219.546 216.866 219.45 220.322 218.719 213.602C215.802 212.618 213.248 211.22 209.838 209.901C210.659 213.077 211.531 213.18 213.484 218.835ZM150.961 212.275C150.085 204.13 149.698 211.998 150.983 202.966C145.726 201.591 120.939 204.639 121.159 207.65C121.335 210.057 135.882 212.336 150.961 212.275ZM173.877 207.532C173.9 211.449 187.587 213.363 191.169 211.776C188.854 205.125 189.5 209.152 191.133 203.188C185.98 201.793 173.856 203.973 173.877 207.532ZM240.927 207.818C241.384 203.922 228.858 201.691 223.716 203.162C226.558 212.299 222.927 210.508 223.715 211.861C224.249 212.778 240.433 212.033 240.927 207.818ZM263.812 202.952C264.994 210.429 264.913 205.066 263.823 212.184C274.028 213.281 293.484 209.977 293.656 207.568C293.829 205.158 270.233 201.244 263.812 202.952ZM166.857 203.073C161.793 206.319 163.561 210.243 166.877 211.919C167.871 210.043 168.784 207.054 166.857 203.073ZM251.246 207.387C251.202 205.989 249.83 203.959 247.963 203.124C246.094 206.724 247.409 210.794 247.862 211.943C250.371 210.882 251.274 208.295 251.246 207.387ZM195.144 204.158C192.555 204.777 192.014 210.155 195.14 210.811C196.131 211.019 202.02 208.296 202.911 207.521C201.946 206.833 195.967 203.962 195.144 204.158ZM219.755 210.895C220.793 210.613 222.161 208.637 221.893 206.954C221.611 205.177 219.725 204.158 219.401 203.939C214.328 206.482 213.605 206.233 211.871 207.538C214.064 209.185 219.093 211.075 219.755 210.895ZM196.112 201.353C196.221 201.511 204.24 204.879 204.979 205.096C204.292 202.914 203.699 202.118 201.314 196.296C194.813 195.367 197.187 195.499 195.396 195.51C195.393 196.098 196.046 201.255 196.112 201.353ZM213.748 196.262C213.34 196.927 213.968 195.294 209.756 205.16C210.124 205.037 210.726 204.953 218.688 201.341C218.731 201.106 219.553 195.918 219.594 195.442C216.885 195.629 220.179 195.362 213.748 196.262ZM290.68 187.356C290.729 187.725 295.181 200.839 297.351 204.747C305.485 195.038 296.641 187.351 290.68 187.356ZM117.551 204.509C118.092 203.542 124.007 189.116 124.153 187.276C115.307 187.728 110.889 198.672 117.551 204.509ZM132.961 173.98C126.377 186.221 121.786 202.859 121.664 203.479C139.847 200.046 118.629 202.417 150.294 199.443C134.417 176.717 141.074 191.947 132.961 173.98ZM264.488 199.493C295.727 201.475 284.607 202.114 293.208 203.389C293.013 202.144 284.996 180.201 281.97 173.967C270.934 195.428 274.62 183.939 264.488 199.493ZM192.375 193.035C193.59 191.385 196.638 192.745 199.694 193.081C201.534 186.383 196.692 188.843 203.159 172.945C198.155 173.714 184.511 181.287 182.601 183.28C181.984 183.924 173.55 197.998 172.811 203.294C183.343 198.901 176.227 200.867 192.911 199.942C192.716 196.761 191.471 194.262 192.375 193.035ZM222.151 192.717C223.409 193.942 222.341 196.546 221.88 200.027C238.14 200.115 234.843 200.216 241.948 203.245C241.895 202.823 240.401 193.229 232.804 184.082C229.722 180.37 217.061 174.277 211.444 172.878C214.285 177.335 215.301 180.328 214.831 192.925C217.742 193.248 220.682 191.287 222.151 192.717ZM204.096 195.188C203.761 196.328 206.803 202.19 207.429 202.993C208.409 201.64 210.879 195.863 210.831 195.365C210.551 192.413 204.972 192.215 204.096 195.188ZM88.042 186.195C88.0195 187.149 87.8532 195.169 87.8435 195.741C87.7492 201.316 87.851 200.651 87.9242 201.316C98.7352 190.488 95.1213 194.493 98.2489 191.615C97.0317 189.89 89.7431 181.407 88.388 180.208C88.3446 180.444 88.1976 179.6 88.042 186.195ZM167.76 189.654C167.789 191.549 169.359 199.752 169.97 201.295C171.998 197.95 177.312 185.878 177.528 185.201C175.855 185.588 169.238 188.778 167.76 189.654ZM237.244 185.182C237.384 185.51 244.684 201.014 244.855 201.327C245.593 199.819 246.982 191.231 247.185 189.564C237.341 184.969 238.518 185.458 237.244 185.182ZM316.548 191.539C323.543 197.782 315.801 190.267 326.911 201.255C327.079 199.583 326.82 182.744 326.44 180.252C325.511 181.013 324.282 182.356 316.548 191.539ZM258.315 175.777C258.265 175.863 257.142 177.418 256.622 180.463C257.835 181.722 264.058 185.297 264.278 186.442C264.593 188.087 259.362 193.15 259.226 194.258C259.043 195.748 261.19 197.699 261.72 198.23C264.543 194.497 270.891 186.292 271.732 184.848C270.634 183.658 259.175 176.229 258.315 175.777ZM351.737 193.297C362.153 198.337 361.114 198.156 361.318 198.091C364.367 197.118 362.892 172.163 347.639 160.5C340.574 167.562 342.671 165.243 340.176 167.752C355.382 180.162 350.744 184.38 351.737 193.297ZM67.1983 160.465C51.2217 172.497 51.2056 197.188 53.4529 198.031C54.0628 198.259 53.3089 197.722 63.2145 193.28C61.2903 174.798 72.75 169.645 74.617 167.538C72.8951 166.082 72.3038 165.506 67.1983 160.465ZM156.67 175.842C153.526 177.581 144.273 183.77 143.053 184.855C143.94 186.271 151.834 196.681 153.275 198.076C154.372 196.921 153.058 198.467 155.988 194.582C152.363 189.529 150.082 187.688 150.767 186.018C151.188 184.992 155.373 182.915 158.249 180.593C157.677 177.746 156.973 176.473 156.67 175.842ZM66.3758 192.103C67.1933 191.973 74.1537 190.21 74.3726 189.962C76.2588 187.822 71.1093 184.353 83.3789 174.575C82.7524 173.949 83.7427 174.585 77.5847 170.005C65.6654 174.898 64.7831 189.021 66.3758 192.103ZM154.28 187.062C155.508 189.589 157.579 191.623 158.125 192.162C158.754 191.757 162.031 189.427 163.035 188.316C160.221 185.18 161.371 185.757 159.582 183.591C155.659 185.662 154.556 186.801 154.28 187.062ZM251.735 188.517C256.947 192.53 256.355 192.196 256.598 192.185C257.247 192.154 259.371 189.212 260.603 187.076C258.246 185.149 255.413 183.654 255.302 183.593C253.628 185.522 255.27 184.027 251.735 188.517ZM337.207 170.127C335.222 171.34 332.116 173.792 331.438 174.551C343.313 183.825 338.968 188.06 340.587 189.98C340.692 190.104 348.158 192.2 348.44 192.039C351.007 190.575 346.885 171.956 337.207 170.127ZM211.698 191.294C213.63 190.364 211.583 173.732 207.301 173.974C205.379 174.083 203.837 177.712 203.149 181.679C202.751 183.973 202.383 188.773 203.152 191.377C211.008 188.011 210.312 191.962 211.698 191.294ZM91.2251 178.302C92.6826 180.61 99.7036 188.627 101.023 189.881C113.07 183.569 99.5712 189.557 114.755 183.571C113.054 182.661 93.6133 178.634 91.2251 178.302ZM300.021 183.532C301.693 184.247 307.689 185.902 313.795 189.857C315.366 188.419 322.941 179.631 323.705 178.316C321.767 178.406 301.349 182.937 300.021 183.532ZM85.3596 177.323C82.0294 178.198 77.3795 183.1 77.6275 189.408C79.07 189.459 82.9741 189.191 84.8259 188.888C85.1899 186.836 85.4544 178.477 85.3596 177.323ZM337.218 189.404C336.908 182.284 332.851 178.098 329.498 177.421C329.343 178.546 329.829 188.314 329.898 188.763C332.18 189.328 335.748 189.404 337.218 189.404ZM184.002 172.646C185.815 167.996 185.785 169.315 186.698 166.26C184.024 161.561 167.37 156.51 157.854 157.87C156.261 164.919 160.624 183.111 166.108 186.827C168.65 186.102 168.376 185.757 172.517 184.121C171.911 172.448 179.8 172.24 184.002 172.646ZM231.074 172.66C240.816 171.7 243.455 179.253 242.234 183.83C242.96 184.281 247.997 186.922 248.7 186.807C253.433 186.034 258.787 163.101 257.008 158.007C251.944 156.097 231.58 160.596 228.08 166.209C228.651 167.968 230.291 171.472 231.074 172.66ZM58.6764 138.998C49.4957 143.999 40.6416 173.492 49.7475 185.67C62.5763 153.538 56.5824 169.152 64.9825 158.153C58.5823 145.571 60.3654 157.069 58.6764 138.998ZM365.122 185.688C373.025 174.877 368.86 150.306 356.129 138.715C357.304 147.643 354.395 151.978 349.624 158.119C363.149 169.554 363.474 182.269 365.122 185.688ZM125.406 183.374C126.034 182.698 125.578 184.244 129.168 174.948C131.935 167.783 132.344 167.172 132.079 166.72C128.998 161.455 115.981 178.173 125.406 183.374ZM282.63 166.756C282.704 167.109 286.684 180.578 289.454 183.406C297.347 179.899 289.642 163.08 282.63 166.756ZM154.583 157.031C133.277 151.647 132.696 175.907 140.794 182.448C144.218 180.413 154.257 173.857 155.81 172.337C155.276 165.91 154.701 171.157 154.583 157.031ZM182.391 175.544C178.353 174.799 174.875 178.519 175.414 182.392C180.634 181.605 181.506 178.34 182.391 175.544ZM232.648 175.511C231.913 176.394 234.649 181.961 239.426 182.272C240.218 176.39 233.138 174.922 232.648 175.511ZM260.406 157.124C258.991 166.874 258.817 171.893 259.061 172.458C259.49 173.45 273.737 182.26 274.055 182.43C286.71 170.706 274.4 150.398 260.406 157.124ZM93.1016 175.22C94.7872 176.169 115.264 180.467 116.713 180.409C116.093 178.732 111.356 170.215 110.541 169.231C109.082 169.445 94.4628 174.652 93.1016 175.22ZM304.216 169.257C303.041 170.933 298.54 179.283 298.063 180.469C303.872 180.222 321.284 175.453 321.713 175.229C319.715 174.266 305.69 169.373 304.216 169.257ZM284.968 146.09C287.414 152.746 289.2 154.514 284.977 162.973C292.869 166.498 294.008 166.925 295.612 178.465C298.877 172.895 307.935 155.753 308.272 154.731C306.992 153.967 286.927 146.433 284.968 146.09ZM106.647 154.646C106.421 155.131 118.617 177.399 119.261 178.254C120.988 163.965 126.428 164.658 129.766 163.084C126.986 154.993 125.774 157.199 129.953 145.975C129.468 146.085 106.858 154.196 106.647 154.646ZM185.035 177.64C185.378 177.545 199.333 171.215 201.125 170.056C199.824 169.535 190.068 167.681 189.65 167.889C188.877 168.273 185.272 176.81 185.035 177.64ZM213.697 170.143C217.071 172.086 229.406 177.5 229.746 177.599C229.526 176.777 230.391 178.474 225.441 167.867C223.053 168.013 215.405 169.279 213.697 170.143ZM103.92 156.973C102.214 158.566 92.8077 170.569 91.9687 172.325C94.3841 171.621 107.325 167.14 108.873 166.228C108.814 166.027 106.717 160.381 103.92 156.973ZM322.995 172.289C322.61 171.61 312.924 158.814 310.898 156.983C309.557 158.645 306.269 165.182 305.859 166.395C306.539 166.644 321.566 172.046 322.995 172.289ZM98.1695 159.216C100.889 155.76 103.036 153.05 103.094 152.729C103.332 151.415 102.044 151.925 101.65 141.695C101.312 132.918 102.059 132.88 101.683 130.716C100.704 131.02 102.696 129.735 86.7732 139.064C87.4089 143.056 89.1848 148.199 88.5604 149.552C87.9737 150.822 83.6647 152.42 81.4821 154.69C82.6504 159.371 87.1585 171.216 87.7554 172.156C88.5363 171.38 87.5274 172.679 92.1331 166.848C92.3743 166.542 97.8085 159.675 98.1695 159.216ZM326.234 149.474C325.581 147.959 327.696 143.214 327.924 139.303C325.907 137.476 314.223 131.049 313.298 130.619C313.236 131.062 311.768 152.516 311.881 152.949C311.94 153.175 311.781 153.028 319.026 162.189C319.265 162.491 324.894 169.592 325.015 169.742C326.904 172.093 326.676 171.701 327.129 172.156C327.829 170.832 333.037 156.353 333.407 154.518C332.052 153.404 326.65 150.44 326.234 149.474ZM85.5478 148.205C85.4093 144.014 82.9372 139.266 83.5209 137.92C84.0304 136.745 94.7706 131.137 97.1051 129.448C91.284 127.993 63.1685 128.453 61.4571 141.087C60.6538 147.018 64.6404 153.256 70.1182 159.058C74.251 163.436 81.0365 169.453 83.6995 170.421C82.0673 164.459 77.479 154.757 78.2051 153.09C78.6982 151.958 81.0172 151.571 85.5478 148.205ZM329.353 147.995C329.96 149.703 335.956 151.457 336.693 153.31C337.363 154.994 331.745 167.006 331.237 170.595C335.998 168.161 357.312 150.47 352.837 139.098C348.819 128.889 328.542 128.555 317.599 129.324C321.471 132.245 330.829 136.673 331.324 137.869C331.797 139.012 328.939 146.829 329.353 147.995ZM207.248 168.325C211.829 167.38 211.727 166.968 211.811 166.923C210.872 164.974 208.766 163.718 207.468 163.699C205.141 163.665 203.048 166.682 202.917 166.861C203.393 167.134 202.636 167.172 207.248 168.325ZM191.198 164.742C192.638 165.211 199.092 166.7 199.405 166.577C200.012 166.338 202.985 159.82 208.749 160.986C214.526 162.154 213.439 165.833 215.389 166.557C215.549 166.616 222.122 165.407 223.679 164.731C216.459 150.183 198.431 150.201 191.198 164.742ZM183.466 159.683C183.833 159.996 188.143 162.896 188.456 163.078C191.303 159.456 191.947 158.271 192.012 158.169C188.678 155.077 187.05 154.468 186.936 154.412C186.851 154.505 186.506 154.297 183.466 159.683ZM222.826 158.078C222.888 158.187 222.307 157.679 226.452 163.198C231.816 159.32 230.146 160.693 231.311 159.648C230.756 158.519 229.462 156.338 227.915 154.354C226.726 155.069 224.695 156.383 222.826 158.078ZM139.495 143.007C130.982 143.976 127.077 158.165 133.909 162.626C142.64 154.049 140.938 145.471 139.495 143.007ZM275.424 142.906C274.947 143.571 270.253 150.718 280.878 162.626C287.203 158.851 284.683 144.596 275.424 142.906ZM216.828 153.291C216.895 153.351 218.056 154.549 220.483 155.949C224.621 153.27 226.92 150.567 228.423 150.771C229.588 150.93 229.983 151.831 234.355 158.576C239.663 156.741 238.483 157.046 239.094 156.675C238.238 154.928 231.349 144.686 230.111 143.185C229.249 143.695 218.33 151.967 216.828 153.291ZM184.618 143.254C183.508 144.433 175.982 156.175 175.653 156.733C175.741 156.779 176.561 157.495 180.316 158.414C182.569 156.3 184.71 151.141 186.209 150.767C187.906 150.343 190.144 153.27 194.423 155.955C194.818 155.718 195.687 155.332 198.174 153.278C184.66 143.198 186.495 144.01 184.618 143.254ZM157.034 154.575C163.372 155.82 172.079 155.935 172.362 155.816C174.351 154.977 182.009 141.487 182.309 140.833C171.311 129.06 150.113 140.026 157.034 154.575ZM232.562 140.825C234.284 144.439 242.351 155.823 242.696 155.941C244.427 156.53 242.954 154.443 257.883 154.716C263.203 135.212 241.086 131.401 232.562 140.825ZM154.14 143.054C147.853 144.166 151.035 143.852 143.135 143.228C143.914 155.217 143.083 150.874 143.131 154.15C146.349 153.639 144.536 153.158 153.288 153.443C153.272 144.687 153.27 146.49 154.14 143.054ZM260.804 143.308C261.413 146.018 261.766 145.873 261.448 153.207C266.168 153.867 263.625 152.588 271.767 154.142C270.916 143.291 271.331 151.523 271.677 143.258C259.949 143.847 263.189 143.13 260.804 143.308ZM202.789 151.068C212.847 150.306 206.643 150.793 211.958 150.975C213.359 145.763 210.88 124.734 207.508 121.321C205.05 123.062 200.799 141.638 202.789 151.068ZM173.808 132.958C197.024 144.621 175.822 134.396 199.331 150.428C202.826 118.799 201.736 131.483 203.303 121.773C203.27 121.777 203.398 121.515 201.691 122.14C201.506 122.208 193.034 125.459 192.482 125.672C189.864 126.682 174.531 132.612 173.808 132.958ZM211.548 121.712C216.9 153.139 214.465 142.959 215.465 150.428C230.752 140.986 214.051 148.156 241.037 132.94C240.454 132.698 213.419 122.001 211.548 121.712ZM125.766 144.13C126.109 143.913 126.023 144.092 126.201 143.893C126.633 143.411 127.255 137.49 127.265 135.871C126.222 136.417 127.5 135.436 123.633 138.573C122.547 139.454 116.041 144.746 115.887 144.873C109.437 150.16 111.155 148.678 110.08 149.747C110.771 149.714 109.809 150.149 113.769 148.67C124.824 144.539 125.55 144.267 125.766 144.13ZM290.835 138.256C287.688 135.733 287.576 135.741 287.507 135.692C288.279 143.619 288.356 142.953 288.614 143.914C288.93 144.055 302.799 149.644 304.866 149.809C303.696 148.686 305.38 150.098 300.424 146.087C300.231 145.931 291.414 138.72 290.835 138.256ZM104.701 136.659C104.378 139.426 104.676 146.36 105.452 149.298C106.271 148.81 122.339 136.038 123.932 134.266C119.673 134.459 105.08 136.582 104.701 136.659ZM294.228 137.189L307.246 147.772C309.225 149.381 309.265 149.246 309.308 149.274C310.214 146.666 310.613 139.233 310.202 136.757C308.344 136.114 294.61 134.639 290.701 134.203C291.185 134.633 292.005 135.382 294.228 137.189ZM142.311 129.809C142.004 129.475 132.146 130.914 131.064 131.252C130.953 131.695 129.418 141.044 129.774 142.603C132.473 141.871 129.92 142.412 139.21 139.33C142.311 130.02 142.718 130.251 142.311 129.809ZM272.544 129.843C272.725 131.647 275.67 139.234 275.819 139.369C275.963 139.499 283.855 142.314 285.007 142.486C285.239 140.914 284.161 132.738 283.726 131.21C281.319 130.621 273.67 129.804 272.544 129.843ZM162.459 134.097C156.991 124.588 140.777 135.819 142.942 139.728C143.533 140.794 153.277 143.3 162.459 134.097ZM272.103 139.489C269.123 129.234 255.784 128.529 252.287 134.093C263.342 143.285 269.393 141.347 272.103 139.489ZM105.622 124.019C105.062 125.63 104.443 133.196 104.723 133.451C105.004 133.707 113.095 132.958 123.598 131.24C122.768 130.427 107.936 124.235 105.622 124.019ZM291.199 131.073C292.286 131.427 308.967 133.498 310.109 133.443C310.272 131.735 309.72 125.604 309.27 123.948C306.618 124.552 292.521 130.256 291.199 131.073ZM166.603 132.165C167.199 132.558 183.044 126.408 183.239 125.722C183.597 124.459 178.939 120.817 172.595 123.21C165.537 125.871 165.702 131.574 166.603 132.165ZM231.484 125.742C232.905 126.828 247.832 132.399 248.153 132.242C254.583 129.099 235.777 115.902 231.484 125.742ZM236.784 119.36C252.104 122.542 247.849 122.992 252.055 130.027C259.722 125.154 265.534 128.527 268.878 130.113C268.841 129.618 261.946 109.277 260.301 106.79C259.782 106.915 243.377 113.944 236.784 119.36ZM154.452 106.808C153.152 109.472 146.104 129.032 145.982 130.013C148.781 129.443 148.136 127.702 154.56 127.548C160.481 127.405 162.319 130.171 162.952 129.881C164.972 128.956 160.614 121.92 178.205 119.39C177.349 118.74 156.575 107.148 154.452 106.808ZM106.161 120.712C113.473 123.68 123.409 127.527 124.529 127.913C123.741 126.803 112.335 115.038 108.402 111.968C106.936 114.245 106.279 119.635 106.161 120.712ZM306.464 111.974C305.958 112.355 306.142 112.002 301.792 116.246C300.822 117.192 293.911 124.019 293.751 124.178C290.11 127.811 290.806 127.275 290.457 127.741C291.201 127.501 308.269 121.256 308.652 120.574C309.174 119.645 307.023 113.083 306.464 111.974ZM89.594 112.414C89.12 111.706 80.3118 109.987 79.2518 109.888C78.1696 111.741 75.1053 126.562 75.077 127.277C75.3198 127.26 84.9945 126.181 87.1683 125.913C88.4178 121.136 89.8994 112.87 89.594 112.414ZM135.55 127.425C144.115 126.659 143.591 126.409 143.751 126.365C144.052 125.752 148.963 114.037 149.701 110.352C149.356 110.63 145.21 114.712 135.55 127.425ZM270.964 126.287C271.455 126.733 276.705 127.289 279.193 127.366C275.552 122.324 265.766 110.778 265.074 110.221C265.298 111.223 270.711 126.056 270.964 126.287ZM325.019 112.344C325.106 114.005 325.405 114.528 327.627 125.957C340.463 127.043 336.084 126.876 339.707 127.289C339.571 123.363 335.783 110.215 335.595 109.911C333.211 110.028 326.461 111.864 325.019 112.344ZM125.892 90.545C125.294 90.6061 100.378 94.9934 96.4286 96.4424C95.2652 99.2227 90.4684 125.373 90.399 125.972C102.868 126.416 96.2723 126.569 102.157 126.509C104.841 105.453 105.977 104.78 126.368 102.303C126.283 97.5968 126.008 93.6024 125.892 90.545ZM318.405 96.4911C317.969 96.0764 292.502 90.6007 288.89 90.5818C288.89 98.0373 288.366 98.7292 288.455 102.223C317.523 107.583 306.174 107.677 312.81 126.475C314.191 126.638 323.696 125.946 324.381 125.824C324.26 123.915 324.541 125.793 321.414 110.163C318.943 97.8085 319.014 97.0696 318.405 96.4911ZM111.834 108.459C112.139 108.863 111.686 108.599 116.101 113.129C116.263 113.295 123.267 120.403 124.247 121.393C127.978 125.161 127.308 124.338 127.779 124.675C127.207 122.788 121.389 108.118 120.612 106.306C117.733 106.578 114.45 107.226 111.834 108.459ZM294.195 106.306C287.92 122.355 287.425 123.055 287.24 124.611C294.511 118.617 302.632 108.904 302.902 108.546C299.815 106.702 295.091 106.38 294.195 106.306ZM187.242 124.352C187.972 124.192 203.101 118.599 204.639 117.539C191.13 108.167 187.118 122.488 187.242 124.352ZM210.455 117.586C212.652 118.923 226.816 124.183 227.529 124.358C227.907 117.756 218.107 109.655 210.455 117.586ZM136.636 104.929C136.073 105.458 134.205 122.53 134.128 124.072C136.248 122.157 148.899 106.008 149.146 105.6C147.245 104.966 137.366 104.243 136.636 104.929ZM265.652 105.575C266.632 107.205 279.561 123.138 280.73 123.955C280.726 123.569 278.845 107.036 278.301 104.781C276.274 104.735 270.325 104.409 265.652 105.575ZM123.872 105.724C124.223 108.023 130.31 122.816 131.02 123.736C131.306 122.633 133.4 106.395 133.272 104.881C131.955 104.78 125.833 105.042 123.872 105.724ZM290.932 105.638C289.633 105.299 291.899 105.602 281.396 104.628C281.44 105.009 283.508 122.57 283.787 123.689C283.865 123.591 283.969 124.116 285.239 120.924C285.456 120.38 288.011 113.832 288.798 111.833C291.437 105.126 290.79 106.941 290.932 105.638ZM228.802 117.745C226.976 107.688 213.275 88.1448 207.434 88.146C205.358 88.1464 198.955 93.4437 194.459 99.5839C189.555 106.279 186.776 113.599 186.114 117.495C187.777 116.176 194.587 105.219 207.279 115.854C214.615 112.167 218.861 106.927 228.802 117.745ZM169.052 110.706C171.562 112.517 179.411 116.549 180.404 116.828C180.351 115.863 176.028 94.9613 175.129 93.2501C174.824 93.9237 169.935 106.736 169.052 110.706ZM239.667 93.2577C238.877 95.0216 234.536 115.408 234.485 116.857C239.562 115.053 244.515 111.628 245.736 110.691C245.54 109.601 240.585 94.859 239.667 93.2577ZM183.473 115.063C185.893 108.196 183.172 113.569 189.649 101.208C188.371 99.51 179.214 91.9054 178.193 91.2474C178.251 92.2214 182.446 112.85 183.473 115.063ZM236.793 91.1752C234.259 92.8556 226.444 99.6813 225.229 101.042C225.35 101.321 231.336 114.616 231.467 114.889C231.931 113.838 231.675 114.94 232.612 110.62C232.911 109.241 234.725 100.975 234.768 100.778C236.862 91.1902 236.67 91.9507 236.793 91.1752ZM84.2167 87.6089C83.7595 88.6835 80.0444 104.249 79.8422 106.576C81.2377 107.192 89.9126 109.433 90.4516 109.063C90.6654 108.916 93.2501 97.553 92.8484 96.3201C92.6204 95.6205 87.6575 90.3751 84.2167 87.6089ZM330.572 87.5355C328.872 88.9151 327.042 90.8877 321.966 96.1318C322.059 99.2981 323.927 107.888 324.473 109.09C325.333 109.069 323.48 109.571 334.972 106.769C334.947 104.402 330.908 88.2497 330.572 87.5355ZM156.91 103.969C158.123 105.145 164.555 108.779 166.239 108.918C166.719 107.955 171.673 94.0774 172.153 91.9784C170.819 92.7713 157.972 102.839 156.91 103.969ZM242.797 92.0683C243.141 94.1897 248.128 108.05 248.623 109.005C250.677 108.523 257.135 104.743 257.955 104.078C257.211 103.188 244.841 93.1666 242.797 92.0683ZM154.502 81.5766C152.751 83.3047 150.665 88.1481 149.378 88.7129C148.441 89.1239 141.12 87.2355 139.299 86.9683C137.853 88.4248 132.407 97.9933 130.467 101.61C150.936 103.116 152.29 103.206 152.725 103.109C153.206 103.001 170.297 89.5856 172.027 87.8348C171.067 87.2651 156.694 82.0054 154.502 81.5766ZM265.279 88.5925C264.526 88.1842 265.077 88.5203 260.518 81.4659C258.348 82.0315 244.571 86.9077 242.953 87.8426C243.978 89.0491 242.787 88.0461 249.695 93.4931C250.625 94.2262 257.124 99.3673 257.434 99.6113C261.601 102.889 261.846 102.958 262.138 103.157C280.128 100.285 278.13 102.414 284.303 101.645C283.459 99.7958 277.072 88.5707 275.76 87.0178C273.22 87.1583 266.77 89.4004 265.279 88.5925ZM191.396 98.2679C191.679 98.2548 190.367 98.845 201.169 88.0294C198.69 87.569 180.581 88.4361 180.163 88.4812C181.567 90.0238 191.099 98.2817 191.396 98.2679ZM213.613 88.0343C221.172 94.9854 219.254 93.6976 223.414 98.3961C224.842 97.3081 233.324 90.1281 234.618 88.4809C232.946 88.3014 215.673 87.6218 213.613 88.0343ZM153.034 78.3568C153.905 78.012 154.403 78.1643 160.568 80.3884C167.243 82.7965 169.409 83.5837 169.598 83.6155C170.418 83.7537 170.345 83.7257 170.36 83.7285C168.418 78.7111 149.544 57.0387 138.442 62.3275C130.641 66.0438 127.126 85.1002 129.29 97.1488C133.016 92.7557 136.098 84.3401 137.893 83.6561C139.239 83.143 143.677 85.3723 147.991 85.6367C151.065 82.208 151.552 78.9438 153.034 78.3568ZM266.824 85.6413C270.972 85.4317 275.841 83.1399 277.002 83.591C278.791 84.2856 281.488 92.1544 285.503 97.1321C286.803 92.103 286.811 64.4409 274.498 61.6999C261.404 58.7851 244.769 83.0828 244.472 83.7662C250.129 82.7488 259.183 77.4117 261.56 78.2305C263.279 78.8223 263.985 82.3278 266.824 85.6413ZM106.485 79.951C103.745 80.1154 88.4644 83.9198 87.3901 84.3991C88.6633 85.972 95.7855 92.9875 96.5283 93.1432C96.7763 93.1952 108.647 90.9617 108.932 90.5424C109.055 90.3626 109.692 87.5649 106.485 79.951ZM308.42 79.9962C308.047 80.2189 305.546 90.0438 305.918 90.5798C306.064 90.7899 304.634 90.4736 318.433 93.2299C320.244 91.8715 326.105 85.9489 327.392 84.4025C325.641 83.5507 308.755 79.7968 308.42 79.9962ZM127.159 75.2183C124.652 75.2409 110.697 78.8636 109.739 79.3494C109.868 80.8599 111.331 87.2132 112.162 89.9033C113.559 89.8959 117.954 88.9425 125.892 87.3034C126.065 81.2302 126.799 79.09 127.159 75.2183ZM287.798 75.2546C287.259 75.7442 288.015 74.0185 288.963 87.3357L289.607 87.4606C289.786 87.5273 289.234 87.3714 298.997 89.3443C302.892 90.1315 301.188 89.8759 302.559 89.9466C303.006 88.9394 305.385 79.6204 305.163 79.2393C304.97 78.9058 303.888 78.7726 295.812 76.8943C291.828 75.9677 288.161 74.9246 287.798 75.2546ZM189.28 77.7167C180.732 78.2846 177.927 82.9799 177.291 85.4697C178.874 85.6258 187.065 85.216 188.645 85.0346C188.877 84.1842 189.101 84.3252 189.28 77.7167ZM237.574 85.4322C236.832 82.0748 232.659 78.0206 225.502 77.7167C225.784 84.3771 226.153 84.7999 226.218 85.089C226.67 85.1431 236.459 85.649 237.574 85.4322ZM207.644 49.4914C201.437 49.1631 190.593 72.0205 192.186 85.1328C192.796 85.1501 190.966 85.0137 222.685 85.1607C224.812 76.1169 214.602 49.8594 207.644 49.4914ZM174.446 83.5298C176.284 81.3266 178.146 75.3928 189.949 74.5159C192.25 65.6066 191.743 67.7169 191.961 66.3964C182.277 63.0112 170.143 73.7655 170.047 77.1837C170.025 77.9555 171.572 80.2994 174.446 83.5298ZM222.91 66.3181C223.075 67.7743 224.75 73.9149 224.846 74.2259C231.327 76.5436 232.866 73.3225 240.385 83.5298C242.247 81.7975 244.433 78.3255 244.852 77.5317C243.155 71.3538 232.508 64.0736 222.91 66.3181ZM160.373 67.3007C166.998 73.929 165.693 72.8773 167.638 74.7609C179.342 59.0992 192.095 63.7602 193.077 63.2288C193.267 63.1263 197.608 54.4094 197.935 53.6121C193.105 50.784 170.836 53.1602 160.373 67.3007ZM221.647 63.3705C238.331 61.2523 243.345 69.9956 247.257 74.7625C251.211 70.8064 254.245 67.4004 254.384 67.2465C246.004 55.5591 223.871 49.8729 216.825 53.6403C218.136 56.3841 217.608 53.9958 221.647 63.3705ZM157.924 65.2329C179.194 46.2814 176.631 54.5823 185.563 49.8046C168.554 39.2786 143.684 51.7165 138.786 58.7516C142.017 58.6442 146.304 56.4791 157.924 65.2329ZM256.827 65.2329C274.374 55.0888 267.536 59.3345 276.028 58.7429C270.436 49.8859 243.516 40.3093 229.26 49.8243C235.733 52.348 243.959 51.3239 256.827 65.2329ZM207.408 29.4063C205.167 31.5277 191.84 48.5701 191.282 49.4341C195.46 50.1463 193.375 48.9843 199.988 50.9118C212.272 41.3691 210.548 49.8927 214.944 50.7935C215.115 50.8286 215.964 50.5236 223.574 49.4479C222.476 47.7051 209.56 31.624 207.408 29.4063ZM198.227 335.133C199.323 332.52 203.113 337.649 207.418 340.989C210.993 338.517 214.592 333.277 216.259 334.671C218.034 336.156 214.443 337.673 209.107 343.763C209.107 350.913 209.107 354.373 209.106 355.296C209.105 355.437 209.718 365.223 206.212 361.738C205.665 361.194 205.695 359.056 205.729 355.328C205.737 354.435 205.88 344.389 205.883 344.166C201.606 338.199 197.494 336.88 198.227 335.133ZM146.247 338.889C146.652 339.27 147.366 340.352 147.188 341.506C146.942 343.105 144.865 344.717 143.067 344.435C140.477 344.029 139.258 340.496 140.984 338.852C141.975 337.908 144.865 337.592 146.247 338.889ZM274.681 340.274C276.053 346.208 265.48 345.116 267.929 339.837C269.125 337.258 274.011 337.374 274.681 340.274ZM186.288 344.662C185.98 349.245 170.095 339.992 176.414 338.797C176.64 338.754 186.366 343.516 186.288 344.662ZM238.649 338.832C244.121 340.758 228.129 349.121 228.524 344.497C228.583 343.803 238.43 338.755 238.649 338.832ZM152.277 317.306C153.698 317.778 159.973 326.698 158.546 328.094C156.568 330.031 154.563 323.947 151.147 320.437C144.34 322.105 141.603 324.284 140.432 322.698C138.114 319.556 151.783 317.141 152.277 317.306ZM274.485 322.463C273.35 324.62 270.171 321.376 263.581 320.509C262.154 322.026 258.691 329.439 256.533 328.178C254.168 326.797 262.047 317.422 262.519 317.266C262.767 317.184 276.065 319.462 274.485 322.463ZM208.768 306.41C210.046 307.205 215.971 316.467 214.117 317.755C212.102 319.154 212.044 315.757 207.456 310.003C204.617 313.155 203.053 318.217 201.252 317.972C197.706 317.489 206.122 306.367 206.351 306.253C206.741 306.059 208.192 306.052 208.768 306.41ZM99.1309 304.84C101.155 304.816 101.71 310.714 103.397 312.115C104.443 312.983 109.886 313.709 110.062 315.664C110.36 318.969 102.605 315.806 100.939 314.35C100.647 314.095 95.646 304.881 99.1309 304.84ZM313.969 314.375C313.137 315.125 304.783 318.85 304.753 315.863C304.734 313.931 310.638 313.06 311.772 311.917C312.814 310.867 313.897 304.435 315.991 304.862C318.85 305.445 314.259 314.115 313.969 314.375ZM158.354 294.334C160.226 294.398 161.092 296.313 161.115 297.093C161.145 298.123 160.345 299.176 159.734 299.602C159.137 300.018 158.565 300.127 158.168 300.138C157.074 300.169 155.3 299.279 155.09 297.731C154.862 296.05 156.753 294.28 158.354 294.334ZM259.491 298.556C259.059 299.449 258.371 299.805 256.635 300.219C251.803 298.421 254.102 294.905 255.791 294.422C258.245 293.72 260.411 296.659 259.491 298.556ZM195.966 289.224C194.99 289.252 194.575 289.167 193.728 281.402C193.081 275.476 192.681 274.38 193.735 273.76C197.235 271.698 198.153 289.164 195.966 289.224ZM186.765 282.811C184.751 281.055 187.775 278.627 189.213 280.022C191.131 281.883 188.387 284.226 186.765 282.811ZM218.71 289.224C216.821 289.015 217.816 272.544 220.827 273.526C222.635 274.116 221.229 289.503 218.71 289.224ZM225.583 282.714C224.294 281.355 225.235 279.324 227.219 279.657C230.434 280.196 227.92 285.18 225.583 282.714ZM75.9394 268.519C77.8208 270.253 76.933 274.204 74.7079 274.795C70.5708 275.893 68.5861 268.659 73.3586 267.79C74.5723 267.568 75.5843 268.192 75.9394 268.519ZM344.216 272.331C343.825 273.674 342.028 275.191 340.219 274.735C337.045 273.933 337.364 268.911 339.763 267.929C341.849 267.075 345.125 269.205 344.216 272.331ZM86.575 256.888C87.3238 254.76 96.6522 259.805 97.7245 262.616C97.8182 262.861 95.357 277.007 92.2613 274.567C90.7156 273.348 93.6072 268.811 94.4259 263.848C92.1917 261.631 85.9483 258.67 86.575 256.888ZM328.301 256.913C328.778 258.513 324.499 260.501 320.411 263.744C320.987 268.379 324.977 274.257 321.905 274.763C319.356 275.183 317.054 263.007 317.13 262.76C317.947 260.109 327.58 254.496 328.301 256.913ZM159.682 266.353C160.059 264.628 169.459 263.961 170.587 264.655C171.347 265.124 176.835 273.189 175.492 274.684C174.195 276.129 173.543 275.134 169.073 267.405C164.551 267.768 159.077 269.122 159.682 266.353ZM244.388 264.558C245.562 263.983 256 263.676 254.833 267.647C252.678 268.635 253.554 267.754 245.714 267.547C243.316 271.648 241.493 275.629 239.884 275.05C237.09 274.045 243.773 264.859 244.388 264.558ZM115.5 255.039C116.751 253.418 119.471 253.597 120.347 255.555C120.871 256.725 120.38 258.246 119.549 259.026C119.205 259.348 118.124 260.033 117.049 259.801C115.554 259.479 114.998 257.869 114.922 257.43C114.714 256.218 115.349 255.233 115.5 255.039ZM296.938 253.922C297.735 253.887 298.422 254.15 298.928 254.593C300.123 255.64 300.046 257.605 299.727 258.29C299.476 258.829 298.445 259.876 297.197 259.849C295.425 259.81 293.824 257.612 294.366 255.821C294.607 255.026 295.469 253.987 296.938 253.922ZM150.485 244.611C150.775 245.191 150.505 254.748 148.627 255.25C145.242 256.155 148.088 247.441 147.47 246.101C146.493 243.982 137.083 242.195 140.371 239.457C141.941 238.15 150.181 244.002 150.485 244.611ZM274.97 240.267C275.128 241.389 274.225 241.896 267.326 245.82C267.833 252.977 268.701 254.923 266.841 255.248C264.206 255.707 263.758 245.517 264.437 244.365C265.814 242.028 274.591 237.581 274.97 240.267ZM163.891 253.996C160.271 254.662 160.117 248.8 163.487 249.17C165.701 249.413 166.94 253.436 163.891 253.996ZM167.515 232.455C169.695 233.13 168.644 240.06 170.503 244.779C176.78 246.274 182.305 245.467 182.567 247.685C183.031 251.612 168.678 247.438 168.45 247.271C167.25 246.397 163.544 231.224 167.515 232.455ZM250.318 253.709C247.698 252.332 249.803 248.868 252.06 249.264C255.916 249.94 253.107 255.175 250.318 253.709ZM248.408 232.5C249.578 233.062 249.181 234.424 248.708 237.482C247.324 246.413 247.599 246.331 246.705 247.099C245.172 248.416 231.853 250.849 232.284 247.703C232.624 245.221 243.298 245.644 244.436 244.661C245.985 243.323 244.719 230.727 248.408 232.5ZM75.9977 238.944C73.7158 243.641 66.9983 229.944 69.859 228.788C71.8394 227.987 76.1014 238.73 75.9977 238.944ZM345.464 229.147C347.718 231.462 339.412 244.422 338.657 238.467C338.628 238.238 343.21 226.831 345.464 229.147ZM186.953 219.828C188.762 220.073 189.14 225.011 189.467 225.372C190.165 226.141 195.938 226.233 195.054 228.674C194.402 230.473 187.823 228.622 187.112 227.981C186.386 227.325 184.044 219.433 186.953 219.828ZM225.267 225.489C226.074 223.369 226.475 219.955 227.979 219.802C231.07 219.488 228.066 227.634 227.71 227.971C226.899 228.74 219.65 230.888 219.731 228.176C219.768 226.946 221.338 226.517 225.267 225.489ZM132.347 228.402C130.778 227.08 132.214 224.339 134.34 225.328C137.064 226.595 134.141 229.913 132.347 228.402ZM141.384 220.183C142.537 224.056 126.171 220.409 125.856 219.531C124.596 216.021 140.94 218.694 141.384 220.183ZM206.342 233.145C204.801 231.694 207.185 230.337 208.333 231.091C210.102 232.252 207.759 234.478 206.342 233.145ZM280.502 228.632C278.826 227.877 279.394 225.343 281.006 225.134C284.089 224.733 283.66 230.053 280.502 228.632ZM273.804 221.456C270.422 217.481 288.376 217.664 288.787 218.119C291.874 221.537 274.401 222.157 273.804 221.456ZM97.0901 201.104C98.0109 198.397 108.252 205.264 108.808 206.721C109.982 209.795 97.6258 216.967 97.0251 213.732C96.6949 211.953 102.052 210.037 104.921 207.518C100.591 203.86 96.3728 203.212 97.0901 201.104ZM306.317 206.157C306.453 205.946 316.859 198.076 317.832 201.188C318.623 203.717 316.16 202.047 309.861 207.536C313.165 210.474 318.096 211.62 317.861 213.616C317.443 217.159 306.37 209.052 306.157 208.589C305.953 208.147 305.922 206.773 306.317 206.157ZM54.0367 209.367C53.5401 208.826 52.7872 208.191 52.8368 207.412C52.8763 206.792 53.5629 206.18 53.826 205.876C63.0931 205.9 63.755 205.902 64.8583 205.902C80.3248 205.901 74.8015 195.747 79.8841 198.362C82.0152 199.459 79.3223 201.214 73.8736 207.448C76.4759 210.98 81.6159 214.618 80.2756 216.355C78.9948 218.015 76.7568 214.705 71.178 209.084L54.0367 209.367ZM343.791 205.919C354.546 205.893 354.546 205.893 355.233 205.892C360.788 205.888 361.186 205.846 361.668 206.453C364.668 210.236 354.819 209.268 354.669 209.266C353.588 209.251 349.268 209.177 343.868 209.086C335.536 216.297 336.845 217.619 334.949 216.693C332.396 215.447 338.249 211.541 340.901 207.532C336.003 201.312 333.747 200.711 334.319 199.098C335.411 196.017 338.748 201.761 343.791 205.919ZM182.109 208.849C180.598 207.919 181.841 205.58 183.275 206.132C184.93 206.77 184.022 210.026 182.109 208.849ZM231.247 208.736C229.701 207.518 231.431 205.311 232.786 206.182C234.141 207.052 232.98 210.101 231.247 208.736ZM125.735 195.895C127.528 193.373 140.383 192.872 141.027 193.541C143.659 196.268 135.831 196.541 135.71 196.555C125.377 197.708 126.382 197.997 125.735 195.895ZM132.297 189.436C130.603 187.94 132.482 185.524 134.385 186.448C136.615 187.53 134.593 191.464 132.297 189.436ZM289.104 195.937C288.133 198.904 271.411 197.175 273.643 193.785C274.672 192.22 287.943 194.085 289.104 195.937ZM280.191 189.543C278.134 188.069 280.256 185.934 281.935 186.376C284.382 187.02 282.659 191.312 280.191 189.543ZM194.971 186.299C196.069 188.527 193.973 187.76 189.426 189.757C189.084 190.902 188.564 194.97 187.033 195.229C184.376 195.678 185.744 188.722 187.009 187.301C187.649 186.582 194.119 184.572 194.971 186.299ZM219.811 186.293C220.622 184.57 227.244 186.654 227.705 187.091C228.06 187.427 230.963 194.994 228.203 195.222C226.826 195.335 226.424 193.494 225.376 189.615C221.893 188.594 218.983 188.052 219.811 186.293ZM70.5285 186.381C65.112 186.896 75.3548 170.036 76.1838 176.558C76.3091 177.543 74.2415 178.765 72.6612 182.719C72.1266 184.057 71.8784 186.253 70.5285 186.381ZM344.92 186.303C342.693 187.09 338.64 176.481 338.716 176.257C340.541 170.892 348.482 185.044 344.92 186.303ZM206.277 183.814C205.436 182.814 206.345 181.229 207.877 181.612C210.729 182.325 207.747 185.565 206.277 183.814ZM182.475 167.711C181.811 169.327 173.926 169.509 170.291 170.407C168.26 179.347 169.355 183.799 166.553 182.579C164.418 181.649 167.628 168.532 168.018 168.101C168.213 167.886 184.124 163.698 182.475 167.711ZM162.348 165.753C159.053 164.285 162.106 159.51 164.834 161.56C165.124 161.778 165.789 162.45 165.788 163.338C165.786 164.179 164.344 166.642 162.348 165.753ZM247.032 168.221C247.398 168.658 250 181.34 248.637 182.371C245.425 184.8 246.034 176.322 244.559 170.464C237.702 168.591 232.645 169.454 232.225 167.467C231.368 163.405 246.842 167.994 247.032 168.221ZM251.644 166.042C248.524 164.764 248.855 163.1 249.339 162.253C250.398 160.397 252.746 161.187 253.445 162.101C254.077 162.927 254.731 164.667 251.644 166.042ZM147.526 168.801C148.062 167.482 145.751 160.892 147.644 159.901C150.921 158.185 150.609 170.198 150.515 170.394C149.718 172.059 141.26 177.087 140.1 175.364C138.55 173.062 146.855 170.454 147.526 168.801ZM264.34 170.399C263.803 169.228 264.386 160.234 266.278 159.843C269.025 159.276 267.616 164.106 267.252 169.141C274.515 173.359 275.086 173.747 275.012 174.698C274.726 178.369 264.724 171.235 264.34 170.399ZM294.321 157.841L294.493 157.275C295.1 155.785 296.756 155.08 297.738 155.242C298.35 155.342 299.589 155.97 299.871 157.496C300.124 158.868 299.335 160.856 297.533 161.174C296.923 161.281 295.197 161.128 294.498 159.557C294.162 158.8 294.268 158.112 294.321 157.841ZM115.351 159.856C114.67 158.807 114.869 157.376 115.094 156.89C115.492 156.034 116.673 155.233 117.497 155.181C117.566 155.176 119.464 155.182 120.304 157.124L120.474 157.644L120.546 158.171L120.526 158.692L120.42 159.196C120.141 160.126 119.495 160.75 118.818 161.021C117.989 161.352 117.009 161.206 116.212 160.697C115.969 160.542 115.64 160.3 115.351 159.856ZM92.3536 140.494C94.6982 138.795 98.8359 149.595 97.6736 152.533C97.3047 153.465 88.2016 160.446 86.6469 158.481C85.1924 156.643 91.7436 153.941 94.4253 151.197C93.8554 147.094 90.5881 141.773 92.3536 140.494ZM320.428 151.493C324.853 154.57 327.86 155.747 328.341 158.187C326.66 159.728 317.828 154.983 317.134 152.284C317.07 152.033 319.416 138.759 322.367 140.4C324.335 141.494 320.637 148.573 320.428 151.493ZM75.8923 140.981C77.677 142.489 77.2891 146.1 75.0286 147.069C70.439 149.036 69.6246 142.304 72.2337 140.722C73.4254 139.999 75.0518 140.271 75.8923 140.981ZM338.916 140.983C340.508 139.62 342.769 140.735 343.276 141.216C346.273 144.058 343.033 147.663 340.405 147.227C339.697 147.109 339.246 146.795 339.037 146.626C337.285 145.202 337.801 141.937 338.916 140.983ZM168.868 147.479C170.596 146.614 172.827 138.346 175.272 140.241C177.084 141.645 171.043 150.335 170.422 150.631C168.661 151.468 160.178 150.092 159.735 148.87C158.349 145.049 166.059 148.886 168.868 147.479ZM245.94 147.706C248.137 147.584 250.189 147.259 252.383 147.08C253.901 146.956 252.435 146.62 254.003 147.032C254.409 147.139 254.615 147.244 254.824 147.516C257.304 150.734 245.982 151.28 244.612 150.677C243.973 150.397 236.641 140.996 239.987 140.017C242.04 139.415 244.178 145.381 245.94 147.706ZM194.757 141.464C190.814 142.407 194.422 126.272 195.611 125.896C198.882 124.861 196.576 141.028 194.757 141.464ZM187.374 135.389C186.035 134.778 185.575 132.406 187.394 131.885C190.695 130.939 190.307 136.727 187.374 135.389ZM220.027 141.461C218.214 141.019 216.741 126.59 218.506 125.981C221.152 125.067 223.654 142.343 220.027 141.461ZM226.06 135.384C224.333 134.634 224.877 131.16 227.487 131.897C229.735 132.532 228.479 136.435 226.06 135.384ZM253.769 117.683C253.777 117.581 253.818 117.156 254.028 116.686C254.128 116.462 254.518 115.637 255.45 115.224C256.782 114.635 259.178 115.293 259.66 116.954C259.914 117.832 259.528 119.829 257.58 120.549C255.654 121.26 254.365 119.871 254.029 119.189C253.679 118.476 253.763 117.744 253.769 117.683ZM155.609 116.229L155.983 115.802L156.432 115.446L156.944 115.177C157.162 115.088 157.561 114.952 158.103 114.963C161.275 115.029 162.142 119.116 159.627 120.418C158.217 121.149 155.546 120.273 155.123 118.334C155.031 117.912 154.978 117.106 155.609 116.229ZM99.0917 110.251C95.9232 110.206 100.418 101.187 100.537 101.044C100.663 100.894 109.508 95.9254 110.088 98.9968C110.522 101.296 104.691 101.544 102.961 103.359C101.543 104.846 101.146 110.28 99.0917 110.251ZM304.848 98.7021C305.508 97.3188 306.678 97.8879 314.214 100.705C316.668 107.197 318.125 109.563 316.09 110.16C313.509 110.916 313.75 104.951 311.628 103.039C309.714 101.315 303.601 101.317 304.848 98.7021ZM207.385 105.067C211.694 100.341 211.39 97.1094 213.389 97.0792C216.956 97.0253 209.754 110.337 206.473 108.933C205.997 108.729 197.711 97.5374 201.306 97.0575C203.1 96.818 205.45 103.022 207.385 105.067ZM151.118 94.5842C153.716 91.8464 156.176 86.0661 157.971 86.6488C161.274 87.7212 152.848 97.5501 152.383 97.7232C150.911 98.2709 138.279 95.0469 140.426 92.4084C141.666 90.8851 144.918 93.3157 151.118 94.5842ZM274.504 92.4701C276.474 95.2731 263.901 98.3593 262.436 97.7638C261.978 97.5777 252.962 86.7052 257.16 86.5982C258.798 86.5564 261.492 92.3398 263.67 94.5083C266.97 94.2925 273.236 90.6664 274.504 92.4701ZM146.686 75.7189C145.562 77.3549 142.102 77.4869 140.859 76.0914C139.449 74.5074 140.326 71.0227 143.129 70.6555C146.074 70.2698 148.228 73.4751 146.686 75.7189ZM268.122 72.3872L268.355 72.0269L268.627 71.7169C269.782 70.5624 271.813 70.5702 272.4 70.7754C273.247 71.0713 274.77 72.647 274.742 74.1151C274.724 75.0059 274.123 75.9947 273.544 76.4461C272.161 77.5253 269.084 77.1552 268.114 75.6936C267.529 74.8121 267.612 73.314 268.122 72.3872ZM208.492 53.2351C209.659 54.0595 209.133 62.1587 208.982 71.0864C214.443 77.5654 217.768 78.6516 216.372 80.2454C214.79 82.0522 211.294 76.8388 207.419 74.0002C204.54 76.0025 199.775 82.5133 198.299 80.0761C197.211 78.2796 200.462 77.6262 205.811 71.1478L205.703 57.7029C205.697 56.9655 205.395 51.0465 208.492 53.2351ZM176.55 76.3626C169.366 75.8082 187.168 64.9224 186.287 70.71C186.13 71.7382 185.804 71.438 182.159 73.0148C178.322 74.6748 177.332 76.4229 176.55 76.3626ZM238.666 76.1569C237.374 76.6584 237.507 75.5671 234.854 74.0978C229.51 71.1382 229.51 72.4459 228.83 71.3053C225.122 65.0881 244.392 73.9352 238.666 76.1569Z" fill="black" stroke="black" stroke-width="0.1" stroke-linecap="round" stroke-linejoin="round"/>
</svg>
