<svg width="363" height="513" viewBox="0 0 363 513" fill="none" xmlns="http://www.w3.org/2000/svg">
<path d="M178.146 423.36C176.706 423.216 173.86 422.596 171.704 421.956C170.209 421.513 166.995 420.168 165.075 419.183C160.801 416.988 158.085 415.073 155.277 412.276C153.212 410.218 151.894 408.413 151.171 406.65L150.738 405.596L149.411 405.283C144.55 404.136 139.31 401.492 136.075 398.554L134.896 397.483L134.021 397.867C133.54 398.078 132.684 398.418 132.119 398.623C128.313 400.005 126.553 400.64 123.249 401.822C121.195 402.557 119.074 403.32 118.535 403.519C117.996 403.717 117.113 404.042 116.574 404.24C112.827 405.618 109.604 406.742 109.01 406.878C107.77 407.161 106.926 406.898 105.954 405.926C105.006 404.979 104.773 404.404 104.481 402.294C104.381 401.575 104.215 400.442 104.11 399.775C104.006 399.108 103.838 397.974 103.737 397.256C103.636 396.538 103.468 395.404 103.363 394.737C103.259 394.07 103.091 392.937 102.99 392.218C102.889 391.5 102.638 389.779 102.431 388.393C102.225 387.008 101.881 384.657 101.667 383.169C101.454 381.681 101.216 380.398 101.14 380.318C101.012 380.185 98.8928 380.273 90.8529 380.743C89.2611 380.836 86.4462 381 84.5977 381.107C81.342 381.296 78.7603 381.448 71.7138 381.864C69.8652 381.973 67.0083 382.14 65.3652 382.235C63.722 382.329 61.3936 382.465 60.1909 382.536C57.6345 382.687 56.79 382.468 55.6867 381.365C54.5833 380.263 54.3636 379.419 54.5149 376.864C54.5861 375.663 54.7219 373.336 54.8166 371.694C54.9114 370.052 55.0783 367.197 55.1876 365.35C55.6042 358.309 55.7559 355.729 55.9448 352.476C56.0519 350.629 56.2159 347.816 56.3091 346.225C56.7799 338.192 56.8675 336.074 56.7345 335.946C56.6546 335.87 55.3708 335.632 53.8817 335.419C52.3925 335.206 50.0398 334.862 48.6534 334.656C47.267 334.449 45.5445 334.198 44.8256 334.097C44.1067 333.996 42.9724 333.829 42.3048 333.724C41.6373 333.62 40.5029 333.452 39.784 333.351C39.0652 333.25 37.9308 333.082 37.2633 332.978C36.5957 332.874 35.4614 332.707 34.7425 332.608C32.6302 332.316 32.0548 332.083 31.1071 331.136C30.1349 330.164 29.8719 329.321 30.1549 328.082C30.2921 327.482 31.6477 323.606 32.7824 320.57C32.9742 320.057 33.9007 317.496 34.8414 314.879C36.3561 310.666 37.0136 308.847 38.4157 304.991C38.6209 304.426 38.9616 303.571 39.1728 303.09L39.5567 302.215L38.4851 301.037C35.5446 297.805 32.8984 292.569 31.7507 287.712L31.4373 286.385L30.3824 285.954C26.9235 284.538 22.6837 280.318 19.5597 275.182C17.5135 271.818 15.5464 267.326 14.6788 264.036C13.7701 260.59 13.668 259.826 13.668 256.479C13.668 253.132 13.7701 252.368 14.6788 248.922C15.5464 245.632 17.5135 241.14 19.5597 237.776C22.6837 232.64 26.9235 228.42 30.3824 227.004L31.4373 226.573L31.7507 225.246C32.8984 220.389 35.5446 215.153 38.4851 211.92L39.5567 210.742L39.1728 209.868C38.9616 209.387 38.6209 208.532 38.4157 207.967C37.0136 204.111 36.3561 202.292 34.8414 198.078C33.9007 195.462 32.9742 192.901 32.7824 192.388C31.6477 189.352 30.2921 185.476 30.1549 184.876C29.8719 183.637 30.135 182.794 31.1071 181.822C32.0548 180.875 32.6302 180.642 34.7425 180.35C35.4614 180.251 36.5957 180.084 37.2633 179.98C37.9308 179.876 39.0652 179.708 39.784 179.607C40.5029 179.506 41.6373 179.338 42.3048 179.233C42.9724 179.129 44.1067 178.961 44.8256 178.861C45.5445 178.76 47.267 178.508 48.6534 178.302C50.0398 178.096 52.3925 177.752 53.8817 177.539C55.3708 177.325 56.6546 177.088 56.7345 177.011C56.8674 176.884 56.7799 174.766 56.3091 166.732C56.216 165.142 56.052 162.329 55.9448 160.482C55.7559 157.229 55.6042 154.649 55.1876 147.608C55.0784 145.76 54.9114 142.906 54.8166 141.264C54.7219 139.622 54.5861 137.295 54.5149 136.093C54.3637 133.539 54.5834 132.695 55.6867 131.593C56.79 130.49 57.6345 130.271 60.1909 130.422C61.3936 130.493 63.722 130.629 65.3652 130.723C67.0083 130.818 69.8652 130.985 71.7138 131.094C78.7603 131.51 81.342 131.662 84.5977 131.85C86.4462 131.958 89.2611 132.121 90.8529 132.215C98.8928 132.685 101.012 132.772 101.14 132.64C101.216 132.56 101.454 131.277 101.667 129.789C101.881 128.301 102.225 125.95 102.431 124.565C102.638 123.179 102.889 121.458 102.99 120.74C103.091 120.021 103.259 118.888 103.363 118.221C103.468 117.554 103.636 116.42 103.737 115.702C103.838 114.984 104.006 113.85 104.11 113.183C104.215 112.516 104.381 111.383 104.481 110.664C104.773 108.553 105.006 107.978 105.954 107.031C106.926 106.06 107.77 105.797 109.01 106.08C109.604 106.215 112.827 107.339 116.574 108.718C117.113 108.916 117.996 109.241 118.535 109.439C119.074 109.638 121.195 110.401 123.249 111.136C126.553 112.318 128.313 112.953 132.119 114.335C132.684 114.54 133.54 114.88 134.021 115.091L134.896 115.475L136.075 114.404C139.31 111.466 144.55 108.821 149.411 107.675L150.738 107.361L151.171 106.307C152.56 102.92 156.736 98.6863 161.673 95.6567C163.735 94.3918 166.915 92.8041 169.09 91.9536C171.389 91.0547 172.662 90.6835 176.372 89.8294C177.737 89.5152 183.597 89.5152 184.962 89.8294C188.672 90.6835 189.945 91.0547 192.244 91.9536C197.638 94.0629 202.491 97.1295 206.057 100.682C208.122 102.739 209.44 104.545 210.163 106.307L210.596 107.361L211.923 107.675C216.784 108.821 222.024 111.466 225.259 114.404L226.438 115.475L227.313 115.091C227.794 114.88 228.65 114.54 229.215 114.335C233.02 112.953 234.781 112.318 238.084 111.136C240.138 110.401 242.26 109.638 242.799 109.439C243.338 109.241 244.221 108.916 244.76 108.718C248.507 107.339 251.73 106.215 252.324 106.08C253.563 105.797 254.408 106.06 255.38 107.031C256.327 107.978 256.561 108.553 256.853 110.664C256.952 111.383 257.119 112.516 257.224 113.183C257.328 113.85 257.496 114.984 257.597 115.702C257.698 116.42 257.866 117.554 257.97 118.221C258.075 118.888 258.243 120.021 258.344 120.74C258.445 121.458 258.696 123.179 258.903 124.565C259.109 125.95 259.453 128.301 259.666 129.789C259.88 131.277 260.117 132.56 260.194 132.64C260.322 132.772 262.441 132.685 270.481 132.215C272.073 132.121 274.888 131.958 276.736 131.85C279.992 131.662 282.573 131.51 289.62 131.094C291.469 130.985 294.325 130.818 295.969 130.723C297.612 130.629 299.94 130.493 301.143 130.422C303.699 130.271 304.544 130.49 305.647 131.593C306.75 132.695 306.97 133.539 306.819 136.093C306.748 137.295 306.612 139.622 306.517 141.264C306.422 142.906 306.255 145.76 306.146 147.608C305.73 154.649 305.578 157.229 305.389 160.482C305.282 162.329 305.118 165.142 305.025 166.732C304.554 174.766 304.466 176.884 304.599 177.011C304.679 177.088 305.963 177.325 307.452 177.539C308.941 177.752 311.294 178.096 312.68 178.302C314.067 178.508 315.789 178.76 316.508 178.861C317.227 178.961 318.361 179.129 319.029 179.233C319.697 179.338 320.831 179.506 321.55 179.607C322.269 179.708 323.403 179.876 324.071 179.98C324.738 180.084 325.872 180.251 326.591 180.35C328.704 180.642 329.279 180.875 330.227 181.822C331.199 182.794 331.462 183.637 331.179 184.876C331.042 185.476 329.686 189.352 328.551 192.388C328.36 192.901 327.433 195.462 326.492 198.078C324.978 202.292 324.32 204.111 322.918 207.967C322.713 208.532 322.372 209.387 322.161 209.868L321.777 210.742L322.849 211.92C325.789 215.153 328.435 220.389 329.583 225.246L329.897 226.573L330.951 227.004C334.41 228.42 338.65 232.64 341.774 237.776C344.432 242.146 346.212 246.62 347.357 251.814C347.787 253.761 347.787 259.196 347.357 261.144C346.212 266.338 344.432 270.811 341.774 275.182C338.65 280.318 334.41 284.538 330.951 285.954L329.897 286.385L329.583 287.712C328.435 292.569 325.789 297.805 322.849 301.037L321.777 302.215L322.161 303.09C322.372 303.571 322.713 304.426 322.918 304.991C324.32 308.847 324.978 310.666 326.492 314.879C327.433 317.496 328.36 320.057 328.551 320.57C329.686 323.606 331.042 327.482 331.179 328.082C331.462 329.321 331.199 330.164 330.227 331.136C329.279 332.083 328.704 332.316 326.591 332.608C325.872 332.707 324.738 332.874 324.071 332.978C323.403 333.082 322.269 333.25 321.55 333.351C320.831 333.452 319.697 333.62 319.029 333.724C318.361 333.829 317.227 333.996 316.508 334.097C315.789 334.198 314.067 334.449 312.68 334.656C311.294 334.862 308.941 335.206 307.452 335.419C305.963 335.632 304.679 335.87 304.599 335.946C304.466 336.074 304.554 338.192 305.025 346.225C305.118 347.816 305.282 350.629 305.389 352.476C305.578 355.729 305.73 358.309 306.146 365.35C306.255 367.197 306.422 370.052 306.517 371.694C306.612 373.336 306.748 375.663 306.819 376.864C306.97 379.419 306.75 380.263 305.647 381.365C304.544 382.468 303.699 382.687 301.143 382.536C299.94 382.465 297.612 382.329 295.969 382.235C294.325 382.14 291.469 381.973 289.62 381.864C282.573 381.448 279.992 381.296 276.736 381.107C274.888 381 272.073 380.836 270.481 380.743C262.441 380.273 260.322 380.185 260.194 380.318C260.117 380.398 259.88 381.681 259.666 383.169C259.453 384.657 259.109 387.008 258.903 388.393C258.696 389.779 258.445 391.5 258.344 392.218C258.243 392.937 258.075 394.07 257.97 394.737C257.866 395.404 257.698 396.538 257.597 397.256C257.496 397.974 257.328 399.108 257.224 399.775C257.119 400.442 256.952 401.575 256.853 402.294C256.561 404.404 256.327 404.979 255.38 405.926C254.408 406.898 253.563 407.161 252.324 406.878C251.73 406.742 248.507 405.618 244.76 404.24C244.221 404.042 243.338 403.717 242.799 403.519C242.26 403.32 240.138 402.557 238.084 401.822C234.781 400.64 233.02 400.005 229.215 398.623C228.65 398.418 227.794 398.078 227.313 397.867L226.438 397.483L225.259 398.554C222.024 401.492 216.784 404.136 211.923 405.283L210.596 405.596L210.163 406.65C208.773 410.038 204.598 414.271 199.66 417.301C197.599 418.566 194.419 420.154 192.244 421.004C189.948 421.902 188.589 422.298 185.088 423.092C184.143 423.307 179.426 423.489 178.146 423.36V423.36ZM185.708 417.169C190.387 415.898 193.928 414.29 198.007 411.584C200.232 410.109 203.634 406.995 203.634 406.434C203.634 406.166 203.418 406.118 202.187 406.113C200.028 406.104 196.171 405.532 193.547 404.832C189.898 403.857 184.791 401.694 182.034 399.954C181.39 399.548 180.775 399.215 180.667 399.215C180.559 399.215 179.944 399.548 179.299 399.954C176.543 401.694 171.436 403.857 167.786 404.832C165.163 405.532 161.306 406.104 159.147 406.113C157.916 406.118 157.7 406.166 157.7 406.434C157.7 406.607 158.488 407.52 159.452 408.463C163.415 412.34 170.137 415.898 175.999 417.221C176.769 417.395 177.483 417.569 177.586 417.607C177.689 417.645 179.243 417.647 181.04 417.613C183.6 417.564 184.612 417.468 185.708 417.17V417.169ZM110.683 400.351C110.919 400.257 111.596 400.005 112.186 399.791C114.478 398.96 115.349 398.642 116.294 398.295C116.833 398.096 118.493 397.503 119.982 396.976C121.471 396.449 123.13 395.856 123.67 395.657C124.209 395.459 125.112 395.129 125.677 394.924C126.242 394.718 127.166 394.383 127.731 394.177C129.302 393.606 130.898 393 130.968 392.948C131.002 392.922 130.62 392.202 130.119 391.347C128.885 389.244 128.272 387.899 127.538 385.688C126.863 383.653 126.144 380.461 126.144 379.503C126.144 379.171 126.079 378.86 126 378.811C125.86 378.725 123.387 378.837 116.247 379.255C114.347 379.366 111.551 379.522 110.034 379.601C108.517 379.68 107.201 379.823 107.111 379.918C106.954 380.083 107.04 380.782 108.033 387.46C108.254 388.948 108.506 390.67 108.592 391.285C108.678 391.901 108.846 393.034 108.965 393.804C109.084 394.574 109.252 395.707 109.339 396.323C109.976 400.873 109.905 400.66 110.684 400.351H110.683ZM161.078 400.322C164.991 399.826 169.242 398.641 172.402 397.165C175.18 395.867 177.493 394.516 177.488 394.195C177.487 394.031 176.888 393.226 176.158 392.405C175.429 391.584 174.652 390.702 174.431 390.446C174.21 390.189 172.761 388.534 171.211 386.767C169.66 385.001 168.249 383.253 168.073 382.884C167.692 382.081 168.094 381.878 163.898 384.993C160.577 387.458 159.176 388.346 157.046 389.333C153.722 390.876 150.549 391.565 146.777 391.565C142.269 391.565 138.903 390.563 135.246 388.132C134.541 387.663 134.601 387.945 135.504 389.344C137.129 391.861 139.688 394.468 142.094 396.06C143.459 396.964 146.538 398.478 148.084 399.006C151.925 400.319 157.026 400.836 161.078 400.322V400.322ZM207.835 400.256C211.386 399.709 213.363 399.112 216.238 397.717C218.599 396.571 220.005 395.641 221.787 394.044C223.401 392.597 224.717 391.067 225.829 389.344C226.733 387.945 226.793 387.663 226.087 388.132C222.43 390.563 219.065 391.565 214.557 391.565C210.785 391.565 207.612 390.876 204.287 389.334C202.158 388.346 200.757 387.458 197.436 384.993C193.239 381.878 193.642 382.081 193.261 382.884C193.085 383.253 191.673 385.001 190.123 386.767C188.573 388.534 187.124 390.189 186.903 390.446C186.682 390.702 185.905 391.584 185.175 392.405C184.446 393.226 183.848 394.031 183.845 394.195C183.837 394.793 189.243 397.494 192.76 398.648C197.859 400.321 203.5 400.923 207.835 400.256V400.256ZM251.328 400.356C251.423 400.203 251.61 399.072 251.995 396.323C252.082 395.707 252.25 394.574 252.369 393.804C252.488 393.035 252.656 391.901 252.742 391.285C252.828 390.67 253.08 388.948 253.301 387.46C254.294 380.782 254.38 380.083 254.223 379.918C254.133 379.823 252.817 379.68 251.3 379.601C249.782 379.522 246.986 379.366 245.086 379.255C237.946 378.837 235.473 378.725 235.334 378.811C235.255 378.86 235.19 379.171 235.19 379.503C235.19 380.461 234.47 383.653 233.796 385.688C233.062 387.899 232.449 389.244 231.215 391.347C230.714 392.202 230.331 392.922 230.366 392.948C230.436 393 232.032 393.606 233.603 394.177C234.168 394.383 235.092 394.718 235.657 394.924C236.222 395.129 237.125 395.459 237.664 395.657C238.203 395.856 239.863 396.449 241.352 396.976C242.841 397.503 244.501 398.097 245.04 398.295C245.96 398.633 246.458 398.815 249.148 399.792C249.738 400.006 250.39 400.252 250.595 400.339C251.093 400.549 251.208 400.551 251.328 400.356L251.328 400.356ZM182.916 386.434C186.481 382.325 189.105 379.437 189.275 379.437C189.367 379.437 189.443 379.358 189.443 379.261C189.443 379.01 181.21 372.86 180.76 372.775C180.505 372.727 179.122 373.653 176.372 375.713C174.164 377.368 172.252 378.823 172.123 378.947C171.936 379.127 172.089 379.381 172.871 380.192C174.08 381.444 179.955 388.148 180.169 388.519C180.472 389.045 180.997 388.647 182.916 386.434H182.916ZM149.877 385.673C151.998 385.271 153.98 384.59 155.615 383.701C157.843 382.489 157.756 382.551 171.073 372.605C174.68 369.911 177.915 367.534 178.262 367.322C178.782 367.005 179.204 366.938 180.667 366.938C182.13 366.938 182.552 367.005 183.072 367.322C183.419 367.534 186.654 369.911 190.261 372.605C203.578 382.551 203.491 382.489 205.719 383.701C208.253 385.079 211.709 385.968 214.531 385.968C220.21 385.968 224.788 383.129 226.452 378.577C227.068 376.893 227.139 373.82 226.607 371.85C225.79 368.826 225.603 368.599 219.786 363.553C215.317 359.678 209.438 354.56 200.805 347.028C199.711 346.073 198.686 345.293 198.528 345.293C198.37 345.293 198.113 345.473 197.959 345.694C197.804 345.915 196.854 346.98 195.849 348.06C192.661 351.486 188.457 354.821 185.522 356.252C184.09 356.951 181.434 357.794 180.667 357.794C179.899 357.794 177.244 356.951 175.812 356.252C172.877 354.821 168.673 351.486 165.485 348.06C164.479 346.98 163.53 345.915 163.375 345.694C163.22 345.473 162.964 345.293 162.806 345.293C162.648 345.293 161.623 346.073 160.529 347.028C151.896 354.56 146.017 359.678 141.548 363.553C135.731 368.599 135.544 368.826 134.727 371.85C134.195 373.82 134.266 376.893 134.881 378.577C136.212 382.218 139.461 384.836 143.696 385.682C145.404 386.023 148.051 386.019 149.877 385.673L149.877 385.673ZM146.552 375.527C145.698 375.006 145.315 374.167 145.423 373.049C145.521 372.024 145.945 371.344 146.887 370.698C148.169 369.819 149.976 370.588 150.585 372.27C151.41 374.55 148.632 376.794 146.552 375.527ZM212.113 375.539C210.324 374.448 210.095 372.469 211.591 371.02C212.744 369.903 214.361 370.16 215.453 371.633C215.966 372.324 216.085 373.799 215.689 374.563C215.052 375.795 213.312 376.269 212.113 375.539ZM163.229 365.002C161.034 363.674 161.11 360.52 163.37 359.197C164.292 358.657 165.629 358.566 166.439 358.989C167.013 359.289 167.824 360.117 168.134 360.719C168.494 361.419 168.388 362.98 167.925 363.803C167.042 365.374 164.793 365.948 163.229 365.002H163.229ZM194.598 365.002C193.566 364.377 192.993 363.349 192.992 362.119C192.99 361.026 193.166 360.575 193.9 359.782C194.603 359.023 195.273 358.726 196.279 358.726C198.833 358.726 200.537 361.595 199.295 363.803C198.411 365.374 196.163 365.948 194.598 365.002ZM70.4067 376.262C72.358 376.156 75.2988 375.99 76.942 375.893C86.0373 375.353 91.5588 375.033 96.2679 374.772C100.65 374.53 102.243 374.382 102.243 374.218C102.243 374.143 101.592 373.929 100.796 373.744C98.3372 373.171 94.2832 371.959 91.4131 370.939C88.6425 369.955 84.2426 367.979 82.1703 366.788C80.5767 365.872 79.1099 364.948 78.5023 364.477C78.1281 364.187 77.7594 363.95 77.6829 363.95C77.4151 363.95 64.8984 376.228 64.8984 376.491C64.8984 376.61 65.2627 376.639 65.8787 376.567C66.4178 376.505 68.4554 376.367 70.4067 376.262V376.262ZM296.435 376.469C296.435 376.222 283.903 363.95 283.651 363.95C283.574 363.95 283.206 364.187 282.832 364.477C282.224 364.948 280.757 365.872 279.164 366.788C277.091 367.979 272.691 369.955 269.921 370.939C267.051 371.959 262.997 373.171 260.538 373.744C259.742 373.929 259.091 374.143 259.091 374.218C259.091 374.382 260.684 374.53 265.066 374.772C269.936 375.042 276.803 375.44 284.392 375.894C286.035 375.992 289.102 376.163 291.207 376.273C293.313 376.383 295.119 376.503 295.222 376.541C295.607 376.68 296.435 376.631 296.435 376.469V376.469ZM64.3731 368.475C71.4416 361.277 73.1495 359.486 73.0853 359.34C73.0496 359.259 72.5468 358.479 71.9679 357.607C69.243 353.501 66.7223 347.992 65.0531 342.494C64.2134 339.728 63.6313 337.653 63.313 336.29C63.1273 335.495 62.9137 334.844 62.8384 334.844C62.6716 334.844 62.5237 336.465 62.2768 341.001C62.1735 342.9 62.0092 345.796 61.9118 347.438C61.8143 349.08 61.6458 351.935 61.5373 353.782C61.4289 355.629 61.2603 358.484 61.1627 360.126C61.0651 361.768 60.8989 364.706 60.7934 366.656C60.6877 368.606 60.5503 370.642 60.4877 371.181C60.4163 371.796 60.4447 372.16 60.5643 372.16C60.669 372.16 62.3829 370.502 64.373 368.475H64.3731ZM300.846 371.181C300.784 370.642 300.646 368.606 300.54 366.656C300.435 364.706 300.269 361.768 300.171 360.126C300.073 358.484 299.905 355.629 299.796 353.782C299.688 351.935 299.52 349.08 299.422 347.438C299.325 345.796 299.16 342.9 299.057 341.001C298.81 336.465 298.662 334.844 298.495 334.844C298.42 334.844 298.206 335.495 298.021 336.29C297.702 337.653 297.12 339.728 296.281 342.494C294.612 347.992 292.091 353.501 289.366 357.607C288.787 358.479 288.284 359.259 288.248 359.34C288.213 359.421 289.344 360.681 290.763 362.139C297.392 368.953 300.595 372.16 300.769 372.16C300.889 372.16 300.918 371.796 300.846 371.181H300.846ZM121.631 370.493C121.597 370.397 120.559 369.652 119.326 368.838C113.647 365.087 109.1 359.828 105.965 353.382C104.926 351.247 103.662 347.784 103.198 345.806C102.423 342.501 102.279 341.45 102.129 337.996L102.002 335.084L99.0884 334.958C97.4858 334.888 95.6284 334.747 94.9608 334.643C93.8235 334.466 93.3451 334.368 91.2264 333.877C89.3126 333.434 85.8146 332.156 83.6909 331.125C77.0455 327.897 71.5578 323.073 67.8115 317.165C67.2095 316.216 66.644 315.439 66.5546 315.439C66.1877 315.439 66.5203 322.657 67.0318 325.795C67.0819 326.102 67.2174 326.942 67.3327 327.66C68.8467 337.088 72.1008 346.884 75.886 353.409C77.1122 355.523 81.5488 359.956 83.6641 361.181C92.7891 366.467 108.044 370.539 119.11 370.643C120.643 370.657 121.668 370.597 121.631 370.494V370.493ZM87.63 353.566C86.6472 353.396 84.8721 351.993 84.1538 350.817C83.5283 349.793 83.4823 349.614 83.4799 348.191C83.4778 346.815 83.5332 346.573 84.0417 345.751C85.1096 344.024 87.1705 343.138 89.0434 343.601C91.4038 344.185 92.8765 345.658 93.4748 348.034C93.94 349.881 93.0591 351.962 91.3702 353.006C90.4879 353.551 88.9127 353.787 87.63 353.566ZM246.767 370.393C248.256 370.243 249.727 370.079 250.035 370.029C250.343 369.979 251.183 369.843 251.902 369.728C259.826 368.457 268.856 365.694 274.862 362.701C278.189 361.043 279.092 360.387 281.873 357.609C284.653 354.83 285.31 353.927 286.969 350.604C289.964 344.602 292.73 335.578 294.001 327.66C294.116 326.942 294.252 326.102 294.302 325.795C294.813 322.657 295.146 315.439 294.779 315.439C294.69 315.439 294.124 316.216 293.522 317.165C289.776 323.073 284.288 327.897 277.643 331.125C275.506 332.162 272.04 333.426 270.061 333.89C266.753 334.664 265.702 334.808 262.245 334.958L259.332 335.084L259.205 337.996C259.013 342.404 258.6 344.653 257.2 348.904C254.564 356.906 248.978 364.235 242.008 368.838C240.774 369.652 239.737 370.397 239.703 370.493C239.607 370.761 243.706 370.703 246.767 370.393L246.767 370.393ZM270.833 353.443C269.254 352.851 268.308 351.757 267.86 350.004C267.652 349.189 267.651 348.859 267.856 348.045C268.459 345.653 269.925 344.186 272.302 343.598C274.098 343.154 276.191 344.007 277.198 345.595C278.275 347.291 278.186 349.305 276.956 351.107C275.872 352.695 274.555 353.487 272.8 353.608C271.962 353.665 271.271 353.608 270.833 353.444L270.833 353.443ZM131.008 365.863C131.544 364.863 132.586 363.037 133.323 361.805C134.695 359.511 135.667 357.512 135.667 356.982C135.667 356.818 135.395 356.544 135.064 356.372C134.732 356.201 133.913 355.704 133.243 355.268C130.691 353.607 123.538 349.215 121.951 348.334C120.088 347.301 119.608 346.685 119.608 345.33C119.608 344.293 119.607 344.295 122.389 340.466C123.684 338.684 125.457 336.239 126.33 335.033C128.792 331.632 130.056 329.897 131.344 328.154C132.236 326.948 132.486 326.479 132.354 326.265C132.257 326.109 131.513 325.623 130.701 325.186L129.225 324.391L127.357 324.484C126.33 324.536 124.818 324.66 123.996 324.761C123.175 324.862 121.746 325.033 120.822 325.141C119.898 325.25 118.343 325.439 117.368 325.563C116.392 325.687 115.033 325.79 114.347 325.791C112.998 325.795 112.446 325.529 111.684 324.51C111.225 323.897 111.18 322.488 111.531 319.731C111.655 318.756 111.845 317.202 111.953 316.279C112.061 315.355 112.233 313.928 112.333 313.107C112.434 312.286 112.559 310.775 112.61 309.748L112.704 307.883L111.908 306.407C111.47 305.596 110.984 304.853 110.828 304.756C110.614 304.623 110.144 304.874 108.937 305.765C107.193 307.052 105.458 308.315 102.054 310.775C100.847 311.647 98.4002 313.419 96.6166 314.713C92.7852 317.493 92.7873 317.492 91.7492 317.492C90.3925 317.492 89.7766 317.012 88.7423 315.151C87.8614 313.565 83.4657 306.417 81.8034 303.867C81.3671 303.198 80.8699 302.379 80.6985 302.048C80.5271 301.716 80.2524 301.445 80.0882 301.445C79.5579 301.445 77.5576 302.416 75.2615 303.788C74.0291 304.524 72.194 305.569 71.1833 306.11C69.1274 307.21 69.2117 307.015 69.9363 309.002C73.0324 317.493 81.3364 325.025 90.7949 327.924C94.73 329.13 96.0894 329.311 101.317 329.326C108.108 329.346 107.746 328.983 107.765 335.769C107.78 340.993 107.961 342.351 109.168 346.283C111.325 353.312 116.138 359.904 122.086 363.975C123.672 365.06 127.166 366.922 127.67 366.95C127.806 366.957 128.254 367.119 128.664 367.309C129.89 367.876 129.948 367.84 131.008 365.863H131.008ZM233.23 367.126C241.721 364.034 249.267 355.729 252.166 346.283C253.373 342.351 253.554 340.993 253.569 335.769C253.588 328.983 253.226 329.345 260.016 329.326C265.244 329.31 266.604 329.13 270.539 327.924C279.997 325.025 288.301 317.493 291.398 309.002C292.122 307.015 292.206 307.21 290.15 306.11C289.14 305.569 287.305 304.524 286.072 303.788C283.776 302.416 281.776 301.445 281.246 301.445C281.081 301.445 280.807 301.716 280.635 302.048C280.464 302.379 279.967 303.198 279.53 303.867C277.868 306.417 273.472 313.565 272.592 315.151C271.557 317.012 270.941 317.492 269.585 317.492C268.547 317.492 268.549 317.493 264.717 314.713C262.934 313.419 260.487 311.647 259.28 310.775C255.876 308.315 254.141 307.052 252.396 305.765C251.189 304.874 250.72 304.623 250.506 304.756C250.349 304.853 249.863 305.596 249.426 306.407L248.63 307.883L248.724 309.748C248.775 310.775 248.9 312.286 249 313.107C249.101 313.928 249.272 315.355 249.381 316.279C249.489 317.202 249.679 318.756 249.803 319.731C250.154 322.488 250.108 323.897 249.65 324.51C248.888 325.529 248.336 325.795 246.987 325.791C246.301 325.79 244.942 325.687 243.966 325.563C242.991 325.439 241.436 325.25 240.512 325.141C239.588 325.033 238.159 324.862 237.338 324.761C236.516 324.66 235.003 324.536 233.977 324.484L232.109 324.391L230.633 325.186C229.821 325.623 229.077 326.109 228.98 326.265C228.847 326.479 229.098 326.948 229.99 328.154C231.278 329.897 232.542 331.632 235.003 335.033C235.876 336.239 237.65 338.684 238.945 340.466C241.727 344.295 241.726 344.293 241.726 345.33C241.726 346.685 241.246 347.301 239.383 348.334C237.796 349.215 230.643 353.607 228.091 355.268C227.421 355.704 226.601 356.201 226.27 356.372C225.939 356.544 225.667 356.818 225.667 356.982C225.667 357.512 226.639 359.511 228.011 361.805C228.748 363.037 229.794 364.87 230.335 365.88C231.437 367.935 231.241 367.85 233.23 367.126H233.23ZM146.963 351.241C157.657 341.93 159.194 340.569 159.194 340.417C159.194 340.325 158.493 339.055 157.637 337.594C154.458 332.169 152.902 328.216 152.116 323.57L151.798 321.69L150.781 321.735C150.222 321.76 149.071 321.865 148.224 321.968C147.376 322.072 145.948 322.243 145.049 322.348C144.151 322.454 142.785 322.617 142.015 322.711C141.245 322.805 139.999 322.938 139.247 323.006C137.621 323.153 137.417 323.407 138.236 324.268C139.876 325.991 141.788 329.961 142.756 333.652C143.612 336.917 143.777 338.475 143.774 343.24C143.77 347.959 143.657 349.062 142.749 353.174C142.293 355.235 142.297 355.329 142.809 354.87C143.04 354.663 144.909 353.03 146.963 351.241H146.963ZM218.592 353.203C217.676 349.06 217.563 347.966 217.56 343.24C217.556 338.475 217.722 336.917 218.578 333.652C219.545 329.961 221.457 325.991 223.097 324.268C223.916 323.407 223.713 323.153 222.086 323.006C221.334 322.938 220.089 322.805 219.319 322.711C218.548 322.617 217.183 322.454 216.284 322.348C215.386 322.243 213.957 322.072 213.11 321.968C212.263 321.865 211.112 321.76 210.553 321.735L209.536 321.69L209.218 323.57C208.432 328.216 206.876 332.169 203.697 337.594C202.841 339.055 202.14 340.328 202.14 340.422C202.14 340.517 205.304 343.352 209.171 346.722C213.038 350.092 216.798 353.369 217.527 354.005C218.256 354.641 218.876 355.094 218.905 355.012C218.934 354.93 218.793 354.116 218.592 353.203V353.203ZM182.775 351.262C187.658 348.771 192.908 343.678 197.276 337.194C201.673 330.666 204.392 323.254 203.67 319.761C203.548 319.168 203.447 318.483 203.447 318.239C203.447 317.482 204.183 316.223 204.876 315.795C205.576 315.363 206.044 315.362 209.142 315.795C209.861 315.895 211.29 316.065 212.317 316.173C213.344 316.281 214.898 316.454 215.771 316.558C219.785 317.036 221.241 317.204 225.387 317.672C226.311 317.777 227.782 317.947 228.655 318.051C233.268 318.599 239.108 319.27 241.873 319.57C242.93 319.685 243.844 319.73 243.904 319.669C243.964 319.609 243.919 318.696 243.805 317.64C243.505 314.877 242.833 309.042 242.284 304.432C242.18 303.559 242.01 302.09 241.906 301.166C241.437 297.023 241.268 295.569 240.79 291.557C240.686 290.685 240.513 289.132 240.405 288.106C240.297 287.079 240.127 285.652 240.027 284.934C239.595 281.838 239.595 281.37 240.027 280.67C240.609 279.729 241.865 279.16 242.998 279.324C245.126 279.632 245.999 279.637 247.492 279.353C255.211 277.882 265.779 271.189 271.957 263.857C274.299 261.078 276.264 257.713 276.264 256.48C276.264 255.247 274.299 251.882 271.957 249.102C265.779 241.771 255.211 235.078 247.492 233.607C245.999 233.322 245.126 233.328 242.998 233.636C241.865 233.8 240.609 233.231 240.027 232.289C239.594 231.589 239.594 231.122 240.027 228.026C240.127 227.308 240.297 225.88 240.405 224.854C240.513 223.828 240.686 222.274 240.79 221.402C241.268 217.391 241.437 215.936 241.906 211.793C242.01 210.87 242.18 209.4 242.284 208.528C242.833 203.918 243.505 198.083 243.805 195.32C243.92 194.264 243.964 193.351 243.904 193.29C243.844 193.23 242.93 193.275 241.873 193.389C239.108 193.689 233.268 194.36 228.655 194.909C227.782 195.013 226.311 195.183 225.387 195.287C221.241 195.755 219.785 195.924 215.771 196.402C214.898 196.506 213.344 196.679 212.317 196.787C211.29 196.894 209.861 197.064 209.142 197.165C206.044 197.596 205.576 197.596 204.876 197.164C204.183 196.736 203.447 195.477 203.447 194.72C203.447 194.476 203.548 193.791 203.67 193.198C204.392 189.705 201.673 182.293 197.276 175.765C192.908 169.281 187.658 164.188 182.775 161.696C180.927 160.754 180.407 160.754 178.558 161.696C173.675 164.188 168.426 169.281 164.058 175.765C159.661 182.293 156.942 189.705 157.664 193.198C157.786 193.791 157.887 194.476 157.887 194.72C157.887 195.477 157.151 196.736 156.458 197.164C155.758 197.596 155.29 197.597 152.192 197.165C151.473 197.064 150.044 196.894 149.017 196.787C147.99 196.679 146.436 196.506 145.563 196.402C141.549 195.924 140.093 195.755 135.947 195.287C135.022 195.183 133.552 195.013 132.679 194.909C128.066 194.36 122.226 193.689 119.461 193.389C118.404 193.274 117.49 193.23 117.43 193.29C117.37 193.351 117.414 194.264 117.529 195.32C117.829 198.083 118.501 203.918 119.05 208.528C119.153 209.4 119.324 210.87 119.428 211.793C119.897 215.936 120.066 217.391 120.544 221.402C120.648 222.275 120.821 223.828 120.929 224.854C121.037 225.88 121.207 227.308 121.307 228.026C121.739 231.122 121.739 231.589 121.306 232.289C120.724 233.231 119.469 233.8 118.335 233.636C116.207 233.328 115.334 233.322 113.841 233.607C106.122 235.078 95.5541 241.771 89.376 249.102C87.0339 251.882 85.0694 255.247 85.0694 256.48C85.0694 257.713 87.0339 261.078 89.376 263.857C95.5541 271.189 106.122 277.882 113.841 279.353C115.334 279.637 116.207 279.632 118.335 279.324C119.469 279.16 120.724 279.729 121.306 280.67C121.739 281.37 121.739 281.838 121.307 284.934C121.207 285.652 121.037 287.079 120.929 288.106C120.821 289.132 120.648 290.685 120.544 291.557C120.066 295.569 119.897 297.023 119.428 301.167C119.324 302.09 119.153 303.559 119.05 304.432C118.501 309.042 117.829 314.877 117.529 317.64C117.414 318.696 117.37 319.609 117.43 319.669C117.49 319.73 118.404 319.685 119.461 319.571C122.226 319.271 128.066 318.599 132.679 318.051C133.552 317.947 135.022 317.777 135.947 317.672C140.093 317.204 141.549 317.036 145.563 316.558C146.436 316.454 147.99 316.281 149.017 316.173C150.044 316.065 151.473 315.895 152.192 315.795C155.29 315.363 155.758 315.363 156.458 315.795C157.151 316.223 157.887 317.482 157.887 318.239C157.887 318.483 157.786 319.168 157.664 319.761C157.067 322.648 158.89 328.496 162.138 334.115C165.773 340.405 171.225 346.576 175.944 349.742C177.77 350.967 179.936 352.005 180.667 352.005C181.06 352.005 181.899 351.71 182.775 351.262V351.262ZM178.969 334.964C177.455 334.482 176.021 333.118 175.31 331.485C174.843 330.411 174.926 328.573 175.493 327.457C177.194 324.104 181.736 323.328 184.657 325.891C187.188 328.112 186.766 332.24 183.805 334.233C182.395 335.182 180.535 335.463 178.969 334.964ZM179.175 316.772C178.424 316.37 177.675 315.096 177.688 314.244C177.7 313.423 178.222 312.483 179.019 311.843C179.58 311.392 179.882 311.291 180.667 311.291C181.452 311.291 181.754 311.392 182.314 311.843C183.64 312.907 183.962 314.239 183.23 315.623C182.714 316.599 181.822 317.118 180.667 317.118C180.199 317.118 179.532 316.963 179.175 316.772V316.772ZM130.8 310.737C129.727 310.418 128.007 309.085 127.256 307.991C125.94 306.076 125.822 303.947 126.887 301.389C127.639 299.584 128.695 298.46 130.396 297.655C131.556 297.106 131.795 297.062 133.519 297.073C135.194 297.083 135.512 297.143 136.6 297.65C138.129 298.363 138.751 298.985 139.464 300.513C139.972 301.6 140.032 301.918 140.043 303.591C140.054 305.314 140.009 305.553 139.46 306.712C138.654 308.41 137.53 309.465 135.715 310.226C134.119 310.895 132.051 311.11 130.8 310.737ZM226.414 310.523C223.927 309.64 222.822 308.71 221.868 306.698C221.326 305.555 221.28 305.31 221.291 303.591C221.301 301.918 221.361 301.6 221.869 300.513C222.583 298.985 223.205 298.363 224.734 297.65C225.822 297.143 226.14 297.083 227.815 297.073C229.539 297.062 229.778 297.106 230.937 297.655C232.639 298.46 233.695 299.584 234.446 301.389C235.867 304.798 235.1 307.795 232.303 309.763C230.478 311.047 228.582 311.292 226.414 310.523V310.523ZM163.115 309.11C157.429 308.429 151.676 305.214 147.679 300.484C146.116 298.634 145.308 297.424 144.214 295.295L143.403 293.715L141.822 292.904C135.998 289.917 131.574 285.095 129.369 279.333C128.234 276.366 127.955 274.8 127.939 271.312C127.923 268.079 128.011 267.423 128.813 264.782C129.541 262.383 131.11 259.545 132.914 257.365L133.647 256.479L132.914 255.593C131.11 253.413 129.541 250.575 128.813 248.176C128.011 245.535 127.924 244.879 127.939 241.646C127.951 239.003 128.024 238.194 128.376 236.794C129.724 231.444 132.471 227.024 136.629 223.516C138.481 221.954 139.692 221.146 141.822 220.054L143.403 219.243L144.214 217.663C147.204 211.844 152.029 207.423 157.795 205.22C160.765 204.086 162.332 203.807 165.822 203.79C169.059 203.775 169.715 203.863 172.358 204.664C174.759 205.391 177.598 206.959 179.78 208.762L180.667 209.495L181.554 208.762C183.736 206.959 186.575 205.391 188.976 204.664C191.619 203.863 192.275 203.775 195.511 203.79C198.156 203.802 198.966 203.876 200.366 204.228C205.721 205.574 210.144 208.319 213.654 212.474C215.218 214.324 216.026 215.534 217.12 217.663L217.931 219.243L219.512 220.054C225.336 223.041 229.76 227.863 231.964 233.625C233.1 236.592 233.379 238.157 233.395 241.646C233.411 244.879 233.323 245.535 232.521 248.176C231.793 250.575 230.224 253.413 228.42 255.593L227.686 256.479L228.42 257.365C230.224 259.545 231.793 262.383 232.521 264.782C233.323 267.423 233.41 268.079 233.395 271.312C233.383 273.955 233.31 274.764 232.957 276.163C231.61 281.514 228.863 285.934 224.705 289.442C222.853 291.004 221.642 291.811 219.512 292.904L217.931 293.715L217.12 295.295C214.13 301.114 209.305 305.535 203.538 307.738C200.569 308.872 199.002 309.151 195.511 309.168C192.275 309.183 191.619 309.095 188.976 308.294C186.575 307.567 183.736 305.999 181.554 304.196L180.667 303.463L179.78 304.196C177.895 305.753 175.037 307.407 173.011 308.111C170.347 309.038 166.093 309.467 163.115 309.11V309.11ZM169.93 303.089C171.964 302.562 174.307 301.327 176.146 299.814C177.318 298.85 177.678 298.444 177.679 298.087C177.68 297.363 173.568 285.213 173.322 285.213C173.203 285.213 172.138 285.513 170.957 285.879C169.776 286.245 167.718 286.881 166.383 287.292C160.941 288.968 159.072 289.544 154.455 290.97C151.798 291.79 149.544 292.541 149.447 292.638C149.181 292.904 150.678 295.287 152.226 297.064C155.358 300.657 159.925 303.11 164.329 303.565C165.719 303.708 168.429 303.478 169.93 303.089V303.089ZM199.114 303.196C202.759 302.358 206.487 300.071 209.107 297.064C210.656 295.287 212.153 292.904 211.886 292.638C211.732 292.483 209.499 291.772 199.666 288.744C194.237 287.073 192.416 286.511 190.377 285.879C189.195 285.513 188.131 285.214 188.011 285.213C187.731 285.213 183.609 297.551 183.688 298.153C183.77 298.776 186.327 300.867 188.193 301.837C191.516 303.564 195.407 304.049 199.114 303.196V303.196ZM180.941 287.965C180.982 287.836 182.618 282.886 184.576 276.963C186.534 271.041 188.136 266.064 188.136 265.903C188.136 265.521 189.72 263.942 190.104 263.942C190.267 263.942 195.248 262.341 201.172 260.385C207.096 258.428 212.048 256.794 212.176 256.752C212.305 256.711 212.41 256.588 212.41 256.479C212.41 256.37 212.305 256.247 212.176 256.205C212.048 256.164 207.096 254.529 201.172 252.573C195.248 250.616 190.267 249.016 190.104 249.016C189.72 249.016 188.136 247.437 188.136 247.054C188.136 246.894 186.534 241.917 184.576 235.994C182.618 230.072 180.982 225.121 180.941 224.993C180.899 224.865 180.776 224.76 180.667 224.76C180.558 224.76 180.435 224.865 180.393 224.993C180.352 225.121 178.716 230.072 176.758 235.994C174.8 241.917 173.198 246.894 173.198 247.054C173.198 247.437 171.614 249.016 171.23 249.016C171.066 249.016 166.086 250.616 160.162 252.573C154.238 254.529 149.286 256.164 149.157 256.205C149.029 256.247 148.924 256.37 148.924 256.479C148.924 256.588 149.029 256.711 149.157 256.752C149.286 256.794 154.238 258.428 160.162 260.385C166.086 262.341 171.066 263.942 171.23 263.942C171.614 263.942 173.198 265.521 173.198 265.903C173.198 266.064 174.8 271.041 176.758 276.963C178.716 282.886 180.352 287.836 180.393 287.965C180.435 288.093 180.558 288.198 180.667 288.198C180.776 288.198 180.899 288.093 180.941 287.965ZM179.359 260.98C177.19 260.269 176.1 258.763 176.1 256.479C176.1 254.502 176.854 253.203 178.52 252.315C179.573 251.753 181.761 251.753 182.814 252.315C184.48 253.203 185.234 254.502 185.234 256.479C185.234 258.459 184.465 259.78 182.82 260.626C182.015 261.039 180.128 261.232 179.359 260.98ZM144.638 287.405C144.741 287.174 145.459 284.928 146.234 282.414C149.717 271.114 150.372 268.992 151.244 266.181C151.611 265.001 151.911 263.938 151.911 263.818C151.912 263.538 139.564 259.418 138.962 259.498C138.315 259.583 136.213 262.183 135.22 264.129C133.989 266.538 133.554 268.399 133.562 271.219C133.569 273.636 133.835 275.188 134.563 277.058C136.289 281.489 139.212 284.821 143.793 287.581C144.321 287.898 144.428 287.876 144.638 287.405ZM217.772 287.429C221.813 285.161 225.082 281.394 226.771 277.058C227.499 275.188 227.765 273.636 227.772 271.219C227.781 268.399 227.345 266.538 226.114 264.129C225.12 262.183 223.019 259.583 222.372 259.498C221.769 259.418 209.422 263.538 209.423 263.818C209.423 263.938 209.723 265.001 210.089 266.181C210.962 268.992 211.617 271.114 215.1 282.414C216.504 286.967 216.801 287.825 216.975 287.825C217.025 287.825 217.384 287.647 217.772 287.429V287.429ZM153.828 285.322C154.982 284.972 157.439 284.212 159.287 283.634C164.261 282.079 167.083 281.205 169.277 280.54C170.355 280.214 171.336 279.851 171.458 279.734C171.626 279.572 171.28 278.331 169.997 274.484C169.073 271.713 168.176 269.305 168.003 269.133C167.831 268.961 165.421 268.064 162.648 267.141C158.799 265.858 157.556 265.513 157.394 265.681C157.277 265.802 156.914 266.783 156.587 267.86C155.922 270.053 155.047 272.872 153.491 277.843C151.772 283.333 151.165 285.379 151.165 285.677C151.165 286.078 151.47 286.038 153.828 285.322V285.322ZM210.169 285.677C210.169 285.379 209.562 283.333 207.843 277.843C206.286 272.872 205.412 270.053 204.747 267.86C204.419 266.783 204.056 265.802 203.94 265.681C203.777 265.513 202.535 265.858 198.686 267.141C195.913 268.064 193.503 268.961 193.331 269.133C193.158 269.306 192.261 271.713 191.337 274.484C190.053 278.331 189.708 279.572 189.876 279.734C189.997 279.851 190.979 280.214 192.057 280.54C194.829 281.38 198.467 282.512 207.368 285.301C209.621 286.007 210.169 286.081 210.169 285.677V285.677ZM145.703 251.426C149.131 250.284 151.911 249.26 151.911 249.14C151.911 249.02 151.611 247.957 151.244 246.777C150.612 244.738 150.05 242.919 148.377 237.494C145.35 227.676 144.636 225.438 144.482 225.285C144.166 224.969 141.914 226.406 139.821 228.26C138.275 229.628 136.36 232.082 135.516 233.775C134.027 236.763 133.571 238.623 133.562 241.739C133.554 244.56 133.989 246.423 135.221 248.829C136.294 250.925 138.386 253.488 139.028 253.491C139.284 253.493 142.288 252.563 145.703 251.426ZM224.037 251.952C225.565 250.094 226.776 247.794 227.352 245.657C227.888 243.666 227.938 240.116 227.457 238.139C226.191 232.932 222.569 228.221 217.751 225.517C217.302 225.265 216.96 225.176 216.852 225.285C216.698 225.438 216.02 227.563 212.971 237.447C212.575 238.73 211.914 240.871 211.502 242.205C209.651 248.192 209.36 249.202 209.457 249.299C209.692 249.533 221.698 253.465 222.213 253.477C222.693 253.487 222.953 253.27 224.037 251.952H224.037ZM162.928 245.722C165.547 244.852 167.831 243.999 168.003 243.826C168.176 243.653 169.073 241.244 169.997 238.474C171.28 234.627 171.626 233.386 171.458 233.224C171.336 233.107 170.355 232.744 169.277 232.417C167.083 231.752 164.261 230.879 159.287 229.324C153.793 227.606 151.745 226.999 151.447 226.999C150.958 226.999 150.99 227.127 153.491 235.115C154.97 239.838 155.897 242.825 156.59 245.097C157.251 247.264 157.433 247.596 157.87 247.422C158.033 247.357 160.309 246.592 162.928 245.722ZM203.961 247.29C204.063 247.161 204.415 246.175 204.744 245.097C205.437 242.825 206.364 239.838 207.843 235.115C209.562 229.625 210.169 227.579 210.169 227.281C210.169 226.792 210.041 226.824 202.047 229.324C197.073 230.879 194.251 231.752 192.057 232.417C190.979 232.744 189.997 233.107 189.876 233.224C189.708 233.386 190.054 234.627 191.337 238.474C192.262 241.244 193.138 243.637 193.284 243.791C193.478 243.996 202.808 247.331 203.658 247.5C203.722 247.512 203.858 247.418 203.961 247.29V247.29ZM175.61 221.541C176.748 218.129 177.679 215.127 177.679 214.871C177.679 214.228 175.12 212.141 173.019 211.069C170.6 209.836 168.74 209.401 165.916 209.409C162.798 209.418 160.936 209.874 157.946 211.362C156.163 212.249 153.706 214.196 152.226 215.893C150.678 217.67 149.181 220.054 149.447 220.32C149.602 220.475 151.835 221.186 161.668 224.213C167.534 226.02 168.936 226.454 170.864 227.064C171.994 227.422 173.058 227.721 173.229 227.73C173.475 227.742 173.975 226.441 175.61 221.541V221.541ZM190.377 227.079C192.416 226.446 194.237 225.885 199.666 224.213C209.499 221.186 211.732 220.474 211.886 220.32C212.153 220.054 210.656 217.67 209.107 215.893C207.628 214.196 205.171 212.249 203.388 211.362C200.397 209.874 198.536 209.418 195.418 209.409C192.596 209.4 190.734 209.836 188.322 211.066C186.375 212.059 183.773 214.158 183.688 214.805C183.609 215.407 187.731 227.745 188.011 227.744C188.131 227.744 189.195 227.444 190.377 227.079V227.079ZM106.538 262.083C103.842 261.499 101.87 259.132 101.87 256.479C101.87 254.209 103.332 252.113 105.604 251.126C106.679 250.66 108.519 250.743 109.635 251.309C112.991 253.009 113.767 257.547 111.202 260.466C110.094 261.728 108.097 262.42 106.538 262.083V262.083ZM252.929 262.09C251.238 261.742 249.869 260.555 249.051 258.728C247.849 256.04 249.06 252.646 251.698 251.309C252.815 250.743 254.655 250.659 255.73 251.126C258.002 252.113 259.464 254.209 259.464 256.479C259.464 259.857 256.104 262.742 252.929 262.09V262.09ZM121.478 259.04C120.502 258.524 119.982 257.633 119.982 256.479C119.982 255.324 120.502 254.433 121.478 253.918C122.863 253.186 124.197 253.508 125.262 254.832C125.712 255.393 125.813 255.694 125.813 256.479C125.813 257.263 125.712 257.565 125.262 258.125C124.197 259.449 122.863 259.771 121.478 259.04V259.04ZM237.261 259.129C236.91 258.954 236.376 258.502 236.072 258.125C235.621 257.565 235.52 257.263 235.52 256.479C235.52 255.694 235.621 255.393 236.072 254.832C237.137 253.508 238.471 253.186 239.856 253.918C240.832 254.433 241.352 255.324 241.352 256.479C241.352 257.633 240.832 258.524 239.856 259.04C238.91 259.54 238.138 259.566 237.261 259.129ZM131.698 215.8C129.481 215.239 127.801 213.761 126.887 211.569C125.463 208.151 126.233 205.164 129.048 203.183C131.028 201.79 133.108 201.652 135.724 202.74C137.529 203.491 138.654 204.546 139.46 206.246C140.009 207.405 140.054 207.644 140.043 209.367C140.032 211.04 139.972 211.358 139.464 212.445C138.751 213.972 138.123 214.6 136.628 215.283C135.311 215.885 132.992 216.128 131.698 215.8V215.8ZM226.227 215.83C225.2 215.609 223.572 214.791 222.978 214.199C222.68 213.901 222.181 213.112 221.869 212.445C221.361 211.358 221.302 211.04 221.291 209.367C221.281 207.644 221.325 207.405 221.874 206.246C222.68 204.546 223.804 203.491 225.61 202.74C228.226 201.652 230.306 201.79 232.286 203.183C235.101 205.164 235.871 208.151 234.446 211.569C233.33 214.25 231.177 215.775 228.328 215.905C227.532 215.941 226.587 215.909 226.227 215.83V215.83ZM180.058 201.641C178.864 201.385 177.679 199.893 177.679 198.645C177.679 197.845 178.454 196.572 179.175 196.186C179.532 195.994 180.199 195.839 180.667 195.839C181.134 195.839 181.802 195.994 182.159 196.186C182.91 196.588 183.659 197.862 183.646 198.714C183.618 200.469 181.74 202.001 180.058 201.641V201.641ZM179.733 188.577C178.714 188.368 177.447 187.742 176.678 187.067C174.146 184.846 174.567 180.718 177.529 178.725C180.564 176.682 184.493 177.953 186.023 181.473C186.491 182.547 186.407 184.385 185.841 185.501C184.771 187.61 181.95 189.03 179.733 188.577ZM137.534 350.821C137.534 350.783 137.674 350.007 137.845 349.095C138.253 346.923 138.309 339.667 137.933 337.736C137.386 334.929 136.565 332.185 136.127 331.703C135.944 331.501 135.494 332.015 133.777 334.383C132.608 335.995 130.846 338.424 129.862 339.782C128.877 341.14 127.764 342.653 127.388 343.145C127.012 343.637 126.704 344.149 126.704 344.282C126.704 344.415 128.027 345.343 129.645 346.345C131.262 347.346 133.552 348.774 134.733 349.518C136.554 350.666 137.534 351.122 137.534 350.821V350.821ZM227.026 349.24C228.486 348.333 230.795 346.901 232.156 346.058C233.517 345.215 234.63 344.416 234.63 344.283C234.63 344.149 234.322 343.637 233.946 343.145C233.57 342.653 232.457 341.14 231.472 339.782C230.487 338.424 228.726 335.995 227.557 334.383C225.84 332.015 225.389 331.501 225.206 331.703C224.769 332.185 223.947 334.929 223.401 337.736C223.025 339.667 223.081 346.923 223.489 349.095C223.66 350.007 223.8 350.783 223.8 350.821C223.8 351.119 224.748 350.655 227.026 349.24V349.24ZM57.1631 329.97C57.2342 329.856 57.3614 328.533 57.4459 327.032C57.5304 325.53 57.6898 322.749 57.8001 320.85C58.2224 313.588 58.3289 311.244 58.2431 311.105C58.1943 311.026 57.8824 310.961 57.55 310.961C56.5915 310.961 53.3975 310.242 51.3609 309.568C49.1479 308.835 47.8022 308.222 45.6975 306.989C44.842 306.488 44.1209 306.106 44.0951 306.141C44.0429 306.211 43.4363 307.805 42.865 309.375C42.6596 309.94 42.3235 310.863 42.1181 311.428C41.9127 311.992 41.5823 312.895 41.3839 313.434C41.1854 313.972 40.5915 315.631 40.0641 317.119C39.5367 318.607 38.9428 320.265 38.7444 320.804C38.3967 321.748 38.0792 322.618 37.2469 324.908C37.0324 325.498 36.7764 326.183 36.6778 326.429C36.3883 327.153 36.3606 327.144 40.7177 327.754C41.3339 327.84 42.4682 328.008 43.2384 328.127C44.0087 328.246 45.143 328.414 45.7592 328.5C46.9897 328.672 51.0397 329.272 54.5352 329.801C55.7676 329.988 56.8339 330.149 56.9049 330.16C56.9758 330.17 57.092 330.085 57.1631 329.971V329.97ZM307.359 329.698C308.488 329.535 310.505 329.24 311.84 329.043C313.175 328.845 314.856 328.601 315.575 328.5C316.293 328.399 317.428 328.231 318.095 328.127C318.763 328.023 319.897 327.855 320.616 327.754C323.771 327.311 324.538 327.174 324.682 327.03C324.766 326.946 324.755 326.676 324.656 326.429C324.557 326.183 324.301 325.498 324.087 324.908C323.255 322.618 322.937 321.748 322.589 320.803C322.391 320.265 321.797 318.606 321.27 317.118C320.742 315.63 320.148 313.972 319.95 313.433C319.751 312.895 319.421 311.992 319.216 311.428C319.01 310.863 318.674 309.94 318.469 309.375C317.897 307.805 317.291 306.211 317.239 306.141C317.213 306.106 316.492 306.488 315.636 306.989C313.532 308.222 312.186 308.835 309.973 309.568C307.936 310.242 304.742 310.961 303.784 310.961C303.451 310.961 303.139 311.026 303.091 311.105C303.005 311.244 303.111 313.588 303.534 320.85C303.644 322.749 303.803 325.53 303.888 327.032C303.972 328.533 304.098 329.853 304.167 329.964C304.236 330.076 304.52 330.128 304.798 330.08C305.077 330.032 306.229 329.86 307.359 329.698L307.359 329.698ZM93.9355 309.718C94.4281 309.342 95.9427 308.23 97.3013 307.246C98.6598 306.262 101.091 304.502 102.704 303.334C105.074 301.618 105.588 301.168 105.387 300.985C104.904 300.548 102.158 299.727 99.3488 299.181C97.4166 298.805 90.1552 298.861 87.9809 299.269C87.0689 299.44 86.2916 299.58 86.2537 299.58C85.9553 299.58 86.4205 300.527 87.8359 302.803C88.744 304.263 90.1772 306.57 91.0208 307.929C91.8644 309.289 92.6638 310.401 92.7973 310.401C92.9307 310.401 93.4429 310.094 93.9355 309.718V309.718ZM270.313 307.929C271.157 306.57 272.59 304.263 273.498 302.803C274.913 300.527 275.378 299.58 275.08 299.58C275.042 299.58 274.265 299.44 273.353 299.269C271.179 298.861 263.917 298.805 261.985 299.181C259.176 299.727 256.43 300.548 255.947 300.985C255.745 301.168 256.259 301.618 258.63 303.334C260.243 304.502 262.674 306.262 264.033 307.246C265.391 308.23 266.906 309.342 267.398 309.718C267.891 310.094 268.403 310.401 268.537 310.401C268.67 310.401 269.469 309.289 270.313 307.929V307.929ZM65.2793 302.365C68.3197 301.545 68.3429 301.525 74.8188 294.075C80.3685 287.691 88.3525 278.533 90.7001 275.859C91.2976 275.178 91.7865 274.49 91.7865 274.33C91.7865 274.17 91.6057 273.912 91.3846 273.758C90.3469 273.031 86.8743 269.616 85.2952 267.769C82.2757 264.237 80.6747 261.58 79.7511 258.568C79.1612 256.645 79.1612 256.313 79.7511 254.389C80.6747 251.378 82.2757 248.721 85.2952 245.189C86.8743 243.342 90.3469 239.927 91.3846 239.2C91.6057 239.045 91.7865 238.788 91.7865 238.628C91.7865 238.468 91.2976 237.78 90.7001 237.099C88.3525 234.425 80.3685 225.267 74.8188 218.882C68.3234 211.41 68.3289 211.415 65.2089 210.574C63.2375 210.042 60.1624 210.113 58.4771 210.728C53.9216 212.391 51.081 216.966 51.0809 222.64C51.0808 225.46 51.9706 228.914 53.3497 231.445C54.5624 233.672 54.5001 233.585 64.454 246.892C67.1499 250.496 69.5287 253.729 69.7404 254.076C70.3003 254.993 70.3003 257.965 69.7404 258.882C69.5287 259.229 67.1499 262.462 64.454 266.066C56.8474 276.235 55.7184 277.759 54.8781 278.994C50.7084 285.12 49.932 291.799 52.7482 297.315C53.6466 299.075 56.0913 301.307 57.8962 302.017C60.0332 302.856 62.947 302.994 65.2793 302.365V302.365ZM62.34 291.389C60.7923 290.417 60.7646 288.292 62.283 287.015C63.4113 286.066 64.9062 286.211 66.0394 287.38C67.5961 288.985 66.3574 291.511 63.9258 291.691C63.1684 291.747 62.7983 291.677 62.34 291.389H62.34ZM73.2281 275.069C72.1893 274.441 71.6225 273.418 71.6214 272.168C71.6193 270.198 73.0129 268.793 74.9694 268.793C76.0563 268.793 76.7167 269.077 77.4327 269.85C78.1493 270.623 78.3424 271.091 78.3424 272.054C78.3424 274.665 75.4143 276.392 73.2281 275.069V275.069ZM73.2281 243.723C71.057 242.41 71.0758 239.093 73.2614 237.865C75.4984 236.609 78.3425 238.31 78.3425 240.904C78.3425 241.867 78.1493 242.335 77.4327 243.108C76.7126 243.886 76.0551 244.165 74.9441 244.163C74.2362 244.163 73.7477 244.037 73.2281 243.723H73.2281ZM63.0312 226.416C60.8531 225.548 60.5211 222.502 62.4936 221.483C64.329 220.534 66.9271 222.189 66.7101 224.168C66.5282 225.825 64.5633 227.026 63.0312 226.416V226.416ZM302.857 302.232C309.198 299.908 311.872 292.341 309.196 284.286C308.939 283.513 308.394 282.265 307.984 281.512C306.771 279.286 306.834 279.373 296.88 266.066C294.184 262.462 291.805 259.229 291.593 258.882C291.033 257.964 291.033 254.993 291.593 254.076C291.805 253.729 294.184 250.496 296.88 246.892C306.834 233.585 306.771 233.672 307.984 231.445C309.363 228.913 310.253 225.46 310.253 222.64C310.253 216.966 307.412 212.391 302.857 210.728C301.171 210.113 298.096 210.042 296.125 210.574C293.005 211.415 293.01 211.41 286.515 218.882C280.965 225.267 272.981 234.425 270.634 237.099C270.036 237.78 269.547 238.468 269.547 238.628C269.547 238.788 269.728 239.046 269.949 239.2C270.17 239.355 271.236 240.303 272.317 241.308C275.745 244.494 279.083 248.695 280.515 251.628C281.214 253.058 282.058 255.712 282.058 256.479C282.058 257.246 281.214 259.9 280.515 261.33C279.083 264.263 275.745 268.464 272.317 271.65C271.236 272.654 270.17 273.603 269.949 273.758C269.16 274.31 267.898 272.74 283.199 290.259C286.833 294.42 290.395 298.514 291.114 299.357C292.55 301.04 293.542 301.654 295.972 302.363C297.775 302.889 301.242 302.823 302.857 302.231V302.232ZM296.333 291.481C295.662 291.189 294.802 290.224 294.641 289.582C294.346 288.406 295.19 287.07 296.572 286.527C298.197 285.888 300.171 287.389 300.169 289.262C300.167 291.144 298.189 292.288 296.333 291.481ZM284.624 274.96C283.572 274.294 282.991 273.26 282.991 272.054C282.991 271.091 283.185 270.623 283.901 269.85C284.618 269.075 285.278 268.793 286.373 268.793C288.312 268.793 289.713 270.202 289.713 272.152C289.713 274.873 286.919 276.415 284.624 274.96V274.96ZM284.952 243.947C284.357 243.619 283.541 242.808 283.255 242.261C283.11 241.984 282.991 241.372 282.991 240.901C282.991 238.31 285.837 236.61 288.072 237.865C290.251 239.089 290.274 242.45 288.112 243.716C287.273 244.207 285.64 244.327 284.952 243.947V243.947ZM296.342 226.356C294.771 225.633 294.134 223.945 294.972 222.725C295.619 221.783 296.299 221.36 297.324 221.261C300.179 220.987 301.233 224.344 298.847 226.109C298.224 226.57 297.055 226.685 296.342 226.356V226.356ZM48.915 301.865C46.4824 298.211 45.4795 294.848 45.4793 290.344C45.4791 286.574 46.1692 283.403 47.7124 280.082C48.701 277.954 49.5895 276.553 52.0566 273.235C55.1714 269.045 54.9689 269.443 54.1766 269.068C53.8121 268.895 51.1941 266.726 48.3587 264.249C45.5234 261.771 43.0643 259.721 42.8942 259.693C42.6791 259.657 42.3171 260.112 41.706 261.185C36.4663 270.391 35.1267 280.548 38.0326 289.038C38.5611 290.582 40.0763 293.658 40.9803 295.023C42.5738 297.427 45.1833 299.984 47.7021 301.607C49.1023 302.51 49.3841 302.57 48.915 301.865ZM313.632 301.607C320.654 297.081 324.818 288.887 324.808 279.615C324.801 273.483 323.019 267.144 319.628 261.185C319.017 260.112 318.655 259.657 318.44 259.693C318.269 259.721 315.81 261.771 312.975 264.249C310.14 266.726 307.522 268.895 307.157 269.068C306.365 269.443 306.162 269.045 309.277 273.235C311.744 276.553 312.633 277.954 313.621 280.082C315.165 283.403 315.855 286.574 315.854 290.344C315.854 294.848 314.851 298.211 312.419 301.865C311.95 302.57 312.231 302.51 313.632 301.607V301.607ZM114.026 298.365C114.091 297.853 114.243 296.51 114.364 295.382C114.486 294.253 114.659 292.741 114.75 292.023C115.112 289.17 115.33 287.128 115.368 286.249L115.407 285.327L113.526 285.009C108.881 284.223 104.905 282.661 99.491 279.492C98.0287 278.636 96.755 277.936 96.6605 277.936C96.566 277.936 94.8635 279.799 92.8772 282.077C90.8909 284.354 87.6098 288.112 85.5857 290.426C83.5617 292.741 81.974 294.659 82.0575 294.688C82.141 294.718 82.9567 294.575 83.8703 294.372C87.8175 293.495 89.297 293.344 93.9339 293.344C99.4234 293.344 102.125 293.756 106.196 295.217C108.666 296.103 112.104 298.023 112.968 298.998C113.538 299.641 113.892 299.429 114.026 298.365H114.026ZM248.372 298.992C249.23 298.023 252.676 296.101 255.137 295.217C259.209 293.756 261.91 293.343 267.4 293.344C272.037 293.344 273.516 293.495 277.464 294.372C278.377 294.575 279.193 294.718 279.276 294.688C279.36 294.659 277.772 292.741 275.748 290.426C273.724 288.112 270.443 284.354 268.457 282.077C266.47 279.799 264.768 277.936 264.673 277.936C264.579 277.936 263.305 278.636 261.843 279.492C256.416 282.668 252.027 284.378 247.607 285.039C246.786 285.162 246.048 285.321 245.968 285.392C245.888 285.464 245.909 286.271 246.014 287.187C246.206 288.852 246.416 290.634 246.769 293.609C246.873 294.481 247.043 296.035 247.148 297.061C247.252 298.087 247.375 299.032 247.42 299.16C247.545 299.515 247.976 299.439 248.372 298.992L248.372 298.992ZM30.9147 278.064C30.9147 276.452 31.32 273.318 31.8458 270.864C32.6801 266.971 35.0695 261.032 37.0835 257.845C37.4904 257.202 37.8235 256.587 37.8235 256.479C37.8235 256.371 37.4904 255.756 37.0835 255.112C35.0695 251.926 32.6801 245.987 31.8458 242.094C31.32 239.64 30.9147 236.506 30.9147 234.894C30.9147 233.738 30.8666 233.529 30.5995 233.529C30.0378 233.529 26.9213 236.929 25.4449 239.151C22.7167 243.259 21.0262 247.008 19.7773 251.721C19.2786 253.603 19.2786 259.355 19.7773 261.237C21.0262 265.949 22.7167 269.699 25.4449 273.806C26.9213 276.029 30.0378 279.429 30.5995 279.429C30.8665 279.429 30.9147 279.22 30.9147 278.064ZM332.765 277.678C336.031 274.344 339.019 269.19 340.78 263.849C341.809 260.729 341.903 260.111 341.903 256.479C341.903 252.847 341.809 252.229 340.78 249.109C339.577 245.461 338.15 242.556 335.889 239.151C334.412 236.929 331.296 233.529 330.734 233.529C330.466 233.529 330.418 233.745 330.413 234.975C330.405 237.132 329.832 240.987 329.131 243.608C328.156 247.255 325.991 252.358 324.25 255.112C323.843 255.756 323.51 256.371 323.51 256.479C323.51 256.587 323.843 257.202 324.25 257.845C325.991 260.599 328.156 265.703 329.131 269.35C329.832 271.971 330.404 275.826 330.413 277.983C330.418 279.213 330.466 279.429 330.734 279.429C330.908 279.429 331.821 278.641 332.765 277.678V277.678ZM61.1059 261.097C63.2093 258.305 64.2332 256.793 64.2332 256.479C64.2332 256.165 63.2087 254.652 61.1038 251.858L57.9744 247.704L55.4145 250C54.0066 251.262 51.8464 253.169 50.614 254.237C49.3816 255.305 48.3733 256.316 48.3733 256.482C48.3733 256.649 49.6426 257.886 51.194 259.232C52.7454 260.578 54.8881 262.477 55.9555 263.452C57.0229 264.428 57.9147 265.231 57.9374 265.237C57.96 265.244 59.3858 263.38 61.1059 261.097V261.097ZM310.72 258.721C311.952 257.652 312.96 256.644 312.96 256.479C312.96 256.314 311.952 255.305 310.72 254.237C309.487 253.169 307.327 251.262 305.919 250L303.359 247.704L300.23 251.858C298.125 254.652 297.101 256.165 297.101 256.479C297.101 256.793 298.125 258.305 300.23 261.1L303.359 265.254L305.919 262.958C307.327 261.696 309.487 259.789 310.72 258.721ZM48.3587 248.709C51.1941 246.231 53.8121 244.063 54.1766 243.89C54.9689 243.514 55.1714 243.912 52.0566 239.723C49.5895 236.404 48.701 235.004 47.7124 232.876C46.1692 229.554 45.4791 226.383 45.4793 222.614C45.4795 218.11 46.4824 214.747 48.915 211.093C49.3841 210.388 49.1023 210.448 47.7021 211.35C40.6796 215.877 36.5154 224.071 36.5257 233.343C36.5326 239.474 38.3144 245.814 41.706 251.773C42.3171 252.846 42.6791 253.301 42.8942 253.265C43.0643 253.237 45.5234 251.187 48.3587 248.709V248.709ZM319.628 251.767C324.862 242.605 326.207 232.409 323.301 223.92C322.773 222.376 321.257 219.299 320.353 217.935C318.76 215.53 316.15 212.974 313.632 211.35C312.231 210.448 311.95 210.388 312.419 211.093C314.851 214.747 315.854 218.11 315.854 222.614C315.855 226.383 315.165 229.554 313.621 232.876C312.633 235.004 311.744 236.404 309.277 239.723C306.162 243.914 306.364 243.514 307.16 243.891C307.526 244.065 310.158 246.251 313.007 248.749C315.857 251.247 318.315 253.294 318.469 253.298C318.628 253.302 319.129 252.641 319.628 251.767V251.767ZM99.491 233.466C104.906 230.297 108.883 228.734 113.526 227.949L115.407 227.631L115.362 226.615C115.337 226.057 115.229 224.886 115.122 224.013C115.015 223.141 114.843 221.714 114.741 220.842C114.639 219.969 114.479 218.626 114.385 217.856C114.291 217.087 114.158 215.842 114.09 215.09C113.943 213.465 113.689 213.262 112.827 214.08C111.103 215.719 107.129 217.63 103.436 218.596C100.199 219.443 98.5992 219.615 93.9339 219.614C89.297 219.614 87.8175 219.462 83.8703 218.585C82.9567 218.382 82.141 218.24 82.0575 218.27C81.974 218.299 83.5617 220.217 85.5858 222.531C87.6098 224.846 90.8909 228.604 92.8772 230.881C94.8635 233.158 96.566 235.022 96.6605 235.022C96.755 235.022 98.0287 234.322 99.491 233.466H99.491ZM268.457 230.881C270.443 228.604 273.724 224.846 275.748 222.531C277.772 220.217 279.36 218.299 279.276 218.27C279.193 218.24 278.377 218.382 277.464 218.585C273.516 219.462 272.037 219.614 267.4 219.614C262.735 219.615 261.134 219.443 257.898 218.596C254.204 217.63 250.231 215.719 248.507 214.08C247.645 213.262 247.391 213.465 247.244 215.09C247.176 215.842 247.043 217.087 246.949 217.856C246.855 218.626 246.689 220.011 246.579 220.935C246.47 221.858 246.299 223.286 246.199 224.107C246.099 224.928 245.997 226.057 245.972 226.615L245.927 227.631L247.808 227.949C252.484 228.739 256.771 230.44 262.078 233.608C263.362 234.375 264.51 235.006 264.629 235.012C264.748 235.017 266.47 233.158 268.457 230.881V230.881ZM99.4422 213.756C102.537 213.114 104.946 212.394 105.387 211.981C105.591 211.789 105.101 211.359 102.704 209.624C101.091 208.456 98.6598 206.696 97.3013 205.712C95.9427 204.728 94.4281 203.616 93.9355 203.24C93.4429 202.864 92.9307 202.556 92.7973 202.556C92.6638 202.556 91.8644 203.669 91.0208 205.029C90.1772 206.388 88.744 208.695 87.8359 210.155C86.9278 211.615 86.1848 212.931 86.1848 213.079C86.1848 213.227 86.4159 213.393 86.6983 213.446C87.6156 213.621 89.8073 213.943 90.5728 214.016C92.0201 214.155 98.4278 213.967 99.4422 213.756V213.756ZM272.815 213.777C273.328 213.674 274.064 213.538 274.449 213.475C274.891 213.403 275.149 213.26 275.149 213.085C275.149 212.934 274.406 211.615 273.498 210.155C272.59 208.695 271.157 206.388 270.313 205.029C269.469 203.669 268.67 202.556 268.537 202.556C268.403 202.556 267.891 202.864 267.398 203.24C266.906 203.616 265.391 204.728 264.033 205.712C262.674 206.696 260.243 208.456 258.63 209.624C256.259 211.34 255.745 211.79 255.947 211.973C256.638 212.599 260.788 213.66 263.946 214.018C265.129 214.152 271.862 213.969 272.815 213.777ZM80.6985 210.91C80.8699 210.579 81.3671 209.76 81.8034 209.091C83.4657 206.541 87.8614 199.393 88.7423 197.807C89.7766 195.946 90.3925 195.466 91.7492 195.466C92.7873 195.466 92.7852 195.465 96.6166 198.245C98.4002 199.539 100.847 201.311 102.054 202.183C105.458 204.643 107.193 205.906 108.937 207.193C110.145 208.084 110.614 208.335 110.828 208.202C110.984 208.105 111.47 207.362 111.908 206.551L112.704 205.075L112.61 203.209C112.559 202.183 112.434 200.672 112.333 199.851C112.233 199.03 112.061 197.603 111.953 196.679C111.845 195.755 111.654 194.202 111.531 193.227C111.18 190.47 111.225 189.061 111.684 188.448C112.446 187.429 112.998 187.163 114.347 187.166C115.033 187.168 116.392 187.271 117.368 187.395C118.343 187.518 119.898 187.708 120.822 187.817C121.746 187.925 123.175 188.096 123.996 188.197C124.818 188.297 126.33 188.422 127.357 188.473L129.225 188.567L130.701 187.772C131.513 187.334 132.257 186.849 132.354 186.693C132.486 186.479 132.236 186.01 131.344 184.803C130.056 183.06 128.792 181.326 126.33 177.925C125.457 176.719 123.684 174.274 122.389 172.492C119.607 168.663 119.608 168.665 119.608 167.628C119.608 166.272 120.088 165.657 121.951 164.623C123.538 163.743 130.691 159.351 133.243 157.69C133.913 157.254 134.732 156.757 135.064 156.586C135.395 156.414 135.667 156.14 135.667 155.976C135.667 155.446 134.695 153.447 133.323 151.153C132.586 149.921 131.54 148.087 130.999 147.078C129.897 145.023 130.093 145.107 128.104 145.832C119.613 148.923 112.067 157.229 109.168 166.674C107.961 170.607 107.78 171.965 107.765 177.189C107.746 183.975 108.108 183.612 101.317 183.632C96.0894 183.647 94.73 183.828 90.7949 185.034C81.3364 187.932 73.0324 195.465 69.9363 203.956C69.2117 205.943 69.1274 205.748 71.1833 206.848C72.194 207.389 74.0291 208.434 75.2615 209.17C77.6123 210.573 79.5218 211.503 80.0648 211.509C80.2419 211.511 80.5271 211.241 80.6985 210.91L80.6985 210.91ZM282.688 211.011C283.317 210.735 284.84 209.906 286.072 209.17C287.305 208.434 289.14 207.389 290.15 206.848C292.206 205.747 292.122 205.943 291.398 203.956C288.301 195.465 279.997 187.932 270.539 185.034C266.604 183.828 265.244 183.647 260.016 183.632C253.226 183.612 253.588 183.975 253.569 177.189C253.553 171.965 253.373 170.607 252.166 166.674C249.267 157.229 241.721 148.923 233.23 145.831C231.241 145.107 231.436 145.023 230.335 147.078C229.794 148.087 228.748 149.921 228.011 151.153C226.639 153.447 225.667 155.446 225.667 155.976C225.667 156.14 225.938 156.414 226.27 156.586C226.601 156.757 227.421 157.254 228.09 157.69C230.643 159.351 237.796 163.743 239.383 164.623C241.246 165.657 241.725 166.272 241.725 167.628C241.725 168.665 241.727 168.663 238.945 172.492C237.65 174.274 235.876 176.719 235.003 177.925C232.542 181.326 231.278 183.06 229.99 184.803C229.098 186.009 228.847 186.479 228.98 186.692C229.077 186.849 229.821 187.334 230.633 187.772L232.109 188.567L233.976 188.473C235.003 188.422 236.516 188.297 237.337 188.197C238.159 188.096 239.587 187.925 240.512 187.817C241.436 187.708 242.991 187.518 243.966 187.395C246.726 187.044 248.136 187.09 248.749 187.548C249.769 188.309 250.035 188.861 250.032 190.208C250.03 190.894 249.927 192.252 249.803 193.227C249.679 194.202 249.489 195.755 249.381 196.679C249.272 197.603 249.101 199.03 249 199.851C248.9 200.672 248.775 202.183 248.724 203.209L248.63 205.075L249.426 206.551C249.863 207.362 250.349 208.105 250.506 208.202C250.72 208.335 251.189 208.084 252.396 207.193C254.141 205.906 255.876 204.643 259.28 202.183C260.487 201.311 262.934 199.539 264.717 198.245C268.549 195.465 268.547 195.466 269.585 195.466C270.941 195.466 271.557 195.946 272.592 197.807C273.472 199.393 277.868 206.541 279.53 209.091C279.967 209.76 280.464 210.579 280.635 210.91C281.014 211.642 281.226 211.652 282.688 211.01V211.011ZM45.7248 205.953C47.8023 204.736 49.1552 204.121 51.3609 203.39C53.3975 202.716 56.5915 201.997 57.55 201.997C57.8824 201.997 58.1942 201.932 58.2431 201.853C58.329 201.714 58.2223 199.37 57.8001 192.108C57.6897 190.209 57.5295 187.411 57.444 185.889C57.3584 184.368 57.2151 183.053 57.1255 182.969C56.9717 182.823 56.1728 182.922 49.587 183.899C48.0979 184.121 46.3754 184.372 45.7592 184.458C45.143 184.544 44.0087 184.712 43.2384 184.831C42.4682 184.95 41.3339 185.118 40.7177 185.204C37.716 185.624 36.7928 185.786 36.6627 185.916C36.5847 185.994 36.7377 186.643 37.0024 187.357C37.2672 188.071 37.5528 188.866 37.637 189.122C37.7212 189.379 38.0548 190.303 38.3782 191.175C38.7017 192.047 39.2134 193.454 39.5152 194.3C39.8171 195.147 40.3111 196.532 40.613 197.379C40.9149 198.225 41.4266 199.632 41.75 200.504C42.0735 201.376 42.4072 202.3 42.4915 202.556C42.5759 202.813 42.9128 203.737 43.2402 204.609C43.5676 205.481 43.879 206.342 43.9322 206.521C43.9854 206.701 44.0666 206.848 44.1127 206.848C44.1588 206.848 44.8842 206.445 45.7248 205.953V205.953ZM317.402 206.521C317.455 206.342 317.766 205.481 318.094 204.609C318.421 203.737 318.758 202.813 318.842 202.556C318.927 202.3 319.26 201.376 319.584 200.504C319.907 199.632 320.419 198.225 320.721 197.379C321.023 196.532 321.517 195.147 321.819 194.3C322.12 193.453 322.632 192.047 322.956 191.175C323.279 190.303 323.613 189.379 323.697 189.122C323.781 188.866 324.067 188.071 324.331 187.357C324.596 186.642 324.749 185.994 324.671 185.916C324.541 185.786 323.618 185.624 320.616 185.204C320 185.118 318.866 184.95 318.095 184.831C317.325 184.712 316.191 184.544 315.575 184.458C314.958 184.372 313.236 184.121 311.747 183.899C305.161 182.922 304.362 182.823 304.208 182.969C304.119 183.053 303.975 184.368 303.89 185.889C303.804 187.411 303.644 190.209 303.534 192.108C303.111 199.37 303.005 201.714 303.091 201.853C303.14 201.932 303.451 201.997 303.784 201.997C304.755 201.997 307.947 202.719 310.052 203.416C312.045 204.076 314.476 205.21 316.135 206.253C317.227 206.94 317.274 206.951 317.402 206.521V206.521ZM67.8115 195.793C71.5578 189.885 77.0455 185.061 83.6909 181.833C85.8279 180.795 89.2934 179.532 91.273 179.068C94.5804 178.294 95.6318 178.15 99.0884 178L102.002 177.873L102.129 174.962C102.279 171.508 102.423 170.457 103.198 167.152C103.662 165.174 104.926 161.711 105.965 159.576C109.1 153.13 113.647 147.871 119.326 144.12C120.559 143.306 121.597 142.56 121.631 142.464C121.768 142.082 114.495 142.409 111.299 142.929C110.991 142.979 110.151 143.115 109.432 143.23C99.9974 144.743 90.194 147.994 83.6641 151.777C81.5488 153.002 77.1122 157.435 75.886 159.549C72.1008 166.074 68.8467 175.87 67.3327 185.297C67.2174 186.016 67.0819 186.855 67.0318 187.163C66.5203 190.301 66.1877 197.519 66.5546 197.519C66.644 197.519 67.2095 196.742 67.8115 195.793V195.793ZM86.7386 169.278C85.5819 168.904 84.7063 168.262 84.1446 167.377C82.6092 164.958 83.5502 161.69 86.2578 160.038C87.2825 159.413 87.4622 159.367 88.8862 159.365C90.2634 159.363 90.505 159.418 91.3278 159.926C92.4362 160.611 93.1599 161.628 93.4764 162.946C94.0871 165.49 92.2091 168.443 89.4751 169.237C88.318 169.573 87.6781 169.583 86.7386 169.278ZM294.941 195.326C294.941 193.434 294.587 188.908 294.302 187.163C294.252 186.855 294.116 186.016 294.001 185.297C292.487 175.87 289.233 166.074 285.448 159.549C284.222 157.435 279.785 153.002 277.67 151.777C271.14 147.994 261.336 144.743 251.902 143.23C251.183 143.115 250.343 142.979 250.035 142.929C246.839 142.409 239.566 142.082 239.703 142.464C239.737 142.56 240.774 143.305 242.008 144.12C247.687 147.87 252.233 153.13 255.369 159.576C256.401 161.698 257.679 165.193 258.123 167.106C258.614 169.223 258.712 169.701 258.889 170.837C258.993 171.504 259.135 173.36 259.205 174.962L259.331 177.873L262.245 178C265.702 178.15 266.753 178.294 270.061 179.068C272.04 179.531 275.506 180.795 277.643 181.833C284.288 185.061 289.776 189.885 293.522 195.793C294.124 196.742 294.69 197.519 294.779 197.519C294.869 197.519 294.941 196.532 294.941 195.326L294.941 195.326ZM271.635 169.167C269.768 168.532 268.345 166.953 267.876 164.997C267.402 163.022 268.246 161.013 270.006 159.926C270.829 159.418 271.07 159.363 272.448 159.365C273.872 159.367 274.051 159.413 275.076 160.038C279.143 162.519 278.783 168.058 274.474 169.308C273.454 169.604 272.828 169.573 271.635 169.167V169.167ZM152.121 189.388C152.889 184.773 154.453 180.798 157.637 175.364C158.493 173.903 159.194 172.63 159.194 172.535C159.194 172.441 156.03 169.606 152.163 166.236C148.296 162.866 144.535 159.589 143.807 158.953C143.078 158.317 142.458 157.864 142.429 157.946C142.4 158.028 142.541 158.842 142.742 159.755C143.657 163.898 143.771 164.992 143.774 169.718C143.777 174.483 143.612 176.04 142.756 179.306C141.788 182.997 139.876 186.967 138.236 188.69C137.417 189.551 137.621 189.805 139.247 189.952C139.999 190.02 141.245 190.153 142.015 190.246C143.828 190.468 146.163 190.743 148.27 190.984C149.195 191.089 150.161 191.208 150.418 191.247C151.764 191.452 151.78 191.435 152.121 189.388ZM213.063 190.99C213.782 190.9 215.211 190.731 216.238 190.615C217.265 190.499 218.693 190.33 219.412 190.239C220.131 190.148 221.334 190.018 222.086 189.951C223.713 189.805 223.917 189.551 223.097 188.69C221.457 186.967 219.545 182.997 218.578 179.306C217.722 176.04 217.557 174.483 217.56 169.718C217.563 164.992 217.676 163.898 218.592 159.755C218.793 158.842 218.934 158.028 218.905 157.946C218.876 157.864 218.256 158.317 217.527 158.953C216.798 159.589 213.038 162.866 209.171 166.236C205.304 169.606 202.14 172.441 202.14 172.535C202.14 172.63 202.841 173.903 203.697 175.364C206.858 180.759 208.571 185.131 209.234 189.496C209.351 190.265 209.483 191.006 209.527 191.142C209.61 191.396 209.916 191.383 213.063 190.99V190.99ZM136.656 180.166C137.038 179.104 137.604 176.912 137.933 175.222C138.309 173.291 138.253 166.035 137.845 163.863C137.674 162.951 137.534 162.175 137.534 162.137C137.534 161.839 136.585 162.303 134.308 163.718C132.847 164.625 130.539 166.057 129.178 166.9C127.817 167.743 126.704 168.542 126.704 168.675C126.704 168.809 127.012 169.32 127.388 169.813C127.764 170.305 128.877 171.818 129.862 173.176C130.846 174.533 132.608 176.963 133.777 178.574C136.101 181.781 136.079 181.769 136.656 180.166V180.166ZM227.569 178.558C228.731 176.956 230.487 174.533 231.472 173.176C232.457 171.818 233.57 170.305 233.946 169.813C234.322 169.32 234.63 168.809 234.63 168.675C234.63 168.542 233.517 167.743 232.156 166.9C230.795 166.057 228.486 164.625 227.026 163.718C224.748 162.303 223.8 161.839 223.8 162.137C223.8 162.175 223.66 162.951 223.489 163.863C223.081 166.035 223.025 173.291 223.401 175.222C224.028 178.441 224.996 181.472 225.398 181.472C225.43 181.472 226.407 180.161 227.569 178.558V178.558ZM63.313 176.668C63.6313 175.305 64.2134 173.23 65.0531 170.464C66.7223 164.966 69.243 159.457 71.9679 155.351C72.5468 154.479 73.0496 153.699 73.0853 153.617C73.1211 153.536 71.9895 152.277 70.5709 150.819C63.9417 144.005 60.7391 140.797 60.5643 140.797C60.4447 140.797 60.4162 141.161 60.4877 141.777C60.5503 142.316 60.6879 144.352 60.7934 146.302C60.899 148.251 61.0652 151.19 61.1628 152.832C61.2603 154.474 61.4289 157.329 61.5374 159.176C61.6458 161.023 61.8143 163.878 61.9118 165.52C62.0093 167.162 62.1736 170.058 62.2769 171.957C62.5237 176.492 62.6716 178.114 62.8385 178.114C62.9138 178.114 63.1274 177.463 63.3131 176.668H63.313ZM298.751 176.761C298.816 176.017 298.954 173.855 299.057 171.957C299.16 170.058 299.325 167.162 299.422 165.52C299.52 163.878 299.688 161.023 299.796 159.176C299.905 157.329 300.073 154.474 300.171 152.832C300.269 151.19 300.435 148.251 300.54 146.302C300.646 144.352 300.784 142.316 300.846 141.777C300.917 141.161 300.889 140.797 300.77 140.797C300.595 140.797 297.392 144.005 290.763 150.819C289.344 152.277 288.213 153.536 288.248 153.617C288.284 153.699 288.787 154.479 289.366 155.351C292.091 159.457 294.612 164.966 296.281 170.464C297.12 173.23 297.703 175.305 298.021 176.668C298.207 177.463 298.42 178.114 298.495 178.114C298.571 178.114 298.686 177.505 298.751 176.761H298.751ZM163.375 167.264C163.53 167.043 164.479 165.978 165.485 164.898C168.673 161.472 172.877 158.137 175.812 156.706C177.244 156.007 179.899 155.164 180.667 155.164C181.434 155.164 184.09 156.007 185.522 156.706C188.457 158.137 192.661 161.472 195.849 164.898C196.854 165.978 197.804 167.043 197.959 167.264C198.113 167.485 198.37 167.665 198.528 167.665C198.686 167.665 199.711 166.884 200.805 165.93C209.438 158.398 215.317 153.28 219.785 149.404C225.603 144.359 225.79 144.132 226.607 141.108C227.139 139.138 227.068 136.065 226.452 134.381C224.788 129.829 220.21 126.99 214.531 126.99C211.709 126.99 208.253 127.879 205.719 129.257C203.491 130.469 203.578 130.407 190.261 140.353C186.654 143.047 183.419 145.424 183.072 145.636C182.154 146.195 179.18 146.195 178.262 145.636C177.915 145.424 174.68 143.047 171.073 140.353C157.756 130.407 157.843 130.469 155.615 129.257C153.081 127.879 149.625 126.99 146.803 126.99C141.124 126.99 136.546 129.829 134.881 134.381C134.266 136.065 134.195 139.138 134.727 141.108C135.53 144.081 135.801 144.421 140.895 148.837C147.324 154.412 159.368 164.905 161.051 166.398C161.827 167.086 162.604 167.653 162.778 167.657C162.951 167.662 163.22 167.485 163.375 167.264H163.375ZM163.351 153.754C160.339 151.95 161.505 147.514 164.991 147.514C166.938 147.514 168.343 148.918 168.343 150.864C168.343 151.932 168.164 152.386 167.433 153.175C166.336 154.36 164.74 154.586 163.351 153.754V153.754ZM194.951 154.014C194.356 153.686 193.54 152.875 193.254 152.328C193.109 152.051 192.991 151.387 192.991 150.852C192.991 148.915 194.401 147.514 196.352 147.514C199.84 147.514 200.994 151.985 197.964 153.76C197.09 154.272 195.64 154.394 194.951 154.014V154.014ZM146.887 142.26C145.945 141.614 145.521 140.934 145.423 139.909C145.315 138.791 145.698 137.952 146.552 137.431C148.632 136.164 151.41 138.407 150.585 140.688C149.976 142.37 148.169 143.139 146.887 142.26ZM212.317 142.484C211.791 142.266 211.019 141.374 210.738 140.661C210.098 139.038 211.6 137.065 213.474 137.066C215.015 137.068 216.066 138.294 215.911 139.909C215.729 141.801 213.872 143.131 212.317 142.484ZM78.5023 148.48C79.1099 148.009 80.5767 147.085 82.1703 146.169C84.2426 144.978 88.6425 143.002 91.4131 142.018C94.2832 140.998 98.3372 139.787 100.796 139.213C101.592 139.028 102.243 138.814 102.243 138.739C102.243 138.575 100.65 138.427 96.2679 138.185C91.5588 137.924 86.0373 137.604 76.942 137.065C75.2988 136.967 72.358 136.801 70.4067 136.695C68.4554 136.59 66.4178 136.453 65.8787 136.39C65.2627 136.319 64.8984 136.347 64.8984 136.467C64.8984 136.729 77.4151 149.007 77.6829 149.007C77.7594 149.007 78.1281 148.77 78.5023 148.48V148.48ZM286.425 146.448C293.212 139.855 296.435 136.641 296.435 136.467C296.435 136.347 296.071 136.319 295.455 136.39C294.916 136.453 292.878 136.59 290.927 136.695C288.976 136.801 286.035 136.967 284.392 137.065C275.296 137.604 269.775 137.924 265.066 138.185C260.684 138.427 259.091 138.575 259.091 138.739C259.091 138.814 259.742 139.028 260.538 139.213C262.997 139.787 267.051 140.998 269.921 142.018C272.703 143.006 277.152 145.006 279.164 146.172C280.982 147.226 282.408 148.127 282.898 148.531C283.206 148.786 283.533 148.997 283.624 149C283.715 149.004 284.976 147.855 286.425 146.448V146.448ZM185.288 136.993C189.046 134.171 189.792 133.521 189.275 133.521C189.106 133.521 186.549 130.708 182.912 126.524C181.842 125.292 180.832 124.285 180.667 124.285C180.502 124.285 179.492 125.292 178.421 126.524C174.785 130.708 172.228 133.521 172.059 133.521C171.539 133.521 172.298 134.179 176.139 137.063C179.056 139.254 180.504 140.231 180.76 140.183C180.966 140.144 183.003 138.709 185.288 136.993V136.993ZM126.105 133.521C126.212 132.232 126.93 129.102 127.538 127.27C128.272 125.058 128.885 123.713 130.119 121.611C130.62 120.756 131.002 120.035 130.968 120.01C130.898 119.957 129.302 119.351 127.731 118.781C127.166 118.575 126.242 118.239 125.677 118.034C125.112 117.829 124.209 117.499 123.67 117.301C123.13 117.102 121.471 116.509 119.982 115.982C118.493 115.455 116.833 114.861 116.294 114.663C115.349 114.316 114.478 113.998 112.186 113.167C111.596 112.952 110.911 112.696 110.664 112.598C109.939 112.309 109.949 112.281 109.339 116.635C109.252 117.251 109.084 118.384 108.965 119.154C108.846 119.923 108.678 121.057 108.592 121.673C108.506 122.288 108.254 124.01 108.033 125.498C107.04 132.176 106.954 132.875 107.111 133.04C107.201 133.135 108.517 133.277 110.034 133.357C111.551 133.436 114.389 133.596 116.341 133.713C126.995 134.351 126.034 134.37 126.105 133.521V133.521ZM241.819 133.893C243.667 133.787 246.65 133.615 248.448 133.511C250.245 133.407 252.248 133.292 252.899 133.255C253.551 133.218 254.152 133.116 254.235 133.028C254.378 132.876 254.279 132.072 253.301 125.498C253.08 124.01 252.828 122.288 252.742 121.673C252.656 121.057 252.488 119.923 252.369 119.154C252.25 118.384 252.082 117.251 251.995 116.635C251.57 113.603 251.412 112.712 251.271 112.572C251.187 112.488 250.917 112.499 250.67 112.598C250.423 112.696 249.738 112.952 249.148 113.167C246.856 113.998 245.985 114.316 245.04 114.663C244.501 114.861 242.841 115.455 241.352 115.982C239.863 116.509 238.203 117.102 237.664 117.301C237.125 117.499 236.222 117.829 235.657 118.034C235.092 118.239 234.168 118.575 233.603 118.781C232.032 119.351 230.436 119.957 230.366 120.01C230.331 120.035 230.714 120.756 231.215 121.611C232.449 123.714 233.062 125.059 233.796 127.27C234.465 129.288 235.19 132.495 235.19 133.434C235.19 133.755 235.246 134.074 235.313 134.141C235.381 134.209 236.116 134.224 236.947 134.175C237.778 134.125 239.97 133.999 241.819 133.893L241.819 133.893ZM168.079 130.062C168.251 129.699 169.66 127.957 171.211 126.19C172.761 124.424 174.21 122.769 174.431 122.512C174.652 122.256 175.429 121.374 176.158 120.553C176.888 119.732 177.486 118.927 177.488 118.763C177.497 118.164 172.086 115.461 168.574 114.311C161.402 111.962 154.272 111.837 148.084 113.952C146.538 114.48 143.459 115.994 142.094 116.897C139.688 118.49 137.129 121.097 135.504 123.614C134.601 125.013 134.541 125.295 135.246 124.826C138.903 122.395 142.269 121.393 146.777 121.393C150.549 121.393 153.722 122.082 157.046 123.624C159.203 124.625 160.552 125.487 164.3 128.258C166.133 129.613 167.662 130.722 167.699 130.722C167.736 130.722 167.906 130.425 168.079 130.062V130.062ZM197.436 127.965C200.757 125.5 202.158 124.612 204.287 123.624C207.612 122.082 210.785 121.393 214.557 121.393C219.065 121.393 222.43 122.395 226.087 124.826C226.793 125.295 226.733 125.013 225.829 123.614C224.205 121.097 221.646 118.49 219.24 116.897C217.874 115.994 214.796 114.48 213.25 113.952C207.062 111.837 199.932 111.962 192.76 114.311C189.248 115.461 183.837 118.164 183.845 118.763C183.847 118.927 184.446 119.732 185.175 120.553C185.905 121.374 186.682 122.256 186.903 122.512C187.124 122.769 188.573 124.424 190.123 126.19C191.673 127.957 193.085 129.705 193.261 130.074C193.642 130.877 193.239 131.08 197.436 127.965V127.965ZM182.034 113.003C185.223 110.991 191.167 108.603 195.063 107.77C197.518 107.244 200.655 106.839 202.268 106.839C203.425 106.839 203.634 106.791 203.634 106.524C203.634 105.963 200.232 102.849 198.007 101.374C194.6 99.1139 191.693 97.6883 188.042 96.4864C184.92 95.4584 184.302 95.3644 180.667 95.3644C177.032 95.3644 176.414 95.4584 173.291 96.4864C169.641 97.6883 166.734 99.1139 163.326 101.374C161.102 102.849 157.7 105.963 157.7 106.524C157.7 106.791 157.909 106.839 159.066 106.839C162.102 106.839 166.682 107.697 170.565 108.992C173.09 109.835 177.941 112.085 179.547 113.157C180.009 113.466 180.494 113.724 180.625 113.731C180.756 113.737 181.39 113.41 182.034 113.003V113.003ZM85.1491 402.412C83.8926 401.984 82.999 401.413 82.1989 400.528C80.4841 398.632 80.2322 396.382 81.4564 393.897C82.4408 391.9 84.0819 390.824 86.1499 390.821C88.38 390.817 90.0692 392.047 91.274 394.55C91.7827 395.608 91.8587 395.967 91.8666 397.349C91.8747 398.765 91.8166 399.042 91.3239 399.934C90.6545 401.147 89.7785 401.899 88.4652 402.391C87.2767 402.835 86.4055 402.841 85.1491 402.413V402.412ZM272.815 402.381C271.547 401.893 270.668 401.127 270.01 399.934C269.517 399.042 269.459 398.765 269.467 397.349C269.476 395.967 269.551 395.608 270.06 394.55C271.265 392.047 272.954 390.817 275.184 390.821C277.252 390.824 278.893 391.9 279.877 393.897C281.105 396.39 280.851 398.631 279.122 400.543C278.322 401.427 277.235 402.095 275.973 402.478C274.767 402.844 273.951 402.819 272.815 402.381V402.381ZM39.0198 356.225C36.8771 355.705 35.2748 354.073 34.5431 351.664C34.1852 350.486 34.209 349.776 34.6453 348.611C35.137 347.299 35.8902 346.424 37.1035 345.755C37.9965 345.262 38.2733 345.204 39.6906 345.212C41.0742 345.221 41.4334 345.296 42.4915 345.805C44.997 347.008 46.2276 348.696 46.2241 350.925C46.2206 353.588 44.307 355.636 41.2219 356.281C40.0826 356.519 40.2477 356.523 39.0197 356.225H39.0198ZM319.849 356.225C316.893 355.508 315.114 353.519 315.11 350.925C315.106 348.697 316.337 347.009 318.842 345.805C319.9 345.297 320.259 345.221 321.643 345.213C323.06 345.204 323.337 345.263 324.23 345.755C325.443 346.424 326.197 347.3 326.688 348.612C327.129 349.788 327.149 350.485 326.776 351.714C326.393 352.975 325.724 354.061 324.839 354.861C323.898 355.71 323.298 356.016 322.054 356.279C320.915 356.52 321.081 356.524 319.849 356.225L319.849 356.225ZM38.2589 167.684C37.3338 167.446 36.0163 166.6 35.482 165.9C34.8672 165.094 34.2751 163.553 34.2777 162.766C34.2812 161.434 35.0302 159.675 36.0912 158.501C37.4473 157.001 39.4221 156.301 41.2311 156.679C44.3066 157.321 46.2201 159.373 46.2242 162.033C46.2276 164.238 44.9903 165.956 42.5664 167.114C41.3366 167.701 39.348 167.964 38.2589 167.684V167.684ZM320.312 167.688C319.335 167.481 317.735 166.659 316.869 165.919C314.637 164.009 314.519 160.381 316.625 158.396C317.425 157.642 318.844 156.942 320.103 156.679C322.965 156.081 325.802 158.039 326.791 161.294C327.149 162.472 327.125 163.182 326.688 164.346C325.925 166.383 324.291 167.615 322.167 167.755C321.519 167.797 320.685 167.767 320.312 167.688L320.312 167.688ZM84.0375 121.694C82.4147 120.926 81.2369 119.276 80.7919 117.148C80.1937 114.287 82.1525 111.453 85.4104 110.465C86.5896 110.107 87.2998 110.131 88.4652 110.567C89.7785 111.058 90.6545 111.811 91.3239 113.023C91.8166 113.916 91.8747 114.192 91.8666 115.609C91.8586 116.991 91.7827 117.35 91.274 118.407C90.953 119.074 90.3997 119.959 90.0444 120.373C88.5966 122.061 86.0138 122.629 84.0375 121.694V121.694ZM273.002 121.663C271.8 121.063 270.81 119.971 270.068 118.425C269.551 117.349 269.475 116.996 269.467 115.609C269.459 114.192 269.517 113.916 270.01 113.023C270.679 111.811 271.555 111.058 272.869 110.567C274.046 110.127 274.744 110.107 275.973 110.48C277.235 110.862 278.322 111.531 279.122 112.415C279.971 113.354 280.278 113.955 280.539 115.189C280.894 116.862 280.15 119.218 278.824 120.623C277.388 122.144 274.867 122.595 273.002 121.663V121.663Z" fill="black"/>
</svg>
