<svg width="377" height="377" viewBox="0 0 377 377" fill="none" xmlns="http://www.w3.org/2000/svg">
<path d="M108.774 333.965C103.113 334.141 95.183 336.091 85.4665 330.268C70.9592 321.575 71.2478 307.217 70.8691 306.155C68.0729 305.337 57.3979 305.394 49.239 295.133C46.848 292.126 41.2104 285.255 43.2188 268.361C30.0326 264.04 25.9362 255.154 24.8648 253.015C18.4555 240.217 26.4183 230.101 26.8319 229.242C25.6341 228.12 4.09009 216.068 21.918 188.512C17.0412 181.489 14.2623 173.796 15.0946 165.764C16.4639 152.55 26.2346 148.452 26.8325 147.838C26.4254 146.98 18.5379 137.529 24.7551 124.186C29.8164 113.324 40.3805 109.699 43.0995 108.762C42.9076 101.542 40.5986 90.4222 51.2475 79.7903C59.8204 71.231 68.8833 71.4959 70.951 70.8602C71.1753 69.8992 71.1259 57.8605 82.3442 48.9791C93.8067 39.9043 106.061 43.0386 108.768 43.081C111.697 34.578 117.28 26.96 126.797 23.7268C132.45 21.8066 137.535 22.6265 138.705 22.8661C145.739 24.3069 146.942 27.0842 147.885 26.7599C148.47 26.5589 150.816 19.8288 159.491 16.5528C171.084 12.1749 179.088 16.963 188.516 21.8552C198.581 16.635 201.083 14.489 210.137 15.0221C217.099 15.432 221.116 18.2392 222.378 19.1388C227.403 22.7205 228.198 25.8036 229.227 26.8106C229.704 26.5942 241.562 17.6473 255.396 26.1349C264.888 31.9583 267.663 41.1664 268.334 43.1998C277.609 42.2238 286.686 41.4354 296.541 50.5229C305.813 59.0738 306.011 70.4648 306.158 70.8905C307.803 71.3607 322.094 71.5519 330.454 85.8249C337.011 97.0205 333.467 107.98 334.031 108.716C334.319 109.093 346.494 111.996 352.186 124.009C358.333 136.984 351.275 145.721 350.192 147.855C351.339 148.821 359.2 152.184 361.488 162.812C363.274 171.104 361.274 179.265 355.12 188.544C356.192 190.164 363.316 199.317 361.885 211.86C360.46 224.359 350.849 228.742 350.192 229.263C352.441 233.35 356.941 239.809 353.347 250.235C352.305 253.259 348.497 263.548 333.806 268.361C334.417 272.861 336.301 282.725 329.229 293.171C325.359 298.887 320.214 301.783 319 302.441C311.709 306.397 306.711 305.622 306.162 306.208C305.384 307.04 306.653 314.784 299.146 323.854C287.993 337.326 272.193 334.314 268.336 333.842C263.172 349.638 251.213 353.149 249.08 353.751C237.019 357.159 229.952 350.041 229.171 350.248C228.786 350.349 225.095 359.728 212.915 361.75C200.943 363.738 191.478 357.078 188.507 355.154C183.736 358.326 175.601 363.128 165.639 361.999C152.48 360.508 148.399 350.855 147.811 350.235C146.207 350.983 137.832 357.709 125.872 353.065C120.615 351.024 112.498 345.692 108.774 333.965ZM152.062 346.966C152.081 348.076 156.002 356.696 167.464 357.227C176.978 357.668 184.788 352.079 185.54 351.218C184.492 350.92 178.6 351.177 167.45 349.609C164.049 349.13 152.373 346.989 152.062 346.966ZM191.491 351.185C192.079 351.832 201.404 358.964 212.581 356.912C220.394 355.478 224.822 348.887 224.986 346.987C224.034 347.101 213.668 349.035 209.238 349.646C193.004 351.885 194.624 350.499 191.491 351.185ZM113.482 332.767C113.947 335.572 118.869 346.607 130.392 349.372C138.695 351.364 145.786 345.995 145.689 345.37C145.519 344.286 145.469 345.988 128.352 339.55C119.785 336.328 115.116 332.782 113.482 332.767ZM231.203 345.313C238.033 351.514 245.923 349.857 249.37 348.539C255.301 346.272 263.474 338.258 263.471 332.755C262.105 332.933 264.039 332.763 255.637 336.333C229.283 347.531 240.392 341.65 231.203 345.313ZM229.204 341.158C242.207 337.541 251.641 333.661 255.666 331.651C255.952 331.508 259.857 329.531 260.43 329.245C266.655 326.133 273.656 321.948 277.093 319.443C303.293 300.354 298.153 301.066 302.079 298.791C302.952 296.871 306.163 295.937 318.675 278.31C339.673 248.729 344.005 217.511 344.251 216.191C344.266 216.109 344.968 212.176 344.982 212.094C347.555 196.918 346.968 181.308 346.387 175.473C346.337 174.968 345.945 171.352 345.935 171.268C344.642 159.91 339.154 119.747 307.613 84.0563C307.555 83.9906 304.742 80.8589 304.683 80.7943C284.994 59.3241 262.924 48.6287 259.937 47.0875C240.386 36.9998 216.399 30.0736 188.534 30.3696C188.439 30.3706 185.035 30.4184 183.806 30.4394C183.695 30.4413 178.383 30.5441 178.272 30.5466C165.686 30.8351 139.886 35.4259 117.499 46.9499C108.347 51.6607 96.7928 58.0108 82.1415 71.2215C78.2906 74.6938 65.0893 88.27 60.4695 95.3166C51.9944 108.244 37.2602 128.832 31.7916 167.087C27.1527 199.537 33.9239 225.53 40.8375 244.608C50.511 271.303 66.3174 288.182 67.3791 289.998C69.4087 293.468 85.7267 309.128 87.7251 310.261C88.1949 310.528 101.262 321.263 109.993 325.537C111.456 326.253 123.286 334.404 147.638 341.081C147.719 341.103 151.117 342.012 151.684 342.162C175.647 348.495 206.259 347.252 224.581 342.404C226.063 342.012 229.112 341.184 229.204 341.158ZM76.0106 306.146C75.8016 306.943 76.3462 317.401 85.4867 324.451C95.202 331.943 106.255 329.537 106.924 328.971C106.623 328.759 103.767 327.719 91.5793 318.851C78.5805 309.392 77.975 306.569 76.0106 306.146ZM270.163 329.002C271.07 329.708 280.886 331.067 289.091 326.138C299.047 320.158 301.537 308.991 301.076 306.242C299.535 306.512 297.83 309.711 285.918 318.603C275.027 326.734 270.765 328.547 270.163 329.002ZM47.8704 270.3C46.3405 271.108 46.4927 283.494 52.4942 291.431C52.9826 292.077 56.4666 296.941 63.2674 299.56C66.3622 300.752 70.1169 301.482 71.0505 300.891C70.4703 299.77 71.7593 302.483 57.5931 284.731C48.6929 273.578 48.7935 269.812 47.8704 270.3ZM306.12 300.995C306.627 301.976 314.944 299.688 319.218 296.648C332.435 287.25 329.769 271.259 328.994 270.452C328.813 270.604 323.665 279.382 322.689 280.405C321.507 281.643 319.067 286.297 314.013 291.723C313.936 291.806 314.349 291.41 310.272 296.037C305.74 301.18 306.001 300.766 306.12 300.995ZM44.2707 263.436C43.8943 261.231 43.0039 262.661 41.0548 256.712C40.4314 254.809 37.7887 250.34 37.4003 248.376C37.1705 247.214 34.5039 241.025 33.9054 239.144C33.8571 238.992 32.6586 233.113 31.5881 231.532C27.391 234.428 26.581 243.304 28.1083 248.169C31.5712 259.199 42.4957 263.549 44.2707 263.436ZM332.877 263.424C335.195 263.584 342.626 259.194 346.305 253.667C353.619 242.682 347.487 232.905 345.659 231.681C344.68 232.548 344.125 236.683 342.705 240.537C334.782 262.039 333.183 261.961 332.877 263.424ZM26.2346 194.984C26.0898 191.206 25.9541 191.696 25.8727 191.502C24.1314 193.017 19.5059 200.935 19.8708 209.774C20.3362 221.044 29.4867 224.946 29.8481 224.988C30.406 223.095 26.9022 213.38 26.42 200.565C26.3948 199.896 26.2474 195.319 26.2346 194.984ZM350.938 194.882C350.934 194.983 350.745 199.834 350.741 199.935C350.127 215.082 346.818 223.011 347.322 224.969C349.27 224.533 357.718 219.617 357.243 207.654C356.971 200.809 353.316 193.42 351.26 191.609C351.184 191.791 351.085 191.333 350.938 194.882ZM25.8265 185.55C26.5326 183.842 25.917 177.21 26.8343 170.188C28.6333 156.418 30.1922 153.545 29.7541 152.15C28.6464 152.306 20.0864 156.384 19.842 167.94C19.7319 173.146 22.2682 182.275 25.8265 185.55ZM349.878 166.821C349.961 167.396 350.436 170.849 350.446 170.931C350.81 174.105 350.819 184.351 351.245 185.431C356.885 180.66 357.192 167.306 357.173 166.918C356.737 158.004 349.703 152.665 347.278 152.063C347.11 153.854 348.378 156.439 349.878 166.821ZM31.4895 145.377C32.0078 144.847 31.3214 146.101 35.3883 133.658C38.8914 122.94 43.5946 114.982 43.9261 113.724C41.7129 113.915 33.6982 117.55 29.5799 125.424C24.006 136.08 30.0453 144.68 31.4895 145.377ZM345.714 145.411C348.871 142.649 351.033 134.783 348.702 128.193C345.19 118.264 335.431 114.022 333.338 113.784C333.528 114.75 338.299 123.82 339.903 128.819C340.539 130.802 342.804 135.646 343.217 137.688C343.506 139.12 345.182 144.798 345.714 145.411ZM47.837 106.676C49.0758 105.128 47.7201 106.258 55.5296 94.7887C59.6748 88.7008 62.9934 85.2481 63.4953 84.3234C65.1679 81.2418 70.9604 76.6505 70.6839 76.054C70.2336 75.0827 62.4039 77.2916 58.0088 80.3473C53.3739 83.5697 45.3198 92.2161 47.837 106.676ZM329.176 106.321C330.333 103.6 330.273 93.0672 324.611 85.6976C317.323 76.213 306.839 75.8985 306.431 75.9618C306.757 76.6162 306.713 76.0436 314.311 85.2508C326.128 99.5701 327.948 105.38 329.176 106.321ZM75.9853 70.7264C76.3608 70.5632 82.6196 64.6033 83.6681 63.9636C83.9414 63.7969 85.6305 62.3128 96.4044 54.2721C99.4085 52.0301 105.767 48.433 106.246 47.9184C103.342 46.4862 91.7873 46.7701 83.9156 53.9239C76.2156 60.9217 75.8206 70.0017 75.9853 70.7264ZM301.084 70.6212C301.173 69.3241 300.564 63.6869 296.918 58.305C288.095 45.2814 272.371 47.2179 270.827 47.8943C271.7 48.7412 282.157 54.4289 287.572 59.3216C287.931 59.6463 291.755 62.3599 293.993 64.2149C296.347 66.1668 300.052 70.1198 301.084 70.6212ZM113.756 43.8023C115.14 43.3698 112.54 43.91 127.003 37.903C140.633 32.242 144.409 32.0645 145.25 31.2582C144.79 30.6615 137.195 24.2615 126.539 29.0485C118.348 32.7284 113.704 41.4603 113.756 43.8023ZM263.305 43.5953C262.486 38.9648 256.775 31.7289 250.294 28.9465C240.692 24.8249 233.291 29.6185 231.781 31.2719C233.558 32.3294 239.199 33.3481 245.775 35.9962C263.853 43.2752 261.777 43.5688 263.305 43.5953ZM163.658 27.4729C170.361 26.2957 183.203 25.9423 184.83 25.4444C184.607 25.1838 177.871 19.8392 168.613 19.8781C162.848 19.9023 154.055 23.0687 152.098 29.7041C153.296 29.8164 153.93 29.3201 158.654 28.402C159.853 28.1691 163.457 27.5082 163.658 27.4729ZM224.916 29.7379C224.024 25.703 217.28 20.3698 210.751 19.9503C204.891 19.5738 196.705 21.3982 191.984 25.515C192.843 25.8446 191.056 25.6041 207.273 26.6412C212.636 26.9841 224.558 29.7376 224.916 29.7379ZM169.112 335.27L168.364 334.914C168.289 334.878 164.702 333.159 164.627 333.123C163.114 332.386 159.406 331.158 160.895 328.41C162.195 326.011 165.81 328.318 168.011 329.375C168.499 329.609 171.917 331.244 172.08 331.321C176.336 333.35 172.706 331.602 175.952 333.16L183.31 336.692C188.745 339.301 188.393 339.001 188.507 339.003C189.003 339.008 192.159 337.447 193.054 337.019C193.531 336.792 195.817 335.695 197.818 334.738C203.785 331.884 203.389 332.078 204.449 331.569L211.286 328.291C211.562 328.159 215.615 325.94 216.339 328.907C216.88 331.126 215.463 331.638 212.725 332.97C212.627 333.017 207.931 335.275 207.833 335.322C207.775 335.35 205.233 336.556 204.945 336.694L195.779 341.076C187.937 344.827 190.513 345.535 180.793 340.848C180.56 340.736 174.953 338.058 169.112 335.27ZM186.567 333.297C177.255 330.338 184.444 319.409 191.165 322.612C198.515 326.115 193.884 335.621 186.567 333.297ZM96.3316 301.407C96.0885 301.356 96.3739 301.352 94.575 301.166C94.3044 301.138 90.6033 300.788 90.0619 300.734C88.3872 300.567 86.221 300.34 85.1382 300.224C77.1838 299.373 77.6514 300.265 76.9508 293.165L76.2092 285.649C75.7795 281.294 75.8932 281.667 75.6161 280.712C75.2438 280.562 66.1608 279.191 60.9623 267.016C55.5221 254.275 61.0591 246.433 61.1595 246.026C61.3449 245.273 57.227 238.543 55.8568 227.388C54.6428 217.505 56.2836 209.9 57.0882 206.679C60.0081 194.994 65.077 189.99 65.4443 188.426C63.8037 185.303 56.7244 177.156 55.5718 160.731C54.2589 142.022 61.7114 132.731 61.1606 131.002C58.8901 123.872 57.012 122.807 59.8292 113.236C63.8772 99.484 73.0691 97.4419 75.617 96.3435C75.9143 95.336 75.7858 95.6224 76.2403 91.1284L77.2908 80.7415C77.5744 77.9337 78.353 77.5768 80.9571 77.284C81.306 77.2448 84.3639 76.9527 85.3242 76.8534C95.1739 75.8344 96.0956 75.8442 96.2667 75.7059C96.5752 75.4566 97.401 66.5664 109.761 61.1748C120.002 56.7074 127.67 58.9684 131.248 61.3503C138.423 57.985 147.625 55.0332 158.938 55.4804C177.024 56.1954 187.382 64.9195 188.506 65.463C191.702 63.8801 199.331 56.6715 216.536 55.5727C224.186 55.084 230.029 56.2525 231.833 56.6179C240.766 58.4281 245.198 61.2623 245.785 61.2479C246.204 61.2377 254.763 55.7969 266.705 60.8626C268.018 61.4196 271.738 62.9912 275.28 66.3617C280.802 71.6153 280.084 74.8409 280.595 75.5167C280.76 75.736 279.203 75.6031 294.244 77.1039C300.987 77.7767 299.493 78.2069 300.389 87.0411C300.572 88.8382 300.918 92.3209 300.953 92.6578C301.346 96.433 301.359 96.2026 301.391 96.428C302.132 96.6214 310.402 97.6999 315.674 109.19C318.266 114.839 320.289 122.216 315.801 131.389C328.735 159.551 317.91 177.715 311.547 188.621C313.193 191.268 320.871 200.692 321.568 218.129C322.177 233.374 316.848 242.559 315.841 245.796C316.691 248.036 320.848 254.13 316.575 265.745C312.022 278.122 303.438 279.993 301.422 280.672C301.31 281.111 301.339 280.586 300.947 284.418C300.935 284.529 300.419 289.759 300.396 289.981C299.317 300.729 300.477 299.312 292.095 300.208C291.498 300.272 287.718 300.661 287.121 300.721C286.087 300.823 283.172 301.094 282.42 301.169C280.661 301.345 280.709 301.443 280.675 301.452C279.777 303.791 278.206 311.726 266.158 316.451C261.714 318.194 257.993 318.35 256.402 318.383C248.552 318.543 246.658 315.918 245.786 315.887C243.879 315.819 234.078 323.334 214.466 321.352C198.994 319.789 190.465 312.564 188.472 311.583C182.3 314.708 175.645 321.268 158.668 321.612C141.241 321.966 132.261 315.765 131.144 315.888C130.73 315.934 123.02 321.516 110.347 316.24C98.2895 311.22 97.4386 303.591 96.3316 301.407ZM158.598 304.866C157.128 304.319 151.824 304.165 146.122 300.973C141.922 298.621 138.866 299.573 126.489 291.317C125.364 290.567 126.137 291.629 120.629 287.946C114.059 283.554 117.846 284.721 113.16 282.593C112.862 282.458 109.455 278.078 106.975 277.239C107.044 284.125 113.567 296.64 122.628 304.345C127.256 308.279 138.518 316.035 154.027 316.711C159.035 316.929 164.953 316.684 171.805 314.604C176.753 313.102 182.659 310.028 183.463 309.015C181.655 308.122 168.522 308.555 158.598 304.866ZM219.053 304.87C211.368 308.033 196.456 308.29 193.39 308.849C194.097 309.777 205.129 316.968 221.467 316.78C233.476 316.642 245.988 311.713 254.508 304.284C268.029 292.496 269.986 278.79 270.067 277.555C269.023 277.891 264.947 282.225 264.095 282.62C258.974 284.988 261.786 285.156 258.565 286.712C255.514 288.186 256.155 288.866 254.396 289.707C253.74 290.021 249.176 292.525 249.075 292.592C235.533 301.515 219.653 304.623 219.053 304.87ZM113.654 302.582C111.132 303.304 103.155 301.768 101.744 302.002C101.483 308.343 120.353 317.054 125.834 312.904C124.842 311.787 124.014 311.83 119.9 308.364C115.213 304.416 114.999 303.314 113.654 302.582ZM263.38 302.568C262.668 302.669 262.462 303.974 256.783 308.676C252.767 312.002 251.816 312.034 251.205 312.982C252.818 313.799 259.371 314.447 266.166 311.194C272.681 308.075 275.927 302.848 275.267 302.055C275.08 301.831 274.969 301.986 268.007 302.622C263.031 303.077 263.838 302.502 263.38 302.568ZM230.204 291.761C229.411 291.951 213.072 299.46 190.254 299.798C177.465 299.988 166.742 297.518 165.784 297.295C146.114 292.719 147.911 291.302 146.792 291.701C146.414 291.836 144.689 294.926 144.761 295.155C145.258 296.724 161.73 300.267 164.338 301.49C165.707 302.132 177.32 303.979 189.414 303.944C207.254 303.893 214.215 300.969 214.712 300.855C215.793 300.607 231.831 296.683 232.346 295.297C232.462 294.987 230.982 292.503 230.204 291.761ZM79.2279 267.05C79.2489 267.368 79.2224 267.264 79.447 269.695C79.5168 270.451 80.0367 275.865 80.0492 275.991L80.808 283.622L81.4968 290.274C81.8358 293.547 81.7546 294.382 82.1052 294.804C82.4248 295.188 82.9928 295.226 84.8169 295.4C85.0161 295.419 87.4058 295.649 89.7951 295.883C91.8391 296.083 98.1407 296.707 98.3109 296.725L106.929 297.615C110.359 297.969 109.813 297.819 110.06 297.774C109.54 296.561 106.827 293.419 104.202 285.949C101.242 277.53 102.436 276.077 101.599 275.382C101.043 274.92 97.1357 275.16 89.9222 272.454C83.864 270.182 80.8025 267.629 79.2279 267.05ZM294.977 294.895C295.287 294.547 295.567 290.276 295.681 289.118C295.711 288.816 295.968 286.297 296.189 284.08L297.015 275.821C297.021 275.757 297.292 272.986 297.33 272.6C297.66 269.289 297.766 268.371 297.797 268.003C297.882 266.989 297.76 267.133 297.749 267.079C296.388 267.473 294.068 269.835 287.219 272.411C280.804 274.823 277.226 274.831 275.345 275.377C275.107 276.157 274.312 283.056 271.913 288.54C268.972 295.26 267.331 296.6 267.062 297.829C267.276 297.837 267.067 297.887 269.737 297.627C270.472 297.556 279.046 296.699 281.986 296.406C293.698 295.235 294.628 295.285 294.977 294.895ZM193.797 295.14C222.337 293.509 243.653 280.623 247.978 276.884C248.494 276.438 259.309 270.686 272.9 253.612C281.122 243.283 288.238 226.515 288.566 224.562C288.979 222.102 291.956 215.072 293.529 204.38C295.202 193.005 294.772 185.362 294.165 179.394C291.788 156.021 284.798 143.771 275.758 129.272C266.774 114.862 252.097 104.841 248.403 102.049C244.732 99.275 214.641 78.6404 173.689 84.7763C171.702 85.0739 149.839 86.9198 127.056 103.404C107.412 117.616 81.1578 147.967 83.1605 194.396C84.4102 223.37 97.046 248.93 117.308 267.36C138.979 287.073 167.799 296.626 193.797 295.14ZM242.885 290.416C246.359 289.076 245.028 289.457 245.802 288.699C246.758 287.762 251.206 286.195 252.189 284.886C253.736 282.825 254.45 284.039 258.01 280.718C258.097 280.637 262.667 277.211 262.776 277.164C263.733 275.216 262.727 277.987 268.403 271.83C271.237 268.756 274.891 265.727 275.016 265.595C275.102 265.505 277.701 261.22 278.552 260.496C281.186 258.252 282.282 256.065 282.542 255.171C283.765 254.417 286.449 249.657 286.636 249.269C287.223 248.947 287.124 249.016 287.174 248.96C287.526 248.564 293.074 237.652 293.151 237.127C292.587 236.435 290.425 235.191 289.319 234.839C288.293 235.995 288.071 240.831 275.959 256.858C268.082 267.282 259.108 274.821 257.742 275.591C256.231 276.443 254.527 278.602 245.859 283.82C245.068 284.297 239.907 287.367 239.219 287.712C235.553 289.55 235.147 289.252 235.027 289.498C234.829 289.905 236.92 293.469 237.281 293.431C237.504 293.407 237.362 293.057 238.085 292.647C238.177 292.595 242.687 290.493 242.885 290.416ZM87.8878 234.726C86.5693 235.204 84.1553 236.755 84.0931 236.919C83.9088 237.405 90.3263 248.031 90.3861 248.284C90.9254 250.563 97.3275 258.728 97.7763 258.991C98.2923 260.98 107.768 270.805 115.456 277.618C120.675 282.244 134.583 291.35 140.194 292.865C140.72 292.263 142.043 290.342 142.167 289.391C139.563 288.666 131.138 284.035 122.82 277.858C109.13 267.691 103.441 259.32 101.108 256.507C93.95 247.879 89.0272 236.417 87.8878 234.726ZM64.1096 251.222C63.1413 252.627 62.9252 259.371 65.529 265.371C67.1676 269.148 73.3036 276.669 75.0126 275.29C75.5731 274.838 73.6128 265.734 74.6231 263.295C63.7294 252.913 66.9501 253.304 64.1096 251.222ZM302.576 263.361C302.484 263.85 303.05 262.984 302.581 268.336C302.061 274.25 301.812 274.415 302.023 275.382C304.103 275.171 309.03 271.76 311.978 264.256C314.464 257.929 313.67 252.245 312.867 251.213C311.766 252.216 311.634 253.277 308.379 257.156C304.229 262.102 302.703 262.693 302.576 263.361ZM97.7752 267.097C88.2517 256.431 82.2275 244.576 80.0736 239.844C72.3287 222.827 75.6944 226.021 73.1636 221.636C72.6511 220.748 71.022 213.681 69.8038 204.878C68.2171 193.411 68.682 194.036 68.3344 193.157C66.9231 194.529 53.2284 216.258 65.017 242.244C69.8074 252.803 77.2093 259.769 82.7486 263.405C87.3799 266.445 99.3875 271.384 99.9844 270.032C100.009 269.977 99.3773 269.206 98.0897 267.692C97.8453 267.405 97.9367 267.278 97.7752 267.097ZM307.254 209.398C307.063 209.673 307.134 209.263 306.837 209.686C306.649 209.955 304.31 224.015 303.262 225.678C302.889 226.272 299.258 236.16 299.145 236.614C298.42 237.185 295.56 243.94 295.357 245.028C293.847 245.92 294.615 246.433 290.495 252.325C290.266 252.651 288.674 256.401 287.126 258.043C286.009 259.229 282.538 263.669 282.45 263.788C277.987 269.848 277.804 268.687 277.525 270.101C287.642 268.819 304.913 259.935 312.921 240.175C317.548 228.757 316.927 218.405 316.376 213.616C315.147 202.947 309.856 194.35 308.907 193.478C307.846 196.836 308.529 207.556 307.254 209.398ZM295.089 144.853C294.007 145.131 291.494 146.829 291.05 147.168C291.081 150.595 295.022 152.195 298.178 174.825C299.419 183.723 299.597 196.163 297.711 206.908C294.393 225.816 291.559 228.163 291.478 230.081C292.21 230.855 294.337 232.05 295.222 232.461C297.262 229.631 302.945 208.351 303.655 198.608C305.211 177.258 300.588 159.92 298.683 156.086C298.578 155.874 296.491 146.448 295.089 144.853ZM86.2738 147.467C86.1641 147.071 83.0929 145.214 82.7787 145.311C82.163 145.499 81.7629 147.679 81.5986 147.989C81.2686 148.613 81.102 147.565 79.3587 153.422C79.3086 153.59 78.1431 157.55 78.1189 157.634C72.7878 176.211 73.8333 192.792 74.4377 199.487C76.0034 216.828 80.3153 229.513 82.599 231.961C83.4444 231.6 85.694 230.336 85.8234 229.895C86.3786 228.002 82.7245 226.019 79.5331 206.056C77.4554 193.059 78.0899 180.985 79.695 171.42C82.655 153.782 86.8045 149.382 86.2738 147.467ZM76.8748 144.761C77.1803 144.387 77.1165 144.79 77.4102 144.356C77.5189 144.196 80.973 135.543 81.0859 135.385C83.5081 132.004 84.4166 127.546 93.6324 115.98C93.7136 115.878 93.0589 115.818 97.7695 110.942C97.8359 110.873 100.272 107.61 100.41 106.955C98.4126 106.902 83.3626 109.283 71.7083 123.841C61.3969 136.721 60.3206 150.772 60.3147 156.272C60.2968 173.022 67.1752 182.749 68.3672 184.007C69.7097 179.717 69.486 164.431 73.5036 156.389C73.6119 156.173 76.4158 145.324 76.8748 144.761ZM282.544 114.116C283.638 114.734 283.223 114.832 286.646 119.765C289.374 123.697 292.929 128.505 294.232 131.622C294.972 133.393 298.636 139.87 300.202 143.971C308.605 165.979 308.417 182.099 308.949 183.634C313.566 178.629 322.001 157.34 312.159 135.099C308.061 125.838 302.201 119.954 298.31 116.713C297.057 115.669 292.739 112.11 286.694 109.654C284.46 108.746 277.501 106.422 276.991 107.044C276.42 107.739 281.67 111.948 282.544 114.116ZM140.358 84.626C134.192 86.7476 137.029 86.8215 130.063 90.0656C128.101 90.9793 130.365 89.1401 121.928 95.5984C113.235 102.253 122.958 93.4492 105.138 109.651C105.042 109.738 105.776 109.544 100.865 114.475C100.332 115.01 97.989 118.286 97.7708 118.895C97.4071 119.08 97.5772 118.918 97.3405 119.146C96.9674 119.505 92.465 125.582 90.2259 129.963C89.5789 131.229 84.2292 139.482 84.5622 140.37C84.7208 140.792 87.803 142.527 88.3897 142.761C91.4707 139.316 93.2858 128.806 110.716 111.372C117.305 104.782 122.883 100.451 125.527 98.8204C142.622 88.2749 141.591 89.6739 142.905 88.7493C142.575 87.8379 141.11 85.2378 140.358 84.626ZM290.634 135.91C289.973 133.498 285.672 126.442 282.571 122.516C282.275 122.141 270.95 106.96 266.816 104.569C266.638 104.465 259.471 97.9365 259.097 97.7648C258.9 97.674 250.571 92.1148 250.081 91.6835C248.492 90.2842 237.374 84.5745 236.775 84.4934C235.582 85.7285 234.126 88.6751 234.08 88.7651C237.246 90.0881 253.15 96.7623 269.041 113.612C276.72 121.754 280.857 128.235 281.461 129.271C286.06 137.16 283.226 131.898 285.659 136.432C288.844 142.367 288.62 142.51 288.741 142.575C288.988 142.709 292.57 140.737 292.71 140.097C292.79 139.732 291.608 136.636 290.634 135.91ZM75.0021 101.73C67.651 102.76 60.8554 119.2 64.0809 125.886C65.2242 125.104 64.6092 124.728 68.8158 119.82C73.2728 114.62 74.2955 114.281 74.4166 113.624C74.4598 113.39 75.0594 101.961 75.0021 101.73ZM302.56 113.645C303.408 115.173 303.87 114.587 308.477 120.074C311.203 123.321 312.039 125.111 312.927 125.872C313.846 124.247 314.041 119.1 312.468 114.213C309.483 104.941 302.814 101.181 302.039 101.771C301.472 102.203 303.517 109.964 302.56 113.645ZM110.007 79.223C109.914 79.2214 110.154 79.1413 108.468 79.3261C107.306 79.4535 104.085 79.7861 103.995 79.795L93.5883 80.83L86.7965 81.5022C82.8569 81.8922 82.4474 81.9238 82.2317 82.0964C81.9453 82.3255 81.873 82.7736 81.757 83.8679C81.7384 84.0434 81.3915 87.7313 81.3396 88.258L80.0438 101.391L79.3533 108.19C79.21 109.601 79.1849 109.345 79.2314 110.053C81.2699 109.142 84.0311 106.799 90.3196 104.492C98.5821 101.461 100.86 102.336 101.567 101.737C102.626 100.839 101.12 99.423 104.386 90.516C106.645 84.3576 109.222 81.0823 110.007 79.223ZM296.841 99.4902C296.744 98.5213 296.108 92.2243 296.026 91.417C295.628 87.5023 295.538 86.6214 295.528 86.5235C295.14 82.6493 295.273 83.1365 294.974 82.2331C294.344 82.0059 294.2 81.9361 288.342 81.3282C287.937 81.2861 280.225 80.5063 278.196 80.3019C272.271 79.7052 272.271 79.7054 272.15 79.693C272.062 79.684 267.827 79.2435 267.739 79.234C266.976 79.1517 267.125 79.2194 267.042 79.2246C267.438 80.723 270.195 83.4935 272.755 90.8077C275.064 97.4013 274.756 100.338 275.472 101.743C276.379 102.06 280.607 102.201 287.122 104.67C293.808 107.204 296.861 109.722 297.761 110.036C297.808 109.773 297.906 110.25 297.665 107.807L296.841 99.4902ZM131.225 83.609C131.528 83.1077 131.482 83.1302 131.591 83.053C131.787 82.9135 140.976 78.6913 142.519 78.0139C143.187 77.7204 161.217 70.6411 177.949 69.2402C178.462 69.1973 181.882 68.9389 182.223 68.9096C184.409 68.722 184.358 68.6548 184.401 68.6463C181.579 65.7628 170.06 60.3473 156.804 60.3473C119.556 60.3473 106.021 94.4323 106.919 100.791C107.08 100.732 113.163 95.666 113.639 95.4706C114.141 94.3012 127.68 85.029 131.225 83.609ZM208.438 70.3122C208.777 70.3672 212.581 71.0101 212.665 71.0289L212.907 71.082C213.489 71.2942 213.087 71.2787 213.483 71.5149C213.716 71.6538 223.819 73.8337 226.603 74.8995C234.285 77.8401 237.194 78.5665 237.896 79.2321C238.209 79.5281 238.073 79.5976 238.242 79.7407C238.509 79.9665 245.022 82.4214 246.094 83.5722C248.241 83.9531 252.75 87.5461 256.466 89.828C261.861 93.1412 264.333 95.8634 267.544 97.9955C268.81 98.8363 268.306 99.2988 270.013 100.641C270.146 99.3438 268.877 84.8707 253.878 72.3256C239.526 60.3218 223.348 60.3837 222.68 60.371C217.111 60.265 212.399 60.3385 205.399 62.4439C200.24 63.9955 194.06 67.2398 192.643 68.6296C194.458 69.2133 198.717 68.7334 208.438 70.3122ZM231.938 82.6841C231.825 81.7535 221.487 78.4362 217.244 77.368C214.992 76.8009 201.602 74.5828 198.127 74.3288C188.847 73.6505 174.699 74.2034 172.294 75.1512C170.868 75.7134 157.396 77.4346 153.563 79.1895C148.038 81.719 145.334 82.2684 145.229 82.4129C144.954 82.7909 146.716 85.5486 147.403 86.5511C150.896 86.7679 164.222 78.5826 190.466 78.8673C203.97 79.0138 213.916 81.8447 214.381 81.9717C228.782 85.8998 229.005 86.7518 229.596 86.5187C229.764 86.4527 231.96 82.8625 231.938 82.6841ZM125.811 64.1228C124.115 63.0712 117.896 62.823 111.627 65.5675C105.609 68.2023 100.841 74.0711 101.776 75.0706C102.269 75.5971 110.119 73.3908 113.783 74.5602C123.979 64.4867 124.683 65.6652 125.811 64.1228ZM263.448 74.4734C263.681 74.5019 274.98 75.1074 275.208 75.0504C275.502 72.875 271.355 68.1808 265.324 65.5355C258.059 62.3489 251.323 63.6024 251.225 64.1605C251.148 64.5977 252.773 65.0654 257.111 68.6418C259.902 70.9425 262.764 74.39 263.448 74.4734ZM37.868 199.728C36.5438 196.953 36.1401 196.104 36.0292 195.873C31.7911 187.047 31.5405 190.598 37.0784 179.025C37.1175 178.943 38.9818 175.015 39.0208 174.933C39.2141 174.528 39.8962 173.113 41.4451 169.874L41.8163 169.098C43.8449 164.855 43.8393 164.853 44.0177 164.485C44.9089 162.647 45.7305 159.916 48.3135 160.779C51.3447 161.791 48.6237 166.081 47.8433 167.71C47.8062 167.788 46.0259 171.514 45.9889 171.592C44.4252 174.875 45.7082 172.198 44.3973 174.944C43.4778 176.871 40.447 183.166 40.1967 183.691C39.7886 184.548 38.0715 188.092 38.0625 188.514C38.0576 188.743 38.2433 189.248 39.1437 191.17C39.5642 192.067 39.5778 192.061 44.4862 202.346C45.616 204.714 46.6152 206.808 46.6588 206.899C47.6985 209.069 49.0465 211.853 49.1427 212.061C50.4521 214.891 49.3446 216.438 47.3603 216.436C45.9035 216.435 45.4814 215.657 43.7896 212.119L37.868 199.728ZM331.47 204.634L334.256 198.807C334.684 197.91 335.483 196.228 335.591 196.004L338.538 189.87C339.348 188.182 338.895 188 337.239 184.519C336.953 183.918 337.021 184.07 333.653 177.019C332.837 175.312 333.004 175.659 332.899 175.438L328.015 165.232C327.131 163.384 327.249 162.413 327.418 161.982C328.654 158.828 330.945 160.085 333.857 166.202L336.737 172.253C336.891 172.575 337.974 174.828 339.31 177.621C341.166 181.503 341.245 181.668 341.284 181.75C345.554 190.63 345.459 186.549 339.962 198.118C339.913 198.222 338.029 202.165 337.481 203.306L333.525 211.544C332.695 213.274 331.973 215.687 330.528 216.327C329.732 216.68 325.616 216.795 328.214 211.4L331.47 204.634ZM47.0631 194.631C40.5454 191.388 44.1734 179.516 50.7516 182.634C60.052 187.042 52.2322 197.203 47.0631 194.631ZM326.521 194.561C316.241 190.342 325.642 177.931 331.353 183.492C336.372 188.379 331.661 196.67 326.521 194.561ZM186.943 54.9133C183.659 54.1946 181.818 49.8478 182.127 48.0247C182.437 46.1991 185.932 42.423 190.357 43.7828C199.26 46.5187 193.54 56.3569 186.943 54.9133ZM167.671 42.5069C170.001 41.394 170.001 41.394 170.098 41.3476C171.945 40.4645 174.36 39.3074 177.2 37.9456C190.849 31.4008 187.015 31.7702 194.623 35.4451C194.817 35.5391 197.74 36.9431 199.495 37.7838L206.926 41.3435C215.074 45.2456 216.953 45.5957 216.354 48.0723C215.666 50.9131 213.577 49.887 206.722 46.6079L195.036 41.016C194.96 40.9799 191.332 39.254 191.256 39.2183C189.097 38.2006 188.854 38.1541 188.514 38.0429C188.453 38.0628 188.12 38.095 185.605 39.2975L177.943 42.9617C177.858 43.002 173.984 44.8623 173.732 44.9833C173.583 45.0544 166.449 48.4632 166.3 48.5337C164.554 49.3595 162.088 50.6766 160.939 48.7384C159.681 46.6165 161.265 45.5931 163.482 44.5106C163.649 44.4291 166.916 42.8671 167.671 42.5069ZM93.5885 285.331C93.852 285.366 97.4576 285.797 97.9847 285.865C103.948 286.627 102.956 290.017 100.723 290.711C99.753 291.013 100.013 290.996 92.2859 290.032C91.3195 289.911 88.2594 290.016 87.4846 287.537C85.8825 282.411 85.2461 275.091 88.2988 274.776C92.2259 274.371 91.1595 282.84 92.0705 285.074C92.1604 285.095 92.0619 285.13 93.5885 285.331ZM284.182 285.23C284.718 285.142 284.868 285.059 285.002 284.92C286.051 283.833 284.593 274.485 288.684 274.776C291.501 274.977 290.802 278.478 290.66 279.62C289.687 287.486 289.724 287.371 289.315 288.129C288.41 289.808 287.173 289.738 280.979 290.508C278.192 290.854 275.337 291.597 274.783 288.974C274.318 286.777 276.307 286.209 279.426 285.819C283.897 285.261 283.993 285.262 284.182 285.23ZM186.732 285.101C181.835 283.523 181.95 274.707 189.612 275.634C196.489 276.466 193.89 287.407 186.732 285.101ZM147.775 259.574C146.307 256.754 145.663 254.621 148.056 253.904C150.132 253.282 150.66 254.682 153.013 259.157C153.159 259.435 154.119 261.29 155.422 263.79L155.781 264.479C158.578 269.846 158.862 270.398 159.364 271.361C160.88 274.269 161.453 275.358 161.736 275.904C162.543 277.458 163.646 279.632 161.379 280.757C159.333 281.772 158.406 280.012 156.932 277.175L147.775 259.574ZM223.697 259.798C225.568 256.192 226.711 252.742 229.486 254.096C231.013 254.841 231.26 255.708 228.749 260.589C228.455 261.16 226.467 264.96 223.796 270.095C222.479 272.627 222.421 272.738 222.364 272.848C222.096 273.363 220.228 276.971 220.139 277.142C219.461 278.441 217.096 283.232 214.788 280.08C213.516 278.344 215.79 275.039 218.984 268.883L223.697 259.798ZM139.277 272.275C138.067 271.852 133.229 268.653 130.038 263.395C126.408 257.414 126.748 252.233 126.747 250.349C121.35 250.133 117.139 249.848 111.588 245.602C110.442 244.725 101.786 237.591 105.857 235.028C108.496 233.367 107.975 236.133 113.569 240.988C122.984 249.158 129.823 242.884 131.888 245.585C133.337 247.48 128.976 254.167 135.162 262.306C140.17 268.895 141.871 267.302 142.251 269.49C142.641 271.738 140.584 272.732 139.277 272.275ZM236.149 272.202C231.37 270.075 238.453 266.674 241.57 262.748C247.734 254.983 244.665 248.346 244.703 247.067C244.839 242.523 249 246.479 255.348 245.107C264.368 243.157 267.836 235.484 269.099 234.96C273.137 233.284 273.444 237.845 268.312 243.019C264.482 246.88 260.416 249.92 250.326 250.349C250.175 254.056 250.381 259.914 244.889 266.311C241.868 269.83 238.075 273.059 236.149 272.202ZM170.841 269.152C168.303 268.774 166.851 264.897 171.777 264.493C182.657 263.6 185.965 255.194 187.689 254.441C190.984 253.002 190.286 258.601 198.69 262.816C204.143 265.551 207.383 263.387 208.322 266.075C209.543 269.57 204.47 269.472 201.813 268.961C194.229 267.501 189.04 261.419 188.554 261.037C186.695 262.455 179.706 270.47 170.841 269.152ZM146.234 188.641C144.378 187.13 133.268 182.997 127.695 173.501C121.79 163.44 127.434 155.843 137.22 154.111C140.306 153.565 145.186 153.769 147.667 154.13C152.403 154.819 154.968 156.006 155.993 156.056C156.041 155.2 151.824 144.535 154.697 134.65C156.739 127.625 163.126 122.438 172.41 127.113C182.748 132.319 187.247 144.904 188.732 146.263C193.194 135.298 204.372 122.732 214.447 125.769C222.813 128.291 223.217 139.118 223.249 140.866C223.45 151.914 221.137 152.676 221.024 156.051C224.127 155.616 228.076 153.337 236.524 153.773C246.271 154.276 249.666 158.772 250.87 161.441C253.599 167.492 249.74 174.248 245.038 178.935C239.209 184.744 232.25 187.571 230.822 188.519C232.318 189.675 243.599 194.054 249.212 203.366C252.318 208.52 254.477 218.602 242.605 222.305C233.094 225.271 222.714 221.141 220.984 221.038C221.169 222.266 229.189 246.771 214.362 251.373C209.841 252.777 203.874 250.617 198.53 245.441C192.17 239.282 189.762 232.557 188.506 230.843C184.631 236.79 177.197 253.793 163.823 251.619C157.407 250.576 153.804 243.81 153.704 235.398C153.541 221.766 157.38 222.615 156.045 221.085C154.94 219.819 153.47 224.031 139.377 223.224C136.241 223.044 128.369 221.547 125.953 215.073C123.188 207.666 129.603 200.205 133.432 196.776C139.759 191.109 145.309 189.426 146.234 188.641ZM168.542 246.451C173.641 244.626 180.899 238.012 185.359 225.228C187.101 220.233 189.874 221.493 190.84 223.107C191.626 224.42 192.82 230.074 197.508 236.875C204.771 247.408 214.393 250.895 217.613 241.528C219.118 237.151 219.074 229.619 215.6 220.587C214.274 217.138 212.655 216.921 213.73 214.928C214.347 213.783 215.919 212.93 217.407 213.87C228.848 221.098 251.596 220.404 246.231 207.98C244.511 203.997 238.869 197.046 227.662 192.612C224.754 191.461 222.126 191.244 221.848 189.086C221.721 188.102 221.628 186.543 224.225 185.704C242.33 179.855 253.538 164.98 242.622 159.875C240.636 158.947 233.013 156.632 220.749 161.393C217.078 162.818 217.411 163.936 215.543 163.525C213.888 163.161 213.175 161.376 213.581 160.213C214.342 158.032 216.134 158.517 217.976 148.157C220.05 136.493 216.431 128.682 209.513 130.318C203.338 131.779 195.986 140.45 192.25 150.343C187.388 163.22 185.28 149.495 180.976 142.447C173.431 130.089 162.871 125.649 159.452 135.478C158.937 136.958 157.386 142.042 159.743 151.142C162.146 160.422 164.402 159.854 163.459 161.933C161.147 167.029 158.143 158.618 142.217 158.465C139.967 158.443 125.496 159.328 131.424 170.375C136.734 180.271 149.759 184.443 153.224 185.86C156.577 187.231 155.012 190.089 154.317 190.631C152.808 191.811 147.589 192.386 139.988 197.678C127.451 206.408 126.904 216.218 137.872 218.214C149.12 220.262 160.738 213.432 161.213 213.47C165.988 213.855 161.864 219.469 161.818 219.583C155.427 235.521 158.633 249.998 168.542 246.451ZM138.472 241.203C132.139 238.34 137.192 228.157 142.906 231.29C150.523 235.467 143.816 243.619 138.472 241.203ZM234.406 241.157C227.018 238.244 232.39 229.472 237.15 230.782C244.393 232.776 241.794 244.07 234.406 241.157ZM113.287 227.107C112.27 226.578 109.31 225.035 108.663 224.697C108.589 224.659 105.038 222.799 104.964 222.761C104.872 222.714 100.497 220.452 100.406 220.404C98.1052 219.2 95.33 218.114 96.2564 215.821C96.81 214.451 98.1927 213.834 100.525 215.002C100.602 215.04 103.676 216.654 104.37 217.014L119.131 224.678C120.534 225.406 124.182 226.612 123.07 229.31C122.147 231.548 119.71 230.423 118.242 229.677C118.142 229.627 114.377 227.673 113.287 227.107ZM267.921 219.495C269.435 218.71 269.405 218.726 269.435 218.71L274.68 215.963C279.129 213.634 280.179 214.23 280.803 215.827C281.671 218.052 278.929 219.208 277.114 220.156C276.857 220.29 273.765 221.891 272.82 222.381C272.722 222.432 270.26 223.712 267.899 224.944L260.541 228.781C259.603 229.269 254.983 232.36 253.944 229.222C253.129 226.759 255.395 225.99 259.856 223.674C261.146 223.005 261.309 222.925 267.921 219.495ZM109.253 208.23C107.628 207.467 107.265 203.65 108.859 199.264C111.231 192.739 114.856 189.961 116.012 188.582C114.062 186.137 109.185 181.883 108.114 175.087C107.245 169.575 109.21 167.44 111.523 169.001C113.912 170.615 110.625 176.111 118.065 183.622C120.789 186.372 122.63 186.619 122.776 188.348C122.952 190.425 121.007 190.502 118.05 193.438C109.501 201.925 114.861 210.862 109.253 208.23ZM265.884 208.285C262.457 206.83 266.998 200.887 258.616 193.002C252.637 187.376 252.324 189.956 258.556 184.079C267.257 175.875 262.468 169.856 266.053 168.728C268.523 167.951 269.999 170.531 268.954 175.308C267.238 183.159 263.635 185.124 261.012 188.565C261.43 189.097 268.54 195.296 269.131 203.386C269.55 209.131 266.858 208.698 265.884 208.285ZM94.7908 193.405C90.2423 191.73 90.853 182.769 97.063 183.566C104.876 184.568 101.614 195.918 94.7908 193.405ZM279.399 193.469C272.531 192.543 275.389 180.796 282.343 183.712C286.479 185.446 286.671 194.45 279.399 193.469ZM115.104 149.037C119.414 146.793 121.238 145.476 122.743 147.283C123.875 148.642 123.627 150.036 120.224 151.834C119.937 151.985 118.498 152.727 115.434 154.321C112.699 155.743 104.503 160.028 103.008 160.797C100.824 161.921 97.1853 164.355 96.1916 161.092C95.701 159.48 95.8301 159.073 102.553 155.573L115.104 149.037ZM270.797 159.1L263.159 155.118C262.558 154.805 258.342 152.618 258.142 152.513C255.381 151.061 253.109 150.115 253.944 147.897C255.081 144.878 258.837 147.436 259.315 147.681C261.001 148.543 265.125 150.689 266.958 151.644L275.132 155.903C279.383 158.118 281.524 158.873 280.86 161.096C280.125 163.556 277.97 162.808 275.289 161.431C275.199 161.384 273.22 160.364 270.797 159.1ZM139.794 146.288C132.725 144.152 135.008 134.069 141.785 135.612C144.926 136.327 146.469 139.342 146.398 140.881C146.264 143.78 142.571 147.127 139.794 146.288ZM234.517 146C228.398 143.431 230.387 135.547 236.595 135.5C237.812 135.49 241.853 136.301 241.506 141.31C241.296 144.333 237.776 147.368 234.517 146ZM140.949 104.876C145.526 106.78 138.651 110.908 136.435 113.273C128.947 121.261 132.384 129.555 132.399 129.897C132.613 134.672 127.826 130.27 120.679 132.218C111.387 134.75 109.829 142.611 106.749 142.305C103.817 142.013 103.527 138.308 110.418 132.443C117.753 126.201 124.601 126.739 126.664 126.799C127.501 109.026 139.499 104.273 140.949 104.876ZM236.073 104.878C237.745 104.175 242.597 107.158 246.382 112.735C250.486 118.782 250.216 123.587 250.36 126.799C265.251 126.359 275.748 140.337 270.946 142.159C266.904 143.693 267.147 134.995 255.979 132.139C247.694 130.02 243.589 136.385 245.256 127.03C247.714 113.233 233.195 110.521 234.812 106.138C234.899 105.904 235.678 105.044 236.073 104.878ZM156.654 100.465C156.776 100.23 159.889 93.1328 162.387 97.1814C163.433 98.8788 161.396 101.83 158.429 107.529L152.433 119.035C150.917 121.945 150.167 123.858 147.968 123.155C144.718 122.114 147.386 118.273 149.034 115.1C149.186 114.807 155.281 103.098 156.654 100.465ZM221.771 113.556C221.356 112.759 220.995 112.078 218.799 107.865C218.09 106.504 215.326 101.196 215.256 101.059C213.411 97.4661 214.965 96.5603 215.783 96.2798C218.062 95.4995 218.707 97.2176 220.627 100.894C220.724 101.081 223.351 106.127 225.488 110.241C225.645 110.544 226.746 112.663 227.061 113.269C228.427 115.898 229.071 117.128 229.198 117.376C229.672 118.299 232.222 122.16 229.023 123.142C226.957 123.776 226.223 122.154 224.616 119.064C224.273 118.404 222.114 114.216 221.771 113.556ZM187.298 122.487C186.376 121.895 182.124 113.286 171.915 112.634C167.165 112.331 168.7 109.214 169.332 108.637C171.295 106.846 177.224 108.557 178.805 109.204C181.167 110.17 182.926 111.317 184.11 112.168C187.611 114.683 187.818 115.752 188.357 115.928C188.36 115.929 188.477 115.997 188.492 116.008C189.137 115.531 198.929 105.535 206.936 108.143C208.79 108.747 208.969 111.644 207.072 112.38C205.563 112.964 200.535 111.775 194.441 117.095C190.396 120.627 190.009 124.229 187.298 122.487ZM186.298 101.213C182.401 99.9135 181.695 91.3943 189.115 91.8466C196.339 92.287 194.648 103.996 186.298 101.213ZM87.206 90.8476C87.7003 87.5373 88.8726 87.4996 94.0898 86.8325C101.813 85.845 101.686 86.3804 102.146 87.7657C102.345 88.3626 102.855 90.5879 99.1133 91.0806C99.0055 91.0948 93.8251 91.7234 93.7174 91.7378C92.2211 91.9386 92.1178 92.1184 92.0867 92.1311C92.0178 92.2952 91.8819 92.3635 91.7252 93.5701C91.6996 93.7669 91.2265 97.9082 91.1538 98.4992C90.8393 101.056 90.0641 102.801 87.8655 102.203C85.7083 101.617 86.13 99.667 86.6034 95.7503C86.6389 95.456 87.1915 90.9453 87.206 90.8476ZM287.346 102C286.198 101.327 286.065 99.6898 285.916 98.5907C285.2 93.3072 285.257 92.4512 285.006 92.1526C284.257 91.2624 277.256 91.7549 275.507 90.2207C274.091 88.9777 274.813 86.5453 276.681 86.2951C279.407 85.9299 288.03 87.3 288.998 88.4465C289.879 89.4898 293.235 105.454 287.346 102ZM168.942 226.597C169.51 225.416 173.6 216.965 173.694 216.769C177.19 209.494 177.667 207.914 179.579 207.928C184.057 207.96 180.351 214.169 180.296 214.285C180.073 214.751 178.95 217.078 177.499 220.106C176.823 221.516 176.823 221.516 176.809 221.544L171.093 233.369C170.11 235.403 168.778 238.566 166.239 236.802C164.61 235.669 165.404 233.95 166.306 232.077L168.942 226.597ZM204.195 229.735C203.862 229.046 201.536 224.214 201.426 223.984C199.934 220.878 199.551 220.082 199.513 220.003C199.377 219.721 197.514 215.875 197.242 215.312C194.896 210.457 194.344 208.514 196.923 208.032C199.179 207.61 199.331 208.393 204.201 218.503C204.624 219.382 205.9 222.017 207.231 224.78L210.63 231.843C211.276 233.187 212.932 236.267 210.08 237.141C207.908 237.806 207.118 235.727 206.158 233.782C206.118 233.702 204.313 229.978 204.195 229.735ZM155.001 200.522L155.813 200.13C156.707 199.698 160.725 197.749 161.395 197.426C165.671 195.362 167.357 194.367 168.701 196.141C170.288 198.236 168.169 199.568 165.501 200.873C165.258 200.992 154.771 206.045 153.309 206.753L145.896 210.345C143.367 211.57 141.01 212.811 140.041 210.424C139.069 208.025 141.344 207.12 143.111 206.254C143.585 206.022 144.064 205.799 155.001 200.522ZM218.734 204.335C218.549 204.245 214.184 202.146 214.092 202.101C213.921 202.018 209.91 200.077 209.825 200.033C207.151 198.662 207.632 196.366 209.051 195.546C210.549 194.682 210.394 194.91 220.633 199.839C221.129 200.078 224.515 201.702 224.762 201.821L230.804 204.739C232.655 205.635 239.707 208.119 236.591 211.059C234.979 212.581 233.977 211.712 226.903 208.288L218.734 204.335ZM186.937 196.378C184.705 195.901 179.524 192.816 180.765 186.781C181.026 185.512 182.776 180.471 189.681 180.694C192.053 180.771 196.761 184.108 196.487 189.061C196.288 192.665 192.114 197.485 186.937 196.378ZM157.385 177.719L150.802 174.548L143.471 170.987C142.479 170.505 138.902 169.249 139.987 166.715C141.165 163.966 144.495 166.081 145.739 166.678C145.846 166.73 150.033 168.748 151.106 169.266C156.052 171.654 159.41 173.273 159.94 173.528C166.695 176.78 169.174 177.405 169.135 179.61C169.089 182.275 167.067 182.376 162.832 180.347C162.505 180.19 159.782 178.873 157.385 177.719ZM216.175 173.987L226.473 169.017L231.94 166.372C232.215 166.239 235.834 163.942 237.014 166.642C238.092 169.105 235.657 169.983 233.02 171.266C228.616 173.407 233.021 171.268 224.542 175.363L217.991 178.527C217.637 178.698 213.647 180.618 213.558 180.66C210.117 182.295 208.58 182.138 207.973 180.215C207.273 177.996 210.123 176.908 211.715 176.129C211.893 176.042 215.194 174.46 216.175 173.987ZM172.521 157.91L169.05 150.712C168.65 149.882 166.652 145.728 166.554 145.52C165.315 142.903 164.496 141.343 166.412 140.16C168.969 138.581 170.443 142.387 170.572 142.648C170.634 142.773 170.821 143.148 173.616 148.938C175.17 152.157 174.916 151.63 175.029 151.864L181.508 165.308C182.3 166.953 181.702 168.837 179.901 169.132C177.728 169.488 177.017 167.201 175.607 164.287L172.521 157.91ZM199.642 156.813L202.549 150.779L205.43 144.819C206.22 143.182 207.762 138.409 210.633 140.148C212.627 141.355 211.632 143.158 209.616 147.364C209.455 147.698 207.303 152.147 206.928 152.926C206.452 153.914 204.793 157.375 204.554 157.869C204.502 157.977 202.455 162.203 201.929 163.286C200.227 166.791 200.078 167.104 200.038 167.181C198.309 170.546 196.043 168.794 195.671 168.285C194.499 166.678 195.932 164.469 197.415 161.4C197.459 161.308 199.598 156.905 199.642 156.813Z" fill="black"/>
</svg>
