<svg width="376" height="376" viewBox="0 0 376 376" fill="none" xmlns="http://www.w3.org/2000/svg">
<path d="M120.26 96.5045C126.043 101.978 127.501 90.9041 121.165 90.8754C107.756 90.8165 101.905 92.2349 96.2568 86.0823C90.6083 79.9288 90.6292 68.1395 88.8612 70.5215C87.0924 72.9027 86.7373 88.9197 94.1266 93.0025C101.517 97.0852 116.923 93.3448 120.26 96.5045Z" fill="black"/>
<path d="M119.259 87.927C124.395 86.2062 124.901 83.665 121.96 84.2003C111.749 86.0594 105.82 80.1713 104.169 75.1022C102.516 70.0327 95.1432 81.4356 98.9095 85.0608C103.926 89.8883 112.869 90.0682 119.259 87.927Z" fill="black"/>
<path d="M105.439 60.638C105.652 60.4578 111.726 55.6099 119.356 60.7242C125.964 65.1531 124.439 71.1588 121.993 76.0409C121.588 76.848 122.241 77.1497 123.018 76.6716C128.961 73.0158 130.149 64.5411 125.723 57.3988C121.006 49.7868 110.2 53.0196 106.122 58.4434C105.121 59.775 104.517 61.4216 105.439 60.638Z" fill="black"/>
<path d="M108.196 76.3077C106.972 78.3566 113.533 80.9229 116.84 81.7049C120.146 82.4875 119.928 74.6883 121.617 70.6733C123.307 66.658 119.431 62.14 114.977 60.4096C110.131 58.5278 108.958 62.0624 113.635 62.5988C118.312 63.134 118.727 68.4057 116.212 74.1313C113.697 79.8566 109.421 74.2585 108.196 76.3077Z" fill="black"/>
<path d="M115.301 66.4444C114.354 64.9804 111.425 64.9975 109.953 66.0676C108.48 67.139 107.259 70.3722 108.642 70.2822C110.025 70.1927 111.403 65.7358 114.523 67.2919C117.644 68.8478 116.335 68.0453 115.301 66.4444Z" fill="black"/>
<path d="M131.12 81.0394C124.625 83.9903 121.741 94.6755 128.445 89.1643C131.456 86.6896 135.669 84.1525 139.582 81.7326C139.367 82.6892 139.177 83.6321 139.015 84.5561C135.171 86.5208 130.798 89.7176 129.417 93.0199C124.538 104.694 122.767 100.759 114.041 97.0901C105.492 93.4955 95.7474 105.003 103.832 101.664C111.915 98.3255 111.419 106.527 124.173 105.16C130.629 104.469 135.732 100.732 139.344 96.2565C139.717 97.0527 140.203 97.7074 140.826 98.1809C146.805 102.723 169.382 102.119 183.122 105.306C196.861 108.494 184.812 95.1299 173.265 95.4866C161.718 95.8429 148.198 87.2996 149.96 78.5904C150.324 76.7919 150.324 74.6792 150.111 72.6601C150.16 72.0545 150.056 71.3771 149.823 70.6461C149.496 68.8244 149.024 67.2117 148.532 66.17C147.923 64.8827 147.019 64.3634 146.19 64.6257C144.001 61.9211 141.2 59.1848 138.59 57.0271C137.456 56.089 136.46 56.6084 136.507 58.0626C136.561 59.7725 137.603 63.2708 139.236 65.3297C142.68 69.6715 137.615 78.0884 131.12 81.0394Z" fill="black"/>
<path d="M120.216 82.3351C120.861 84.3517 126.757 81.1254 133.483 76.8042C140.209 72.4832 137.231 64.7762 130.782 58.4336C128.261 55.9534 127.181 54.305 130.332 62.7134C134.341 73.4144 119.571 80.319 120.216 82.3351Z" fill="black"/>
<path d="M113.713 73.6712C115.031 71.9542 116.822 70.2827 115.079 69.2815C113.336 68.2795 110.848 69.3585 110.878 70.5194C110.909 71.6801 107.743 74.4757 107.263 70.589C106.782 66.7024 109.51 63.5841 112.32 64.6165C115.13 65.6499 113.734 63.1617 111.99 62.9341C110.078 62.6853 104.1 65.2279 104.817 69.8572C105.534 74.4866 112.396 75.3878 113.713 73.6712Z" fill="black"/>
<path d="M263.327 77.42C261.381 75.3471 260.278 77.5861 263.214 81.8101C266.869 87.0661 273.848 91.9804 280.539 91.1037C285.563 90.4451 286.592 77.5152 282.345 80.4783C278.098 83.4412 270.084 84.6175 263.327 77.42Z" fill="black"/>
<path d="M268.726 78.394C271.727 79.6611 278.278 81.3956 278.54 79.129C278.802 76.8622 272.228 78.7491 273.657 72.9277C275.086 67.1061 278.501 63.2888 282.41 65.5195C286.32 67.7494 287.495 64.3701 282.665 63.079C278.225 61.8922 272.593 63.1753 271.533 67.2159C270.473 71.2562 265.726 77.1277 268.726 78.394Z" fill="black"/>
<path d="M258.813 65.2252C261.445 72.3464 264.082 78.1573 265.762 76.9716C267.441 75.7861 260.144 62.1349 269.51 56.1749C276.87 51.4923 275.072 52.149 271.677 52.631C262.996 53.8629 256.181 58.1042 258.813 65.2252Z" fill="black"/>
<path d="M255.427 77.5716C257.343 85.5951 261.402 75.7532 258.143 69.8156C254.884 63.8782 255.934 54.5472 261.131 53.1561C263.595 52.4961 266.451 50.3958 267.496 49.1123C268.386 48.0206 267.926 47.059 266.503 47.1393C258.965 47.5635 248.842 49.7702 248.068 53.5854C247.189 57.9144 253.51 69.548 255.427 77.5716Z" fill="black"/>
<path d="M281.737 74.2461C282.747 75.0966 283.708 71.9217 283.205 70.266C282.701 68.6115 280.46 66.9439 278.873 67.5344C277.138 68.1803 275.661 68.0579 278.973 68.6248C282.285 69.1919 280.727 73.3957 281.737 74.2461Z" fill="black"/>
<path d="M260.018 82.9997C255.131 79.4421 249.748 88.777 257.407 87.8371C261.828 87.2941 271.473 98.8727 279.55 99.9097C287.628 100.946 296.761 88.4347 296.8 85.6053C296.84 82.7756 289.932 91.8488 281.977 93.3874C274.022 94.925 270.358 90.5296 260.018 82.9997Z" fill="black"/>
<path d="M275.849 73.9863C275.853 76.05 281.656 79.2339 284.926 76.0806C288.196 72.9278 285.095 67.5965 283.479 66.7073C282.005 65.8969 279.471 67.0206 282.237 67.8139C285.003 68.6076 285.269 72.5459 282.617 75.2616C279.965 77.9778 279.174 74.0403 279.879 73.1656C280.584 72.2904 279.305 70.0553 277.377 69.8408C275.45 69.6258 275.844 71.9222 275.849 73.9863Z" fill="black"/>
<path d="M187.053 63.8699C190.406 59.409 195.683 64.8593 197.745 64.0059C199.806 63.1537 195.658 59.357 192.742 58.8579C189.828 58.3603 185.591 60.4157 185.306 63.1996C184.996 66.2435 183.701 68.3305 187.053 63.8699Z" fill="black"/>
<path d="M187.491 55.7844C185.143 57.3515 184.967 61.9318 188.257 58.4456C191.547 54.9608 197.785 57.5209 199.961 63.4685C202.139 69.4157 195.508 67.6319 194.695 65.936C193.881 64.2401 189.496 64.4509 187.722 67.1338C185.947 69.8157 189.764 70.955 192.932 72.4958C196.1 74.0363 205.332 67.8628 202.948 60.6761C200.565 53.4894 190.066 54.0673 187.491 55.7844Z" fill="black"/>
<path d="M181.317 54.2647C176.169 59.9246 173.915 69.1939 179.316 73.7859C184.717 78.3775 190.161 89.7819 194.351 86.3052C198.544 82.8285 206.114 74.4664 202.835 72.3809C199.556 70.2946 197.521 81.4066 189.666 74.9347C181.811 68.4622 178.518 60.5633 184.868 56.4698C191.218 52.3745 186.917 48.1089 181.317 54.2647Z" fill="black"/>
<path d="M243.069 72.6782C242.78 75.2259 242.794 77.952 243.252 80.6452C242.184 85.2708 238.803 89.8145 231.745 94.0813C225.239 98.0149 231.72 103.214 244.796 94.6227C246.264 93.6576 247.5 92.6155 248.532 91.516C248.784 91.7759 249.045 92.0313 249.316 92.2804C258.317 100.535 262.752 93.9518 267.004 101.085C271.257 108.219 270.525 93.8684 261.843 91.8013C255.658 90.3287 252.005 90.8646 251.416 87.3366C255.312 79.2164 251.513 69.494 248.279 63.7357C243.981 56.0871 250.935 53.2705 246.917 47.2023C242.899 41.1349 232.722 40.3598 227.404 39.0406C219.305 37.0331 236.412 57.3477 240.908 66.7881C241.836 68.7363 242.589 70.7047 243.069 72.6782Z" fill="black"/>
<path d="M227.274 78C223.669 90.8865 214.183 92.9959 194.886 102.604C185.767 107.145 196.046 122.083 200.346 110.081C202.827 103.153 227.811 97.6065 235.456 86.4689C243.1 75.3315 230.763 52.4805 226.453 50.3022C222.145 48.1222 230.879 65.1124 227.274 78Z" fill="black"/>
<path d="M192.64 45.1391C182.753 40.2121 164.78 43.2235 163.596 57.5535C162.484 70.9995 170.455 82.3795 181.726 83.4318C183.201 83.5693 183.92 82.6705 182.74 81.7939C175.606 76.4894 168.973 68.9095 175.235 57.8278C182.465 45.0318 194.805 47.7106 195.245 47.8198C197.153 48.2952 195.067 46.349 192.64 45.1391Z" fill="black"/>
<path d="M195.457 96.9976C206.256 95.5475 219.023 88.9363 222.694 78.4104C225.45 70.5064 206.396 59.2952 207.756 67.781C209.116 76.2661 204.911 88.9698 188.811 93.5402C184.173 94.8568 186.779 98.163 195.457 96.9976Z" fill="black"/>
<path d="M209.75 106.508C199.873 117.998 200.223 124.931 184.566 111.558C176.015 104.255 151.648 105.428 154.078 108.819C161.115 118.639 181.689 132.434 201.094 125.345C220.499 118.257 213.729 106.78 227.853 105.855C241.98 104.93 219.428 95.2515 209.75 106.508Z" fill="black"/>
<path d="M157.061 62.6398C152.442 76.3685 153.836 89.6004 166.728 91.0561C179.62 92.5122 190.507 92.9781 189.948 89.6114C189.39 86.2454 162.987 86.7762 160.87 68.4934C159.207 54.1271 158.866 57.2716 157.061 62.6398Z" fill="black"/>
<path d="M152.761 63.6909C154.395 59.9724 149.697 43.5047 180.752 38.4201C211.807 33.3346 190.704 49.7107 207.342 57.4896C225.434 65.9494 225.17 69.5961 222.062 54.3196C219.651 42.4627 220.053 17.889 205.886 20.4892C191.719 23.0906 189.811 28.3791 161.148 35.2809C134.262 41.7556 148.979 54.2977 150.605 63.0025C150.827 64.1944 152.199 64.9697 152.761 63.6909Z" fill="black"/>
<path d="M59.9758 83.2617C64.2713 85.4188 69.6041 85.2462 73.8817 83.1351C74.2131 82.9665 74.6871 82.7773 74.51 82.2997C74.3227 80.3732 73.9653 78.459 73.8891 76.5231C73.9819 74.6165 74.5595 72.7761 75.0477 70.9406C75.1972 69.8834 73.9644 69.3534 73.2288 68.863C71.1134 67.9163 68.7828 66.8755 66.4088 67.2408L66.4099 67.2423C66.2516 67.2666 66.0931 67.2973 65.9346 67.3346C61.0799 68.5706 57.0708 72.6709 51.7719 72.144C51.223 72.1237 50.1608 71.3946 50.0645 72.2662L50.1124 72.5972C52.6042 76.7481 55.4302 81.0474 59.9758 83.2617Z" fill="black"/>
<path d="M306.017 79.3459C305.51 79.8998 304.6 80.5866 304.945 81.4318C305.733 82.8532 306.596 84.2606 307.072 85.8203C307.414 87.4383 307.518 89.0949 307.766 90.7274C307.719 91.1585 308.151 91.2197 308.461 91.2925C312.444 92.1797 316.895 91.2496 320 88.5997C323.3 85.852 324.74 81.7242 325.935 77.7864L325.905 77.5028C325.643 76.8006 324.916 77.6179 324.466 77.7451C320.189 79.2475 316.013 76.6596 311.735 76.6131C311.596 76.6141 311.459 76.6206 311.323 76.6322L311.323 76.6309C309.282 76.806 307.57 78.1366 306.017 79.3459Z" fill="black"/>
<path d="M155.45 326.883C155.124 325.774 154.62 324.661 153.878 323.674C153.145 322.684 152.18 321.848 151.133 321.245C150.085 320.636 148.973 320.233 147.876 319.946C145.674 319.39 143.519 319.239 141.422 319.145C139.324 319.063 137.273 319.051 135.266 319.021C134.263 319.002 133.272 318.979 132.294 318.942C131.318 318.892 130.354 318.839 129.412 318.742C128.94 318.694 128.474 318.63 128.014 318.561C127.555 318.499 127.1 318.414 126.639 318.319C125.726 318.125 124.832 317.885 123.976 317.588C122.269 316.991 120.697 316.136 119.555 314.961C118.989 314.374 118.534 313.712 118.247 312.996C117.969 312.282 117.831 311.513 117.932 310.78C118.027 310.048 118.35 309.372 118.848 308.907C119.098 308.674 119.397 308.498 119.738 308.395C119.823 308.367 119.912 308.349 120.001 308.329C120.091 308.316 120.179 308.299 120.306 308.293C120.541 308.272 120.773 308.262 121.008 308.249C121.942 308.213 122.864 308.331 123.714 308.659C124.136 308.828 124.536 309.058 124.886 309.36C125.238 309.651 125.552 310.042 125.746 310.446L125.761 310.478C125.811 310.581 125.934 310.624 126.037 310.575C126.121 310.535 126.165 310.445 126.151 310.358C125.978 309.225 125.235 308.27 124.301 307.611C123.36 306.947 122.247 306.599 121.153 306.404C120.878 306.359 120.602 306.319 120.326 306.298C120.198 306.281 120.031 306.276 119.866 306.272C119.701 306.276 119.536 306.28 119.37 306.301C118.706 306.371 118.041 306.6 117.463 306.963C116.283 307.682 115.522 308.893 115.162 310.139C114.802 311.398 114.817 312.735 115.145 313.965C115.469 315.199 116.073 316.328 116.835 317.287C117.592 318.254 118.5 319.058 119.463 319.729C120.426 320.403 121.453 320.94 122.498 321.38C123.541 321.831 124.612 322.161 125.684 322.434C126.749 322.707 127.864 322.912 128.943 323.025C130.029 323.151 131.103 323.215 132.166 323.229C133.227 323.252 134.277 323.233 135.314 323.189C137.387 323.115 139.415 322.949 141.397 322.892C143.374 322.835 145.326 322.86 147.106 323.224C148.886 323.584 150.434 324.305 151.451 325.563C151.969 326.185 152.367 326.938 152.655 327.771C152.942 328.598 153.134 329.53 153.219 330.419C153.303 331.311 153.269 332.188 153.067 332.995C152.862 333.8 152.49 334.532 151.942 335.135C150.853 336.354 149.067 337.006 147.237 337.086C145.406 337.171 143.48 336.758 141.903 335.813C141.12 335.34 140.432 334.724 139.962 333.981C139.488 333.24 139.251 332.369 139.298 331.468C139.361 330.553 139.581 329.588 140.011 328.778C140.433 327.958 141.095 327.273 141.93 326.871C142.757 326.461 143.738 326.326 144.681 326.479C145.618 326.635 146.547 327.072 147.135 327.827L147.138 327.832C147.209 327.923 147.339 327.939 147.43 327.869C147.516 327.802 147.534 327.68 147.475 327.59C146.864 326.67 145.858 326.103 144.812 325.843C143.758 325.59 142.612 325.648 141.571 326.065C140.529 326.48 139.645 327.283 139.071 328.239C138.782 328.716 138.55 329.225 138.381 329.749C138.22 330.281 138.086 330.787 138.018 331.362C137.879 332.496 138.112 333.708 138.675 334.726C139.23 335.752 140.057 336.584 140.975 337.227C142.83 338.505 145.031 339.136 147.27 339.181C148.391 339.193 149.533 339.042 150.64 338.674C151.744 338.307 152.819 337.703 153.696 336.84C154.577 335.983 155.222 334.878 155.584 333.725C155.945 332.569 156.057 331.379 156.003 330.239C155.946 329.094 155.775 328.003 155.45 326.883Z" fill="black"/>
<path d="M251.075 312.074C251.062 312.162 251.106 312.251 251.19 312.292C251.293 312.341 251.416 312.298 251.465 312.195L251.481 312.163C251.675 311.758 251.989 311.368 252.341 311.076C252.691 310.774 253.091 310.544 253.513 310.376C254.363 310.047 255.285 309.929 256.219 309.965C256.454 309.978 256.686 309.989 256.921 310.009C257.048 310.016 257.136 310.032 257.226 310.046C257.315 310.066 257.404 310.083 257.488 310.111C257.83 310.215 258.129 310.39 258.379 310.624C258.877 311.089 259.2 311.764 259.295 312.496C259.396 313.23 259.258 313.998 258.98 314.712C258.693 315.428 258.238 316.09 257.671 316.677C256.53 317.852 254.958 318.708 253.251 319.304C252.395 319.601 251.501 319.841 250.588 320.036C250.127 320.13 249.672 320.215 249.212 320.277C248.753 320.346 248.287 320.41 247.815 320.458C246.872 320.555 245.909 320.609 244.932 320.659C243.955 320.695 242.964 320.719 241.961 320.738C239.954 320.767 237.903 320.78 235.805 320.861C233.708 320.956 231.553 321.107 229.351 321.662C228.254 321.949 227.142 322.352 226.094 322.962C225.046 323.564 224.082 324.401 223.349 325.391C222.607 326.377 222.102 327.49 221.777 328.6C221.452 329.72 221.281 330.81 221.224 331.955C221.169 333.095 221.282 334.285 221.642 335.441C222.005 336.594 222.65 337.699 223.531 338.556C224.408 339.419 225.483 340.023 226.587 340.39C227.694 340.759 228.836 340.909 229.957 340.897C232.196 340.852 234.397 340.221 236.252 338.944C237.17 338.301 237.997 337.468 238.552 336.442C239.115 335.424 239.348 334.212 239.209 333.078C239.14 332.503 239.007 331.997 238.845 331.465C238.676 330.942 238.445 330.433 238.155 329.955C237.582 328.999 236.698 328.196 235.655 327.782C234.615 327.364 233.469 327.306 232.415 327.56C231.369 327.819 230.363 328.386 229.752 329.306C229.693 329.396 229.711 329.518 229.797 329.585C229.888 329.655 230.018 329.639 230.088 329.548L230.092 329.544C230.679 328.789 231.609 328.351 232.546 328.195C233.489 328.043 234.469 328.178 235.297 328.588C236.131 328.99 236.793 329.674 237.216 330.495C237.645 331.305 237.866 332.269 237.929 333.185C237.975 334.085 237.739 334.957 237.265 335.697C236.795 336.441 236.107 337.057 235.323 337.53C233.746 338.475 231.821 338.888 229.989 338.802C228.16 338.723 226.374 338.07 225.285 336.851C224.737 336.248 224.365 335.517 224.16 334.712C223.958 333.904 223.924 333.028 224.008 332.136C224.093 331.246 224.285 330.315 224.572 329.488C224.86 328.655 225.258 327.902 225.776 327.28C226.793 326.022 228.341 325.3 230.121 324.94C231.901 324.576 233.853 324.551 235.829 324.609C237.812 324.665 239.839 324.831 241.913 324.906C242.949 324.95 244 324.968 245.061 324.946C246.124 324.932 247.198 324.868 248.284 324.741C249.363 324.628 250.478 324.424 251.543 324.15C252.615 323.877 253.686 323.548 254.729 323.097C255.774 322.657 256.8 322.119 257.764 321.445C258.727 320.774 259.634 319.971 260.392 319.004C261.154 318.045 261.758 316.915 262.082 315.681C262.409 314.451 262.425 313.114 262.065 311.856C261.705 310.609 260.944 309.398 259.764 308.679C259.186 308.316 258.521 308.087 257.857 308.017C257.691 307.997 257.525 307.992 257.361 307.989C257.195 307.992 257.029 307.998 256.901 308.014C256.625 308.035 256.349 308.075 256.074 308.121C254.979 308.315 253.867 308.663 252.926 309.327C251.991 309.986 251.249 310.941 251.075 312.074Z" fill="black"/>
<path d="M177.408 242.807C181.152 243.14 184.128 242.397 186.251 240.598C188.01 239.108 188.77 237.245 189.094 236.038C189.38 237.241 190.078 239.089 191.777 240.576C193.533 242.113 195.931 242.887 198.922 242.887C199.478 242.887 200.054 242.86 200.65 242.807C203.808 242.523 206.179 241.107 207.697 238.595C211.477 232.346 208.91 220.99 207.158 216.769C204.676 210.788 189.365 186.759 189.211 186.516L189.029 186.231L188.847 186.516C188.693 186.759 173.382 210.788 170.899 216.769C169.147 220.992 166.579 232.352 170.361 238.602C171.88 241.111 174.251 242.526 177.408 242.807ZM180.99 216.683C182.112 213.978 189.029 203.135 189.029 203.135C189.029 203.135 195.945 213.978 197.067 216.683C198.19 219.388 199.801 227.723 194.231 228.224C189.237 228.672 189.067 224.722 189.067 224.722C189.067 224.722 188.768 228.664 183.827 228.224C178.256 227.727 179.868 219.388 180.99 216.683Z" fill="black"/>
<path d="M285.687 254.403C286.743 252.685 286.206 250.437 284.488 249.381C282.77 248.326 280.522 248.863 279.466 250.581C278.41 252.298 278.947 254.547 280.665 255.602C282.383 256.658 284.632 256.121 285.687 254.403Z" fill="black"/>
<path d="M289.969 249.04C291.247 248.829 292.113 247.622 291.902 246.344C291.691 245.066 290.484 244.201 289.206 244.411C287.928 244.622 287.063 245.829 287.274 247.107C287.484 248.385 288.691 249.25 289.969 249.04Z" fill="black"/>
<path d="M277.27 262.429C278.548 262.218 279.413 261.011 279.203 259.733C278.992 258.455 277.785 257.59 276.507 257.801C275.229 258.011 274.364 259.218 274.575 260.496C274.785 261.774 275.992 262.64 277.27 262.429Z" fill="black"/>
<path d="M282.579 207.889C281.979 208.946 281.614 210.101 281.456 211.292C281.329 212.485 281.387 213.745 281.903 214.954C282.157 215.552 282.521 216.135 283.014 216.605L283.197 216.78L283.371 216.923C283.486 217.017 283.6 217.112 283.727 217.196C283.97 217.373 284.231 217.531 284.501 217.672C285.579 218.24 286.892 218.445 288.067 218.132C289.238 217.834 290.271 217.083 290.819 216.051C291.087 215.539 291.257 214.974 291.251 214.412C291.252 213.852 291.122 213.313 290.888 212.846C290.846 212.762 290.75 212.711 290.653 212.729C290.535 212.752 290.458 212.866 290.48 212.984C290.649 213.908 290.395 214.799 289.848 215.4C289.301 216.003 288.525 216.343 287.766 216.372C287.005 216.394 286.287 216.146 285.698 215.691C285.551 215.577 285.41 215.453 285.278 215.315C285.209 215.252 285.147 215.175 285.084 215.103L284.99 214.994L284.929 214.895C284.768 214.636 284.648 214.347 284.58 214.022C284.305 212.704 284.817 211.03 285.704 209.843C285.921 209.538 286.175 209.269 286.438 209.029C286.697 208.782 286.98 208.579 287.27 208.411C287.853 208.073 288.47 207.894 289.111 207.858C289.433 207.842 289.762 207.866 290.099 207.911C290.472 207.965 290.898 208.051 291.277 208.156C292.051 208.369 292.78 208.65 293.445 209.016C294.103 209.393 294.704 209.836 295.222 210.363C295.727 210.899 296.179 211.493 296.511 212.167C296.846 212.836 297.094 213.565 297.224 214.331C297.29 214.713 297.322 215.105 297.332 215.499C297.338 215.696 297.331 215.894 297.324 216.092C297.309 216.298 297.297 216.512 297.271 216.72C297.088 218.4 296.538 220.047 295.636 221.507C293.847 224.458 290.736 226.592 287.294 227.951C285.569 228.644 283.755 229.18 281.897 229.583C280.967 229.781 280.029 229.954 279.082 230.098C278.131 230.243 277.204 230.346 276.177 230.487C274.173 230.783 272.175 231.274 270.279 232.078C268.388 232.875 266.597 234.03 265.207 235.583C263.815 237.131 262.886 239.058 262.493 241.051C262.113 243.052 262.162 245.085 262.647 247.039C262.674 247.146 262.778 247.217 262.889 247.2C263.006 247.181 263.087 247.071 263.068 246.954L263.065 246.935C262.472 243.164 263.481 239.058 266.175 236.508C267.501 235.226 269.152 234.316 270.912 233.718C272.674 233.113 274.541 232.793 276.425 232.646C277.345 232.576 278.371 232.523 279.364 232.434C280.362 232.344 281.36 232.223 282.358 232.073C284.351 231.765 286.342 231.318 288.294 230.66C290.243 230.001 292.154 229.112 293.922 227.926C295.694 226.751 297.297 225.224 298.55 223.411C299.803 221.599 300.676 219.502 301.091 217.311C301.536 215.107 301.392 212.593 300.429 210.376C299.492 208.144 297.727 206.222 295.607 205.091C295.08 204.806 294.537 204.561 293.985 204.351C293.431 204.151 292.867 203.986 292.302 203.868C291.729 203.742 291.189 203.657 290.59 203.599C289.954 203.537 289.299 203.547 288.647 203.638C287.344 203.816 286.064 204.326 285.032 205.098C283.985 205.854 283.17 206.832 282.579 207.889Z" fill="black"/>
<path d="M229.45 303.412C231.577 302.47 233.059 300.695 233.865 298.126C236.916 297.949 241.528 296.485 243.822 291.84C244.88 292.18 246.357 292.427 247.954 292C250.069 291.434 251.804 289.879 253.113 287.379C253.499 286.64 253.213 285.729 252.475 285.342C252.475 285.342 252.475 285.342 252.475 285.342C252.47 285.233 252.456 285.123 252.427 285.013C250.253 276.897 251.568 267.938 251.581 267.849C251.599 267.73 251.599 267.612 251.589 267.497C251.865 267.056 251.91 266.488 251.65 265.995C250.41 263.651 248.748 262.233 246.71 261.781C244.967 261.395 243.331 261.831 242.17 262.333C241.299 260.478 240.018 259.242 238.345 258.647C235.26 257.55 231.802 259.11 230.161 260.031C227.876 258.415 225.478 257.766 223.019 258.098C219.542 258.568 216.87 260.923 215.485 262.427C211.285 259.414 206.087 260.885 202.946 262.63C201.364 260.51 199.422 259.288 197.157 258.992C193.383 258.499 189.802 260.813 188.013 262.229C186.261 260.533 184.251 259.619 182.019 259.507C178.437 259.332 175.218 261.324 173.494 262.658C172.021 260.901 170.248 259.866 168.204 259.575C164.997 259.119 161.965 260.677 160.239 261.822C158.843 259.687 157.016 258.301 154.791 257.694C150.763 256.594 146.619 258.443 144.806 259.431C142.878 258.111 140.941 257.672 139.035 258.122C136.581 258.703 134.834 260.677 133.827 262.17C132.603 261.317 131.419 261.126 130.529 261.137C126.854 261.212 123.981 264.877 123.665 265.295C123.216 265.889 123.278 266.706 123.772 267.232C123.875 267.947 124.831 275.13 123.323 284.674C123.286 284.906 123.31 285.133 123.374 285.344C123.361 285.439 123.357 285.536 123.363 285.636C123.51 287.928 125.075 290.254 127.259 291.423C128.585 292.134 129.991 292.358 131.357 292.103C131.649 293.53 132.34 295.372 133.962 296.663C135.744 298.082 138.163 298.49 141.166 297.882C142.909 300.462 148.286 306.553 158.223 302.551C161.14 304.366 166.927 305.982 172.714 301.947C174.282 303.16 177.529 305.223 181.25 305.051C183.561 304.944 185.658 304.011 187.499 302.273C189.217 303.455 192.641 305.364 196.425 305.01C198.753 304.79 200.828 303.766 202.608 301.96C204.305 303.254 207.578 305.347 210.996 305.347C211.396 305.347 211.797 305.319 212.198 305.257C214.25 304.941 215.978 303.841 217.348 301.98C219.799 303.147 225.259 305.269 229.45 303.412ZM250.075 286.617C249.254 287.95 248.289 288.777 247.2 289.078C245.46 289.558 243.83 288.576 243.824 288.572L243.784 288.547C243.786 288.434 243.777 288.319 243.752 288.204C243.218 285.78 242.91 282.772 242.739 279.739C244.78 279.246 246.646 278.718 248.28 278.155C248.454 280.586 248.82 283.212 249.512 285.793C249.604 286.138 249.809 286.421 250.075 286.617ZM242.691 265.438C243.349 265.057 244.7 264.427 246.057 264.728C247.079 264.954 247.977 265.712 248.735 266.974C248.672 267.105 248.621 267.244 248.598 267.395C248.564 267.618 248.105 270.737 248.151 274.997C246.568 275.591 244.695 276.146 242.608 276.665C242.452 271.328 242.643 266.521 242.691 265.438ZM240.805 288.853C240.891 289.245 241.126 289.564 241.434 289.773C239.773 294.061 235.83 294.927 233.9 295.087C233.896 295.003 233.891 294.919 233.873 294.835C233.065 290.96 232.546 286.324 232.213 281.796C234.847 281.372 237.385 280.912 239.751 280.414C239.938 283.413 240.262 286.388 240.805 288.853ZM231.636 262.666C232.848 261.985 235.383 260.795 237.334 261.49C238.439 261.883 239.266 262.922 239.802 264.566C239.741 264.718 239.698 264.88 239.689 265.053C239.669 265.433 239.388 271.08 239.605 277.358C237.243 277.865 234.686 278.333 232.014 278.764C231.526 270.253 231.64 262.863 231.643 262.743C231.643 262.717 231.637 262.692 231.636 262.666ZM131.413 288.955C130.302 289.395 129.333 289.111 128.683 288.763C127.425 288.089 126.455 286.694 126.375 285.444C126.367 285.325 126.343 285.212 126.31 285.103C126.739 282.379 126.977 279.853 127.094 277.597C128.176 277.951 129.918 278.5 132.219 279.154C132.049 282.09 131.781 285.236 131.362 288.326C131.333 288.544 131.354 288.757 131.413 288.955ZM132.368 276.059C129.695 275.286 127.902 274.691 127.188 274.447C127.222 269.811 126.774 266.891 126.743 266.696C126.728 266.601 126.703 266.511 126.671 266.424C127.578 265.471 129.127 264.181 130.596 264.155C130.611 264.154 130.625 264.154 130.64 264.154C131.276 264.154 131.873 264.406 132.45 264.918C132.438 265.006 132.43 265.097 132.434 265.189C132.436 265.263 132.604 269.89 132.368 276.059ZM140.759 294.865C140.758 294.87 140.759 294.874 140.758 294.879C138.59 295.353 136.938 295.167 135.853 294.311C134.098 292.927 134.163 290.105 134.163 290.083L134.198 289.217C134.274 289.068 134.33 288.906 134.353 288.731C134.752 285.785 135.017 282.793 135.192 279.969C137.414 280.558 139.98 281.191 142.835 281.822C142.367 285.515 141.7 289.834 140.759 294.865ZM135.353 276.892C135.595 271.204 135.496 266.669 135.46 265.419L135.567 265.179C136.008 264.201 137.616 261.553 139.739 261.056C140.913 260.781 142.206 261.199 143.586 262.285C143.515 262.522 143.494 262.778 143.55 263.037C143.563 263.094 144.426 267.363 143.189 278.814C140.231 278.155 137.597 277.495 135.353 276.892ZM143.502 295.967C143.608 295.805 143.688 295.622 143.725 295.42C144.655 290.45 145.321 286.157 145.796 282.452C149.069 283.123 152.653 283.77 156.484 284.334C156.406 288.81 156.496 293.899 156.891 299.438C156.9 299.564 156.93 299.684 156.967 299.799C148.615 303.075 144.531 297.652 143.502 295.967ZM158.103 264.789C158.032 265.178 156.916 271.412 156.564 281.298C152.831 280.742 149.339 280.106 146.154 279.449C147.492 267.278 146.555 262.651 146.5 262.397C146.471 262.263 146.42 262.141 146.36 262.025C147.843 261.234 151.09 259.807 154.008 260.608C155.79 261.098 157.174 262.345 158.24 264.396C158.18 264.518 158.129 264.648 158.103 264.789ZM159.767 299.945C159.866 299.725 159.92 299.481 159.901 299.223C159.525 293.955 159.437 289.077 159.507 284.753C163.005 285.21 166.679 285.59 170.484 285.849C170.501 289.958 170.672 294.347 171.111 298.67C171.133 298.881 171.199 299.074 171.295 299.248C166.006 303.169 161.231 300.844 159.767 299.945ZM171.55 265.511C171.536 265.623 170.633 273.116 170.499 282.826C166.713 282.565 163.057 282.183 159.583 281.723C159.927 271.754 161.054 265.426 161.072 265.332C161.097 265.196 161.096 265.062 161.085 264.931C162.026 264.203 164.961 262.16 167.779 262.562C169.271 262.775 170.534 263.64 171.629 265.188C171.592 265.291 171.564 265.398 171.55 265.511ZM185.774 299.587C185.776 299.629 185.786 299.668 185.791 299.708C184.381 301.183 182.851 301.952 181.125 302.036C177.799 302.194 174.76 299.761 173.998 299.099C174.093 298.874 174.14 298.626 174.114 298.366C173.692 294.21 173.524 289.99 173.503 286.026C176.068 286.154 178.684 286.225 181.338 286.225C182.813 286.225 184.302 286.194 185.798 286.149C185.709 291.759 185.672 296.978 185.774 299.587ZM186.276 265.028C186.258 265.662 186.011 274.395 185.85 283.136C181.647 283.268 177.517 283.208 173.515 283.006C173.638 273.419 174.532 265.99 174.545 265.879C174.553 265.821 174.549 265.764 174.549 265.707C175.428 264.922 178.579 262.348 181.88 262.521C183.527 262.608 184.979 263.361 186.305 264.806C186.292 264.879 186.278 264.952 186.276 265.028ZM189.291 265.085C190.663 263.863 193.878 261.603 196.766 261.985C198.374 262.195 199.728 263.184 200.9 264.982C200.553 265.306 200.364 265.788 200.435 266.294C200.45 266.396 201.359 272.964 201.55 282.164C195.603 282.625 190.93 282.895 188.872 283.006C189.037 274.122 189.288 265.269 189.293 265.114C189.293 265.104 189.291 265.095 189.291 265.085ZM200.921 299.329C199.527 300.947 197.965 301.83 196.157 302.004C192.969 302.309 189.916 300.319 188.789 299.483C188.788 299.478 188.79 299.474 188.789 299.469C188.69 296.915 188.729 291.67 188.82 286.032C190.797 285.93 195.517 285.667 201.585 285.204C201.594 289.578 201.421 294.401 200.921 299.329ZM214.056 265.14C214.04 265.282 214.038 265.428 214.065 265.576C214.085 265.688 215.296 272.448 215.846 280.866C211.914 281.282 208.076 281.633 204.562 281.923C204.361 272.753 203.467 266.187 203.425 265.884C203.977 265.508 209.81 261.693 214.056 265.14ZM215.626 299.064L215.509 299.271C214.502 301.054 213.271 302.037 211.745 302.274C208.929 302.712 205.54 300.487 203.966 299.19C204.451 294.221 204.616 289.366 204.601 284.965C208.144 284.675 212.024 284.323 216.01 283.902C216.21 288.658 216.15 293.731 215.53 298.316C215.494 298.579 215.535 298.833 215.626 299.064ZM217.067 265.221C217.702 264.414 220.186 261.519 223.439 261.086C225.175 260.858 226.919 261.39 228.63 262.657C228.629 262.669 228.626 262.679 228.626 262.691C228.617 263.193 228.501 270.648 229.008 279.226C225.698 279.714 222.269 280.149 218.864 280.535C218.351 272.743 217.28 266.427 217.067 265.221ZM218.521 298.72C219.18 293.845 219.242 288.52 219.029 283.572C222.436 283.186 225.877 282.75 229.212 282.259C229.556 286.808 230.09 291.477 230.918 295.45C230.974 295.716 231.096 295.95 231.264 296.14L231.229 296.3C230.742 298.549 229.761 299.972 228.232 300.652C225.281 301.963 220.7 300.277 218.394 299.138C218.453 299.008 218.5 298.869 218.521 298.72Z" fill="black"/>
<path d="M113.871 235.583C112.481 234.03 110.69 232.875 108.799 232.079C106.903 231.274 104.905 230.784 102.901 230.487C101.874 230.346 100.947 230.243 99.9955 230.099C99.049 229.955 98.1106 229.781 97.1808 229.583C95.3235 229.18 93.5089 228.644 91.7842 227.951C88.3419 226.592 85.2308 224.458 83.4419 221.507C82.5398 220.047 81.9898 218.4 81.8071 216.72C81.7807 216.512 81.769 216.299 81.7543 216.093C81.7472 215.894 81.74 215.696 81.7463 215.499C81.7561 215.105 81.7883 214.714 81.8541 214.331C81.984 213.565 82.2315 212.836 82.5673 212.167C82.8989 211.493 83.3507 210.899 83.856 210.363C84.3741 209.836 84.975 209.393 85.6326 209.016C86.2981 208.65 87.0272 208.369 87.8015 208.156C88.1801 208.051 88.6062 207.965 88.979 207.911C89.3157 207.866 89.645 207.842 89.9668 207.858C90.6082 207.894 91.2247 208.074 91.8075 208.411C92.0978 208.579 92.3814 208.782 92.6401 209.029C92.9034 209.269 93.1566 209.538 93.3737 209.843C94.261 211.03 94.7727 212.704 94.4979 214.022C94.4303 214.347 94.3101 214.636 94.1491 214.895L94.088 214.994L93.9937 215.103C93.9309 215.176 93.8693 215.252 93.8004 215.315C93.6685 215.453 93.5272 215.577 93.3799 215.691C92.7911 216.146 92.0731 216.394 91.3118 216.372C90.5535 216.343 89.7774 216.003 89.2301 215.4C88.6834 214.799 88.429 213.909 88.5981 212.984C88.6206 212.866 88.5431 212.752 88.425 212.73C88.3277 212.711 88.2326 212.762 88.1897 212.846C87.9559 213.313 87.8265 213.853 87.8273 214.412C87.8214 214.974 87.9909 215.539 88.2592 216.051C88.8072 217.083 89.8402 217.834 91.0108 218.132C92.186 218.445 93.499 218.24 94.577 217.672C94.8473 217.532 95.1078 217.373 95.351 217.197C95.4777 217.112 95.5916 217.017 95.7074 216.923L95.8812 216.78L96.0641 216.605C96.5566 216.135 96.9208 215.552 97.1755 214.954C97.6911 213.745 97.7488 212.485 97.6222 211.292C97.4645 210.101 97.0991 208.946 96.4992 207.89C95.9085 206.832 95.0929 205.854 94.0462 205.098C93.0143 204.327 91.7347 203.817 90.4317 203.638C89.7797 203.547 89.1247 203.537 88.4886 203.599C87.889 203.657 87.3488 203.742 86.776 203.868C86.2113 203.986 85.6468 204.151 85.0934 204.351C84.5418 204.561 83.9984 204.806 83.471 205.091C81.3516 206.222 79.5863 208.144 78.6497 210.376C77.6859 212.593 77.5419 215.107 77.9873 217.311C78.4022 219.502 79.2757 221.599 80.5287 223.411C81.7809 225.224 83.3843 226.751 85.1559 227.926C86.9248 229.112 88.8352 230.001 90.7841 230.66C92.7363 231.319 94.7276 231.765 96.7207 232.074C97.7181 232.223 98.7161 232.345 99.7143 232.434C100.707 232.523 101.733 232.576 102.653 232.646C104.537 232.793 106.404 233.113 108.166 233.718C109.926 234.316 111.577 235.226 112.904 236.508C115.597 239.059 116.606 243.165 116.013 246.935L116.01 246.954C115.992 247.071 116.072 247.181 116.189 247.2C116.3 247.217 116.405 247.146 116.431 247.039C116.916 245.085 116.965 243.052 116.586 241.051C116.192 239.059 115.263 237.131 113.871 235.583Z" fill="black"/>
<path d="M319.708 112.639C316.269 108.779 317.338 103.304 315.59 98.7917C315.531 98.6461 315.466 98.5043 315.396 98.3662H315.398C314.348 96.2955 312.175 95.0571 310.202 93.9343C309.384 93.6355 308.251 92.9688 307.474 93.6864C307.309 93.8787 307.145 94.0724 306.981 94.2663C306.089 91.6543 305.123 89.0822 304.081 86.5527C303.745 85.2615 303.381 84.0739 303.168 83.1127C302.988 82.3063 302.653 82.0484 302.201 82.1977C301.768 81.246 301.327 80.2992 300.873 79.3603C306.176 75.6933 310.968 71.4076 307.529 66.9466C302.355 60.2368 298.977 60.6438 287.62 47.5032C281.475 40.3944 277.909 41.0506 275.166 43.4855C253.225 21.6427 226.142 9.40821 196.302 7.97123C162.976 6.36722 128.795 18.8319 104.88 41.3177C102.864 43.214 100.958 45.1743 99.1418 47.1799C96.839 47.3302 94.6519 47.6008 91.7997 48.4058C86.7519 49.8309 87.1617 55.0884 88.766 60.6463C87.9743 61.8545 87.2048 63.0692 86.466 64.2921C86.1828 63.9772 85.7565 64.0244 85.1423 64.5452C82.5716 66.7255 77.1564 69.9292 76.6513 74.3843C76.375 76.8203 77.6389 77.8247 78.8072 79.1177C77.2942 82.5672 75.9544 86.008 74.765 89.4044C72.2937 89.6996 69.6717 90.1181 67.7334 91.7225L67.7353 91.7233C67.5945 91.8398 67.4573 91.9627 67.324 92.0922C63.3009 96.1493 61.8523 102.529 56.3195 105.112C55.7673 105.413 54.279 105.318 54.7144 106.231L54.963 106.529C59.2623 108.796 63.8752 111.022 68.8026 111.276C68.5129 112.716 68.2479 114.127 68.0065 115.5C63.3591 141.942 64.8162 170.365 71.9045 191.532C71.973 191.737 72.077 191.917 72.1953 192.085C71.0759 193.014 70.0528 193.823 69.1221 194.559C61.3461 200.702 60.626 202.495 66.6574 216.309C70.5423 225.206 74.1817 230.392 77.725 233.539C77.0954 234.799 76.7471 237.2 77.193 242.454C77.5797 247.012 80.3404 252.811 83.0101 258.419C85.6672 264.001 88.4149 269.773 88.3456 273.358C88.3286 274.236 88.2292 275.486 88.1141 276.934C87.2306 288.04 85.1616 314.05 108.75 323.537C109.014 323.643 109.286 323.693 109.554 323.693C109.694 323.693 109.832 323.675 109.967 323.648C110.729 325.66 111.595 327.622 112.513 329.503C118.562 341.893 128.876 351.763 141.111 357.994C150.119 362.582 159.962 365.334 169.945 366.759C182.712 368.582 195.828 368.698 208.585 366.731C226.951 363.899 244.829 355.788 257.073 341.49C260.969 336.94 264.258 331.895 266.686 326.42C266.817 326.444 266.949 326.461 267.084 326.461C267.352 326.461 267.624 326.411 267.887 326.305C291.475 316.818 289.407 290.808 288.523 279.702C288.408 278.254 288.309 277.004 288.292 276.126C288.222 272.541 290.97 266.769 293.628 261.187C296.297 255.579 299.058 249.78 299.445 245.222C299.851 240.428 299.597 238.009 299.071 236.665C303.625 233.974 308.265 228.679 313.321 217.099C319.353 203.285 318.633 201.492 310.856 195.349C310.04 194.704 309.151 194.001 308.19 193.211C309.735 188.083 314.715 169.714 314.901 145.562C314.984 134.771 314.079 124.312 312.215 114.301C314.882 114.585 317.629 114.42 320.281 114.199L320.578 114.048C321.234 113.478 320.036 113.058 319.708 112.639ZM291.119 58.5774C295.283 64.2032 295.796 66.7449 294.837 68.3139C290.996 62.0235 286.628 56.0656 281.73 50.4807C281.537 50.2606 281.34 50.048 281.146 49.8295C284.04 50.9905 287.389 53.5369 291.119 58.5774ZM180.017 358.129C179.771 357.966 179.477 357.877 179.185 357.891C178.142 357.921 177.621 358.409 177.369 358.814C177.113 359.223 176.902 359.915 177.346 360.896C177.466 361.162 177.665 361.385 177.916 361.536L178.46 361.861C166.47 361.654 163.005 360.188 162.016 359.282C161.942 359.214 161.861 359.154 161.774 359.103C159.105 357.533 158.26 355.088 158.806 353.483C159.258 352.153 160.624 351.413 162.544 351.413C162.877 351.413 163.228 351.435 163.592 351.481C164.111 351.543 164.626 351.321 164.934 350.896C165.24 350.471 165.291 349.913 165.066 349.439C163.96 347.115 163.866 345.17 164.807 344.105C165.723 343.069 167.656 342.872 169.867 343.584C173.121 345.235 176.695 350.23 180.508 358.453L180.017 358.129ZM181.914 336.304C182.126 336.252 182.337 336.227 182.547 336.227C183.927 336.227 185.248 337.32 186.171 339.271C186.396 339.745 186.86 340.059 187.384 340.09C187.907 340.121 188.406 339.865 188.684 339.42C190.054 337.24 191.645 336.115 193.048 336.343C194.414 336.56 195.617 338.086 196.201 340.334C196.552 343.967 194.251 349.662 189.354 357.289L189.365 356.701C189.37 356.405 189.284 356.115 189.119 355.87C188.535 355.007 187.859 354.842 187.367 354.833C186.885 354.836 186.186 355.029 185.597 355.93C185.437 356.174 185.355 356.462 185.362 356.754L185.379 357.386C179.126 347.153 178.507 343.443 178.741 342.123C178.759 342.024 178.766 341.924 178.762 341.823C178.656 338.728 180.267 336.704 181.914 336.304ZM192.268 363.827C189.228 363.884 186.187 363.833 183.154 363.689C182.952 363.302 182.835 362.885 182.835 362.448C182.835 360.495 185.035 358.913 187.748 358.913C190.461 358.913 192.66 360.495 192.66 362.448C192.66 362.938 192.519 363.403 192.268 363.827ZM196.434 362.25L196.928 361.929C197.176 361.768 197.368 361.535 197.479 361.26C197.868 360.293 197.628 359.621 197.358 359.227C197.09 358.836 196.552 358.374 195.508 358.374C195.492 358.374 195.476 358.374 195.459 358.374C195.167 358.378 194.882 358.471 194.644 358.641L194.13 359.009C199.113 348.102 201.842 345.513 203.068 344.968C203.16 344.927 203.247 344.877 203.328 344.818C205.834 342.998 208.413 343.202 209.666 344.343C210.885 345.453 210.856 347.393 209.588 349.531C209.321 349.982 209.321 350.543 209.588 350.994C209.855 351.445 210.345 351.709 210.871 351.698C213.446 351.615 215.263 352.305 215.863 353.593C216.447 354.847 215.855 356.698 214.318 358.439C211.502 360.763 205.495 362.041 196.434 362.25ZM310.591 145.389C310.446 166.452 306.449 183.354 304.591 190.096C303.773 189.348 302.913 188.534 302.01 187.639C291.125 176.859 293.913 161.975 295.757 152.125C296.183 149.854 296.596 147.895 296.682 146.295C297.654 128.119 278.016 130.834 282.252 112.537C282.52 111.377 281.761 110.227 280.597 109.977C279.431 109.727 278.196 110.451 278.037 111.631C275.187 132.698 293.353 133.701 292.385 145.942C292.276 147.317 291.924 149.177 291.52 151.332C289.63 161.423 286.467 178.313 298.977 190.703C300.921 192.628 302.696 194.218 304.277 195.558C304.278 195.559 304.279 195.56 304.281 195.562C305.763 196.818 307.074 197.855 308.184 198.732C311.433 201.298 312.76 202.402 312.973 203.965C313.248 205.989 311.919 209.536 309.37 215.374C301.611 233.147 295.834 234.206 288.521 235.546C285.602 236.081 282.293 236.688 278.742 238.426C265.815 244.756 266.605 256.757 266.645 257.265C266.734 258.393 267.676 259.246 268.79 259.246C268.843 259.246 268.897 259.244 268.951 259.24C270.133 259.153 271.024 258.121 270.943 256.938C270.917 256.547 270.409 247.307 280.638 242.298C283.655 240.821 286.524 240.295 289.298 239.787C291.233 239.432 293.142 239.081 295.049 238.462C295.081 238.49 295.111 238.522 295.145 238.547C295.28 239.156 295.49 240.837 295.149 244.858C294.829 248.634 292.239 254.074 289.735 259.334C286.73 265.645 283.892 271.607 283.982 276.21C284.001 277.217 284.105 278.527 284.226 280.044C284.243 280.254 284.26 280.471 284.277 280.69C282.48 278.219 280.11 276.138 277.315 274.723C275.478 273.837 273.461 273.208 271.354 273.088C270.305 272.994 269.246 273.082 268.178 273.227C267.129 273.429 266.087 273.701 265.112 274.13C263.145 274.946 261.352 276.169 259.893 277.731C258.433 279.284 257.207 281.128 256.522 283.239C256.361 283.769 256.193 284.298 256.105 284.852C256.057 285.127 255.991 285.4 255.96 285.679L255.89 286.52L255.861 286.941L255.873 287.365L255.904 288.213C255.962 288.769 256.032 289.326 256.146 289.868C256.621 292.034 257.585 294.02 258.889 295.75C260.199 297.47 261.92 298.933 263.989 299.843C264.489 300.092 265.056 300.229 265.596 300.395C265.863 300.485 266.16 300.503 266.44 300.557C266.725 300.592 267.002 300.664 267.292 300.663C267.871 300.661 268.445 300.717 269.012 300.597L269.856 300.456C270.142 300.374 270.426 300.308 270.703 300.195C271.816 299.792 272.835 299.077 273.551 298.184C274.272 297.29 274.743 296.275 275.001 295.248C275.247 294.216 275.323 293.171 275.181 292.147C275.107 291.636 274.991 291.13 274.785 290.645C274.568 290.175 274.281 289.673 273.759 289.41C273.684 289.372 273.589 289.383 273.523 289.444C273.439 289.523 273.435 289.655 273.514 289.739L273.534 289.76C273.8 290.044 273.916 290.46 273.966 290.88C274.02 291.301 274.005 291.74 273.951 292.169C273.841 293.029 273.593 293.87 273.209 294.613C272.846 295.361 272.352 296.014 271.774 296.486C271.194 296.955 270.558 297.272 269.861 297.392C269.692 297.434 269.508 297.438 269.335 297.463L268.773 297.456C268.404 297.491 268.036 297.39 267.675 297.356C267.493 297.342 267.317 297.257 267.139 297.215C266.963 297.154 266.782 297.136 266.612 297.046C266.271 296.88 265.921 296.769 265.603 296.545C264.297 295.779 263.127 294.651 262.256 293.306C262.043 292.966 261.804 292.645 261.632 292.281L261.349 291.753L261.114 291.203C260.784 290.477 260.557 289.719 260.381 288.962C260.314 288.582 260.246 288.204 260.195 287.826L260.161 287.263L260.141 286.982L260.156 286.698C260.167 286.509 260.171 286.32 260.174 286.129C260.182 285.939 260.223 285.751 260.243 285.56C260.274 285.178 260.378 284.803 260.466 284.425C261.213 281.397 263.515 278.59 266.467 277.17C269.394 275.684 272.989 275.865 276.148 277.231C279.323 278.598 282.098 281.053 283.956 284.091C284.176 284.446 284.382 284.811 284.579 285.181C285.15 296.509 284.192 313.418 268.726 321.198C269.521 318.747 270.075 316.193 270.034 313.682C270.023 313.002 269.957 312.31 269.799 311.648C269.158 308.95 265 310.092 265.642 312.794C265.662 312.877 265.677 312.936 265.689 312.977C265.689 312.981 265.689 312.983 265.689 312.988C265.708 313.283 265.723 313.575 265.723 313.872C265.722 314.167 265.706 314.463 265.684 314.758C265.665 315.015 265.604 315.5 265.596 315.584C265.304 317.478 264.797 319.335 264.177 321.146C262.461 326.16 259.721 330.984 256.512 335.33C246.684 348.641 231.671 357.037 215.793 360.918C215.947 360.802 216.106 360.688 216.248 360.567C216.298 360.526 216.344 360.481 216.387 360.433C218.791 357.76 219.568 354.75 218.466 352.382C217.59 350.499 215.655 349.295 213.017 348.935C214.03 345.915 213.059 343.55 211.6 342.22C209.128 339.969 205.098 340.051 201.759 342.41C200.924 342.81 199.848 343.59 198.417 345.424C199.007 343.336 199.219 341.504 199.045 339.924C199.038 339.86 199.026 339.797 199.011 339.734C198.14 336.246 196.08 333.918 193.5 333.507C191.447 333.18 189.369 334.11 187.595 336.095C185.659 333.566 183.154 333.047 181.237 333.514C177.986 334.303 175.801 337.69 175.889 341.777C175.767 342.599 175.788 343.751 176.315 345.578C174.54 343.35 172.789 341.818 171.045 340.964C170.988 340.936 170.928 340.911 170.867 340.891C167.456 339.756 164.386 340.247 162.656 342.204C161.28 343.759 160.95 346.014 161.675 348.576C158.503 348.855 156.722 350.691 156.087 352.559C155.237 355.059 156.115 357.862 158.239 359.975C154.784 359.027 151.387 357.881 148.082 356.499C135.493 351.237 124.573 342.342 117.842 330.387C115.652 326.497 114.091 322.816 112.858 318.517C112.464 317.144 112.122 315.755 111.85 314.352C111.757 313.87 111.68 313.387 111.597 312.903C111.584 312.827 111.574 312.772 111.566 312.724C111.563 312.689 111.556 312.626 111.543 312.513C111.531 312.416 111.521 312.318 111.512 312.221C111.28 309.476 106.967 309.452 107.201 312.221C107.383 314.373 107.788 316.525 108.351 318.649C94.3685 311.892 91.9316 297.822 91.9411 286.75C92.3301 285.829 92.7801 284.937 93.3043 284.091C95.1621 281.053 97.9376 278.598 101.112 277.231C104.271 275.865 107.866 275.684 110.794 277.17C113.746 278.59 116.047 281.397 116.795 284.425C116.883 284.803 116.986 285.177 117.017 285.56C117.038 285.751 117.079 285.939 117.086 286.129C117.09 286.32 117.094 286.509 117.105 286.698L117.12 286.981L117.1 287.263L117.066 287.826C117.014 288.204 116.947 288.582 116.88 288.962C116.704 289.719 116.476 290.477 116.147 291.203L115.911 291.753L115.628 292.281C115.456 292.645 115.217 292.966 115.005 293.306C114.134 294.651 112.963 295.779 111.658 296.545C111.339 296.769 110.989 296.88 110.649 297.046C110.479 297.136 110.297 297.154 110.122 297.215C109.944 297.257 109.767 297.342 109.586 297.356C109.224 297.39 108.856 297.491 108.487 297.456L107.925 297.463C107.752 297.438 107.569 297.434 107.4 297.392C106.703 297.272 106.067 296.955 105.487 296.485C104.908 296.013 104.415 295.361 104.051 294.612C103.668 293.87 103.419 293.029 103.31 292.169C103.256 291.74 103.24 291.301 103.294 290.88C103.344 290.46 103.461 290.044 103.727 289.76L103.747 289.739C103.825 289.655 103.821 289.523 103.737 289.444C103.672 289.383 103.577 289.372 103.501 289.41C102.98 289.673 102.692 290.175 102.475 290.645C102.269 291.13 102.154 291.636 102.079 292.147C101.938 293.171 102.014 294.216 102.26 295.248C102.518 296.275 102.988 297.29 103.709 298.183C104.426 299.077 105.445 299.792 106.558 300.195C106.835 300.308 107.119 300.374 107.404 300.456L108.249 300.597C108.816 300.717 109.39 300.661 109.968 300.663C110.259 300.664 110.535 300.592 110.821 300.557C111.1 300.503 111.397 300.485 111.665 300.395C112.205 300.229 112.771 300.092 113.272 299.842C115.341 298.933 117.062 297.47 118.371 295.75C119.676 294.019 120.64 292.034 121.114 289.868C121.229 289.326 121.298 288.769 121.356 288.213L121.387 287.365L121.399 286.941L121.371 286.52L121.3 285.679C121.27 285.4 121.204 285.127 121.155 284.852C121.068 284.298 120.9 283.769 120.739 283.239C120.053 281.128 118.827 279.284 117.368 277.731C115.908 276.169 114.116 274.946 112.148 274.13C111.174 273.7 110.131 273.429 109.082 273.227C108.015 273.082 106.955 272.994 105.906 273.088C103.8 273.207 101.783 273.837 99.9451 274.723C96.6506 276.391 93.9472 278.984 92.0769 282.051C92.171 280.301 92.2987 278.689 92.4112 277.275C92.5318 275.759 92.636 274.449 92.6556 273.442C92.7446 268.839 89.9069 262.878 86.9025 256.567C84.3982 251.306 81.8089 245.867 81.4883 242.09C81.2025 238.72 81.3036 236.998 81.4234 236.169C84.509 237.864 87.5603 238.424 90.6799 238.996C93.4549 239.505 96.3242 240.031 99.3402 241.508C109.554 246.509 109.064 255.728 109.036 256.146C108.948 257.329 109.832 258.361 111.016 258.454C111.074 258.459 111.131 258.461 111.187 258.461C112.301 258.461 113.245 257.604 113.334 256.475C113.374 255.967 114.165 243.966 101.236 237.636C97.6861 235.898 94.3769 235.291 91.4573 234.756C84.1444 233.415 78.3681 232.356 70.6083 214.584C68.0591 208.746 66.7303 205.199 67.006 203.175C67.2188 201.612 68.5458 200.508 71.7945 197.942C74.0891 196.129 77.2318 193.646 81.0014 189.913C93.5119 177.523 90.3486 160.633 88.4585 150.541C88.055 148.387 87.7747 146.519 87.5936 145.152C86.8533 139.565 102.491 128.969 97.3175 104.893C97.0677 103.729 95.9213 102.988 94.7575 103.238C93.5934 103.488 92.8527 104.635 93.103 105.798C97.9004 128.124 82.2546 136.619 83.2969 145.505C83.4835 147.096 83.7958 149.063 84.2212 151.335C86.066 161.184 88.8536 176.069 77.968 186.849C77.1567 187.653 76.3822 188.389 75.6395 189.073C68.528 167.032 67.3641 138.375 73.1567 110.974C77.9103 110.03 82.1871 107.004 84.7538 102.982C84.9772 102.623 85.3283 102.159 84.8636 101.793C83.5072 100.008 81.9912 98.3341 80.7384 96.4746C79.8025 94.7847 79.2631 92.9273 78.716 91.0874C79.3091 89.4066 79.9315 87.7391 80.5837 86.0864C80.8034 91.5559 82.7885 99.0193 91.2655 100.064C100.94 101.256 103.056 96.6103 98.3386 96.2059C88.13 95.3316 85.7091 89.8594 85.5289 83.5914C85.4554 81.0336 85.9943 76.9902 86.4282 73.2469C87.7207 70.7682 89.0914 68.3427 90.539 65.9765C91.2714 68.0174 91.9791 69.9395 92.4304 71.5492C95.0395 80.8554 93.8598 78.908 101.48 69.2909C108.488 60.4474 92.1615 57.1332 110.799 51.4821C129.436 45.8306 131.502 56.23 133.461 57.8434C134.134 58.3983 134.674 57.595 134.459 56.8744C132.892 51.6111 137.487 40.6537 120.764 44.3988C113.678 45.986 109.009 46.5606 105.411 46.8305C106.207 46.0268 107.011 45.2324 107.834 44.4584C130.913 22.7573 163.914 10.7301 196.094 12.2772C224.914 13.6651 251.085 25.5302 272.293 46.7125C271.457 47.7435 270.641 48.712 269.767 49.3551C269.178 49.7877 269.122 50.71 269.965 50.6641C270.87 50.6148 272.49 49.6551 274.725 49.2099C275.998 50.5483 277.255 51.9157 278.489 53.3231C278.694 53.557 278.894 53.7924 279.097 54.027C278.154 54.0866 277.177 54.2995 276.174 54.6943C268.578 57.6834 264.514 64.8683 266.935 71.0358C267.251 71.8424 267.93 71.9794 268.093 71.1303C269.08 65.9956 271.435 60.5184 279.115 60.8474C282.538 60.994 284.908 62.1512 286.535 63.5307C287.671 65.1399 288.754 66.7595 289.791 68.3865C289.834 68.5277 289.857 68.6183 289.862 68.6433C289.942 69.0062 290.049 69.0812 290.158 68.9668C290.568 69.6187 290.973 70.2714 291.367 70.9255C289.534 72.0939 287.755 73.7154 287.823 77.5303C288.032 89.2272 285.982 90.0575 293.452 84.3786C294.506 83.5778 295.812 82.7138 297.213 81.7962C297.856 83.1464 298.468 84.4978 299.054 85.8491C296.693 89.4983 293.814 94.9044 291.685 97.5334C287.865 102.249 282.791 105.088 274.431 99.9923C270.568 97.6381 269.465 102.404 277.601 106.954C285.738 111.503 292.285 104.849 295.299 100.573C297.974 96.7765 300.935 98.6227 303.125 96.4862C303.27 96.9183 303.411 97.35 303.55 97.7814C301.934 98.8127 300.18 99.6165 298.511 100.558C298.021 100.691 298.135 101.17 298.186 101.526C298.892 106.082 301.78 110.366 305.979 112.512C306.5 112.787 307.033 113.024 307.574 113.231C309.93 124.937 310.656 135.957 310.591 145.389Z" fill="black"/>
<path d="M189.029 147.614C189.029 147.614 199.626 140.153 196.399 134.499C195.352 132.577 191.102 130.997 189.029 134.499C186.956 130.997 182.706 132.577 181.66 134.499C178.432 140.153 189.029 147.614 189.029 147.614Z" fill="black"/>
<path d="M187.468 312.799C185.007 308.641 179.96 310.517 178.718 312.799C174.885 319.512 187.468 328.372 187.468 328.372C187.468 328.372 200.052 319.512 196.219 312.799C194.977 310.517 189.93 308.641 187.468 312.799Z" fill="black"/>
<path d="M94.6177 255.078C96.6341 255.078 98.2687 253.443 98.2687 251.427C98.2687 249.411 96.6341 247.776 94.6177 247.776C92.6014 247.776 90.9668 249.411 90.9668 251.427C90.9668 253.443 92.6014 255.078 94.6177 255.078Z" fill="black"/>
<path d="M99.6744 256.45C98.3856 256.58 97.4464 257.73 97.5765 259.019C97.7066 260.308 98.8568 261.247 100.146 261.117C101.434 260.987 102.374 259.836 102.243 258.548C102.113 257.259 100.963 256.32 99.6744 256.45Z" fill="black"/>
<path d="M87.107 242.936C85.8183 243.066 84.879 244.216 85.0091 245.505C85.1392 246.794 86.2894 247.733 87.5781 247.603C88.8669 247.473 89.8061 246.323 89.676 245.034C89.5459 243.745 88.3957 242.806 87.107 242.936Z" fill="black"/>
<path d="M172.477 326.315C175.221 325.87 177.085 323.284 176.64 320.539C176.194 317.795 173.608 315.931 170.864 316.377C168.119 316.822 166.256 319.408 166.701 322.152C167.146 324.897 169.732 326.761 172.477 326.315Z" fill="black"/>
<path d="M203.424 316.311C200.644 316.311 198.39 318.565 198.39 321.345C198.39 324.125 200.644 326.379 203.424 326.379C206.204 326.379 208.458 324.125 208.458 321.345C208.458 318.565 206.204 316.311 203.424 316.311Z" fill="black"/>
<path d="M214.834 331.76C216.855 331.76 218.493 330.123 218.493 328.102C218.493 326.081 216.855 324.443 214.834 324.443C212.814 324.443 211.176 326.081 211.176 328.102C211.176 330.123 212.814 331.76 214.834 331.76Z" fill="black"/>
<path d="M161.322 331.76C163.342 331.76 164.98 330.122 164.98 328.102C164.98 326.081 163.342 324.443 161.322 324.443C159.301 324.443 157.663 326.081 157.663 328.102C157.663 330.122 159.301 331.76 161.322 331.76Z" fill="black"/>
<path d="M114.242 150.657C117.507 147.829 121.509 145.572 126.065 144.195C129.256 143.23 132.463 142.772 135.569 142.772C141.892 142.772 147.804 144.671 152.368 148.05C152.387 147.996 152.408 147.943 152.426 147.889C154.202 142.565 147.263 131.258 147.263 131.258C147.263 131.258 134.924 136.132 133.147 141.456C132.993 141.918 132.877 142.382 132.791 142.848C132.616 142.195 132.372 141.551 132.058 140.924C129.543 135.906 116.637 132.834 116.637 132.834C116.637 132.834 111.374 145.012 113.889 150.029C113.997 150.246 114.12 150.452 114.242 150.657Z" fill="black"/>
<path d="M120.024 206.209C120.024 206.209 132.363 201.334 134.14 196.011C134.549 194.784 134.709 193.535 134.651 192.316C138.266 196.704 149.366 199.349 149.366 199.349C149.366 199.349 153.665 189.392 152.627 183.777C149.25 186.875 145.019 189.345 140.158 190.815C136.967 191.78 133.76 192.238 130.654 192.238C119.093 192.238 108.897 185.9 105.829 175.753C105.424 174.412 105.167 173.058 105.035 171.703C104.738 171.818 104.444 171.945 104.153 172.091C99.136 174.605 96.0635 187.511 96.0635 187.511C96.0635 187.511 108.242 192.774 113.259 190.26C113.896 189.941 114.483 189.564 115.02 189.139C114.964 189.284 114.911 189.429 114.861 189.578C113.085 194.901 120.024 206.209 120.024 206.209Z" fill="black"/>
<path d="M163.683 166.143C163.091 165.93 162.492 165.779 161.892 165.68C162.503 165.508 163.106 165.278 163.694 164.983C168.711 162.469 171.784 149.562 171.784 149.562C171.784 149.562 159.605 144.299 154.588 146.814C153.834 147.191 153.153 147.654 152.54 148.178C156.234 150.964 159.024 154.73 160.393 159.257C162.943 167.693 159.931 176.667 153.313 183.134C154.294 184.051 155.472 184.789 156.816 185.271C162.098 187.167 173.56 180.485 173.56 180.485C173.56 180.485 168.965 168.039 163.683 166.143Z" fill="black"/>
<path d="M104.981 171.089C104.47 163.601 107.969 156.13 114.156 150.731C113.145 150.059 112.013 149.534 110.774 149.208C104.729 147.618 92.6621 156.149 92.6621 156.149C92.6621 156.149 98.9465 169.456 104.981 171.089Z" fill="black"/>
<path d="M180.034 172.341C179.394 174.967 178.758 177.588 177.941 180.176L177.662 181.155C177.574 181.484 177.473 181.808 177.356 182.127C177.138 182.772 176.908 183.412 176.7 184.062C176.593 184.386 176.498 184.715 176.381 185.036L176.018 185.995C175.772 186.633 175.541 187.279 175.313 187.929C175.092 188.582 174.794 189.201 174.553 189.849L173.801 191.786C173.27 193.067 172.716 194.342 172.235 195.674L172.232 195.682C172.209 195.746 172.226 195.819 172.281 195.865C172.351 195.924 172.456 195.915 172.515 195.845C173.422 194.766 174.274 193.641 175.117 192.503C175.886 191.324 176.688 190.151 177.395 188.925C177.744 188.308 178.089 187.688 178.418 187.06L178.92 186.12C179.084 185.804 179.226 185.479 179.38 185.158C179.973 183.866 180.563 182.568 181.051 181.225C182.092 178.565 182.764 175.762 183.227 172.938C183.403 171.514 183.602 170.098 183.674 168.666C183.813 167.243 183.805 165.808 183.832 164.382C183.824 161.525 183.571 158.674 183.085 155.869C182.581 153.067 181.829 150.316 180.837 147.663C179.831 145.014 178.589 142.467 177.143 140.052C175.673 137.651 174.033 135.358 172.046 133.358C171.987 133.299 171.893 133.292 171.827 133.345C171.756 133.402 171.745 133.505 171.802 133.576L171.81 133.586C175.271 137.894 177.72 142.958 179.282 148.188C180.072 150.806 180.62 153.488 180.927 156.19C181.248 158.889 181.343 161.609 181.207 164.316C181.024 167.022 180.642 169.707 180.034 172.341Z" fill="black"/>
<path d="M137.472 118.088C138.602 115.684 137.569 112.819 135.165 111.689C132.761 110.559 129.896 111.593 128.766 113.997C127.636 116.401 128.67 119.266 131.074 120.395C133.478 121.525 136.343 120.492 137.472 118.088Z" fill="black"/>
<path d="M146.715 122.164C148.922 121.192 149.923 118.615 148.951 116.408C147.979 114.201 145.402 113.2 143.195 114.172C140.988 115.144 139.987 117.721 140.959 119.928C141.931 122.135 144.508 123.136 146.715 122.164Z" fill="black"/>
<path d="M119.007 121.81C121.162 122.647 123.588 121.578 124.425 119.423C125.262 117.268 124.194 114.842 122.038 114.005C119.883 113.168 117.457 114.236 116.62 116.391C115.783 118.547 116.852 120.972 119.007 121.81Z" fill="black"/>
<path d="M159.472 123.145C159.511 121.097 157.883 119.405 155.835 119.365C153.787 119.326 152.095 120.954 152.056 123.002C152.016 125.05 153.645 126.742 155.692 126.781C157.74 126.821 159.432 125.192 159.472 123.145Z" fill="black"/>
<path d="M110.682 119.058C108.577 118.241 106.209 119.284 105.392 121.389C104.574 123.493 105.618 125.861 107.722 126.679C109.826 127.496 112.195 126.453 113.012 124.348C113.829 122.244 112.786 119.876 110.682 119.058Z" fill="black"/>
<path d="M162.536 127.839C161.906 129.459 162.71 131.282 164.329 131.911C165.949 132.54 167.772 131.737 168.402 130.118C169.031 128.498 168.228 126.674 166.608 126.045C164.988 125.416 163.165 126.219 162.536 127.839Z" fill="black"/>
<path d="M101.156 131.482C102.75 131.482 104.043 130.189 104.043 128.595C104.043 127 102.75 125.708 101.156 125.708C99.5611 125.708 98.2686 127 98.2686 128.595C98.2686 130.189 99.5611 131.482 101.156 131.482Z" fill="black"/>
<path d="M108.305 175.004C110.953 183.765 119.935 189.651 130.653 189.651C133.583 189.651 136.529 189.21 139.409 188.339C153.088 184.204 161.39 171.494 157.917 160.006C155.269 151.245 146.288 145.359 135.571 145.359H135.57C132.638 145.359 129.692 145.8 126.813 146.671C113.134 150.806 104.832 163.516 108.305 175.004Z" fill="black"/>
<path d="M223.325 186.145C224.669 185.663 225.847 184.925 226.827 184.008C220.209 177.541 217.198 168.567 219.748 160.131C221.117 155.604 223.907 151.838 227.601 149.052C226.988 148.528 226.306 148.066 225.553 147.688C220.536 145.173 208.357 150.436 208.357 150.436C208.357 150.436 211.43 163.343 216.447 165.857C217.035 166.152 217.638 166.382 218.249 166.554C217.649 166.653 217.05 166.804 216.458 167.017C211.175 168.913 206.581 181.359 206.581 181.359C206.581 181.359 218.042 188.041 223.325 186.145Z" fill="black"/>
<path d="M263.506 133.708C263.506 133.708 250.599 136.78 248.085 141.797C247.77 142.425 247.527 143.069 247.351 143.722C247.266 143.256 247.149 142.792 246.995 142.33C245.219 137.006 232.88 132.132 232.88 132.132C232.88 132.132 225.94 143.439 227.717 148.763C227.735 148.817 227.755 148.87 227.775 148.924C232.339 145.546 238.25 143.646 244.573 143.646C247.68 143.646 250.887 144.104 254.078 145.069C258.634 146.446 262.635 148.703 265.901 151.531C266.023 151.326 266.145 151.12 266.254 150.903C268.769 145.886 263.506 133.708 263.506 133.708Z" fill="black"/>
<path d="M275.988 172.965C275.698 172.819 275.403 172.692 275.107 172.577C274.974 173.932 274.718 175.286 274.312 176.627C271.245 186.774 261.048 193.112 249.488 193.112C246.381 193.112 243.174 192.654 239.983 191.689C235.122 190.219 230.892 187.749 227.514 184.651C226.476 190.266 230.775 200.223 230.775 200.223C230.775 200.223 241.876 197.578 245.49 193.19C245.433 194.409 245.592 195.658 246.001 196.885C247.778 202.208 260.117 207.083 260.117 207.083C260.117 207.083 267.056 195.775 265.28 190.452C265.23 190.303 265.177 190.158 265.121 190.013C265.658 190.438 266.246 190.815 266.882 191.134C271.899 193.648 284.078 188.385 284.078 188.385C284.078 188.385 281.005 175.479 275.988 172.965Z" fill="black"/>
<path d="M269.368 150.082C268.129 150.408 266.997 150.933 265.986 151.605C272.173 157.004 275.672 164.475 275.161 171.963C281.196 170.33 287.48 157.023 287.48 157.023C287.48 157.023 275.413 148.492 269.368 150.082Z" fill="black"/>
<path d="M200.86 149.062C202.422 143.832 204.871 138.768 208.332 134.46L208.341 134.45C208.397 134.379 208.386 134.276 208.315 134.219C208.25 134.166 208.155 134.173 208.097 134.232C206.109 136.232 204.469 138.525 202.999 140.926C201.553 143.341 200.311 145.888 199.306 148.537C198.314 151.19 197.561 153.941 197.057 156.743C196.571 159.548 196.319 162.399 196.311 165.256C196.337 166.682 196.33 168.117 196.469 169.54C196.54 170.972 196.739 172.388 196.915 173.812C197.378 176.635 198.05 179.439 199.092 182.099C199.58 183.442 200.17 184.74 200.762 186.032C200.916 186.353 201.059 186.678 201.222 186.994L201.724 187.934C202.054 188.562 202.399 189.182 202.747 189.799C203.454 191.025 204.256 192.198 205.025 193.377C205.869 194.515 206.72 195.64 207.628 196.719C207.686 196.789 207.791 196.798 207.861 196.739C207.916 196.693 207.933 196.62 207.911 196.556L207.908 196.548C207.427 195.217 206.872 193.941 206.341 192.66L205.59 190.723C205.349 190.075 205.05 189.456 204.829 188.803C204.601 188.153 204.37 187.507 204.124 186.869L203.761 185.91C203.644 185.589 203.55 185.26 203.443 184.936C203.234 184.286 203.004 183.646 202.786 183.001C202.67 182.682 202.568 182.358 202.481 182.029L202.201 181.05C201.384 178.462 200.748 175.841 200.109 173.215C199.5 170.581 199.118 167.896 198.935 165.19C198.799 162.483 198.895 159.763 199.215 157.064C199.522 154.362 200.07 151.68 200.86 149.062Z" fill="black"/>
<path d="M253.329 147.545C250.449 146.674 247.503 146.233 244.573 146.233C233.854 146.233 224.873 152.119 222.224 160.88C220.565 166.37 221.527 172.32 224.934 177.633C228.423 183.076 234.034 187.188 240.732 189.213C243.612 190.084 246.558 190.525 249.488 190.525C260.207 190.525 269.188 184.639 271.837 175.878C273.497 170.388 272.535 164.438 269.128 159.125C265.638 153.682 260.027 149.57 253.329 147.545Z" fill="black"/>
<path d="M244.957 240.905L245.043 240.861C246.599 239.926 247.419 238.589 247.238 237.284C247.093 236.242 246.332 235.374 245.104 234.81C246.048 233.498 245.931 232.209 245.422 231.349C244.562 229.896 242.603 229.342 240.643 229.988C239.798 230.114 238.378 230.731 235.426 233.747C237.147 230.769 237.917 228.44 237.757 226.694L237.742 226.599C237.335 224.83 236.318 223.635 235.021 223.403C233.988 223.221 232.924 223.673 232.007 224.666C231.053 223.361 229.79 223.074 228.816 223.291C227.169 223.658 226.034 225.348 226.041 227.412C225.899 228.255 226.046 229.797 227.998 233.538C225.7 230.978 223.725 229.524 222.015 229.136L221.92 229.121C220.111 228.959 218.661 229.556 218.039 230.717C217.542 231.644 217.645 232.794 218.305 233.974C216.769 234.476 216.104 235.588 216.009 236.581C215.848 238.262 217.103 239.864 219.067 240.498C219.507 240.727 220.2 240.938 221.519 240.938C222.47 240.938 223.751 240.827 225.495 240.535C222.35 241.927 220.357 243.354 219.458 244.859L219.414 244.945C218.7 246.613 218.818 248.178 219.729 249.129C220.456 249.889 221.582 250.148 222.908 249.885C222.91 251.502 223.761 252.478 224.676 252.877C225.071 253.049 225.49 253.132 225.915 253.132C227.154 253.131 228.445 252.427 229.348 251.183C229.964 250.58 230.762 249.23 231.392 244.971C231.751 248.452 232.505 250.823 233.676 252.154L233.744 252.222C234.687 253.04 235.703 253.469 236.631 253.468C237.052 253.468 237.455 253.38 237.825 253.2C238.77 252.74 239.36 251.747 239.516 250.404C241.056 250.896 242.245 250.385 242.905 249.635C244.019 248.367 243.94 246.334 242.719 244.669C242.336 243.905 241.308 242.744 237.52 240.87C239.225 241.232 240.703 241.419 241.947 241.419C243.161 241.419 244.162 241.247 244.957 240.905ZM231.543 241.976C229.63 241.976 228.079 240.425 228.079 238.511C228.079 236.598 229.63 235.047 231.543 235.047C233.456 235.047 235.008 236.598 235.008 238.511C235.008 240.425 233.456 241.976 231.543 241.976Z" fill="black"/>
<path d="M160.903 240.905L160.988 240.861C162.544 239.926 163.365 238.589 163.183 237.284C163.038 236.242 162.277 235.374 161.049 234.81C161.994 233.498 161.876 232.209 161.367 231.349C160.507 229.896 158.548 229.342 156.588 229.988C155.744 230.114 154.323 230.731 151.371 233.747C153.093 230.769 153.862 228.44 153.702 226.694L153.687 226.599C153.28 224.83 152.264 223.635 150.966 223.403C149.933 223.221 148.87 223.673 147.953 224.666C146.999 223.361 145.735 223.074 144.762 223.291C143.114 223.658 141.98 225.348 141.986 227.412C141.845 228.255 141.991 229.797 143.943 233.538C141.645 230.978 139.67 229.524 137.96 229.136L137.865 229.121C136.056 228.959 134.606 229.556 133.984 230.717C133.488 231.644 133.59 232.794 134.251 233.974C132.715 234.476 132.05 235.588 131.954 236.581C131.793 238.262 133.048 239.864 135.013 240.498C135.453 240.727 136.145 240.938 137.464 240.938C138.416 240.938 139.696 240.827 141.44 240.535C138.295 241.927 136.302 243.354 135.403 244.859L135.359 244.945C134.645 246.613 134.763 248.178 135.675 249.129C136.402 249.889 137.527 250.148 138.854 249.885C138.856 251.502 139.706 252.478 140.622 252.877C141.017 253.049 141.435 253.132 141.86 253.132C143.1 253.131 144.39 252.427 145.293 251.183C145.909 250.58 146.708 249.23 147.337 244.971C147.697 248.452 148.45 250.823 149.621 252.154L149.689 252.222C150.632 253.04 151.648 253.469 152.576 253.468C152.997 253.468 153.4 253.38 153.77 253.2C154.715 252.74 155.306 251.747 155.461 250.404C157.001 250.896 158.191 250.385 158.85 249.635C159.965 248.367 159.885 246.334 158.664 244.669C158.281 243.905 157.253 242.744 153.465 240.87C155.17 241.232 156.648 241.419 157.893 241.419C159.107 241.419 160.107 241.247 160.903 240.905ZM147.488 241.976C145.575 241.976 144.024 240.425 144.024 238.511C144.024 236.598 145.575 235.047 147.488 235.047C149.402 235.047 150.953 236.598 150.953 238.511C150.953 240.425 149.402 241.976 147.488 241.976Z" fill="black"/>
<path d="M248.895 120.005C250.425 117.834 249.904 114.833 247.732 113.304C245.561 111.775 242.56 112.295 241.031 114.467C239.502 116.639 240.022 119.639 242.194 121.168C244.366 122.698 247.366 122.177 248.895 120.005Z" fill="black"/>
<path d="M229.035 120.94C229.908 123.188 232.438 124.303 234.686 123.43C236.934 122.557 238.048 120.027 237.175 117.779C236.302 115.531 233.772 114.416 231.524 115.289C229.276 116.162 228.162 118.692 229.035 120.94Z" fill="black"/>
<path d="M259.063 122.999C261.218 122.162 262.286 119.736 261.449 117.581C260.612 115.426 258.186 114.357 256.031 115.194C253.876 116.031 252.807 118.457 253.645 120.612C254.482 122.768 256.907 123.836 259.063 122.999Z" fill="black"/>
<path d="M225.449 126.242C226.535 124.505 226.007 122.216 224.27 121.131C222.533 120.045 220.245 120.573 219.159 122.31C218.073 124.047 218.601 126.335 220.338 127.421C222.075 128.507 224.364 127.979 225.449 126.242Z" fill="black"/>
<path d="M267.389 120.248C265.285 121.065 264.241 123.434 265.059 125.538C265.876 127.642 268.244 128.685 270.349 127.868C272.453 127.051 273.496 124.682 272.679 122.578C271.861 120.474 269.493 119.431 267.389 120.248Z" fill="black"/>
<path d="M211.462 127.235C209.842 127.864 209.039 129.687 209.668 131.307C210.298 132.927 212.121 133.73 213.741 133.101C215.36 132.472 216.164 130.648 215.534 129.029C214.905 127.409 213.082 126.606 211.462 127.235Z" fill="black"/>
<path d="M275.87 127.093C274.384 127.67 273.647 129.343 274.224 130.83C274.801 132.316 276.474 133.053 277.961 132.476C279.447 131.898 280.184 130.225 279.606 128.739C279.029 127.253 277.356 126.516 275.87 127.093Z" fill="black"/>
<path d="M250.004 219.817C252.224 218.358 252.841 215.376 251.382 213.156C249.923 210.936 246.941 210.319 244.721 211.778C242.502 213.237 241.885 216.219 243.344 218.439C244.802 220.659 247.784 221.276 250.004 219.817Z" fill="black"/>
<path d="M237.385 217.595C239.564 216.562 240.493 213.958 239.46 211.779C238.427 209.6 235.823 208.671 233.644 209.704C231.465 210.737 230.536 213.341 231.569 215.52C232.602 217.699 235.206 218.628 237.385 217.595Z" fill="black"/>
<path d="M263.852 215.441C264.689 213.286 263.62 210.86 261.465 210.023C259.31 209.186 256.884 210.254 256.047 212.409C255.21 214.565 256.278 216.99 258.434 217.828C260.589 218.665 263.015 217.596 263.852 215.441Z" fill="black"/>
<path d="M221.242 207.413C220.5 209.323 221.447 211.472 223.356 212.213C225.266 212.955 227.415 212.008 228.156 210.099C228.898 208.19 227.951 206.04 226.042 205.299C224.133 204.557 221.984 205.504 221.242 207.413Z" fill="black"/>
<path d="M275.084 210.404C275.876 208.291 274.804 205.935 272.69 205.143C270.576 204.351 268.221 205.423 267.429 207.537C266.637 209.651 267.709 212.006 269.823 212.798C271.936 213.59 274.292 212.518 275.084 210.404Z" fill="black"/>
<path d="M213.865 205.787C215.484 206.416 217.308 205.613 217.937 203.993C218.566 202.373 217.763 200.55 216.143 199.921C214.523 199.292 212.7 200.095 212.071 201.715C211.442 203.335 212.245 205.158 213.865 205.787Z" fill="black"/>
<path d="M276.625 202.192C276.048 203.679 276.785 205.351 278.271 205.929C279.758 206.506 281.43 205.769 282.008 204.283C282.585 202.797 281.848 201.124 280.362 200.546C278.875 199.969 277.203 200.706 276.625 202.192Z" fill="black"/>
<path d="M133.628 220.118C136.243 219.652 137.985 217.154 137.518 214.539C137.052 211.924 134.554 210.182 131.939 210.649C129.324 211.115 127.582 213.613 128.049 216.228C128.515 218.843 131.013 220.585 133.628 220.118Z" fill="black"/>
<path d="M146.114 217.341C148.383 216.524 149.561 214.023 148.744 211.754C147.928 209.485 145.426 208.307 143.157 209.124C140.888 209.94 139.711 212.442 140.527 214.711C141.344 216.98 143.845 218.157 146.114 217.341Z" fill="black"/>
<path d="M124.095 211.994C123.258 209.838 120.832 208.77 118.677 209.607C116.521 210.444 115.453 212.87 116.29 215.025C117.127 217.18 119.553 218.249 121.708 217.412C123.863 216.575 124.932 214.149 124.095 211.994Z" fill="black"/>
<path d="M158.823 209.838C159.649 207.964 158.798 205.775 156.924 204.949C155.05 204.124 152.861 204.974 152.035 206.848C151.209 208.723 152.06 210.911 153.934 211.737C155.808 212.563 157.997 211.713 158.823 209.838Z" fill="black"/>
<path d="M110.6 212.253C112.644 211.296 113.527 208.863 112.57 206.819C111.614 204.774 109.181 203.892 107.136 204.848C105.091 205.805 104.209 208.238 105.165 210.282C106.122 212.327 108.555 213.209 110.6 212.253Z" fill="black"/>
<path d="M166.277 205.371C167.897 204.742 168.7 202.919 168.071 201.299C167.441 199.679 165.618 198.876 163.998 199.505C162.378 200.134 161.575 201.958 162.205 203.577C162.834 205.197 164.657 206 166.277 205.371Z" fill="black"/>
<path d="M101.532 205.62C103.077 205.226 104.011 203.654 103.617 202.109C103.223 200.564 101.651 199.631 100.106 200.025C98.5611 200.419 97.6279 201.991 98.0217 203.536C98.4155 205.081 99.9873 206.014 101.532 205.62Z" fill="black"/>
</svg>
