<svg width="82" height="83" viewBox="0 0 82 83" fill="none" xmlns="http://www.w3.org/2000/svg">
<path d="M68.6617 0H13.2288C5.92273 0 0 5.91335 0 13.2078V68.8913C0 76.1858 5.92273 82.0991 13.2288 82.0991H68.6617C75.9678 82.0991 81.8905 76.1858 81.8905 68.8913V13.2078C81.8905 5.91335 75.9678 0 68.6617 0Z" fill="url(#paint0_linear_150_1890)"/>
<path d="M41.5632 35.3437C43.655 35.3437 45.2401 34.8966 46.3206 33.9814C47.401 33.0661 47.9409 31.7332 47.9409 29.9622C47.9409 28.2135 47.401 26.885 46.3206 25.9768C45.2331 25.0457 43.6544 24.5801 41.5632 24.5801H34.2196V35.3443H41.5632V35.3437ZM42.011 57.5874C44.6766 57.5874 46.6763 57.0318 48.0094 55.9186C49.3655 54.806 50.0436 53.1256 50.0436 50.8775C50.0436 48.6741 49.377 47.0282 48.0439 45.9386C46.7108 44.8261 44.7003 44.2698 42.0116 44.2698H34.2202V57.5887H42.0116L42.011 57.5874ZM54.3532 39.2971C57.203 40.1146 59.4093 41.625 60.972 43.8272C62.5348 46.0293 63.3159 48.7322 63.3165 51.9345C63.3165 56.8395 61.6386 60.4959 58.2834 62.9031C54.9283 65.3103 49.8267 66.5135 42.9776 66.5135H20.9492V15.6565H40.8756C48.0228 15.6565 53.1941 16.7231 56.388 18.8582C59.6057 20.9926 61.2145 24.4108 61.2145 29.1115C61.2145 31.587 60.6285 33.6984 59.4566 35.4471C58.2847 37.1728 56.578 38.4489 54.3545 39.2964" fill="white"/>
<defs>
<linearGradient id="paint0_linear_150_1890" x1="4.72411" y1="77.8417" x2="76.7346" y2="4.45734" gradientUnits="userSpaceOnUse">
<stop stop-color="#070135"/>
<stop offset="1" stop-color="#612D50"/>
</linearGradient>
</defs>
</svg>
