<svg width="82" height="82" viewBox="0 0 82 82" fill="none" xmlns="http://www.w3.org/2000/svg">
<path d="M71.75 54.6664V27.3331C71.7488 26.1348 71.4324 24.9578 70.8328 23.9204C70.2331 22.8829 69.3711 22.0214 68.3333 21.4222L44.4167 7.75558C43.3779 7.15583 42.1995 6.84009 41 6.84009C39.8005 6.84009 38.6221 7.15583 37.5833 7.75558L13.6667 21.4222C12.6289 22.0214 11.7669 22.8829 11.1672 23.9204C10.5676 24.9578 10.2512 26.1348 10.25 27.3331V54.6664C10.2512 55.8647 10.5676 57.0416 11.1672 58.0791C11.7669 59.1166 12.6289 59.9781 13.6667 60.5772L37.5833 74.2439C38.6221 74.8437 39.8005 75.1594 41 75.1594C42.1995 75.1594 43.3779 74.8437 44.4167 74.2439L68.3333 60.5772C69.3711 59.9781 70.2331 59.1166 70.8328 58.0791C71.4324 57.0416 71.7488 55.8647 71.75 54.6664Z" stroke="black" stroke-width="2" stroke-linecap="round" stroke-linejoin="round"/>
<path d="M25.625 14.384L41 23.2674L56.375 14.384" stroke="black" stroke-width="2" stroke-linecap="round" stroke-linejoin="round"/>
<path d="M25.625 67.6158V49.8833L10.25 41" stroke="black" stroke-width="2" stroke-linecap="round" stroke-linejoin="round"/>
<path d="M71.75 41L56.375 49.8833V67.6158" stroke="black" stroke-width="2" stroke-linecap="round" stroke-linejoin="round"/>
<path d="M11.1709 23.7799L40.9984 41.0341L70.8259 23.7799" stroke="black" stroke-width="2" stroke-linecap="round" stroke-linejoin="round"/>
<path d="M41 75.44V41" stroke="black" stroke-width="2" stroke-linecap="round" stroke-linejoin="round"/>
</svg>
