<svg width="82" height="82" viewBox="0 0 82 82" fill="none" xmlns="http://www.w3.org/2000/svg">
<path d="M17.6189 75.414L12.332 16.115H70.4262L65.1336 75.4047L41.3435 82.0001L17.6189 75.414Z" fill="#264DE4"/>
<path d="M60.6025 71.6291L65.1253 20.9634H41.3789V76.9586L60.6025 71.6291Z" fill="#2965F1"/>
<path d="M24.4521 42.9568L25.104 50.2295H41.3791V42.9568H24.4521Z" fill="#EBEBEB"/>
<path d="M23.8037 35.5092H41.3793V28.2363H41.3541H23.1426L23.8037 35.5092Z" fill="#EBEBEB"/>
<path d="M41.3454 69.4207L41.3788 69.4114V61.8447L41.347 61.8532L33.2472 59.6661L32.7294 53.8657H28.7936H25.4287L26.4476 65.285L41.3454 69.4207Z" fill="#EBEBEB"/>
<path d="M26.0039 0H34.8125V3.68359H29.6875V7.36719H34.8125V11.0508H26.0039V0Z" fill="black"/>
<path d="M36.5742 0H45.3828V3.20312H40.2578V3.84375H45.3828V11.2109H36.5742V7.84766H41.6992V7.20703H36.5742V0Z" fill="black"/>
<path d="M47.1445 0H55.9531V3.20312H50.8281V3.84375H55.9531V11.2109H47.1445V7.84766H52.2695V7.20703H47.1445V0Z" fill="black"/>
<path d="M59.5719 28.2363H41.3535V35.5092H51.6016L50.9398 42.9566H41.3535V50.2293H50.3091L49.465 59.6615L41.3535 61.8509V69.4173L56.2631 65.2851L56.3725 64.0564L58.0815 44.9096L58.259 42.9566L59.5719 28.2363Z" fill="white"/>
</svg>
