<svg width="45" height="45" viewBox="0 0 45 45" fill="none" xmlns="http://www.w3.org/2000/svg">
<g id="24 / gadgets / floppy">
<path id="icon" fill-rule="evenodd" clip-rule="evenodd" d="M7.5 3.75H34.5417L41.25 10.6439V37.5C41.25 39.5711 39.5711 41.25 37.5 41.25H7.5C5.42893 41.25 3.75 39.5711 3.75 37.5V7.5C3.75 5.42893 5.42893 3.75 7.5 3.75ZM32.9583 7.5H31.875V18.75H13.125V7.5H7.5V37.5H11.25V22.5H33.75V37.5H37.5V12.1673L32.9583 7.5ZM16.875 15V7.5H28.125V15H16.875ZM15 26.25V37.5H30V26.25H15ZM26.25 9.375H22.5V13.125H26.25V9.375Z" fill="white"/>
</g>
</svg>
