<svg width="82" height="82" viewBox="0 0 82 82" fill="none" xmlns="http://www.w3.org/2000/svg">
<path fill-rule="evenodd" clip-rule="evenodd" d="M41.1965 2.17325e-05C31.4167 -0.0101312 21.9529 3.53746 14.5012 10.007C7.04947 16.4766 2.09691 25.4453 0.531033 35.3058C-1.03484 45.1664 0.888318 55.2742 5.95587 63.818C11.0234 72.3617 18.9041 78.783 28.1857 81.9309C30.2573 82.318 30.99 81.0019 30.99 79.8923C30.99 78.7827 30.99 76.2538 30.99 72.7443C19.495 75.299 17.0697 67.093 17.0697 67.093C16.3071 64.5498 14.687 62.3647 12.4969 60.9256C8.78317 58.3451 12.8001 58.3451 12.8001 58.3451C14.1019 58.533 15.3449 59.0209 16.4347 59.772C17.5246 60.5231 18.4329 61.5177 19.0908 62.6804C19.6498 63.7157 20.4034 64.628 21.3084 65.3651C22.2135 66.1022 23.2521 66.6494 24.3647 66.9755C25.4773 67.3016 26.642 67.4 27.7919 67.2652C28.9419 67.1304 30.0544 66.7649 31.0658 66.1899C31.2243 64.067 32.1203 62.0719 33.5922 60.5644C24.4467 59.5064 14.8465 55.8937 14.8465 39.9204C14.7837 35.7477 16.2943 31.7101 19.0655 28.6436C17.8313 25.0155 17.9755 21.0463 19.4697 17.5216C19.4697 17.5216 22.9309 16.3862 30.7879 21.8311C37.5348 19.9389 44.6562 19.9389 51.4031 21.8311C59.2601 16.3862 62.696 17.5216 62.696 17.5216C64.211 21.009 64.3913 24.9497 63.2012 28.5662C65.9725 31.6326 67.4831 35.6702 67.4203 39.8429C67.4203 55.9969 57.7948 59.5322 48.6241 60.487C49.6074 61.4966 50.3668 62.7105 50.8506 64.0461C51.3344 65.3818 51.5315 66.8082 51.4283 68.2285C51.4283 73.854 51.4283 78.3956 51.4283 79.7633C51.4283 81.131 52.161 82.189 54.2579 81.7761C63.4338 78.5451 71.1965 72.1056 76.1745 63.5951C81.1526 55.0846 83.0257 45.0508 81.4629 35.2664C79.9002 25.482 75.0021 16.5766 67.634 10.1234C60.2659 3.67024 50.902 0.0846342 41.1965 2.17325e-05Z" fill="white"/>
</svg>
