<svg width="82" height="82" viewBox="0 0 82 82" fill="none" xmlns="http://www.w3.org/2000/svg">
<path d="M64.9167 0H17.0833C7.64992 0 0 7.64992 0 17.0833V64.9167C0 74.3501 7.64992 82 17.0833 82H64.9167C74.3535 82 82 74.3501 82 64.9167V17.0833C82 7.64992 74.3535 0 64.9167 0ZM27.3333 64.9167H17.0833V27.3333H27.3333V64.9167ZM22.2083 23.001C18.9078 23.001 16.2292 20.3018 16.2292 16.974C16.2292 13.6462 18.9078 10.947 22.2083 10.947C25.5088 10.947 28.1875 13.6462 28.1875 16.974C28.1875 20.3018 25.5123 23.001 22.2083 23.001ZM68.3333 64.9167H58.0833V45.7697C58.0833 34.2623 44.4167 35.1336 44.4167 45.7697V64.9167H34.1667V27.3333H44.4167V33.3638C49.1863 24.5283 68.3333 23.8757 68.3333 41.8234V64.9167Z" fill="black"/>
</svg>
