<svg width="82" height="82" viewBox="0 0 82 82" fill="none" xmlns="http://www.w3.org/2000/svg">
<path d="M41.0001 48.2546C45.0441 48.2546 48.3225 44.9763 48.3225 40.9322C48.3225 36.8882 45.0441 33.6099 41.0001 33.6099C36.9561 33.6099 33.6777 36.8882 33.6777 40.9322C33.6777 44.9763 36.9561 48.2546 41.0001 48.2546Z" fill="#00D8FF"/>
<path fill-rule="evenodd" clip-rule="evenodd" d="M41.0001 26.0442C50.8314 26.0442 59.9644 27.4549 66.8506 29.8256C75.1476 32.682 80.2489 37.0116 80.2489 40.9321C80.2489 45.0175 74.8425 49.6172 65.9327 52.5692C59.1966 54.8009 50.3325 55.966 41.0001 55.966C31.4318 55.966 22.3712 54.8725 15.5593 52.5447C6.94092 49.5989 1.75 44.9397 1.75 40.9321C1.75 37.0434 6.62069 32.7473 14.801 29.8952C21.7129 27.4854 31.0715 26.0442 40.9988 26.0442H41.0001Z" stroke="#00D8FF" stroke-width="2.73408"/>
<path fill-rule="evenodd" clip-rule="evenodd" d="M28.0398 33.5311C32.9513 25.0146 38.7357 17.8077 44.2297 13.0266C50.8489 7.26616 57.1481 5.0102 60.5442 6.96855C64.0834 9.00951 65.367 15.9909 63.4732 25.1838C62.0428 32.1341 58.6223 40.3946 53.9601 48.479C49.1799 56.7678 43.7064 64.0704 38.2873 68.8071C31.4301 74.8014 24.8006 76.9707 21.329 74.9685C17.9602 73.0273 16.672 66.6605 18.288 58.1491C19.6535 50.9577 23.0802 42.1308 28.0382 33.5309L28.0398 33.5311Z" stroke="#00D8FF" stroke-width="2.73408"/>
<path fill-rule="evenodd" clip-rule="evenodd" d="M28.052 48.5009C23.1266 39.994 19.7732 31.3816 18.3734 24.2343C16.6885 15.6226 17.8798 9.03838 21.2728 7.07434C24.8085 5.0274 31.498 7.40188 38.5165 13.6338C43.823 18.3454 49.272 25.4328 53.9478 33.5096C58.7417 41.7903 62.3347 50.1797 63.7324 57.2401C65.501 66.1747 64.0696 73.0014 60.6011 75.0092C57.2357 76.9575 51.0772 74.8948 44.5105 69.2438C38.9621 64.4695 33.0261 57.0922 28.052 48.5007V48.5009Z" stroke="#00D8FF" stroke-width="2.73408"/>
</svg>
