<svg width="82" height="82" viewBox="0 0 82 82" fill="none" xmlns="http://www.w3.org/2000/svg">
<path d="M5.79125 41C5.79125 54.9656 13.8119 66.9966 25.5225 72.6417L8.91237 26.7397C6.98281 31.1959 5.79125 35.9519 5.79125 41ZM64.7672 39.2165C64.7672 34.9115 63.1323 31.7852 61.7947 29.561C60.0112 26.5885 58.3789 24.2131 58.3789 21.2431C58.3789 17.9759 60.9055 15.0034 64.3239 15.0034H64.7697C58.5275 9.20963 50.2096 5.79125 41 5.79125C35.1732 5.84284 29.4474 7.31806 24.321 10.0884C19.1947 12.8588 14.8234 16.8404 11.5876 21.6864H13.817C17.5326 21.6864 23.1752 21.2406 23.1752 21.2406C25.1074 21.0919 25.256 23.9132 23.4725 24.2131C23.4725 24.2131 21.5404 24.5103 19.4622 24.5103L32.2388 62.5378L39.9622 39.5112L34.4656 24.5077L30.75 24.2156C28.8179 24.067 29.1151 21.2431 30.8986 21.2431C30.8986 21.2431 36.6899 21.689 40.1082 21.689C43.8239 21.689 49.4665 21.2431 49.4665 21.2431C51.3986 21.0945 51.5472 23.9158 49.7638 24.2156C49.7638 24.2156 47.8316 24.5129 45.7534 24.5129L58.5275 62.3969L62.115 50.6606C63.6012 45.7586 64.7877 42.3428 64.7877 39.2216L64.7672 39.2165ZM41.5945 44.1186L31.0473 74.7225C34.1658 75.6143 37.5816 76.2087 41 76.2087C45.1589 76.2087 49.0206 75.44 52.7362 74.2766C52.5876 74.128 52.5876 73.9794 52.439 73.8307L41.5945 44.1186ZM71.8986 24.2156L72.1959 27.8031C72.1959 31.3906 71.6014 35.3804 69.5232 40.4311L58.8273 71.4784C69.2259 65.3873 76.3548 54.0969 76.3548 41.0256C76.2062 34.9346 74.5713 29.2894 71.8961 24.2413L71.8986 24.2156ZM41 0C18.4192 0 0 18.4192 0 41C0 63.5807 18.4192 82 41 82C63.5807 82 82 63.5807 82 41C82 18.4192 63.5807 0 41 0ZM41 80.2165C19.4596 80.2165 1.93212 62.689 1.93212 41C1.94839 30.6435 6.06968 20.7159 13.3928 13.3928C20.7159 6.06968 30.6435 1.94839 41 1.93212C51.3564 1.94839 61.2841 6.06968 68.6072 13.3928C75.9303 20.7159 80.0516 30.6435 80.0679 41C80.0679 62.689 62.5404 80.2165 41 80.2165Z" fill="black"/>
</svg>
